<?xml version="1.0" encoding="UTF-8" standalone="no"?>
<!-- Created with Inkscape (http://www.inkscape.org/) -->

<svg
   xmlns:dc="http://purl.org/dc/elements/1.1/"
   xmlns:cc="http://creativecommons.org/ns#"
   xmlns:rdf="http://www.w3.org/1999/02/22-rdf-syntax-ns#"
   xmlns:svg="http://www.w3.org/2000/svg"
   xmlns="http://www.w3.org/2000/svg"
   xmlns:xlink="http://www.w3.org/1999/xlink"
   xmlns:sodipodi="http://sodipodi.sourceforge.net/DTD/sodipodi-0.dtd"
   xmlns:inkscape="http://www.inkscape.org/namespaces/inkscape"
   version="1.1"
   id="svg2"
   xml:space="preserve"
   width="228.09163"
   height="246.32681"
   viewBox="0 0 228.09163 246.32681"
   sodipodi:docname="AODs.svg"
   inkscape:version="0.92.3 (2405546, 2018-03-11)"><metadata
     id="metadata8"><rdf:RDF><cc:Work
         rdf:about=""><dc:format>image/svg+xml</dc:format><dc:type
           rdf:resource="http://purl.org/dc/dcmitype/StillImage" /><dc:title></dc:title></cc:Work></rdf:RDF></metadata><defs
     id="defs6"><linearGradient
       inkscape:collect="always"
       id="linearGradient898"><stop
         style="stop-color:#729fcf;stop-opacity:1;"
         offset="0"
         id="stop894" /><stop
         style="stop-color:#729fcf;stop-opacity:0;"
         offset="1"
         id="stop896" /></linearGradient><linearGradient
       inkscape:collect="always"
       id="linearGradient888"><stop
         style="stop-color:#888a85;stop-opacity:1;"
         offset="0"
         id="stop884" /><stop
         style="stop-color:#888a85;stop-opacity:0;"
         offset="1"
         id="stop886" /></linearGradient><linearGradient
       inkscape:collect="always"
       id="linearGradient878"><stop
         style="stop-color:#f4f4f4;stop-opacity:1"
         offset="0"
         id="stop874" /><stop
         style="stop-color:#b9b9b9;stop-opacity:1"
         offset="1"
         id="stop876" /></linearGradient><linearGradient
       inkscape:collect="always"
       xlink:href="#linearGradient878"
       id="linearGradient880"
       x1="1573.2125"
       y1="58.984695"
       x2="2034.2789"
       y2="444.77484"
       gradientUnits="userSpaceOnUse"
       gradientTransform="translate(-38.065205,26.115324)" /><linearGradient
       inkscape:collect="always"
       xlink:href="#linearGradient888"
       id="linearGradient890"
       x1="1835.9308"
       y1="690.62775"
       x2="973.02087"
       y2="391.0062"
       gradientUnits="userSpaceOnUse"
       gradientTransform="translate(-28.970046,-45)" /><linearGradient
       inkscape:collect="always"
       xlink:href="#linearGradient898"
       id="linearGradient900"
       x1="1907.4028"
       y1="1383.4545"
       x2="884.35431"
       y2="1381.3569"
       gradientUnits="userSpaceOnUse"
       gradientTransform="matrix(0.99871212,-0.14036858,0.13147478,1.0662714,-217.15207,62.085527)" /></defs><sodipodi:namedview
     pagecolor="#ffffff"
     bordercolor="#666666"
     borderopacity="1"
     objecttolerance="10"
     gridtolerance="10"
     guidetolerance="10"
     inkscape:pageopacity="0"
     inkscape:pageshadow="2"
     inkscape:window-width="2560"
     inkscape:window-height="1375"
     id="namedview4"
     showgrid="false"
     inkscape:zoom="3.5400002"
     inkscape:cx="106.80165"
     inkscape:cy="42.466101"
     inkscape:window-x="0"
     inkscape:window-y="0"
     inkscape:window-maximized="1"
     inkscape:current-layer="g12"
     fit-margin-top="0"
     fit-margin-left="0"
     fit-margin-right="0"
     fit-margin-bottom="0" /><g
     id="g10"
     inkscape:groupmode="layer"
     inkscape:label="ink_ext_XXXXXX"
     transform="matrix(1.3333333,0,0,-1.3333333,-8.6811,303.32205)"><g
       id="g12"
       transform="scale(0.1)"><path
         d="m 696.449,1343.34 -487.5,-281.49 208.903,-120.62 487.539,281.48 z"
         style="fill:#ef2929;fill-opacity:1;fill-rule:evenodd;stroke:none"
         id="path16"
         inkscape:connector-curvature="0" /><path
         d="M 696.449,1343.34 208.949,1061.86 417.852,941.227 905.391,1222.72 Z"
         style="fill:none;stroke:#000000;stroke-width:4.53915024;stroke-linecap:butt;stroke-linejoin:miter;stroke-miterlimit:4;stroke-dasharray:none;stroke-opacity:1"
         id="path18"
         inkscape:connector-curvature="0" /><path
         d="M 417.852,941.23 V 699.98 l 487.539,281.481 v 241.249 z"
         style="fill:#a40000;fill-opacity:1;fill-rule:evenodd;stroke:none"
         id="path20"
         inkscape:connector-curvature="0" /><path
         d="M 417.852,941.227 V 699.977 L 905.391,981.469 V 1222.72 Z"
         style="fill:none;stroke:#000000;stroke-width:4.53915024;stroke-linecap:butt;stroke-linejoin:miter;stroke-miterlimit:4;stroke-dasharray:none;stroke-opacity:1"
         id="path22"
         inkscape:connector-curvature="0" /><path
         d="M 208.949,1061.85 V 820.602 L 417.852,699.98 v 241.25 z"
         style="fill:#babdb6;fill-opacity:1;fill-rule:evenodd;stroke:none"
         id="path24"
         inkscape:connector-curvature="0" /><path
         d="M 208.949,1061.86 V 820.609 L 417.852,699.977 v 241.25 z"
         style="fill:none;stroke:#000000;stroke-width:4.53915024;stroke-linecap:butt;stroke-linejoin:miter;stroke-miterlimit:4;stroke-dasharray:none;stroke-opacity:1"
         id="path26"
         inkscape:connector-curvature="0" /><path
         d="m 417.852,1182.48 v 321.68 l 208.949,120.62 V 1303.1 Z"
         style="fill:#a40000;fill-opacity:1;fill-rule:evenodd;stroke:none"
         id="path28"
         inkscape:connector-curvature="0" /><path
         d="m 417.852,1182.48 v 321.68 l 208.949,120.63 v -321.68 z"
         style="fill:none;stroke:#000000;stroke-width:4.53915024;stroke-linecap:round;stroke-linejoin:bevel;stroke-miterlimit:4;stroke-dasharray:none;stroke-opacity:1"
         id="path30"
         inkscape:connector-curvature="0" /><path
         d="m 417.852,1504.16 -208.903,120.62 208.903,120.63 208.949,-120.63 z"
         style="fill:#e6e6e6;fill-opacity:1;fill-rule:evenodd;stroke:none"
         id="path32"
         inkscape:connector-curvature="0" /><path
         d="m 417.852,1504.16 -208.903,120.63 208.903,120.62 208.949,-120.62 z"
         style="fill:none;stroke:#000000;stroke-width:4.5374999;stroke-linecap:butt;stroke-linejoin:round;stroke-miterlimit:4;stroke-dasharray:none;stroke-opacity:1"
         id="path34"
         inkscape:connector-curvature="0" /><path
         d="m 417.852,1182.48 v 321.68 l -208.903,120.62 v -562.93 z"
         style="fill:#ef2929;fill-opacity:1;fill-rule:evenodd;stroke:none"
         id="path36"
         inkscape:connector-curvature="0" /><path
         d="m 417.852,1182.48 v 321.68 l -208.903,120.63 v -562.93 z"
         style="fill:none;stroke:#000000;stroke-width:4.53915024;stroke-linecap:round;stroke-linejoin:bevel;stroke-miterlimit:4;stroke-dasharray:none;stroke-opacity:1"
         id="path38"
         inkscape:connector-curvature="0" /><path
         d="m 417.852,1182.48 v 160.86 l -208.903,120.63 v -402.11 z"
         style="fill:none;stroke:#000000;stroke-width:4.53915024;stroke-linecap:butt;stroke-linejoin:miter;stroke-miterlimit:4;stroke-dasharray:none;stroke-opacity:1"
         id="path40"
         inkscape:connector-curvature="0" /><path
         d="M 348.199,1142.28 V 1303.1 L 139.301,1423.77 V 941.23 l 69.648,-40.199 v 160.819 z"
         style="fill:#babdb6;fill-opacity:1;fill-rule:evenodd;stroke:none"
         id="path42"
         inkscape:connector-curvature="0" /><path
         d="m 348.199,1142.29 v 160.82 L 139.301,1423.77 V 941.227 l 69.648,-40.188 v 160.821 z"
         style="fill:none;stroke:#000000;stroke-width:4.53915024;stroke-linecap:round;stroke-linejoin:bevel;stroke-miterlimit:4;stroke-dasharray:none;stroke-opacity:1"
         id="path44"
         inkscape:connector-curvature="0" /><path
         d="m 139.301,1423.77 69.648,40.19 208.903,-120.62 v -160.86 l -69.653,-40.2 v 160.82 z"
         style="fill:#888a85;fill-opacity:1;fill-rule:evenodd;stroke:none"
         id="path46"
         inkscape:connector-curvature="0" /><path
         d="m 139.301,1423.77 69.648,40.2 208.903,-120.63 v -160.86 l -69.653,-40.19 v 160.82 z"
         style="fill:none;stroke:#000000;stroke-width:4.53915024;stroke-linecap:round;stroke-linejoin:bevel;stroke-miterlimit:4;stroke-dasharray:none;stroke-opacity:1"
         id="path48"
         inkscape:connector-curvature="0" /><path
         d="m 348.199,1303.11 69.653,40.23"
         style="fill:none;stroke:#000000;stroke-width:4.53915024;stroke-linecap:round;stroke-linejoin:bevel;stroke-miterlimit:4;stroke-dasharray:none;stroke-opacity:1"
         id="path50"
         inkscape:connector-curvature="0" /><path
         d="M 208.949,820.602 69.6484,901.031 139.301,941.23 208.949,901.031 Z"
         style="fill:#cccccc;fill-opacity:1;fill-rule:evenodd;stroke:none"
         id="path52"
         inkscape:connector-curvature="0" /><path
         d="m 208.949,820.609 -139.3006,80.43 69.6526,40.188 69.648,-40.188 z"
         style="fill:none;stroke:#000000;stroke-width:4.53915024;stroke-linecap:butt;stroke-linejoin:miter;stroke-miterlimit:4;stroke-dasharray:none;stroke-opacity:1"
         id="path54"
         inkscape:connector-curvature="0" /><path
         d="M 69.6484,901.031 557.148,619.551 V 539.16 L 69.6484,820.602 Z"
         style="fill:#d3d7cf;fill-opacity:1;fill-rule:evenodd;stroke:none"
         id="path56"
         inkscape:connector-curvature="0" /><path
         d="M 69.6484,901.039 557.148,619.547 V 539.156 L 69.6484,820.609 Z"
         style="fill:none;stroke:#000000;stroke-width:4.53915024;stroke-linecap:butt;stroke-linejoin:miter;stroke-miterlimit:4;stroke-dasharray:none;stroke-opacity:1"
         id="path58"
         inkscape:connector-curvature="0" /><path
         d="M 557.148,619.551 1044.65,901.031 905.391,981.461 417.852,699.98 Z"
         style="fill:#888a85;fill-opacity:1;fill-rule:evenodd;stroke:none"
         id="path60"
         inkscape:connector-curvature="0" /><path
         d="M 557.148,619.547 1044.65,901.039 905.391,981.469 417.852,699.977 Z"
         style="fill:none;stroke:#000000;stroke-width:4.53915024;stroke-linecap:butt;stroke-linejoin:miter;stroke-miterlimit:4;stroke-dasharray:none;stroke-opacity:1"
         id="path62"
         inkscape:connector-curvature="0" /><path
         d="m 557.148,539.16 v 80.391 l 487.502,281.48 v -80.429 z"
         style="fill:#555753;fill-opacity:1;fill-rule:evenodd;stroke:none"
         id="path64"
         inkscape:connector-curvature="0" /><path
         d="m 557.148,539.156 v 80.391 l 487.502,281.492 v -80.43 z"
         style="fill:none;stroke:#000000;stroke-width:4.53915024;stroke-linecap:butt;stroke-linejoin:miter;stroke-miterlimit:4;stroke-dasharray:none;stroke-opacity:1"
         id="path66"
         inkscape:connector-curvature="0" /><path
         d="M 348.199,1624.78 H 487.5 v 80.4297 H 348.199 Z"
         style="fill:#ffcc00;fill-opacity:1;fill-rule:evenodd;stroke:none"
         id="path78"
         inkscape:connector-curvature="0" /><path
         d="m 348.199,1623.54 v 80.43"
         style="fill:none;stroke:#000000;stroke-width:4.53915024;stroke-linecap:butt;stroke-linejoin:miter;stroke-miterlimit:4;stroke-dasharray:none;stroke-opacity:1"
         id="path80"
         inkscape:connector-curvature="0" /><path
         d="m 487.5,1623.54 v 80.43 z"
         style="fill:none;stroke:#000000;stroke-width:4.53915024;stroke-linecap:butt;stroke-linejoin:miter;stroke-miterlimit:4;stroke-dasharray:none;stroke-opacity:1"
         id="path82"
         inkscape:connector-curvature="0" /><path
         d="m 487.5,1627.44 c 0,-14.38 -13.281,-27.62 -34.801,-34.8 -21.57,-7.19 -48.09,-7.19 -69.648,0 -21.571,7.18 -34.852,20.42 -34.852,34.8"
         style="fill:#ffcc00;fill-opacity:1;fill-rule:nonzero;stroke:none"
         id="path84"
         inkscape:connector-curvature="0" /><path
         d="m 487.5,1627.44 c 0,-14.37 -13.281,-27.61 -34.801,-34.8 -21.57,-7.19 -48.09,-7.19 -69.648,0 -21.571,7.19 -34.852,20.43 -34.852,34.8"
         style="fill:none;stroke:#000000;stroke-width:4.53915024;stroke-linecap:butt;stroke-linejoin:miter;stroke-miterlimit:100;stroke-dasharray:none;stroke-opacity:1"
         id="path86"
         inkscape:connector-curvature="0" /><path
         d="m 487.5,1709.16 c 0,-22.23 -31.172,-40.2 -69.648,-40.2 -38.442,0 -69.653,17.97 -69.653,40.2 0,22.19 31.211,40.19 69.653,40.19 38.476,0 69.648,-18 69.648,-40.19 z"
         style="fill:#ffcc00;fill-opacity:1;fill-rule:nonzero;stroke:none"
         id="path88"
         inkscape:connector-curvature="0" /><path
         d="m 487.5,1709.16 c 0,-22.23 -31.172,-40.19 -69.648,-40.19 -38.442,0 -69.653,17.96 -69.653,40.19 0,22.19 31.211,40.2 69.653,40.2 38.476,0 69.648,-18.01 69.648,-40.2 z"
         style="fill:none;stroke:#000000;stroke-width:4.53915024;stroke-linecap:butt;stroke-linejoin:miter;stroke-miterlimit:100;stroke-dasharray:none;stroke-opacity:1"
         id="path90"
         inkscape:connector-curvature="0" /><path
         d="m 477.109,1709.16 c 0,-18.91 -26.519,-34.22 -59.257,-34.22 -32.692,0 -59.223,15.31 -59.223,34.22 0,18.87 26.531,34.18 59.223,34.18 32.738,0 59.257,-15.31 59.257,-34.18 z"
         style="fill:#f9f9f9;fill-opacity:1;fill-rule:nonzero;stroke:none"
         id="path92"
         inkscape:connector-curvature="0" /><path
         d="m 477.109,1709.16 c 0,-18.91 -26.519,-34.22 -59.257,-34.22 -32.692,0 -59.223,15.31 -59.223,34.22 0,18.87 26.531,34.18 59.223,34.18 32.738,0 59.257,-15.31 59.257,-34.18 z"
         style="fill:none;stroke:#000000;stroke-width:4.53915024;stroke-linecap:butt;stroke-linejoin:miter;stroke-miterlimit:100;stroke-dasharray:none;stroke-opacity:1"
         id="path94"
         inkscape:connector-curvature="0" /><path
         d="m 424.73,1709.16 c 0,-1.3291 4.04077,-23.0079 1.32155,-32.247 -1.76138,-5.9846 -10.08664,-1.1392 -11.57614,-1.1392 -3.793,0 -3.45541,31.1962 -3.45541,33.3862 0,2.19 3.039,3.94 6.832,3.94 3.789,0 6.878,-1.75 6.878,-3.94 z"
         style="fill:#ffcc00;fill-opacity:1;fill-rule:nonzero;stroke:none"
         id="path96"
         inkscape:connector-curvature="0"
         sodipodi:nodetypes="ssssss" /><path
         d="m 425.25966,1710.3517 c 0,-1.2394 1.34237,-34.1977 -0.49905,-34.5691 -1.41239,-0.2849 -14.41195,-1.5749 -14.32386,0.068 0.37505,6.9929 0.19219,32.2597 0.0536,34.8327 -0.1178,2.1868 3.56866,2.4272 7.36166,2.4272 3.789,0 7.40766,-0.5683 7.40766,-2.7583 z"
         style="fill:none;stroke:#000000;stroke-width:4.53915024;stroke-linecap:butt;stroke-linejoin:miter;stroke-miterlimit:100;stroke-dasharray:none;stroke-opacity:1"
         id="path98"
         inkscape:connector-curvature="0"
         sodipodi:nodetypes="ssssss" /><path
         d="M 368.30491,834.97127 289.51329,949.82515 223.19828,904.32936 301.99009,789.4745 Z"
         style="fill:#ffcc00;fill-opacity:1;fill-rule:evenodd;stroke:none"
         id="path100"
         inkscape:connector-curvature="0" /><path
         d="M 369.32807,835.68971 303.01305,790.19393"
         style="fill:#ffd42a;fill-opacity:1;fill-rule:evenodd;stroke:none"
         id="path102"
         inkscape:connector-curvature="0" /><path
         d="M 369.32097,835.68427 303.01065,790.18531"
         style="fill:none;stroke:#000000;stroke-width:4.53915977;stroke-linecap:butt;stroke-linejoin:miter;stroke-miterlimit:4;stroke-dasharray:none;stroke-opacity:1"
         id="path104"
         inkscape:connector-curvature="0" /><path
         d="M 290.52447,950.54229 224.20965,905.04552 Z"
         style="fill:#ffd42a;fill-opacity:1;fill-rule:evenodd;stroke:none"
         id="path106"
         inkscape:connector-curvature="0" /><path
         d="M 290.52916,950.53913 224.20629,905.04182 Z"
         style="fill:none;stroke:#000000;stroke-width:4.53915977;stroke-linecap:butt;stroke-linejoin:miter;stroke-miterlimit:4;stroke-dasharray:none;stroke-opacity:1"
         id="path108"
         inkscape:connector-curvature="0" /><path
         d="m 287.32718,948.33168 c 11.83747,8.13887 30.28785,4.69912 48.41568,-9.01804 18.08805,-13.68005 33.11708,-35.60736 39.40356,-57.42748 6.25059,-21.81892 2.82164,-40.26721 -9.01431,-48.41394"
         style="fill:#ffcc00;fill-opacity:1;fill-rule:nonzero;stroke:none"
         id="path110"
         inkscape:connector-curvature="0" /><path
         d="m 287.325,948.32718 c 11.84415,8.14118 30.28794,4.71442 48.41634,-9.00569 18.09426,-13.69106 33.11784,-35.61128 39.40039,-57.43217 6.25604,-21.826 2.81923,-40.27582 -9.00962,-48.4171"
         style="fill:none;stroke:#000000;stroke-width:4.53915977;stroke-linecap:butt;stroke-linejoin:miter;stroke-miterlimit:100;stroke-dasharray:none;stroke-opacity:1"
         id="path112"
         inkscape:connector-curvature="0" /><path
         d="m 219.959,902.11469 c 18.29603,12.57148 50.78501,-2.94945 72.55726,-34.65994 21.73174,-31.7275 24.5437,-67.62804 6.24516,-80.19184 -18.33357,-12.58281 -50.82843,2.96855 -72.55998,34.69507 -21.7732,31.7154 -24.57307,67.57448 -6.24244,80.15671 z"
         style="fill:#ffcc00;fill-opacity:1;fill-rule:nonzero;stroke:none"
         id="path114"
         inkscape:connector-curvature="0" /><path
         d="m 219.959,902.11469 c 18.30072,12.56831 50.78349,-2.9416 72.5565,-34.65602 21.73937,-31.73009 24.54294,-67.6241 6.24668,-80.19969 -18.3304,-12.57812 -50.82308,2.97774 -72.5615,34.70292 -21.77485,31.70287 -24.57699,67.57372 -6.24168,80.15279 z"
         style="fill:none;stroke:#000000;stroke-width:4.53915977;stroke-linecap:butt;stroke-linejoin:miter;stroke-miterlimit:100;stroke-dasharray:none;stroke-opacity:1"
         id="path116"
         inkscape:connector-curvature="0" /><path
         d="m 225.83415,893.54369 c 15.57303,10.65225 43.22935,-2.53317 61.7298,-29.50999 18.47395,-26.98195 20.87617,-57.51152 5.27662,-68.1689 -15.55384,-10.68827 -43.17187,2.50456 -61.68411,29.4791 -18.50831,26.9753 -20.87616,57.51152 -5.32231,68.19979 z"
         style="fill:#eeeeec;fill-opacity:1;fill-rule:nonzero;stroke:none"
         id="path118"
         inkscape:connector-curvature="0" /><path
         d="m 255.48442,850.33842 c 1.78862,1.221 29.36292,18.74663 31.50814,15.66095 2.11279,-3.12861 -21.96075,-25.75001 -23.75036,-26.97121 -1.83084,-1.22917 -5.02761,0.30041 -7.15351,3.43362 -2.1526,3.12907 -2.43609,6.64727 -0.60427,7.87664 z"
         style="fill:#ffcc00;fill-opacity:1;fill-rule:nonzero;stroke:none"
         id="path122"
         inkscape:connector-curvature="0"
         sodipodi:nodetypes="ccccc" /><path
         d="m 225.83807,893.54445 c 15.56835,10.65542 43.2215,-2.53469 61.72588,-29.51075 18.47471,-26.98587 20.88063,-57.5188 5.27346,-68.17359 -15.55777,-10.68903 -43.17112,2.50064 -61.68563,29.48696 -18.50438,26.97606 -20.87518,57.51171 -5.31371,68.19738 z"
         style="fill:none;stroke:#000000;stroke-width:4.53915977;stroke-linecap:butt;stroke-linejoin:miter;stroke-miterlimit:100;stroke-dasharray:none;stroke-opacity:1"
         id="path120"
         inkscape:connector-curvature="0" /><path
         d="m 255.48661,850.34291 c 7.22831,4.46703 21.47742,13.0617 26.31845,16.43339 2.39623,1.66894 8.56138,-3.47407 6.6604,-5.69073 -5.53326,-6.45214 -17.33598,-14.8982 -25.22009,-22.05272 -1.83793,-1.23462 -5.0323,0.30358 -7.14826,3.42751 -2.16102,3.13049 -2.4492,6.65186 -0.6105,7.88255 z"
         style="fill:none;stroke:#000000;stroke-width:4.53915977;stroke-linecap:butt;stroke-linejoin:miter;stroke-miterlimit:100;stroke-dasharray:none;stroke-opacity:1"
         id="path124"
         inkscape:connector-curvature="0"
         sodipodi:nodetypes="cssccc" /><ellipse
         style="opacity:1;fill:#e6e6e6;fill-opacity:1;fill-rule:nonzero;stroke:#000000;stroke-width:4.65700483;stroke-linecap:round;stroke-linejoin:bevel;stroke-miterlimit:4;stroke-dasharray:none;stroke-dashoffset:0;stroke-opacity:1;paint-order:markers fill stroke"
         id="path1158"
         cx="700.7345"
         cy="-849.89197"
         transform="matrix(0.97483289,0.22293684,-0.09471189,-0.99550473,0,0)"
         rx="71.5961"
         ry="67.96875" /><path
         style="opacity:1;fill:#a6c2e0;fill-opacity:1;fill-rule:nonzero;stroke:none;stroke-width:4.21430683;stroke-linecap:round;stroke-linejoin:bevel;stroke-miterlimit:4;stroke-dasharray:none;stroke-dashoffset:0;stroke-opacity:1;paint-order:markers fill stroke"
         d="m 825.03358,1016.7519 c -3.31137,-34.6101 -35.09977,-69.28576 -71.00138,-77.45012 -35.9016,-8.16435 -62.3212,12.94274 -58.01546,49.21022 4.09895,34.5257 37.41997,70.943 73.32156,79.1073 35.90161,8.1644 59.00665,-16.2572 55.69528,-50.8674 z"
         id="ellipse1160"
         inkscape:connector-curvature="0"
         sodipodi:nodetypes="sssss" /><ellipse
         style="opacity:1;fill:#729fcf;fill-opacity:1;fill-rule:nonzero;stroke:none;stroke-width:23.42381859;stroke-linecap:round;stroke-linejoin:miter;stroke-miterlimit:4;stroke-dasharray:none;stroke-dashoffset:0;stroke-opacity:0.91769547;paint-order:markers fill stroke"
         id="path868"
         cx="1156.9547"
         cy="-1719.5995"
         transform="matrix(0.97070403,-0.24027835,-0.21221055,-0.97722397,0,0)"
         rx="295.56445"
         ry="107.89141" /><path
         style="fill:url(#linearGradient890);fill-opacity:1;fill-rule:evenodd;stroke:#000000;stroke-width:3.75;stroke-linecap:butt;stroke-linejoin:miter;stroke-miterlimit:4;stroke-dasharray:none;stroke-opacity:1"
         d="m 1266.0508,516.97046 v -63.55928 c 41.0997,-86.88105 391.1797,76.88364 463.1432,245.03314 l -0.2195,77.26559"
         id="path882"
         inkscape:connector-curvature="0"
         sodipodi:nodetypes="cccc" /><ellipse
         style="opacity:1;fill:url(#linearGradient880);fill-opacity:1;fill-rule:nonzero;stroke:#000000;stroke-width:3.83816099;stroke-linecap:round;stroke-linejoin:miter;stroke-miterlimit:4;stroke-dasharray:none;stroke-dashoffset:0;stroke-opacity:1;paint-order:markers fill stroke"
         id="path870"
         cx="1702.7808"
         cy="206.86127"
         transform="matrix(0.86572663,0.50051713,0.11311603,-0.99358179,0,0)"
         rx="267.26151"
         ry="104.8886" /><path
         style="fill:none;fill-rule:evenodd;stroke:#f57900;stroke-width:7.5px;stroke-linecap:butt;stroke-linejoin:miter;stroke-opacity:1"
         d="M 1364.0678,2274.9154 V 1430.8616 L 1442.4576,666.03105 756.01697,997.373 1535.6779,690.16961 1654.322,1358.8459 v 758.4746"
         id="path872"
         inkscape:connector-curvature="0"
         sodipodi:nodetypes="ccccccc" /><path
         style="fill:url(#linearGradient900);fill-opacity:1;fill-rule:evenodd;stroke:none;stroke-width:7.80631876px;stroke-linecap:butt;stroke-linejoin:miter;stroke-opacity:1"
         d="m 1201.1095,1473.7874 2.8768,-73.4274 c 124.426,-183.0405 441.8813,-185.068 570.3257,-138.1956 l 0.067,64.4025"
         id="path892"
         inkscape:connector-curvature="0"
         sodipodi:nodetypes="cccc" /></g></g></svg>