<?xml version="1.0" encoding="utf-8" standalone="no"?>
<!DOCTYPE svg PUBLIC "-//W3C//DTD SVG 1.1//EN"
  "http://www.w3.org/Graphics/SVG/1.1/DTD/svg11.dtd">
<!-- Created with matplotlib (https://matplotlib.org/) -->
<svg height="345.6pt" version="1.1" viewBox="0 0 460.8 345.6" width="460.8pt" xmlns="http://www.w3.org/2000/svg" xmlns:xlink="http://www.w3.org/1999/xlink">
 <metadata>
  <rdf:RDF xmlns:cc="http://creativecommons.org/ns#" xmlns:dc="http://purl.org/dc/elements/1.1/" xmlns:rdf="http://www.w3.org/1999/02/22-rdf-syntax-ns#">
   <cc:Work>
    <dc:type rdf:resource="http://purl.org/dc/dcmitype/StillImage"/>
    <dc:date>2020-09-08T15:16:14.666228</dc:date>
    <dc:format>image/svg+xml</dc:format>
    <dc:creator>
     <cc:Agent>
      <dc:title>Matplotlib v3.3.0, https://matplotlib.org/</dc:title>
     </cc:Agent>
    </dc:creator>
   </cc:Work>
  </rdf:RDF>
 </metadata>
 <defs>
  <style type="text/css">*{stroke-linecap:butt;stroke-linejoin:round;}</style>
 </defs>
 <g id="figure_1">
  <g id="patch_1">
   <path d="M 0 345.6 
L 460.8 345.6 
L 460.8 0 
L 0 0 
z
" style="fill:#ffffff;"/>
  </g>
  <g id="axes_1">
   <g id="patch_2">
    <path d="M 65.405966 290.344872 
L 445.68 290.344872 
L 445.68 15.12 
L 65.405966 15.12 
z
" style="fill:#ffffff;"/>
   </g>
   <g id="matplotlib.axis_1">
    <g id="xtick_1">
     <g id="line2d_1">
      <defs>
       <path d="M 0 0 
L 0 3.5 
" id="ma100bebf4b" style="stroke:#000000;stroke-width:0.8;"/>
      </defs>
      <g>
       <use style="stroke:#000000;stroke-width:0.8;" x="82.69115" xlink:href="#ma100bebf4b" y="290.344872"/>
      </g>
     </g>
     <g id="text_1">
      <!-- $\mathdefault{900}$ -->
      <g transform="translate(72.230377 307.030748)scale(0.14 -0.14)">
       <defs>
        <path d="M 9.59375 -1.65625 
C 20.703125 1.953125 25.5 4.25 30.90625 8.84375 
C 40.59375 17.15625 45.703125 28.671875 45.703125 42.078125 
C 45.703125 59 37.59375 69.296875 24.40625 69.296875 
C 11.59375 69.296875 2 59.296875 2 45.90625 
C 2 34.390625 9.5 26 19.90625 26 
C 23.296875 26 27.203125 27.09375 29 28.59375 
L 36 34.40625 
C 35.203125 17.578125 24.296875 5.25 6.203125 0.84375 
L 6.203125 0.046875 
z
M 24 66 
C 28.5 66 31.796875 64.09375 34 60.09375 
C 35.796875 56.890625 37 52 37 47.5 
C 37 38.296875 31.703125 32.109375 24 32.109375 
C 16 32.109375 10.59375 39.203125 10.59375 49.59375 
C 10.59375 59.703125 15.796875 66 24 66 
z
" id="URW_Palladio_L_Roman-57"/>
        <path d="M 26.296875 69 
C 10.796875 69 2.90625 56.6875 2.90625 32.453125 
C 2.90625 20.71875 5 10.625 8.5 5.71875 
C 12 0.796875 17.59375 -2 23.796875 -2 
C 38.90625 -2 46.5 11.015625 46.5 36.65625 
C 46.5 58.578125 40 69 26.296875 69 
z
M 24.5 65.5 
C 34.203125 65.5 38.09375 55.6875 38.09375 31.640625 
C 38.09375 10.328125 34.296875 1.5 25.09375 1.5 
C 15.40625 1.5 11.296875 11.625 11.296875 36.0625 
C 11.296875 57.1875 15 65.5 24.5 65.5 
z
" id="URW_Palladio_L_Roman-48"/>
       </defs>
       <use transform="scale(0.996264)" xlink:href="#URW_Palladio_L_Roman-57"/>
       <use transform="translate(49.8132 0)scale(0.996264)" xlink:href="#URW_Palladio_L_Roman-48"/>
       <use transform="translate(99.626401 0)scale(0.996264)" xlink:href="#URW_Palladio_L_Roman-48"/>
      </g>
     </g>
    </g>
    <g id="xtick_2">
     <g id="line2d_2">
      <g>
       <use style="stroke:#000000;stroke-width:0.8;" x="140.308427" xlink:href="#ma100bebf4b" y="290.344872"/>
      </g>
     </g>
     <g id="text_2">
      <!-- $\mathdefault{910}$ -->
      <g transform="translate(129.847655 307.030748)scale(0.14 -0.14)">
       <defs>
        <path d="M 6.703125 56 
L 7.703125 56 
L 20.59375 61.8125 
C 20.703125 61.90625 20.796875 61.90625 20.90625 61.90625 
C 21.5 61.90625 21.703125 61.015625 21.703125 58.609375 
L 21.703125 9.578125 
C 21.703125 4.3125 20.59375 3.203125 15.203125 3.203125 
L 9.59375 3.203125 
L 9.59375 0 
C 25 0 25 0 26.09375 0 
C 27.40625 0 29.59375 0 33 0 
C 34.203125 0 37.703125 0 41.796875 0 
L 41.796875 3.203125 
L 36.59375 3.203125 
C 31.09375 3.203125 30.09375 4.3125 30.09375 9.5625 
L 30.09375 69.421875 
L 28.703125 69.921875 
C 22.203125 66.515625 15.09375 63.515625 6 60.3125 
z
" id="URW_Palladio_L_Roman-49"/>
       </defs>
       <use transform="scale(0.996264)" xlink:href="#URW_Palladio_L_Roman-57"/>
       <use transform="translate(49.8132 0)scale(0.996264)" xlink:href="#URW_Palladio_L_Roman-49"/>
       <use transform="translate(99.626401 0)scale(0.996264)" xlink:href="#URW_Palladio_L_Roman-48"/>
      </g>
     </g>
    </g>
    <g id="xtick_3">
     <g id="line2d_3">
      <g>
       <use style="stroke:#000000;stroke-width:0.8;" x="197.925705" xlink:href="#ma100bebf4b" y="290.344872"/>
      </g>
     </g>
     <g id="text_3">
      <!-- $\mathdefault{920}$ -->
      <g transform="translate(187.464933 307.030748)scale(0.14 -0.14)">
       <defs>
        <path d="M 1.59375 2.5 
L 1.59375 0 
C 20.296875 0 20.296875 0 23.90625 0 
C 27.5 0 27.5 0 46.796875 0 
C 46.59375 1.953125 46.59375 2.90625 46.59375 4.203125 
C 46.59375 5.4375 46.59375 6.359375 46.796875 8.421875 
C 35.296875 8.421875 30.703125 8.421875 12.203125 8.421875 
L 30.40625 27.515625 
C 40.09375 37.71875 43.09375 43.171875 43.09375 50.59375 
C 43.09375 61.96875 35.296875 69 22.59375 69 
C 15.40625 69 10.5 67 5.59375 62.015625 
L 3.90625 48.421875 
L 6.796875 48.421875 
L 8.09375 53.015625 
C 9.703125 58.796875 13.296875 61.296875 20 61.296875 
C 28.59375 61.296875 34.09375 55.890625 34.09375 47.421875 
C 34.09375 39.921875 29.90625 32.546875 18.59375 20.5625 
z
" id="URW_Palladio_L_Roman-50"/>
       </defs>
       <use transform="scale(0.996264)" xlink:href="#URW_Palladio_L_Roman-57"/>
       <use transform="translate(49.8132 0)scale(0.996264)" xlink:href="#URW_Palladio_L_Roman-50"/>
       <use transform="translate(99.626401 0)scale(0.996264)" xlink:href="#URW_Palladio_L_Roman-48"/>
      </g>
     </g>
    </g>
    <g id="xtick_4">
     <g id="line2d_4">
      <g>
       <use style="stroke:#000000;stroke-width:0.8;" x="255.542983" xlink:href="#ma100bebf4b" y="290.344872"/>
      </g>
     </g>
     <g id="text_4">
      <!-- $\mathdefault{930}$ -->
      <g transform="translate(245.082211 307.030748)scale(0.14 -0.14)">
       <defs>
        <path d="M 4.296875 49.953125 
L 7.40625 49.953125 
L 9.203125 55.53125 
C 10.296875 58.90625 16.59375 62.296875 21.796875 62.296875 
C 28.296875 62.296875 33.59375 57.015625 33.59375 50.75 
C 33.59375 43.28125 27.703125 37 20.59375 37 
C 19.796875 37 18.703125 37 17.40625 37.203125 
L 15.90625 37.203125 
L 14.703125 31.984375 
L 15.40625 31.375 
C 19.203125 33.09375 21.09375 33.59375 23.796875 33.59375 
C 32.09375 33.59375 36.90625 28.265625 36.90625 19.09375 
C 36.90625 8.84375 30.796875 2.109375 21.5 2.109375 
C 16.90625 2.109375 12.796875 3.609375 9.796875 6.421875 
C 7.40625 8.640625 6.09375 10.953125 4.203125 16.390625 
L 1.5 15.390625 
C 3.59375 9.265625 4.40625 5.640625 5 0.609375 
C 10.296875 -1.203125 14.703125 -2 18.40625 -2 
C 26.40625 -2 35.59375 2.515625 41.09375 9.265625 
C 44.5 13.390625 46.203125 17.8125 46.203125 22.53125 
C 46.203125 27.359375 44.203125 31.59375 40.59375 34.09375 
C 38.09375 35.90625 35.796875 36.71875 30.796875 37.609375 
C 38.796875 43.796875 41.796875 48.375 41.796875 54.25 
C 41.796875 63.125 34.40625 69 23.296875 69 
C 16.5 69 12 67.109375 7.203125 62.328125 
z
" id="URW_Palladio_L_Roman-51"/>
       </defs>
       <use transform="scale(0.996264)" xlink:href="#URW_Palladio_L_Roman-57"/>
       <use transform="translate(49.8132 0)scale(0.996264)" xlink:href="#URW_Palladio_L_Roman-51"/>
       <use transform="translate(99.626401 0)scale(0.996264)" xlink:href="#URW_Palladio_L_Roman-48"/>
      </g>
     </g>
    </g>
    <g id="xtick_5">
     <g id="line2d_5">
      <g>
       <use style="stroke:#000000;stroke-width:0.8;" x="313.160261" xlink:href="#ma100bebf4b" y="290.344872"/>
      </g>
     </g>
     <g id="text_5">
      <!-- $\mathdefault{940}$ -->
      <g transform="translate(302.699489 307.030748)scale(0.14 -0.14)">
       <defs>
        <path d="M 28 18 
L 28 10.515625 
C 28 4.515625 26.90625 3.109375 22 3.109375 
L 15.796875 3.109375 
L 15.796875 0 
C 29.09375 0 29.09375 0 31.5 0 
C 33.90625 0 33.90625 0 47.203125 0 
L 47.203125 3.109375 
L 42.40625 3.109375 
C 37.5 3.109375 36.40625 4.40625 36.40625 10.453125 
L 36.40625 18 
C 42.296875 18 44.40625 18 47.203125 17.703125 
L 47.203125 24.8125 
C 42.5 24.421875 40.59375 24.421875 39.09375 24.421875 
L 38.796875 24.421875 
L 36.40625 24.421875 
L 36.40625 38.390625 
C 36.40625 56.25 36.59375 64.875 37.09375 69 
L 35.90625 69.5 
L 28.5 66.796875 
L 0.203125 20.296875 
L 1.296875 18 
z
M 28 24.421875 
L 6.5 24.421875 
L 28 59.78125 
z
" id="URW_Palladio_L_Roman-52"/>
       </defs>
       <use transform="scale(0.996264)" xlink:href="#URW_Palladio_L_Roman-57"/>
       <use transform="translate(49.8132 0)scale(0.996264)" xlink:href="#URW_Palladio_L_Roman-52"/>
       <use transform="translate(99.626401 0)scale(0.996264)" xlink:href="#URW_Palladio_L_Roman-48"/>
      </g>
     </g>
    </g>
    <g id="xtick_6">
     <g id="line2d_6">
      <g>
       <use style="stroke:#000000;stroke-width:0.8;" x="370.777539" xlink:href="#ma100bebf4b" y="290.344872"/>
      </g>
     </g>
     <g id="text_6">
      <!-- $\mathdefault{950}$ -->
      <g transform="translate(360.316767 307.030748)scale(0.14 -0.14)">
       <defs>
        <path d="M 12.703125 60.578125 
C 25.59375 60.578125 31.203125 60.578125 43.203125 60.578125 
L 43.703125 61.046875 
C 43.5 62.75 43.5 63.5 43.5 64.75 
C 43.5 66.078125 43.5 66.828125 43.703125 68.53125 
L 43.203125 69 
C 35.703125 69 31.203125 69 25.796875 69 
C 20.296875 69 15.90625 69 8.40625 69 
L 7.90625 68.796875 
C 8 62.671875 8.09375 58.265625 8.09375 55.046875 
C 8.09375 46.515625 7.796875 36.875 7.5 32.453125 
L 9.5 31.84375 
C 14.203125 36.578125 16.90625 38 21.796875 38 
C 31.40625 38 37.40625 31.140625 37.40625 20.25 
C 37.40625 9.0625 31 2.5 20.09375 2.5 
C 14.703125 2.5 9.703125 4.328125 8.296875 6.9375 
L 3.703125 15.203125 
L 1.296875 13.796875 
C 3.59375 8.0625 4.796875 4.84375 6.203125 0.421875 
C 9 -1.109375 13 -2 17.296875 -2 
C 24 -2 31.09375 0.921875 36.59375 5.75 
C 42.703125 11.1875 45.90625 18.03125 45.90625 25.46875 
C 45.90625 36.859375 37.796875 44.90625 26.40625 44.90625 
C 21.59375 44.90625 18 43.609375 11.796875 39.90625 
z
" id="URW_Palladio_L_Roman-53"/>
       </defs>
       <use transform="scale(0.996264)" xlink:href="#URW_Palladio_L_Roman-57"/>
       <use transform="translate(49.8132 0)scale(0.996264)" xlink:href="#URW_Palladio_L_Roman-53"/>
       <use transform="translate(99.626401 0)scale(0.996264)" xlink:href="#URW_Palladio_L_Roman-48"/>
      </g>
     </g>
    </g>
    <g id="xtick_7">
     <g id="line2d_7">
      <g>
       <use style="stroke:#000000;stroke-width:0.8;" x="428.394817" xlink:href="#ma100bebf4b" y="290.344872"/>
      </g>
     </g>
     <g id="text_7">
      <!-- $\mathdefault{960}$ -->
      <g transform="translate(417.934045 307.030748)scale(0.14 -0.14)">
       <defs>
        <path d="M 41.59375 67.34375 
L 37.90625 69.046875 
C 28.296875 65.84375 24.203125 63.84375 19.09375 59.4375 
C 8.796875 50.71875 3.203125 38.5 3.203125 24.765625 
C 3.203125 8.21875 11.203125 -2 24.09375 -2 
C 37.09375 -2 46.796875 8.3125 46.796875 21.953125 
C 46.796875 33.484375 39.90625 41 29.296875 41 
C 24.296875 41 21.296875 39.6875 15.40625 34.984375 
C 14.296875 34.078125 14.203125 33.984375 13.09375 33.1875 
C 15.203125 51.3125 23.59375 61.140625 41.59375 66.546875 
z
M 25.5 34.984375 
C 33.09375 34.984375 38.203125 28.375 38.203125 18.453125 
C 38.203125 8.015625 33.09375 1.296875 25.40625 1.296875 
C 16.90625 1.296875 12.296875 8.609375 12.296875 22.0625 
C 12.296875 25.5625 12.703125 27.46875 13.796875 29.171875 
C 16 32.578125 20.703125 34.984375 25.5 34.984375 
z
" id="URW_Palladio_L_Roman-54"/>
       </defs>
       <use transform="scale(0.996264)" xlink:href="#URW_Palladio_L_Roman-57"/>
       <use transform="translate(49.8132 0)scale(0.996264)" xlink:href="#URW_Palladio_L_Roman-54"/>
       <use transform="translate(99.626401 0)scale(0.996264)" xlink:href="#URW_Palladio_L_Roman-48"/>
      </g>
     </g>
    </g>
    <g id="text_8">
     <!-- Magnetic Field [G] -->
     <g transform="translate(192.023567 326.295694)scale(0.168 -0.168)">
      <defs>
       <path d="M 49.90625 37.046875 
L 45.09375 23.015625 
C 44.296875 20.421875 41.59375 12.359375 41 9.171875 
L 40.90625 9.171875 
C 40.59375 11.171875 40 13.265625 38.40625 18.34375 
C 37.5 21.328125 36.5 24.40625 35.5 27.203125 
L 20.703125 69 
L 9 69 
L 9 0 
L 16.796875 0 
L 16.796875 60.9375 
L 16.90625 60.9375 
C 16.90625 60.84375 17.796875 56.453125 23.90625 39.046875 
L 37.09375 1.5 
L 44.5 1.5 
L 56.40625 34.859375 
C 57.203125 37.15625 59.703125 44.421875 60.796875 47.90625 
C 61.796875 50.890625 64.296875 58.25 64.90625 61.140625 
L 65 61.140625 
L 65 0 
L 72.90625 0 
L 72.90625 69 
L 61.296875 69 
z
" id="CMSS17-77"/>
       <path d="M 37.59375 27.984375 
C 37.59375 37.375 30.90625 43.875 21.90625 43.875 
C 17.5 43.875 12.703125 43.078125 7.203125 39.890625 
L 7.796875 33.359375 
C 10.296875 35.125 14.59375 38 21.796875 38 
C 26.90625 38 30 34.0625 30 27.84375 
L 30 24 
C 14 24 4 19.34375 4 11.34375 
C 4 7.203125 6.5 -1 14.796875 -1 
C 16.296875 -1 24.40625 -1 30.203125 3.390625 
L 30.203125 -0.296875 
L 37.59375 -0.296875 
z
M 30 12.75 
C 30 10.953125 30 8.5625 27 6.78125 
C 24.40625 5.078125 21.09375 5.078125 19.703125 5.078125 
C 14.703125 5.078125 11.296875 7.984375 11.296875 11.625 
C 11.296875 18.921875 26.90625 18.921875 30 18.921875 
z
" id="CMSS17-97"/>
       <path d="M 44.5 43.875 
C 38.796875 43.875 33.90625 42.78125 29.90625 40.890625 
C 26.59375 43.390625 23.203125 43.875 20.90625 43.875 
C 12.203125 43.875 5.59375 36.703125 5.59375 28.34375 
C 5.59375 22.9375 8.59375 18.859375 8.796875 18.671875 
C 7 16.171875 6 13.484375 6 10.5 
C 6 7 7.40625 4.515625 8.5 3.125 
C 3.296875 -0.046875 2.59375 -4.90625 2.59375 -6.796875 
C 2.59375 -14.03125 11.703125 -20 23.40625 -20 
C 35.203125 -20 44.296875 -14.03125 44.296875 -6.6875 
C 44.296875 7 29 7 24.796875 7 
L 16.703125 7 
C 15.203125 7 11.203125 7 11.203125 12.359375 
C 11.203125 14.390625 12.09375 15.6875 12.203125 15.78125 
C 13.703125 14.6875 16.796875 13 20.90625 13 
C 29.203125 13 36.09375 19.96875 36.09375 28.546875 
C 36.09375 33.3125 33.90625 36.796875 33 38 
L 33.296875 38 
C 33.59375 38 37.796875 38 39.296875 38 
C 42.5 38 42.796875 37.953125 45.59375 37.796875 
z
M 20.90625 18.46875 
C 17.5 18.46875 12.703125 20.546875 12.703125 28.484375 
C 12.703125 37.109375 18.203125 38.5 20.796875 38.5 
C 24.203125 38.5 29 36.421875 29 28.484375 
C 29 19.859375 23.5 18.46875 20.90625 18.46875 
z
M 24.703125 -0.15625 
C 27.09375 -0.15625 37.203125 -0.15625 37.203125 -6.90625 
C 37.203125 -11.15625 31 -14.515625 23.5 -14.515625 
C 15.90625 -14.515625 9.703125 -11.25 9.703125 -6.796875 
C 9.703125 -6.296875 9.703125 -0.15625 16.59375 -0.15625 
z
" id="CMSS17-103"/>
       <path d="M 40.90625 29.328125 
C 40.90625 35.671875 39.40625 44 28.09375 44 
C 21.703125 44 17.5 40.71875 14.703125 37.328125 
L 14.703125 43.09375 
L 7.40625 43.09375 
L 7.40625 0 
L 15 0 
L 15 24.359375 
C 15 30.6875 17.40625 37.9375 24.203125 37.9375 
C 33 37.9375 33.296875 32 33.296875 28.578125 
L 33.296875 0 
L 40.90625 0 
z
" id="CMSS17-110"/>
       <path d="M 39.09375 21.515625 
C 39.09375 24.84375 38.90625 31.296875 35.703125 36.640625 
C 32.203125 42.390625 26.5 44 22.203125 44 
C 11.796875 44 3 34.1875 3 21.484375 
C 3 9.09375 12.09375 -1 23.59375 -1 
C 28.09375 -1 33.59375 0.296875 38.59375 3.875 
C 38.59375 4.28125 38.40625 6.46875 38.296875 6.5625 
C 38.296875 6.765625 38 9.84375 38 10.25 
C 33.203125 6.359375 27.703125 5.078125 23.703125 5.078125 
C 17.296875 5.078125 10.40625 10.421875 10.09375 21.515625 
z
M 10.90625 27 
C 12.203125 32.5625 16.59375 37.828125 22.203125 37.828125 
C 23.703125 37.828125 30.703125 37.828125 32.5 27 
z
" id="CMSS17-101"/>
       <path d="M 16.703125 37 
L 29.703125 37 
L 29.703125 42.765625 
L 16.703125 42.765625 
L 16.703125 55 
L 9.59375 55 
L 9.59375 42.765625 
L 1.703125 42.765625 
L 1.703125 37 
L 9.40625 37 
L 9.40625 11.703125 
C 9.40625 6 10.703125 -1 17.296875 -1 
C 22.296875 -1 26.90625 0.390625 31.296875 2.6875 
L 29.703125 8.5625 
C 27.296875 6.46875 24.40625 5.265625 21.296875 5.265625 
C 16.90625 5.265625 16.703125 10.875 16.703125 13.375 
z
" id="CMSS17-116"/>
       <path d="M 15.296875 65.359375 
L 6.90625 65.359375 
L 6.90625 57 
L 15.296875 57 
z
M 14.796875 42.796875 
L 7.40625 42.796875 
L 7.40625 0 
L 14.796875 0 
z
" id="CMSS17-105"/>
       <path d="M 38.5 39.703125 
C 38.5 40.390625 33.90625 42.40625 32.703125 42.796875 
C 29.40625 44 25.203125 44 24.09375 44 
C 11.09375 44 3.296875 32.703125 3.296875 21.296875 
C 3.296875 9.296875 12 -1 23.703125 -1 
C 30.40625 -1 35.203125 1.1875 39.09375 3.78125 
L 38.5 10.375 
C 34.203125 7.078125 29.203125 5.265625 23.796875 5.265625 
C 16 5.265625 10.90625 12.09375 10.90625 21.390625 
C 10.90625 28.609375 14.203125 37.71875 24.203125 37.71875 
C 29.703125 37.71875 32.796875 36.609375 37.40625 33.515625 
z
" id="CMSS17-99"/>
       <path d="M 45.59375 31 
L 45.59375 37.078125 
L 17.203125 37.078125 
L 17.203125 62 
L 29.40625 62 
C 30.59375 62 31.796875 62 33 62 
L 49.5 62 
L 49.5 68.359375 
L 8.796875 68.359375 
L 8.796875 -0.5 
L 17.203125 -0.5 
L 17.203125 31 
z
" id="CMSS17-70"/>
       <path d="M 14.796875 69 
L 7.40625 69 
L 7.40625 0 
L 14.796875 0 
z
" id="CMSS17-108"/>
       <path d="M 40.796875 69 
L 33.40625 69 
L 33.40625 38.09375 
C 30.296875 40.671875 25.203125 43.0625 19.59375 43.0625 
C 10.5 43.0625 3.296875 33.296875 3.296875 21.046875 
C 3.296875 8.78125 10.40625 -1 19.296875 -1 
C 26.203125 -1 30.796875 2.6875 33.203125 4.78125 
L 33.203125 -0.203125 
L 40.796875 -0.203125 
z
M 33.203125 13.0625 
C 33.203125 11.671875 33.203125 10.203125 30.09375 7.53125 
C 28.09375 5.859375 25.703125 5.078125 23.40625 5.078125 
C 18 5.078125 10.90625 9 10.90625 20.9375 
C 10.90625 33.34375 18.90625 37 24.40625 37 
C 28.09375 37 31.09375 35.21875 33.203125 32.265625 
z
" id="CMSS17-100"/>
       <path d="M 25.203125 -25 
L 25.203125 -18.9375 
L 16.59375 -18.9375 
L 16.59375 68 
L 25.203125 68 
L 25.203125 74.078125 
L 9.296875 74.078125 
L 9.296875 -25 
z
" id="CMSS17-91"/>
       <path d="M 56.40625 29 
L 36.5 29 
L 36.5 22.828125 
L 48.796875 22.828125 
L 48.796875 7.359375 
C 44.90625 6.265625 40.90625 5.46875 36.90625 5.46875 
C 22.90625 5.46875 14.59375 20.328125 14.59375 34.375 
C 14.59375 48.359375 23.296875 63 36.90625 63 
C 44.59375 63 48.90625 60.640625 54.203125 56.671875 
L 55.5 64.59375 
C 48.90625 67.984375 44.796875 69.375 37.296875 69.375 
C 17.90625 69.375 6.203125 51.9375 6.203125 34.09375 
C 6.203125 17.03125 18 -1 36.703125 -1 
C 43.703125 -1 50.203125 0.796875 56.40625 3.875 
z
" id="CMSS17-71"/>
       <path d="M 17.90625 74.078125 
L 2 74.078125 
L 2 68 
L 10.59375 68 
L 10.59375 -18.9375 
L 2 -18.9375 
L 2 -25 
L 17.90625 -25 
z
" id="CMSS17-93"/>
      </defs>
      <use transform="scale(0.996264)" xlink:href="#CMSS17-77"/>
      <use transform="translate(81.67603 0)scale(0.996264)" xlink:href="#CMSS17-97"/>
      <use transform="translate(126.597951 0)scale(0.996264)" xlink:href="#CMSS17-103"/>
      <use transform="translate(173.441574 0)scale(0.996264)" xlink:href="#CMSS17-110"/>
      <use transform="translate(221.646517 0)scale(0.996264)" xlink:href="#CMSS17-101"/>
      <use transform="translate(263.285339 0)scale(0.996264)" xlink:href="#CMSS17-116"/>
      <use transform="translate(297.116906 0)scale(0.996264)" xlink:href="#CMSS17-105"/>
      <use transform="translate(319.297629 0)scale(0.996264)" xlink:href="#CMSS17-99"/>
      <use transform="translate(392.165564 0)scale(0.996264)" xlink:href="#CMSS17-70"/>
      <use transform="translate(445.455123 0)scale(0.996264)" xlink:href="#CMSS17-105"/>
      <use transform="translate(467.635846 0)scale(0.996264)" xlink:href="#CMSS17-101"/>
      <use transform="translate(509.274668 0)scale(0.996264)" xlink:href="#CMSS17-108"/>
      <use transform="translate(531.455391 0)scale(0.996264)" xlink:href="#CMSS17-100"/>
      <use transform="translate(610.889447 0)scale(0.996264)" xlink:href="#CMSS17-91"/>
      <use transform="translate(638.074886 0)scale(0.996264)" xlink:href="#CMSS17-71"/>
      <use transform="translate(700.533111 0)scale(0.996264)" xlink:href="#CMSS17-93"/>
     </g>
    </g>
   </g>
   <g id="matplotlib.axis_2">
    <g id="ytick_1">
     <g id="line2d_8">
      <defs>
       <path d="M 0 0 
L -3.5 0 
" id="md5b35d42e9" style="stroke:#000000;stroke-width:0.8;"/>
      </defs>
      <g>
       <use style="stroke:#000000;stroke-width:0.8;" x="65.405966" xlink:href="#md5b35d42e9" y="283.354647"/>
      </g>
     </g>
     <g id="text_9">
      <!-- $\mathdefault{0.10}$ -->
      <g transform="translate(33.997498 288.197585)scale(0.14 -0.14)">
       <defs>
        <path d="M 12.40625 11.625 
C 9.40625 11.625 6.703125 8.8125 6.703125 5.8125 
C 6.703125 2.796875 9.40625 0 12.296875 0 
C 15.5 0 18.296875 2.703125 18.296875 5.8125 
C 18.296875 8.8125 15.5 11.625 12.40625 11.625 
z
" id="URW_Palladio_L_Roman-46"/>
       </defs>
       <use transform="scale(0.996264)" xlink:href="#URW_Palladio_L_Roman-48"/>
       <use transform="translate(49.8132 0)scale(0.996264)" xlink:href="#URW_Palladio_L_Roman-46"/>
       <use transform="translate(74.719801 0)scale(0.996264)" xlink:href="#URW_Palladio_L_Roman-49"/>
       <use transform="translate(124.533001 0)scale(0.996264)" xlink:href="#URW_Palladio_L_Roman-48"/>
      </g>
     </g>
    </g>
    <g id="ytick_2">
     <g id="line2d_9">
      <g>
       <use style="stroke:#000000;stroke-width:0.8;" x="65.405966" xlink:href="#md5b35d42e9" y="252.678337"/>
      </g>
     </g>
     <g id="text_10">
      <!-- $\mathdefault{0.15}$ -->
      <g transform="translate(33.997498 257.521275)scale(0.14 -0.14)">
       <use transform="scale(0.996264)" xlink:href="#URW_Palladio_L_Roman-48"/>
       <use transform="translate(49.8132 0)scale(0.996264)" xlink:href="#URW_Palladio_L_Roman-46"/>
       <use transform="translate(74.719801 0)scale(0.996264)" xlink:href="#URW_Palladio_L_Roman-49"/>
       <use transform="translate(124.533001 0)scale(0.996264)" xlink:href="#URW_Palladio_L_Roman-53"/>
      </g>
     </g>
    </g>
    <g id="ytick_3">
     <g id="line2d_10">
      <g>
       <use style="stroke:#000000;stroke-width:0.8;" x="65.405966" xlink:href="#md5b35d42e9" y="222.002027"/>
      </g>
     </g>
     <g id="text_11">
      <!-- $\mathdefault{0.20}$ -->
      <g transform="translate(33.997498 226.844965)scale(0.14 -0.14)">
       <use transform="scale(0.996264)" xlink:href="#URW_Palladio_L_Roman-48"/>
       <use transform="translate(49.8132 0)scale(0.996264)" xlink:href="#URW_Palladio_L_Roman-46"/>
       <use transform="translate(74.719801 0)scale(0.996264)" xlink:href="#URW_Palladio_L_Roman-50"/>
       <use transform="translate(124.533001 0)scale(0.996264)" xlink:href="#URW_Palladio_L_Roman-48"/>
      </g>
     </g>
    </g>
    <g id="ytick_4">
     <g id="line2d_11">
      <g>
       <use style="stroke:#000000;stroke-width:0.8;" x="65.405966" xlink:href="#md5b35d42e9" y="191.325717"/>
      </g>
     </g>
     <g id="text_12">
      <!-- $\mathdefault{0.25}$ -->
      <g transform="translate(33.997498 196.168655)scale(0.14 -0.14)">
       <use transform="scale(0.996264)" xlink:href="#URW_Palladio_L_Roman-48"/>
       <use transform="translate(49.8132 0)scale(0.996264)" xlink:href="#URW_Palladio_L_Roman-46"/>
       <use transform="translate(74.719801 0)scale(0.996264)" xlink:href="#URW_Palladio_L_Roman-50"/>
       <use transform="translate(124.533001 0)scale(0.996264)" xlink:href="#URW_Palladio_L_Roman-53"/>
      </g>
     </g>
    </g>
    <g id="ytick_5">
     <g id="line2d_12">
      <g>
       <use style="stroke:#000000;stroke-width:0.8;" x="65.405966" xlink:href="#md5b35d42e9" y="160.649407"/>
      </g>
     </g>
     <g id="text_13">
      <!-- $\mathdefault{0.30}$ -->
      <g transform="translate(33.997498 165.492345)scale(0.14 -0.14)">
       <use transform="scale(0.996264)" xlink:href="#URW_Palladio_L_Roman-48"/>
       <use transform="translate(49.8132 0)scale(0.996264)" xlink:href="#URW_Palladio_L_Roman-46"/>
       <use transform="translate(74.719801 0)scale(0.996264)" xlink:href="#URW_Palladio_L_Roman-51"/>
       <use transform="translate(124.533001 0)scale(0.996264)" xlink:href="#URW_Palladio_L_Roman-48"/>
      </g>
     </g>
    </g>
    <g id="ytick_6">
     <g id="line2d_13">
      <g>
       <use style="stroke:#000000;stroke-width:0.8;" x="65.405966" xlink:href="#md5b35d42e9" y="129.973097"/>
      </g>
     </g>
     <g id="text_14">
      <!-- $\mathdefault{0.35}$ -->
      <g transform="translate(33.997498 134.816035)scale(0.14 -0.14)">
       <use transform="scale(0.996264)" xlink:href="#URW_Palladio_L_Roman-48"/>
       <use transform="translate(49.8132 0)scale(0.996264)" xlink:href="#URW_Palladio_L_Roman-46"/>
       <use transform="translate(74.719801 0)scale(0.996264)" xlink:href="#URW_Palladio_L_Roman-51"/>
       <use transform="translate(124.533001 0)scale(0.996264)" xlink:href="#URW_Palladio_L_Roman-53"/>
      </g>
     </g>
    </g>
    <g id="ytick_7">
     <g id="line2d_14">
      <g>
       <use style="stroke:#000000;stroke-width:0.8;" x="65.405966" xlink:href="#md5b35d42e9" y="99.296787"/>
      </g>
     </g>
     <g id="text_15">
      <!-- $\mathdefault{0.40}$ -->
      <g transform="translate(33.997498 104.139725)scale(0.14 -0.14)">
       <use transform="scale(0.996264)" xlink:href="#URW_Palladio_L_Roman-48"/>
       <use transform="translate(49.8132 0)scale(0.996264)" xlink:href="#URW_Palladio_L_Roman-46"/>
       <use transform="translate(74.719801 0)scale(0.996264)" xlink:href="#URW_Palladio_L_Roman-52"/>
       <use transform="translate(124.533001 0)scale(0.996264)" xlink:href="#URW_Palladio_L_Roman-48"/>
      </g>
     </g>
    </g>
    <g id="ytick_8">
     <g id="line2d_15">
      <g>
       <use style="stroke:#000000;stroke-width:0.8;" x="65.405966" xlink:href="#md5b35d42e9" y="68.620477"/>
      </g>
     </g>
     <g id="text_16">
      <!-- $\mathdefault{0.45}$ -->
      <g transform="translate(33.997498 73.463415)scale(0.14 -0.14)">
       <use transform="scale(0.996264)" xlink:href="#URW_Palladio_L_Roman-48"/>
       <use transform="translate(49.8132 0)scale(0.996264)" xlink:href="#URW_Palladio_L_Roman-46"/>
       <use transform="translate(74.719801 0)scale(0.996264)" xlink:href="#URW_Palladio_L_Roman-52"/>
       <use transform="translate(124.533001 0)scale(0.996264)" xlink:href="#URW_Palladio_L_Roman-53"/>
      </g>
     </g>
    </g>
    <g id="ytick_9">
     <g id="line2d_16">
      <g>
       <use style="stroke:#000000;stroke-width:0.8;" x="65.405966" xlink:href="#md5b35d42e9" y="37.944167"/>
      </g>
     </g>
     <g id="text_17">
      <!-- $\mathdefault{0.50}$ -->
      <g transform="translate(33.997498 42.787105)scale(0.14 -0.14)">
       <use transform="scale(0.996264)" xlink:href="#URW_Palladio_L_Roman-48"/>
       <use transform="translate(49.8132 0)scale(0.996264)" xlink:href="#URW_Palladio_L_Roman-46"/>
       <use transform="translate(74.719801 0)scale(0.996264)" xlink:href="#URW_Palladio_L_Roman-53"/>
       <use transform="translate(124.533001 0)scale(0.996264)" xlink:href="#URW_Palladio_L_Roman-48"/>
      </g>
     </g>
    </g>
    <g id="text_18">
     <!-- Scattered Fraction -->
     <g transform="translate(26.743055 215.733646)rotate(-90)scale(0.168 -0.168)">
      <defs>
       <path d="M 43.703125 65.140625 
C 39.296875 67.71875 34.5 70 26.40625 70 
C 13.5 70 5.203125 60.609375 5.203125 51.03125 
C 5.203125 47.265625 6.296875 43.015625 10.203125 38.671875 
C 14.09375 34.3125 18.5 33.140625 24.09375 31.765625 
C 26.40625 31.15625 30.296875 30.0625 31 29.78125 
C 36.59375 27.609375 39.296875 22.5625 39.296875 17.8125 
C 39.296875 11.59375 34.40625 4.96875 25.703125 4.96875 
C 22.703125 4.96875 13.90625 4.96875 5.59375 12.796875 
L 4.203125 4.96875 
C 12.40625 -1 21.296875 -2 25.796875 -2 
C 38.09375 -2 46.90625 7.625 46.90625 18.53125 
C 46.90625 22.5 45.703125 27.546875 41.5 32.203125 
C 37.40625 36.671875 33.796875 37.65625 25.59375 39.828125 
C 20.90625 41.03125 17.90625 41.828125 15.40625 44.890625 
C 13.703125 47.078125 12.796875 49.15625 12.796875 51.828125 
C 12.796875 57.390625 17.59375 63.4375 26.40625 63.4375 
C 30.796875 63.4375 36.5 62.53125 42.296875 57.1875 
z
" id="CMSS17-83"/>
       <path d="M 14.90625 21.296875 
C 14.90625 30.703125 21.796875 37 30.59375 37 
L 30.59375 43.578125 
C 24.203125 43.578125 18.203125 40.390625 14.59375 35.203125 
L 14.59375 43.09375 
L 7.5 43.09375 
L 7.5 0 
L 14.90625 0 
z
" id="CMSS17-114"/>
       <path d="M 44.203125 21.1875 
C 44.203125 34 34.703125 44 23.5 44 
C 12 44 2.703125 33.703125 2.703125 21.1875 
C 2.703125 8.5 12.296875 -1 23.40625 -1 
C 34.796875 -1 44.203125 8.796875 44.203125 21.1875 
z
M 23.5 5.265625 
C 16.40625 5.265625 10.296875 11.078125 10.296875 22 
C 10.296875 33.609375 17.40625 37.921875 23.40625 37.921875 
C 29.90625 37.921875 36.59375 33.21875 36.59375 22 
C 36.59375 10.671875 30.09375 5.265625 23.5 5.265625 
z
" id="CMSS17-111"/>
      </defs>
      <use transform="scale(0.996264)" xlink:href="#CMSS17-83"/>
      <use transform="translate(52.048516 0)scale(0.996264)" xlink:href="#CMSS17-99"/>
      <use transform="translate(93.687338 0)scale(0.996264)" xlink:href="#CMSS17-97"/>
      <use transform="translate(138.609259 0)scale(0.996264)" xlink:href="#CMSS17-116"/>
      <use transform="translate(172.440826 0)scale(0.996264)" xlink:href="#CMSS17-116"/>
      <use transform="translate(206.272392 0)scale(0.996264)" xlink:href="#CMSS17-101"/>
      <use transform="translate(247.911214 0)scale(0.996264)" xlink:href="#CMSS17-114"/>
      <use transform="translate(279.820987 0)scale(0.996264)" xlink:href="#CMSS17-101"/>
      <use transform="translate(321.459809 0)scale(0.996264)" xlink:href="#CMSS17-100"/>
      <use transform="translate(400.893865 0)scale(0.996264)" xlink:href="#CMSS17-70"/>
      <use transform="translate(451.58097 0)scale(0.996264)" xlink:href="#CMSS17-114"/>
      <use transform="translate(483.490743 0)scale(0.996264)" xlink:href="#CMSS17-97"/>
      <use transform="translate(528.412663 0)scale(0.996264)" xlink:href="#CMSS17-99"/>
      <use transform="translate(570.051485 0)scale(0.996264)" xlink:href="#CMSS17-116"/>
      <use transform="translate(603.883052 0)scale(0.996264)" xlink:href="#CMSS17-105"/>
      <use transform="translate(626.063775 0)scale(0.996264)" xlink:href="#CMSS17-111"/>
      <use transform="translate(672.907399 0)scale(0.996264)" xlink:href="#CMSS17-110"/>
     </g>
    </g>
   </g>
   <g id="LineCollection_1">
    <path clip-path="url(#pfea6696e8c)" d="M 265.914093 247.564758 
L 265.914093 225.977534 
" style="fill:none;stroke:#ff7f0e;stroke-width:1.5;"/>
    <path clip-path="url(#pfea6696e8c)" d="M 263.609402 255.137626 
L 263.609402 235.233262 
" style="fill:none;stroke:#ff7f0e;stroke-width:1.5;"/>
    <path clip-path="url(#pfea6696e8c)" d="M 272.828166 182.2311 
L 272.828166 146.125285 
" style="fill:none;stroke:#ff7f0e;stroke-width:1.5;"/>
    <path clip-path="url(#pfea6696e8c)" d="M 215.210889 144.903983 
L 215.210889 100.503253 
" style="fill:none;stroke:#ff7f0e;stroke-width:1.5;"/>
    <path clip-path="url(#pfea6696e8c)" d="M 256.695329 277.834651 
L 256.695329 262.974069 
" style="fill:none;stroke:#ff7f0e;stroke-width:1.5;"/>
    <path clip-path="url(#pfea6696e8c)" d="M 290.11335 111.047395 
L 290.11335 59.122979 
" style="fill:none;stroke:#ff7f0e;stroke-width:1.5;"/>
    <path clip-path="url(#pfea6696e8c)" d="M 268.218784 222.538348 
L 268.218784 195.389699 
" style="fill:none;stroke:#ff7f0e;stroke-width:1.5;"/>
    <path clip-path="url(#pfea6696e8c)" d="M 203.687433 137.663337 
L 203.687433 91.653575 
" style="fill:none;stroke:#ff7f0e;stroke-width:1.5;"/>
    <path clip-path="url(#pfea6696e8c)" d="M 247.476564 241.577415 
L 247.476564 218.65967 
" style="fill:none;stroke:#ff7f0e;stroke-width:1.5;"/>
    <path clip-path="url(#pfea6696e8c)" d="M 270.523475 200.485145 
L 270.523475 168.435784 
" style="fill:none;stroke:#ff7f0e;stroke-width:1.5;"/>
    <path clip-path="url(#pfea6696e8c)" d="M 301.636805 88.239242 
L 301.636805 31.246348 
" style="fill:none;stroke:#ff7f0e;stroke-width:1.5;"/>
    <path clip-path="url(#pfea6696e8c)" d="M 82.69115 125.145212 
L 82.69115 76.353645 
" style="fill:none;stroke:#ff7f0e;stroke-width:1.5;"/>
    <path clip-path="url(#pfea6696e8c)" d="M 226.734344 174.783166 
L 226.734344 137.022255 
" style="fill:none;stroke:#ff7f0e;stroke-width:1.5;"/>
    <path clip-path="url(#pfea6696e8c)" d="M 261.304711 261.519231 
L 261.304711 243.033 
" style="fill:none;stroke:#ff7f0e;stroke-width:1.5;"/>
    <path clip-path="url(#pfea6696e8c)" d="M 399.586178 104.958803 
L 399.586178 51.681367 
" style="fill:none;stroke:#ff7f0e;stroke-width:1.5;"/>
    <path clip-path="url(#pfea6696e8c)" d="M 209.449161 155.364662 
L 209.449161 113.288528 
" style="fill:none;stroke:#ff7f0e;stroke-width:1.5;"/>
    <path clip-path="url(#pfea6696e8c)" d="M 220.972616 170.631772 
L 220.972616 131.948329 
" style="fill:none;stroke:#ff7f0e;stroke-width:1.5;"/>
    <path clip-path="url(#pfea6696e8c)" d="M 197.925705 144.032181 
L 197.925705 99.437717 
" style="fill:none;stroke:#ff7f0e;stroke-width:1.5;"/>
    <path clip-path="url(#pfea6696e8c)" d="M 111.499788 119.581615 
L 111.499788 69.553693 
" style="fill:none;stroke:#ff7f0e;stroke-width:1.5;"/>
    <path clip-path="url(#pfea6696e8c)" d="M 242.867182 221.897135 
L 242.867182 194.605995 
" style="fill:none;stroke:#ff7f0e;stroke-width:1.5;"/>
    <path clip-path="url(#pfea6696e8c)" d="M 284.351622 134.918794 
L 284.351622 88.299134 
" style="fill:none;stroke:#ff7f0e;stroke-width:1.5;"/>
    <path clip-path="url(#pfea6696e8c)" d="M 313.160261 85.280593 
L 313.160261 27.630221 
" style="fill:none;stroke:#ff7f0e;stroke-width:1.5;"/>
    <path clip-path="url(#pfea6696e8c)" d="M 169.117066 122.304028 
L 169.117066 72.881085 
" style="fill:none;stroke:#ff7f0e;stroke-width:1.5;"/>
    <path clip-path="url(#pfea6696e8c)" d="M 232.496072 201.182179 
L 232.496072 169.287715 
" style="fill:none;stroke:#ff7f0e;stroke-width:1.5;"/>
    <path clip-path="url(#pfea6696e8c)" d="M 428.394817 104.750047 
L 428.394817 51.426221 
" style="fill:none;stroke:#ff7f0e;stroke-width:1.5;"/>
    <path clip-path="url(#pfea6696e8c)" d="M 252.085946 259.633059 
L 252.085946 240.727679 
" style="fill:none;stroke:#ff7f0e;stroke-width:1.5;"/>
    <path clip-path="url(#pfea6696e8c)" d="M 267.066439 239.648905 
L 267.066439 216.302603 
" style="fill:none;stroke:#ff7f0e;stroke-width:1.5;"/>
    <path clip-path="url(#pfea6696e8c)" d="M 295.875078 98.482361 
L 295.875078 43.765715 
" style="fill:none;stroke:#ff7f0e;stroke-width:1.5;"/>
    <path clip-path="url(#pfea6696e8c)" d="M 370.777539 116.204121 
L 370.777539 65.425644 
" style="fill:none;stroke:#ff7f0e;stroke-width:1.5;"/>
    <path clip-path="url(#pfea6696e8c)" d="M 249.781255 251.796644 
L 249.781255 231.149838 
" style="fill:none;stroke:#ff7f0e;stroke-width:1.5;"/>
    <path clip-path="url(#pfea6696e8c)" d="M 307.398533 99.174726 
L 307.398533 44.611939 
" style="fill:none;stroke:#ff7f0e;stroke-width:1.5;"/>
    <path clip-path="url(#pfea6696e8c)" d="M 240.562491 214.404074 
L 240.562491 185.447808 
" style="fill:none;stroke:#ff7f0e;stroke-width:1.5;"/>
    <path clip-path="url(#pfea6696e8c)" d="M 278.589894 174.872645 
L 278.589894 137.131618 
" style="fill:none;stroke:#ff7f0e;stroke-width:1.5;"/>
    <path clip-path="url(#pfea6696e8c)" d="M 244.019528 221.147245 
L 244.019528 193.689462 
" style="fill:none;stroke:#ff7f0e;stroke-width:1.5;"/>
    <path clip-path="url(#pfea6696e8c)" d="M 238.2578 189.50623 
L 238.2578 155.017111 
" style="fill:none;stroke:#ff7f0e;stroke-width:1.5;"/>
    <path clip-path="url(#pfea6696e8c)" d="M 254.390638 267.036102 
L 254.390638 249.775843 
" style="fill:none;stroke:#ff7f0e;stroke-width:1.5;"/>
    <path clip-path="url(#pfea6696e8c)" d="M 245.171873 220.429971 
L 245.171873 192.812795 
" style="fill:none;stroke:#ff7f0e;stroke-width:1.5;"/>
    <path clip-path="url(#pfea6696e8c)" d="M 341.9689 94.535125 
L 341.9689 38.941316 
" style="fill:none;stroke:#ff7f0e;stroke-width:1.5;"/>
    <path clip-path="url(#pfea6696e8c)" d="M 259.00002 277.652578 
L 259.00002 262.751536 
" style="fill:none;stroke:#ff7f0e;stroke-width:1.5;"/>
    <path clip-path="url(#pfea6696e8c)" d="M 140.308427 106.601406 
L 140.308427 53.688993 
" style="fill:none;stroke:#ff7f0e;stroke-width:1.5;"/>
   </g>
   <g id="line2d_17">
    <path clip-path="url(#pfea6696e8c)" d="M 82.69115 92.114924 
L 98.325989 93.349328 
L 112.223624 94.686773 
L 124.384054 96.103618 
L 134.80728 97.558311 
L 143.493302 98.988401 
L 152.179324 100.670682 
L 159.128141 102.244251 
L 166.076959 104.071261 
L 171.288572 105.64508 
L 176.500185 107.430795 
L 181.711798 109.471603 
L 186.923411 111.822585 
L 190.39782 113.596513 
L 193.872228 115.565602 
L 197.346637 117.761294 
L 200.821046 120.221612 
L 204.295455 122.992823 
L 207.769863 126.131542 
L 211.244272 129.707427 
L 214.718681 133.806564 
L 218.193089 138.535655 
L 219.930294 141.176621 
L 221.667498 144.026969 
L 223.404702 147.108111 
L 225.141907 150.443707 
L 226.879111 154.059753 
L 228.616316 157.984586 
L 230.35352 162.248735 
L 232.090724 166.884533 
L 233.827929 171.925347 
L 235.565133 177.404241 
L 237.302337 183.351785 
L 239.039542 189.792639 
L 240.776746 196.740392 
L 244.251155 212.107362 
L 252.937177 253.388206 
L 254.674381 259.622323 
L 256.411585 263.8981 
L 258.14879 265.553004 
L 259.885994 264.026919 
L 261.623198 258.997426 
L 263.360403 250.490988 
L 265.097607 238.919856 
L 266.834811 225.018807 
L 273.783629 163.718003 
L 275.520833 150.311948 
L 277.258038 138.32143 
L 278.995242 127.780607 
L 280.732446 118.630651 
L 282.469651 110.759585 
L 284.206855 104.031172 
L 285.944059 98.303823 
L 287.681264 93.441798 
L 289.418468 89.321035 
L 291.155672 85.831536 
L 292.892877 82.877697 
L 294.630081 80.377513 
L 296.367285 78.261255 
L 298.10449 76.469955 
L 299.841694 74.953914 
L 301.578899 73.671314 
L 303.316103 72.586983 
L 305.053307 71.671334 
L 306.790512 70.89945 
L 310.26492 69.706192 
L 313.739329 68.875135 
L 317.213738 68.311308 
L 320.688146 67.945824 
L 325.89976 67.662923 
L 331.111373 67.597585 
L 338.06019 67.720963 
L 348.483416 68.149468 
L 371.067073 69.390163 
L 400.599547 70.937387 
L 426.657612 72.063754 
L 428.394817 72.13107 
L 428.394817 72.13107 
" style="fill:none;stroke:#1f77b4;stroke-linecap:square;stroke-width:1.5;"/>
   </g>
   <g id="line2d_18">
    <defs>
     <path d="M 0 3 
C 0.795609 3 1.55874 2.683901 2.12132 2.12132 
C 2.683901 1.55874 3 0.795609 3 0 
C 3 -0.795609 2.683901 -1.55874 2.12132 -2.12132 
C 1.55874 -2.683901 0.795609 -3 0 -3 
C -0.795609 -3 -1.55874 -2.683901 -2.12132 -2.12132 
C -2.683901 -1.55874 -3 -0.795609 -3 0 
C -3 0.795609 -2.683901 1.55874 -2.12132 2.12132 
C -1.55874 2.683901 -0.795609 3 0 3 
z
" id="mb434dec515" style="stroke:#ff7f0e;"/>
    </defs>
    <g clip-path="url(#pfea6696e8c)">
     <use style="fill:#ff7f0e;stroke:#ff7f0e;" x="265.914093" xlink:href="#mb434dec515" y="236.771146"/>
     <use style="fill:#ff7f0e;stroke:#ff7f0e;" x="263.609402" xlink:href="#mb434dec515" y="245.185444"/>
     <use style="fill:#ff7f0e;stroke:#ff7f0e;" x="272.828166" xlink:href="#mb434dec515" y="164.178192"/>
     <use style="fill:#ff7f0e;stroke:#ff7f0e;" x="215.210889" xlink:href="#mb434dec515" y="122.703618"/>
     <use style="fill:#ff7f0e;stroke:#ff7f0e;" x="256.695329" xlink:href="#mb434dec515" y="270.40436"/>
     <use style="fill:#ff7f0e;stroke:#ff7f0e;" x="290.11335" xlink:href="#mb434dec515" y="85.085187"/>
     <use style="fill:#ff7f0e;stroke:#ff7f0e;" x="268.218784" xlink:href="#mb434dec515" y="208.964024"/>
     <use style="fill:#ff7f0e;stroke:#ff7f0e;" x="203.687433" xlink:href="#mb434dec515" y="114.658456"/>
     <use style="fill:#ff7f0e;stroke:#ff7f0e;" x="247.476564" xlink:href="#mb434dec515" y="230.118543"/>
     <use style="fill:#ff7f0e;stroke:#ff7f0e;" x="270.523475" xlink:href="#mb434dec515" y="184.460464"/>
     <use style="fill:#ff7f0e;stroke:#ff7f0e;" x="301.636805" xlink:href="#mb434dec515" y="59.742795"/>
     <use style="fill:#ff7f0e;stroke:#ff7f0e;" x="82.69115" xlink:href="#mb434dec515" y="100.749428"/>
     <use style="fill:#ff7f0e;stroke:#ff7f0e;" x="226.734344" xlink:href="#mb434dec515" y="155.90271"/>
     <use style="fill:#ff7f0e;stroke:#ff7f0e;" x="261.304711" xlink:href="#mb434dec515" y="252.276116"/>
     <use style="fill:#ff7f0e;stroke:#ff7f0e;" x="399.586178" xlink:href="#mb434dec515" y="78.320085"/>
     <use style="fill:#ff7f0e;stroke:#ff7f0e;" x="209.449161" xlink:href="#mb434dec515" y="134.326595"/>
     <use style="fill:#ff7f0e;stroke:#ff7f0e;" x="220.972616" xlink:href="#mb434dec515" y="151.29005"/>
     <use style="fill:#ff7f0e;stroke:#ff7f0e;" x="197.925705" xlink:href="#mb434dec515" y="121.734949"/>
     <use style="fill:#ff7f0e;stroke:#ff7f0e;" x="111.499788" xlink:href="#mb434dec515" y="94.567654"/>
     <use style="fill:#ff7f0e;stroke:#ff7f0e;" x="242.867182" xlink:href="#mb434dec515" y="208.251565"/>
     <use style="fill:#ff7f0e;stroke:#ff7f0e;" x="284.351622" xlink:href="#mb434dec515" y="111.608964"/>
     <use style="fill:#ff7f0e;stroke:#ff7f0e;" x="313.160261" xlink:href="#mb434dec515" y="56.455407"/>
     <use style="fill:#ff7f0e;stroke:#ff7f0e;" x="169.117066" xlink:href="#mb434dec515" y="97.592557"/>
     <use style="fill:#ff7f0e;stroke:#ff7f0e;" x="232.496072" xlink:href="#mb434dec515" y="185.234947"/>
     <use style="fill:#ff7f0e;stroke:#ff7f0e;" x="428.394817" xlink:href="#mb434dec515" y="78.088134"/>
     <use style="fill:#ff7f0e;stroke:#ff7f0e;" x="252.085946" xlink:href="#mb434dec515" y="250.180369"/>
     <use style="fill:#ff7f0e;stroke:#ff7f0e;" x="267.066439" xlink:href="#mb434dec515" y="227.975754"/>
     <use style="fill:#ff7f0e;stroke:#ff7f0e;" x="295.875078" xlink:href="#mb434dec515" y="71.124038"/>
     <use style="fill:#ff7f0e;stroke:#ff7f0e;" x="370.777539" xlink:href="#mb434dec515" y="90.814882"/>
     <use style="fill:#ff7f0e;stroke:#ff7f0e;" x="249.781255" xlink:href="#mb434dec515" y="241.473241"/>
     <use style="fill:#ff7f0e;stroke:#ff7f0e;" x="307.398533" xlink:href="#mb434dec515" y="71.893332"/>
     <use style="fill:#ff7f0e;stroke:#ff7f0e;" x="240.562491" xlink:href="#mb434dec515" y="199.925941"/>
     <use style="fill:#ff7f0e;stroke:#ff7f0e;" x="278.589894" xlink:href="#mb434dec515" y="156.002132"/>
     <use style="fill:#ff7f0e;stroke:#ff7f0e;" x="244.019528" xlink:href="#mb434dec515" y="207.418353"/>
     <use style="fill:#ff7f0e;stroke:#ff7f0e;" x="238.2578" xlink:href="#mb434dec515" y="172.26167"/>
     <use style="fill:#ff7f0e;stroke:#ff7f0e;" x="254.390638" xlink:href="#mb434dec515" y="258.405973"/>
     <use style="fill:#ff7f0e;stroke:#ff7f0e;" x="245.171873" xlink:href="#mb434dec515" y="206.621383"/>
     <use style="fill:#ff7f0e;stroke:#ff7f0e;" x="341.9689" xlink:href="#mb434dec515" y="66.738221"/>
     <use style="fill:#ff7f0e;stroke:#ff7f0e;" x="259.00002" xlink:href="#mb434dec515" y="270.202057"/>
     <use style="fill:#ff7f0e;stroke:#ff7f0e;" x="140.308427" xlink:href="#mb434dec515" y="80.1452"/>
    </g>
   </g>
   <g id="patch_3">
    <path d="M 65.405966 290.344872 
L 65.405966 15.12 
" style="fill:none;stroke:#000000;stroke-linecap:square;stroke-linejoin:miter;stroke-width:0.8;"/>
   </g>
   <g id="patch_4">
    <path d="M 445.68 290.344872 
L 445.68 15.12 
" style="fill:none;stroke:#000000;stroke-linecap:square;stroke-linejoin:miter;stroke-width:0.8;"/>
   </g>
   <g id="patch_5">
    <path d="M 65.405966 290.344872 
L 445.68 290.344872 
" style="fill:none;stroke:#000000;stroke-linecap:square;stroke-linejoin:miter;stroke-width:0.8;"/>
   </g>
   <g id="patch_6">
    <path d="M 65.405966 15.12 
L 445.68 15.12 
" style="fill:none;stroke:#000000;stroke-linecap:square;stroke-linejoin:miter;stroke-width:0.8;"/>
   </g>
  </g>
 </g>
 <defs>
  <clipPath id="pfea6696e8c">
   <rect height="275.224872" width="380.274034" x="65.405966" y="15.12"/>
  </clipPath>
 </defs>
</svg>
