<?xml version="1.0" encoding="UTF-8" standalone="no"?>
<!-- Created with Inkscape (http://www.inkscape.org/) -->

<svg
   xmlns:dc="http://purl.org/dc/elements/1.1/"
   xmlns:cc="http://creativecommons.org/ns#"
   xmlns:rdf="http://www.w3.org/1999/02/22-rdf-syntax-ns#"
   xmlns:svg="http://www.w3.org/2000/svg"
   xmlns="http://www.w3.org/2000/svg"
   xmlns:sodipodi="http://sodipodi.sourceforge.net/DTD/sodipodi-0.dtd"
   xmlns:inkscape="http://www.inkscape.org/namespaces/inkscape"
   width="700pt"
   height="500pt"
   viewBox="0 0 246.94445 176.38889"
   version="1.1"
   id="svg3113"
   inkscape:version="0.92.3 (2405546, 2018-03-11)"
   sodipodi:docname="CrossSection.svg">
  <defs
     id="defs3107">
    <marker
       inkscape:stockid="Arrow2Mend"
       orient="auto"
       refY="0.0"
       refX="0.0"
       id="Arrow2Mend"
       style="overflow:visible;"
       inkscape:isstock="true">
      <path
         id="path863"
         style="fill-rule:evenodd;stroke-width:0.625;stroke-linejoin:round;stroke:#204a87;stroke-opacity:1;fill:#204a87;fill-opacity:1"
         d="M 8.7185878,4.0337352 L -2.2072895,0.016013256 L 8.7185884,-4.0017078 C 6.9730900,-1.6296469 6.9831476,1.6157441 8.7185878,4.0337352 z "
         transform="scale(0.6) rotate(180) translate(0,0)" />
    </marker>
    <marker
       inkscape:stockid="Arrow1Lend"
       orient="auto"
       refY="0.0"
       refX="0.0"
       id="Arrow1Lend"
       style="overflow:visible;"
       inkscape:isstock="true">
      <path
         id="path839"
         d="M 0.0,0.0 L 5.0,-5.0 L -12.5,0.0 L 5.0,5.0 L 0.0,0.0 z "
         style="fill-rule:evenodd;stroke:#204a87;stroke-width:1pt;stroke-opacity:1;fill:#204a87;fill-opacity:1"
         transform="scale(0.8) rotate(180) translate(12.5,0)" />
    </marker>
    <inkscape:path-effect
       is_visible="true"
       id="path-effect3671"
       effect="spiro" />
    <inkscape:path-effect
       effect="spiro"
       id="path-effect3664"
       is_visible="true" />
  </defs>
  <sodipodi:namedview
     id="base"
     pagecolor="#ffffff"
     bordercolor="#666666"
     borderopacity="1.0"
     inkscape:pageopacity="0.0"
     inkscape:pageshadow="2"
     inkscape:zoom="1.4"
     inkscape:cx="162.16459"
     inkscape:cy="354.47901"
     inkscape:document-units="mm"
     inkscape:current-layer="layer1"
     showgrid="false"
     units="pt"
     inkscape:window-width="2560"
     inkscape:window-height="1375"
     inkscape:window-x="0"
     inkscape:window-y="0"
     inkscape:window-maximized="1" />
  <metadata
     id="metadata3110">
    <rdf:RDF>
      <cc:Work
         rdf:about="">
        <dc:format>image/svg+xml</dc:format>
        <dc:type
           rdf:resource="http://purl.org/dc/dcmitype/StillImage" />
        <dc:title></dc:title>
      </cc:Work>
    </rdf:RDF>
  </metadata>
  <g
     inkscape:label="Layer 1"
     inkscape:groupmode="layer"
     id="layer1"
     transform="translate(0,-120.61112)">
    <path
       style="fill:none;fill-rule:evenodd;stroke:#000000;stroke-width:0.14110845px;stroke-linecap:butt;stroke-linejoin:miter;stroke-opacity:1"
       d="m 100.17241,205.66156 c 0.65781,-0.48055 1.12703,-1.18593 1.43224,-1.94123 0.30522,-0.7553 0.45674,-1.56328 0.5722,-2.36969 0.11546,-0.80642 0.19695,-1.61901 0.37028,-2.41499 0.17333,-0.79599 0.44332,-1.58212 0.90372,-2.25418 0.53519,-0.78123 1.34924,-1.39707 2.28066,-1.56795 0.65787,-0.12069 1.34215,-0.0175 1.97389,0.20216 0.63174,0.21967 1.21772,0.55216 1.78909,0.89986 0.57137,0.3477 1.13367,0.7133 1.73458,1.007 0.60091,0.2937 1.24691,0.51551 1.91461,0.5546 0.75935,0.0444 1.51077,-0.14767 2.26879,-0.21093 0.37901,-0.0316 0.76373,-0.0307 1.13593,0.0476 0.37219,0.0782 0.73275,0.2371 1.01402,0.4931 0.27688,0.25201 0.46723,0.58905 0.58454,0.94459 0.11732,0.35554 0.16499,0.73047 0.18771,1.10418 0.0454,0.74741 -0.004,1.51476 0.22554,2.22746 0.18035,0.55966 0.52215,1.05011 0.83352,1.5489 0.31137,0.49879 0.6025,1.03312 0.661,1.6182 0.0429,0.42943 -0.0436,0.86555 -0.20668,1.26514 -0.16303,0.3996 -0.40055,0.7651 -0.66458,1.10648 -0.52808,0.68275 -1.16838,1.28104 -1.62105,2.01596 -0.6379,1.03566 -0.861,2.27942 -0.88288,3.49557 -0.0219,1.21616 0.14425,2.42685 0.22536,3.64049 0.0811,1.21365 0.0741,2.45455 -0.28295,3.61732 -0.17851,0.58139 -0.4448,1.13868 -0.81225,1.6233 -0.36745,0.48462 -0.83792,0.89533 -1.38318,1.16472 -1.04391,0.51576 -2.25995,0.48223 -3.42099,0.57017 -2.13589,0.16178 -4.2093,0.76743 -6.30971,1.18755 -2.10041,0.42011 -4.30297,0.65112 -6.364529,0.0696 -1.030777,-0.29078 -2.011782,-0.78719 -2.807041,-1.50456 -0.795258,-0.71737 -1.398158,-1.6616 -1.641597,-2.70457 -0.24344,-1.04297 -0.112389,-2.18211 0.426064,-3.10792 0.538452,-0.9258 1.494185,-1.61502 2.554804,-1.76382 0.498601,-0.0699 1.015117,-0.0257 1.498249,-0.16742 0.241565,-0.0709 0.473352,-0.19046 0.646411,-0.37328 0.173059,-0.18283 0.282352,-0.4334 0.264089,-0.68448 -0.01009,-0.13871 -0.05808,-0.27324 -0.129031,-0.39285 -0.07095,-0.11962 -0.164417,-0.22483 -0.267846,-0.3178 -0.20686,-0.18595 -0.451969,-0.32299 -0.680825,-0.48108 -0.562947,-0.38886 -1.026653,-0.90488 -1.443147,-1.4477 -0.471531,-0.61455 -0.895737,-1.2831 -1.099123,-2.03053 -0.101693,-0.37371 -0.146462,-0.76467 -0.111422,-1.15038 0.03504,-0.38572 0.151275,-0.76611 0.355295,-1.09532 0.219148,-0.35362 0.53428,-0.64101 0.883517,-0.86708 0.349237,-0.22607 0.732998,-0.39364 1.121889,-0.54142 0.777782,-0.29556 1.59897,-0.52388 2.270833,-1.0147 z"
       id="path3662"
       inkscape:connector-curvature="0"
       inkscape:path-effect="#path-effect3664"
       inkscape:original-d="m 100.17241,205.66156 c 2.42559,-2.00399 1.59244,-6.17009 3.27844,-8.98009 0.28532,-0.47552 1.44981,-2.39881 2.28066,-1.56795 1.01793,1.01793 5.90961,2.66362 7.41217,2.66362 1.94538,0 2.98879,-0.62355 4.41874,0.32974 6.2984,4.38792 0.99779,3.00824 0.99779,4.27623 0,1.62442 1.49452,1.55805 1.49452,3.1671 0,1.70877 -2.90831,2.72356 -2.49231,4.38758 1.16797,4.67188 0.94513,10.27657 -3.1359,13.5414 -0.96077,0.76862 -2.27503,0.57017 -3.42099,0.57017 -3.92861,0 -12.63551,-3.30424 -14.142009,-7.82376 -1.16319,-3.48957 5.016359,1.38243 2.408749,-1.22518 -1.11992,-1.11992 -0.119582,-1.46548 -1.077702,-1.19173 -2.13638,0.61039 0.407623,-0.33724 -1.443147,-1.4477 -2.45981,-1.47589 -2.10657,-2.39926 -0.85525,-4.27623 0.91986,-1.37979 2.58337,-1.02458 4.276239,-2.4232 z"
       sodipodi:nodetypes="sccscsssssssccss" />
    <path
       style="opacity:0.52999998;fill:none;fill-opacity:1;fill-rule:nonzero;stroke:#204a87;stroke-width:3.310045;stroke-linecap:round;stroke-linejoin:miter;stroke-miterlimit:4;stroke-dasharray:none;stroke-dashoffset:0;stroke-opacity:0.91769547;paint-order:markers fill stroke"
       d="m 166.05112,151.86334 61.32179,17.5763 -0.19528,81.04632 -60.73593,-34.56674 z"
       id="rect3666"
       inkscape:connector-curvature="0"
       sodipodi:nodetypes="ccccc" />
    <path
       sodipodi:nodetypes="sccscsssssssccss"
       inkscape:original-d="m 189.77716,185.3315 c 3.77753,-1.11993 4.8601,-6.32897 8.18059,-8.74027 0.5619,-0.40806 2.8467,-2.05331 3.39673,-0.68855 0.67386,1.67203 -1.75909,6.62296 -0.0277,7.35964 2.24164,0.95381 11.01242,0.0906 12.19275,1.89018 0.98697,1.50479 -0.32519,3.95557 -0.94687,5.41667 -0.79644,1.8718 -3.09704,-0.0158 -3.88594,1.83829 -0.8378,1.969 -0.6313,4.25629 -0.9678,6.37769 -0.94474,5.95601 -3.94945,12.30499 -10.25271,14.06613 -1.48393,0.41461 -2.90104,-0.45844 -4.22153,-1.02029 -4.52689,-1.92617 -10.84532,-5.25344 -10.36536,-11.19987 0.37057,-4.5913 15.09644,-0.69704 13.37019,-4.98026 -0.74137,-1.83956 -5.91172,-0.36614 -7.14997,-0.52045 -2.761,-0.34411 -4.96085,-1.56951 -6.54902,-3.75649 -2.11081,-2.90668 -1.25105,-3.79748 1.11111,-5.34679 1.73644,-1.13891 3.47913,0.086 6.11554,-0.69563 z"
       inkscape:path-effect="#path-effect3671"
       inkscape:connector-curvature="0"
       id="path3669"
       d="m 189.77716,185.3315 c 2.06062,-3.45307 4.87123,-6.45597 8.18059,-8.74027 0.50451,-0.34824 1.03006,-0.6845 1.61892,-0.85491 0.29443,-0.0852 0.60294,-0.12748 0.90865,-0.10531 0.30571,0.0222 0.60866,0.11015 0.86916,0.27167 0.27783,0.17226 0.50206,0.42518 0.65719,0.71293 0.15513,0.28775 0.24261,0.60948 0.27429,0.93484 0.0634,0.65073 -0.0928,1.30351 -0.30216,1.92289 -0.20932,0.61939 -0.47315,1.22135 -0.63688,1.85432 -0.16374,0.63296 -0.22294,1.31311 -0.0201,1.93466 0.17312,0.53058 0.53235,0.99184 0.98068,1.32423 0.44833,0.3324 0.98244,0.5397 1.53158,0.63934 1.09828,0.19929 2.22767,-0.0231 3.3062,-0.31068 1.07853,-0.28759 2.15102,-0.64315 3.26489,-0.71547 0.55693,-0.0362 1.12199,1.9e-4 1.65966,0.14984 0.53767,0.14965 1.04779,0.41572 1.44974,0.80292 0.38116,0.36718 0.65875,0.83878 0.80547,1.34729 0.14671,0.50851 0.16336,1.05263 0.0589,1.57147 -0.20887,1.03769 -0.90563,1.94997 -1.81127,2.49791 -0.6165,0.373 -1.31442,0.58389 -1.99335,0.82521 -0.67894,0.24133 -1.36158,0.52602 -1.89259,1.01308 -0.41263,0.37848 -0.71675,0.86692 -0.91446,1.39077 -0.19771,0.52386 -0.29179,1.08293 -0.31953,1.64217 -0.0555,1.11847 0.14978,2.23097 0.26619,3.34475 0.34458,3.29683 -0.13713,6.77306 -1.92483,9.56447 -0.89385,1.3957 -2.10612,2.59742 -3.55112,3.40916 -1.445,0.81174 -3.12456,1.22359 -4.77676,1.0925 -1.44594,-0.11473 -2.8244,-0.63048 -4.22153,-1.02029 -1.53622,-0.42862 -3.11064,-0.70783 -4.65062,-1.12276 -1.53997,-0.41493 -3.06445,-0.97636 -4.35946,-1.90731 -1.295,-0.93094 -2.35014,-2.26737 -2.69576,-3.82437 -0.1728,-0.7785 -0.16391,-1.60104 0.0599,-2.36644 0.22381,-0.7654 0.66614,-1.47067 1.28058,-1.97899 0.55043,-0.45536 1.22608,-0.74542 1.92463,-0.89499 0.69854,-0.14957 1.42084,-0.16297 2.13288,-0.10533 1.4241,0.1153 2.81294,0.5104 4.23474,0.65116 0.7109,0.0704 1.4324,0.0764 2.13585,-0.0481 0.70345,-0.12447 1.39003,-0.38342 1.96411,-0.80859 0.57408,-0.42517 1.0306,-1.02294 1.22973,-1.70901 0.19913,-0.68606 0.12581,-1.45898 -0.25175,-2.06543 -0.33755,-0.54218 -0.89635,-0.92556 -1.50312,-1.12488 -0.60678,-0.19932 -1.25983,-0.22546 -1.89512,-0.15984 -1.27059,0.13124 -2.48279,0.61792 -3.75173,0.76427 -1.3481,0.15548 -2.74865,-0.0902 -3.93552,-0.7481 -1.18687,-0.65794 -2.14788,-1.73373 -2.6135,-3.00839 -0.32947,-0.90193 -0.40978,-1.89506 -0.21818,-2.83598 0.1916,-0.94092 0.65593,-1.82625 1.32929,-2.51081 0.77802,-0.79095 1.8323,-1.30472 2.93466,-1.43011 1.10236,-0.12539 2.2451,0.13847 3.18088,0.73448 z"
       style="fill:#777777;fill-opacity:1;fill-rule:evenodd;stroke:#000000;stroke-width:0.17670481px;stroke-linecap:butt;stroke-linejoin:miter;stroke-opacity:1" />
    <circle
       style="opacity:0.52999998;fill:#73d216;fill-opacity:1;fill-rule:nonzero;stroke:#4e9a06;stroke-width:2.26499987;stroke-linecap:round;stroke-linejoin:miter;stroke-miterlimit:4;stroke-dasharray:none;stroke-dashoffset:0;stroke-opacity:0.91769547;paint-order:markers fill stroke"
       id="path3673"
       cx="29.198662"
       cy="224.33408"
       r="5.5751486" />
    <path
       style="fill:none;fill-rule:evenodd;stroke:#204a87;stroke-width:1.66499996;stroke-linecap:butt;stroke-linejoin:miter;stroke-miterlimit:4;stroke-dasharray:none;stroke-opacity:1;marker-end:url(#Arrow2Mend)"
       d="m 50.270832,221.78275 30.049107,-4.91369"
       id="path3675"
       inkscape:connector-curvature="0" />
  </g>
</svg>
