<?xml version="1.0" encoding="UTF-8"?>
<!-- Created with Inkscape (http://www.inkscape.org/) -->
<svg width="700pt" height="500pt" version="1.1" viewBox="0 0 246.94 176.39" xmlns="http://www.w3.org/2000/svg" xmlns:cc="http://creativecommons.org/ns#" xmlns:dc="http://purl.org/dc/elements/1.1/" xmlns:rdf="http://www.w3.org/1999/02/22-rdf-syntax-ns#" xmlns:xlink="http://www.w3.org/1999/xlink">
 <defs>
  <marker id="marker7494" overflow="visible" orient="auto">
   <path transform="scale(.6) rotate(180) translate(0)" d="m8.7186 4.0337-10.926-4.0177 10.926-4.0177c-1.7455 2.3721-1.7354 5.6175-6e-7 8.0354z" fill="#f57900" fill-rule="evenodd" stroke="#f57900" stroke-linejoin="round" stroke-width=".625"/>
  </marker>
  <marker id="marker4746" overflow="visible" orient="auto">
   <path transform="scale(.6) rotate(180) translate(0)" d="m8.7186 4.0337-10.926-4.0177 10.926-4.0177c-1.7455 2.3721-1.7354 5.6175-6e-7 8.0354z" fill="#f57900" fill-rule="evenodd" stroke="#f57900" stroke-linejoin="round" stroke-width=".625"/>
  </marker>
  <marker id="marker2007" overflow="visible" orient="auto">
   <path transform="scale(.6) rotate(180) translate(0)" d="m8.7186 4.0337-10.926-4.0177 10.926-4.0177c-1.7455 2.3721-1.7354 5.6175-6e-7 8.0354z" fill="#729fcf" fill-rule="evenodd" stroke="#729fcf" stroke-linejoin="round" stroke-width=".625"/>
  </marker>
  <marker id="marker1863" overflow="visible" orient="auto">
   <path transform="scale(.6) rotate(180) translate(0)" d="m8.7186 4.0337-10.926-4.0177 10.926-4.0177c-1.7455 2.3721-1.7354 5.6175-6e-7 8.0354z" fill="#729fcf" fill-rule="evenodd" stroke="#729fcf" stroke-linejoin="round" stroke-width=".625"/>
  </marker>
  <marker id="marker1755" overflow="visible" orient="auto">
   <path transform="scale(.6) rotate(180) translate(0)" d="m8.7186 4.0337-10.926-4.0177 10.926-4.0177c-1.7455 2.3721-1.7354 5.6175-6e-7 8.0354z" fill="#729fcf" fill-rule="evenodd" stroke="#729fcf" stroke-linejoin="round" stroke-width=".625"/>
  </marker>
  <marker id="Arrow2Mend" overflow="visible" orient="auto">
   <path transform="scale(.6) rotate(180) translate(0)" d="m8.7186 4.0337-10.926-4.0177 10.926-4.0177c-1.7455 2.3721-1.7354 5.6175-6e-7 8.0354z" fill="#729fcf" fill-rule="evenodd" stroke="#729fcf" stroke-linejoin="round" stroke-width=".625"/>
  </marker>
  <linearGradient id="linearGradient853">
   <stop stop-color="#ef2929" offset="0"/>
   <stop stop-color="#ef2929" stop-opacity="0" offset="1"/>
  </linearGradient>
  <radialGradient id="radialGradient855" cx="123.47" cy="208.81" r="16.805" gradientTransform="translate(-37.042)" gradientUnits="userSpaceOnUse" xlink:href="#linearGradient853"/>
  <radialGradient id="radialGradient878" cx="123.47" cy="208.81" r="16.805" gradientTransform="translate(37.042)" gradientUnits="userSpaceOnUse" xlink:href="#linearGradient853"/>
 </defs>
 <metadata>
  <rdf:RDF>
   <cc:Work rdf:about="">
    <dc:format>image/svg+xml</dc:format>
    <dc:type rdf:resource="http://purl.org/dc/dcmitype/StillImage"/>
    <dc:title/>
   </cc:Work>
  </rdf:RDF>
 </metadata>
 <g transform="translate(0 -120.61)">
  <g>
   <path d="m80.368 147.2a17.387 92.793 0 0 1 4.4142 61.61 17.387 92.793 0 0 1-4.4085 61.61h12.113a17.387 92.793 0 0 1-4.4085-61.61 17.387 92.793 0 0 1 4.4142-61.61h-6.304z" fill="#a40000" fill-opacity=".36333" style="paint-order:markers fill stroke"/>
   <path d="m154.45 147.2a17.387 92.793 0 0 1 4.4142 61.61 17.387 92.793 0 0 1-4.4085 61.61h12.113a17.387 92.793 0 0 1-4.4085-61.61 17.387 92.793 0 0 1 4.4142-61.61h-6.304z" fill="#a40000" fill-opacity=".36333" style="paint-order:markers fill stroke"/>
   <circle cx="86.431" cy="208.81" r="16.805" fill="url(#radialGradient855)" style="paint-order:markers fill stroke"/>
   <circle cx="160.51" cy="208.81" r="16.805" fill="url(#radialGradient878)" style="paint-order:markers fill stroke"/>
  </g>
  <g transform="translate(69.359 -40.443)">
   <g fill="#729fcf" fill-rule="evenodd" stroke="#729fcf" stroke-width=".5571">
    <path d="m-56.885 203.38h21.961" marker-end="url(#Arrow2Mend)"/>
    <path d="m-56.885 207.09h21.961" marker-end="url(#marker1755)"/>
    <path d="m-56.885 210.8h21.961" marker-end="url(#marker1863)"/>
    <path d="m-56.885 214.51h21.961" marker-end="url(#marker2007)"/>
   </g>
   <rect x="-51.282" y="204.84" width="9.1278" height="7.8626" fill="#fff" fill-opacity=".36333" style="paint-order:markers fill stroke"/>
   <text x="-50.197723" y="212.41502" fill="#204a87" font-family="'Liberation Sans'" font-size="2.3618px" letter-spacing="0px" stroke-width=".12652px" word-spacing="0px" style="line-height:125%" xml:space="preserve"><tspan x="-50.197723" y="212.41502" fill="#204a87" font-size="10.797px" stroke-width=".12652px">B</tspan></text>
  </g>
  <path d="m142.98 262.69-3.4077-3.4077c-2.0044-2.0044 0.0285-4.9649-3.7418-3.7418-3.7409 1.2136-5.6071 0.26446-3.3409-3.3409 5.6307-8.958 0.93106-5.6134-3.1738-3.1738-8.8481 5.2586-5.9549-0.58385-3.9756-3.9756 7.8383-13.432 0.85436-7.2526-4.4768-4.4768-8.5768 4.4659-6.2076-0.20883-3.8754-3.8754 4.5752-7.193 3.3324-7.6818-4.4434-4.4434-3.5707 1.4871-1.6643-1.6643-4.5436-4.5436l-4.3431-4.3431" fill="none" marker-end="url(#marker4746)" stroke="#f57900" stroke-width="1.065"/>
  <path d="m218.52 263.96-3.4077-3.4077c-2.0044-2.0044 0.0285-4.9649-3.7418-3.7418-3.7409 1.2136-5.6071 0.26446-3.3409-3.3409 5.6307-8.958 0.93106-5.6134-3.1738-3.1738-8.8481 5.2586-5.9549-0.58384-3.9756-3.9756 7.8383-13.432 0.85436-7.2526-4.4768-4.4768-8.5768 4.4658-6.2076-0.20884-3.8754-3.8754 4.5752-7.193 3.3324-7.6818-4.4434-4.4434-3.5707 1.4871-1.6643-1.6643-4.5436-4.5436l-4.3431-4.3431" fill="none" marker-end="url(#marker7494)" stroke="#f57900" stroke-width="1.065"/>
  <path d="m246.88 202.74a185.87 17.387 0 0 1-123.41 4.4142 185.87 17.387 0 0 1-123.41-4.4085v12.113a185.87 17.387 0 0 1 123.41-4.4085 185.87 17.387 0 0 1 123.41 4.4142v-6.304z" fill="#a40000" fill-opacity=".36333" style="paint-order:markers fill stroke"/>
 </g>
</svg>
