<?xml version="1.0" encoding="UTF-8" standalone="no"?>
<!-- Created with Inkscape (http://www.inkscape.org/) -->

<svg
   xmlns:dc="http://purl.org/dc/elements/1.1/"
   xmlns:cc="http://creativecommons.org/ns#"
   xmlns:rdf="http://www.w3.org/1999/02/22-rdf-syntax-ns#"
   xmlns:svg="http://www.w3.org/2000/svg"
   xmlns="http://www.w3.org/2000/svg"
   xmlns:sodipodi="http://sodipodi.sourceforge.net/DTD/sodipodi-0.dtd"
   xmlns:inkscape="http://www.inkscape.org/namespaces/inkscape"
   width="700mm"
   height="500mm"
   viewBox="0 0 700 500"
   version="1.1"
   id="svg3844"
   inkscape:version="0.92.3 (2405546, 2018-03-11)"
   sodipodi:docname="FResonance.svg">
  <defs
     id="defs3838">
    <marker
       inkscape:stockid="Arrow1Mend"
       orient="auto"
       refY="0.0"
       refX="0.0"
       id="marker4439"
       style="overflow:visible;"
       inkscape:isstock="true">
      <path
         id="path4437"
         d="M 0.0,0.0 L 5.0,-5.0 L -12.5,0.0 L 5.0,5.0 L 0.0,0.0 z "
         style="fill-rule:evenodd;stroke:#555753;stroke-width:1pt;stroke-opacity:1;fill:#555753;fill-opacity:1"
         transform="scale(0.4) rotate(180) translate(10,0)" />
    </marker>
    <marker
       inkscape:stockid="Arrow1Mstart"
       orient="auto"
       refY="0.0"
       refX="0.0"
       id="Arrow1Mstart"
       style="overflow:visible"
       inkscape:isstock="true">
      <path
         id="path842"
         d="M 0.0,0.0 L 5.0,-5.0 L -12.5,0.0 L 5.0,5.0 L 0.0,0.0 z "
         style="fill-rule:evenodd;stroke:#555753;stroke-width:1pt;stroke-opacity:1;fill:#555753;fill-opacity:1"
         transform="scale(0.4) translate(10,0)" />
    </marker>
    <marker
       inkscape:stockid="Arrow1Mend"
       orient="auto"
       refY="0.0"
       refX="0.0"
       id="Arrow1Mend"
       style="overflow:visible;"
       inkscape:isstock="true">
      <path
         id="path845"
         d="M 0.0,0.0 L 5.0,-5.0 L -12.5,0.0 L 5.0,5.0 L 0.0,0.0 z "
         style="fill-rule:evenodd;stroke:#000000;stroke-width:1pt;stroke-opacity:1;fill:#000000;fill-opacity:1"
         transform="scale(0.4) rotate(180) translate(10,0)" />
    </marker>
    <clipPath
       clipPathUnits="userSpaceOnUse"
       id="clipPath22">
      <path
         d="M 17.64,17.64 H 342.36 V 126.36 H 17.64 Z"
         id="path20"
         inkscape:connector-curvature="0" />
    </clipPath>
  </defs>
  <sodipodi:namedview
     id="base"
     pagecolor="#ffffff"
     bordercolor="#666666"
     borderopacity="1.0"
     inkscape:pageopacity="0.0"
     inkscape:pageshadow="2"
     inkscape:zoom="0.49497475"
     inkscape:cx="1056.3279"
     inkscape:cy="1199.6846"
     inkscape:document-units="mm"
     inkscape:current-layer="layer1"
     showgrid="false"
     inkscape:window-width="2560"
     inkscape:window-height="1375"
     inkscape:window-x="0"
     inkscape:window-y="0"
     inkscape:window-maximized="1" />
  <metadata
     id="metadata3841">
    <rdf:RDF>
      <cc:Work
         rdf:about="">
        <dc:format>image/svg+xml</dc:format>
        <dc:type
           rdf:resource="http://purl.org/dc/dcmitype/StillImage" />
        <dc:title></dc:title>
      </cc:Work>
    </rdf:RDF>
  </metadata>
  <g
     inkscape:label="Layer 1"
     inkscape:groupmode="layer"
     id="layer1"
     transform="translate(0,203)">
    <path
       style="fill:none;fill-rule:evenodd;stroke:#555753;stroke-width:2.165;stroke-linecap:butt;stroke-linejoin:miter;stroke-opacity:1;stroke-miterlimit:4;stroke-dasharray:none;marker-start:url(#Arrow1Mstart);marker-end:url(#marker4439)"
       d="M 121.5507,-82.959132 V 176.82684 h 457.0309"
       id="path4389"
       inkscape:connector-curvature="0" />
    <g
       aria-label="σ"
       style="font-style:normal;font-variant:normal;font-weight:normal;font-stretch:normal;font-size:4.93888855px;line-height:125%;font-family:'Liberation Sans';-inkscape-font-specification:'Liberation Sans';letter-spacing:0px;word-spacing:0px;fill:#000000;fill-opacity:1;stroke:none;stroke-width:0.26458332px;stroke-linecap:butt;stroke-linejoin:miter;stroke-opacity:1"
       id="text4587">
      <path
         d="m 77.031816,41.42279 q 0,2.656857 -1.444184,4.145139 -1.43316,1.488281 -3.957726,1.488281 -2.645833,0 -4.056944,-1.543403 -1.411111,-1.554427 -1.411111,-4.453819 0,-2.921441 1.653645,-4.53099 1.653646,-1.620573 4.718403,-1.620573 h 6.27283 v 1.444184 h -1.81901 l -1.631597,-0.06615 v 0.0441 q 0.892968,1.333941 1.278819,2.557639 0.396875,1.223697 0.396875,2.53559 z m -2.083594,0.03307 q 0,-2.811198 -1.367014,-5.104254 h -0.981163 q -2.028472,0 -3.186024,1.234722 -1.157552,1.234723 -1.157552,3.450608 0,4.553038 3.285243,4.553038 1.66467,0 2.53559,-1.058333 0.87092,-1.069358 0.87092,-3.075781 z"
         style="font-size:22.57777786px;stroke-width:0.26458332px"
         id="path4593" />
    </g>
    <g
       aria-label="Parameter"
       style="font-style:normal;font-variant:normal;font-weight:normal;font-stretch:normal;font-size:4.93888855px;line-height:125%;font-family:'Liberation Sans';-inkscape-font-specification:'Liberation Sans';letter-spacing:0px;word-spacing:0px;fill:#000000;fill-opacity:1;stroke:none;stroke-width:0.26458332px;stroke-linecap:butt;stroke-linejoin:miter;stroke-opacity:1"
       id="text4591">
      <path
         d="m 312.95053,207.60586 q 0,1.65364 -1.08313,2.62929 -1.07487,0.97565 -2.92696,0.97565 h -3.42304 v 4.53926 h -1.57923 v -11.64993 h 4.90305 q 1.95958,0 3.03444,0.91777 1.07487,0.91777 1.07487,2.58796 z m -1.5875,0.0165 q 0,-2.25722 -2.71197,-2.25722 h -3.13366 v 4.59713 h 3.1998 q 2.64583,0 2.64583,-2.33991 z"
         style="font-size:16.93333244px;stroke-width:0.26458332px"
         id="path4596" />
      <path
         d="m 317.28309,215.91543 q -1.34772,0 -2.02572,-0.71107 -0.67799,-0.71107 -0.67799,-1.9513 0,-1.38907 0.9095,-2.13321 0.91777,-0.74414 2.95176,-0.79375 l 2.00918,-0.0331 v -0.48783 q 0,-1.0914 -0.46302,-1.56269 -0.46302,-0.47129 -1.45521,-0.47129 -1.00046,0 -1.45521,0.339 -0.45475,0.339 -0.5457,1.08314 l -1.55443,-0.14056 q 0.38034,-2.41433 3.58841,-2.41433 1.68672,0 2.53835,0.77722 0.85163,0.76894 0.85163,2.23242 v 3.85299 q 0,0.66146 0.17363,1.00046 0.17363,0.33073 0.66146,0.33073 0.21497,0 0.48782,-0.0579 v 0.92604 q -0.56224,0.13229 -1.14928,0.13229 -0.82682,0 -1.20716,-0.42994 -0.37207,-0.43822 -0.42168,-1.36426 h -0.0496 q -0.57051,1.02526 -1.33119,1.45521 -0.75241,0.42168 -1.83554,0.42168 z m 0.33899,-1.11622 q 0.81856,0 1.45521,-0.37207 0.63666,-0.37207 1.00046,-1.01699 0.37207,-0.65319 0.37207,-1.33945 v -0.73587 l -1.62884,0.0331 q -1.05007,0.0165 -1.59577,0.21497 -0.53744,0.19844 -0.82682,0.61185 -0.28939,0.41341 -0.28939,1.08314 0,0.7276 0.3886,1.12448 0.39688,0.39687 1.12448,0.39687 z"
         style="font-size:16.93333244px;stroke-width:0.26458332px"
         id="path4598" />
      <path
         d="m 324.45991,215.75006 v -6.86263 q 0,-0.94258 -0.0496,-2.08359 h 1.4056 q 0.0661,1.52135 0.0661,1.82728 h 0.0331 q 0.35553,-1.14929 0.81855,-1.57097 0.46302,-0.42168 1.30638,-0.42168 0.29766,0 0.60358,0.0827 v 1.36425 q -0.29765,-0.0827 -0.79375,-0.0827 -0.92604,0 -1.41386,0.80202 -0.48783,0.79375 -0.48783,2.28203 v 4.66328 z"
         style="font-size:16.93333244px;stroke-width:0.26458332px"
         id="path4600" />
      <path
         d="m 332.36433,215.91543 q -1.34772,0 -2.02571,-0.71107 -0.678,-0.71107 -0.678,-1.9513 0,-1.38907 0.90951,-2.13321 0.91777,-0.74414 2.95176,-0.79375 l 2.00918,-0.0331 v -0.48783 q 0,-1.0914 -0.46302,-1.56269 -0.46303,-0.47129 -1.45521,-0.47129 -1.00046,0 -1.45521,0.339 -0.45475,0.339 -0.5457,1.08314 l -1.55443,-0.14056 q 0.38034,-2.41433 3.58841,-2.41433 1.68672,0 2.53835,0.77722 0.85162,0.76894 0.85162,2.23242 v 3.85299 q 0,0.66146 0.17364,1.00046 0.17363,0.33073 0.66146,0.33073 0.21497,0 0.48782,-0.0579 v 0.92604 q -0.56224,0.13229 -1.14928,0.13229 -0.82683,0 -1.20716,-0.42994 -0.37207,-0.43822 -0.42168,-1.36426 h -0.0496 q -0.57051,1.02526 -1.33119,1.45521 -0.75241,0.42168 -1.83555,0.42168 z m 0.339,-1.11622 q 0.81856,0 1.45521,-0.37207 0.63665,-0.37207 1.00046,-1.01699 0.37207,-0.65319 0.37207,-1.33945 v -0.73587 l -1.62884,0.0331 q -1.05007,0.0165 -1.59577,0.21497 -0.53744,0.19844 -0.82683,0.61185 -0.28938,0.41341 -0.28938,1.08314 0,0.7276 0.3886,1.12448 0.39688,0.39687 1.12448,0.39687 z"
         style="font-size:16.93333244px;stroke-width:0.26458332px"
         id="path4602" />
      <path
         d="m 344.71707,215.75006 v -5.672 q 0,-1.29812 -0.35553,-1.79421 -0.35554,-0.49609 -1.28158,-0.49609 -0.95085,0 -1.50482,0.7276 -0.55397,0.72761 -0.55397,2.05052 v 5.18418 h -1.48001 v -7.03626 q 0,-1.5627 -0.0496,-1.90996 h 1.4056 q 0.008,0.0413 0.0165,0.22324 0.008,0.1819 0.0165,0.42168 0.0165,0.23151 0.0331,0.8847 h 0.0248 q 0.47956,-0.95085 1.09967,-1.32292 0.62012,-0.37207 1.51309,-0.37207 1.01699,0 1.60403,0.40515 0.59532,0.40514 0.82683,1.28984 h 0.0248 q 0.46302,-0.90124 1.11621,-1.29811 0.66146,-0.39688 1.59577,-0.39688 1.35599,0 1.96784,0.73588 0.62012,0.73587 0.62012,2.41432 v 5.96139 h -1.47175 v -5.672 q 0,-1.29812 -0.35553,-1.79421 -0.35554,-0.49609 -1.28158,-0.49609 -0.97565,0 -1.52135,0.7276 -0.53744,0.71934 -0.53744,2.05052 v 5.18418 z"
         style="font-size:16.93333244px;stroke-width:0.26458332px"
         id="path4604" />
      <path
         d="m 354.77124,211.59114 q 0,1.53789 0.63665,2.37298 0.63665,0.83509 1.86035,0.83509 0.96738,0 1.54616,-0.3886 0.58704,-0.38861 0.79375,-0.98392 l 1.30638,0.37207 q -0.80202,2.11667 -3.64629,2.11667 -1.98437,0 -3.02617,-1.18236 -1.03353,-1.18236 -1.03353,-3.514 0,-2.21588 1.03353,-3.39824 1.0418,-1.18236 2.96829,-1.18236 3.94395,0 3.94395,4.75423 v 0.19844 z m 4.84518,-1.14101 q -0.12403,-1.41387 -0.71934,-2.05879 -0.59531,-0.65319 -1.71152,-0.65319 -1.08314,0 -1.71979,0.7276 -0.62839,0.71934 -0.678,1.98438 z"
         style="font-size:16.93333244px;stroke-width:0.26458332px"
         id="path4606" />
      <path
         d="m 366.49558,215.68392 q -0.73587,0.19843 -1.50482,0.19843 -1.78593,0 -1.78593,-2.02571 v -5.96966 h -1.03353 v -1.08314 h 1.0914 l 0.43822,-2.00091 h 0.99219 v 2.00091 h 1.65364 v 1.08314 h -1.65364 v 5.6472 q 0,0.64492 0.2067,0.9095 0.21498,0.25632 0.73587,0.25632 0.29766,0 0.8599,-0.11576 z"
         style="font-size:16.93333244px;stroke-width:0.26458332px"
         id="path4608" />
      <path
         d="m 368.89337,211.59114 q 0,1.53789 0.63665,2.37298 0.63665,0.83509 1.86035,0.83509 0.96738,0 1.54616,-0.3886 0.58704,-0.38861 0.79375,-0.98392 l 1.30638,0.37207 q -0.80202,2.11667 -3.64629,2.11667 -1.98437,0 -3.02617,-1.18236 -1.03353,-1.18236 -1.03353,-3.514 0,-2.21588 1.03353,-3.39824 1.0418,-1.18236 2.96829,-1.18236 3.94395,0 3.94395,4.75423 v 0.19844 z m 4.84518,-1.14101 q -0.12402,-1.41387 -0.71934,-2.05879 -0.59531,-0.65319 -1.71152,-0.65319 -1.08314,0 -1.71979,0.7276 -0.62839,0.71934 -0.678,1.98438 z"
         style="font-size:16.93333244px;stroke-width:0.26458332px"
         id="path4610" />
      <path
         d="m 377.21121,215.75006 v -6.86263 q 0,-0.94258 -0.0496,-2.08359 h 1.40559 q 0.0661,1.52135 0.0661,1.82728 h 0.0331 q 0.35554,-1.14929 0.81856,-1.57097 0.46302,-0.42168 1.30638,-0.42168 0.29765,0 0.60358,0.0827 v 1.36425 q -0.29766,-0.0827 -0.79375,-0.0827 -0.92604,0 -1.41387,0.80202 -0.48782,0.79375 -0.48782,2.28203 v 4.66328 z"
         style="font-size:16.93333244px;stroke-width:0.26458332px"
         id="path4612" />
    </g>
    <g
       id="g16"
       transform="matrix(1.5421949,0,0,-1.5421949,70.661061,129.02648)">
      <g
         id="g18"
         clip-path="url(#clipPath22)">
        <path
           d="m 32.4,55.256779 18.930661,-0.874384 15.381163,-0.923947 13.014829,-0.999779 10.648497,-1.028552 9.465331,-1.135111 7.690579,-1.129286 7.099,-1.261775 5.91583,-1.260749 5.32425,-1.343002 4.73267,-1.401592 4.73266,-1.644619 4.14108,-1.683025 3.5495,-1.65958 3.5495,-1.892371 3.5495,-2.15349 3.5495,-2.42912 4.14108,-3.143984 5.91583,-4.550394 1.77475,-1.103652 1.18317,-0.566381 1.18316,-0.372 1.18317,-0.11638 1.18317,0.209212 1.18316,0.610879 1.18317,1.089658 1.18317,1.638596 1.18316,2.239965 1.18317,2.863596 1.18317,3.467622 1.77474,6.169485 2.95792,11.690014 2.36633,9.06356 1.77475,5.874947 1.18317,3.332167 1.18317,2.839024 1.18316,2.359015 1.18317,1.912866 1.18316,1.512541 1.18317,1.163044 1.18317,0.864465 1.18316,0.613782 1.18317,0.406298 1.77475,0.301645 1.77475,0.02373 2.36633,-0.264108 2.95792,-0.621159 4.73266,-1.299096 11.24008,-3.175347 6.50742,-1.569919 6.50741,-1.345409 7.099,-1.24422 8.28216,-1.210346 8.87375,-1.069735 10.6485,-1.047416 12.42325,-0.980017 14.19799,-0.889086 17.15591,-0.84193 14.198,-0.55862 v 0"
           style="fill:none;stroke:#1f77b4;stroke-width:1.5;stroke-linecap:butt;stroke-linejoin:round;stroke-miterlimit:10;stroke-dasharray:none;stroke-dashoffset:0;stroke-opacity:1"
           id="path24"
           inkscape:connector-curvature="0" />
      </g>
    </g>
  </g>
</svg>
