<?xml version="1.0" encoding="UTF-8" standalone="no"?>
<!-- Created with Inkscape (http://www.inkscape.org/) -->

<svg
   xmlns:dc="http://purl.org/dc/elements/1.1/"
   xmlns:cc="http://creativecommons.org/ns#"
   xmlns:rdf="http://www.w3.org/1999/02/22-rdf-syntax-ns#"
   xmlns:svg="http://www.w3.org/2000/svg"
   xmlns="http://www.w3.org/2000/svg"
   xmlns:sodipodi="http://sodipodi.sourceforge.net/DTD/sodipodi-0.dtd"
   xmlns:inkscape="http://www.inkscape.org/namespaces/inkscape"
   width="700mm"
   height="500mm"
   viewBox="0 0 700 500"
   version="1.1"
   id="svg3844"
   inkscape:version="0.92.3 (2405546, 2018-03-11)"
   sodipodi:docname="FResonanceExplain.svg">
  <defs
     id="defs3838">
    <marker
       inkscape:stockid="Arrow1Mend"
       orient="auto"
       refY="0.0"
       refX="0.0"
       id="marker1223"
       style="overflow:visible;"
       inkscape:isstock="true">
      <path
         id="path930"
         d="M 0.0,0.0 L 5.0,-5.0 L -12.5,0.0 L 5.0,5.0 L 0.0,0.0 z "
         style="fill-rule:evenodd;stroke:#ce5c00;stroke-width:1pt;stroke-opacity:1;fill:#ce5c00;fill-opacity:1"
         transform="scale(0.4) rotate(180) translate(10,0)" />
    </marker>
    <marker
       inkscape:stockid="Arrow1Mstart"
       orient="auto"
       refY="0.0"
       refX="0.0"
       id="marker1184"
       style="overflow:visible"
       inkscape:isstock="true">
      <path
         id="path927"
         d="M 0.0,0.0 L 5.0,-5.0 L -12.5,0.0 L 5.0,5.0 L 0.0,0.0 z "
         style="fill-rule:evenodd;stroke:#ce5c00;stroke-width:1pt;stroke-opacity:1;fill:#ce5c00;fill-opacity:1"
         transform="scale(0.4) translate(10,0)" />
    </marker>
    <inkscape:perspective
       sodipodi:type="inkscape:persp3d"
       inkscape:vp_x="0 : 250 : 1"
       inkscape:vp_y="0 : 1000 : 0"
       inkscape:vp_z="700 : 250 : 1"
       inkscape:persp3d-origin="350 : 166.66667 : 1"
       id="perspective899" />
    <marker
       inkscape:stockid="Arrow1Mend"
       orient="auto"
       refY="0.0"
       refX="0.0"
       id="marker4439"
       style="overflow:visible;"
       inkscape:isstock="true">
      <path
         id="path4437"
         d="M 0.0,0.0 L 5.0,-5.0 L -12.5,0.0 L 5.0,5.0 L 0.0,0.0 z "
         style="fill-rule:evenodd;stroke:#555753;stroke-width:1pt;stroke-opacity:1;fill:#555753;fill-opacity:1"
         transform="scale(0.4) rotate(180) translate(10,0)" />
    </marker>
    <marker
       inkscape:stockid="Arrow1Mstart"
       orient="auto"
       refY="0.0"
       refX="0.0"
       id="Arrow1Mstart"
       style="overflow:visible"
       inkscape:isstock="true">
      <path
         id="path842"
         d="M 0.0,0.0 L 5.0,-5.0 L -12.5,0.0 L 5.0,5.0 L 0.0,0.0 z "
         style="fill-rule:evenodd;stroke:#555753;stroke-width:1pt;stroke-opacity:1;fill:#555753;fill-opacity:1"
         transform="scale(0.4) translate(10,0)" />
    </marker>
    <marker
       inkscape:stockid="Arrow1Mend"
       orient="auto"
       refY="0.0"
       refX="0.0"
       id="Arrow1Mend"
       style="overflow:visible;"
       inkscape:isstock="true">
      <path
         id="path845"
         d="M 0.0,0.0 L 5.0,-5.0 L -12.5,0.0 L 5.0,5.0 L 0.0,0.0 z "
         style="fill-rule:evenodd;stroke:#000000;stroke-width:1pt;stroke-opacity:1;fill:#000000;fill-opacity:1"
         transform="scale(0.4) rotate(180) translate(10,0)" />
    </marker>
    <clipPath
       clipPathUnits="userSpaceOnUse"
       id="clipPath22">
      <path
         d="M 17.64,17.64 H 342.36 V 126.36 H 17.64 Z"
         id="path20"
         inkscape:connector-curvature="0" />
    </clipPath>
  </defs>
  <sodipodi:namedview
     id="base"
     pagecolor="#ffffff"
     bordercolor="#666666"
     borderopacity="1.0"
     inkscape:pageopacity="0.0"
     inkscape:pageshadow="2"
     inkscape:zoom="0.7"
     inkscape:cx="1463.2912"
     inkscape:cy="829.41367"
     inkscape:document-units="mm"
     inkscape:current-layer="text4591"
     showgrid="false"
     inkscape:window-width="2560"
     inkscape:window-height="1375"
     inkscape:window-x="0"
     inkscape:window-y="0"
     inkscape:window-maximized="1" />
  <metadata
     id="metadata3841">
    <rdf:RDF>
      <cc:Work
         rdf:about="">
        <dc:format>image/svg+xml</dc:format>
        <dc:type
           rdf:resource="http://purl.org/dc/dcmitype/StillImage" />
        <dc:title></dc:title>
      </cc:Work>
    </rdf:RDF>
  </metadata>
  <g
     inkscape:label="Layer 1"
     inkscape:groupmode="layer"
     id="layer1"
     transform="translate(0,203)">
    <path
       style="fill:none;fill-rule:evenodd;stroke:#555753;stroke-width:2.165;stroke-linecap:butt;stroke-linejoin:miter;stroke-opacity:1;stroke-miterlimit:4;stroke-dasharray:none;marker-start:url(#Arrow1Mstart);marker-end:url(#marker4439)"
       d="M 121.5507,-82.959132 V 176.82684 h 457.0309"
       id="path4389"
       inkscape:connector-curvature="0" />
    <g
       aria-label="σ"
       style="font-style:normal;font-variant:normal;font-weight:normal;font-stretch:normal;font-size:4.93888855px;line-height:125%;font-family:'Liberation Sans';-inkscape-font-specification:'Liberation Sans';letter-spacing:0px;word-spacing:0px;fill:#000000;fill-opacity:1;stroke:none;stroke-width:0.26458332px;stroke-linecap:butt;stroke-linejoin:miter;stroke-opacity:1"
       id="text4587">
      <path
         d="m 77.031816,41.42279 q 0,2.656857 -1.444184,4.145139 -1.43316,1.488281 -3.957726,1.488281 -2.645833,0 -4.056944,-1.543403 -1.411111,-1.554427 -1.411111,-4.453819 0,-2.921441 1.653645,-4.53099 1.653646,-1.620573 4.718403,-1.620573 h 6.27283 v 1.444184 h -1.81901 l -1.631597,-0.06615 v 0.0441 q 0.892968,1.333941 1.278819,2.557639 0.396875,1.223697 0.396875,2.53559 z m -2.083594,0.03307 q 0,-2.811198 -1.367014,-5.104254 h -0.981163 q -2.028472,0 -3.186024,1.234722 -1.157552,1.234723 -1.157552,3.450608 0,4.553038 3.285243,4.553038 1.66467,0 2.53559,-1.058333 0.87092,-1.069358 0.87092,-3.075781 z"
         style="font-size:22.57777786px;stroke-width:0.26458332px"
         id="path4593" />
    </g>
    <g
       aria-label="Parameter"
       style="font-style:normal;font-variant:normal;font-weight:normal;font-stretch:normal;font-size:4.93888855px;line-height:125%;font-family:'Liberation Sans';-inkscape-font-specification:'Liberation Sans';letter-spacing:0px;word-spacing:0px;fill:#000000;fill-opacity:1;stroke:none;stroke-width:0.26458332px;stroke-linecap:butt;stroke-linejoin:miter;stroke-opacity:1"
       id="text4591"
       transform="translate(-0.75595238,10.961309)">
      <g
         aria-label="Magnetic Field"
         style="font-style:normal;font-variant:normal;font-weight:normal;font-stretch:normal;font-size:4.93888855px;line-height:125%;font-family:'Liberation Sans';-inkscape-font-specification:'Liberation Sans';letter-spacing:0px;word-spacing:0px;fill:#000000;fill-opacity:1;stroke:none;stroke-width:0.26458332px;stroke-linecap:butt;stroke-linejoin:miter;stroke-opacity:1"
         id="text875">
        <path
           d="m 312.54893,213.46727 v -6.47678 q 0,-1.07487 0.062,-2.06706 -0.33761,1.23335 -0.60633,1.92926 l -2.50803,6.61458 h -0.92329 l -2.54248,-6.61458 -0.38585,-1.17134 -0.22737,-0.75792 0.0207,0.76481 0.0276,1.30225 v 6.47678 h -1.17134 v -9.70828 h 1.72944 l 2.58382,6.73172 q 0.13781,0.40652 0.26183,0.87505 0.13091,0.46164 0.17226,0.66835 0.0551,-0.27561 0.22737,-0.83371 0.17915,-0.565 0.24116,-0.70969 l 2.53559,-6.73172 h 1.6881 v 9.70828 z"
           style="font-size:14.11111069px;stroke-width:0.26458332px"
           id="path1681" />
        <path
           d="m 317.75792,213.60507 q -1.1231,0 -1.6881,-0.59255 -0.565,-0.59256 -0.565,-1.62609 0,-1.15755 0.75793,-1.77767 0.76481,-0.62011 2.45979,-0.66146 l 1.67432,-0.0276 v -0.40652 q 0,-0.9095 -0.38585,-1.30224 -0.38585,-0.39274 -1.21267,-0.39274 -0.83372,0 -1.21268,0.28249 -0.37896,0.2825 -0.45475,0.90262 l -1.29536,-0.11713 q 0.31695,-2.01194 2.99035,-2.01194 1.4056,0 2.11529,0.64768 0.70969,0.64079 0.70969,1.86035 v 3.21083 q 0,0.55121 0.14469,0.83371 0.14469,0.27561 0.55121,0.27561 0.17915,0 0.40653,-0.0482 v 0.7717 q -0.46854,0.11024 -0.95774,0.11024 -0.68902,0 -1.00597,-0.35829 -0.31006,-0.36518 -0.3514,-1.13688 h -0.0413 q -0.47542,0.85438 -1.10932,1.21267 -0.62701,0.3514 -1.52962,0.3514 z m 0.2825,-0.93017 q 0.68212,0 1.21267,-0.31006 0.53054,-0.31006 0.83371,-0.84749 0.31006,-0.54433 0.31006,-1.11621 v -0.61323 l -1.35737,0.0276 q -0.87505,0.0138 -1.3298,0.17914 -0.44787,0.16537 -0.68902,0.50988 -0.24116,0.34451 -0.24116,0.90261 0,0.60634 0.32384,0.93707 0.33073,0.33073 0.93707,0.33073 z"
           style="font-size:14.11111069px;stroke-width:0.26458332px"
           id="path1683" />
        <path
           d="m 326.53602,216.3956 q -1.21956,0 -1.94303,-0.48231 -0.72347,-0.47543 -0.93018,-1.35737 l 1.24713,-0.17914 q 0.12402,0.51676 0.54432,0.79237 0.42719,0.28249 1.11621,0.28249 1.85346,0 1.85346,-2.17041 v -1.19889 h -0.0138 q -0.3514,0.71658 -0.96462,1.08176 -0.61323,0.35829 -1.43316,0.35829 -1.37115,0 -2.01883,-0.9095 -0.64079,-0.90951 -0.64079,-2.85943 0,-1.97749 0.68902,-2.91455 0.69591,-0.94396 2.1084,-0.94396 0.79237,0 1.37115,0.36518 0.58566,0.35829 0.90261,1.02664 h 0.0138 q 0,-0.20671 0.0276,-0.71658 0.0276,-0.50988 0.0551,-0.55811 h 1.17822 q -0.0413,0.37207 -0.0413,1.54341 v 5.69818 q 0,3.14193 -3.12126,3.14193 z m 1.88791,-6.65592 q 0,-0.90951 -0.24804,-1.56408 -0.24805,-0.66145 -0.7028,-1.00596 -0.44787,-0.3514 -1.01975,-0.3514 -0.95085,0 -1.38493,0.68901 -0.43408,0.68902 -0.43408,2.23243 0,1.52962 0.40652,2.19797 0.40652,0.66835 1.39182,0.66835 0.58566,0 1.04042,-0.34451 0.45475,-0.34451 0.7028,-0.9853 0.24804,-0.64768 0.24804,-1.53651 z"
           style="font-size:14.11111069px;stroke-width:0.26458332px"
           id="path1685" />
        <path
           d="m 336.29942,213.46727 v -4.72667 q 0,-0.73725 -0.14469,-1.14377 -0.1447,-0.40652 -0.46165,-0.58567 -0.31695,-0.17914 -0.93017,-0.17914 -0.89573,0 -1.41249,0.61322 -0.51677,0.61323 -0.51677,1.70188 v 4.32015 h -1.24023 v -5.86355 q 0,-1.30225 -0.0413,-1.59164 h 1.17133 q 0.007,0.0344 0.0138,0.18604 0.007,0.15158 0.0138,0.3514 0.0138,0.19292 0.0276,0.73725 h 0.0207 q 0.4272,-0.7717 0.9853,-1.08865 0.565,-0.32384 1.39871,-0.32384 1.22645,0 1.79145,0.61323 0.57189,0.60633 0.57189,2.01193 v 4.96783 z"
           style="font-size:14.11111069px;stroke-width:0.26458332px"
           id="path1687" />
        <path
           d="m 340.37152,210.0015 q 0,1.28158 0.53055,1.97749 0.53054,0.69591 1.55029,0.69591 0.80615,0 1.28847,-0.32384 0.4892,-0.32384 0.66145,-0.81993 l 1.08865,0.31005 q -0.66834,1.76389 -3.03857,1.76389 -1.65365,0 -2.52181,-0.98529 -0.86127,-0.9853 -0.86127,-2.92833 0,-1.84658 0.86127,-2.83187 0.86816,-0.9853 2.47358,-0.9853 3.28662,0 3.28662,3.96186 v 0.16536 z m 4.03765,-0.95084 q -0.10335,-1.17823 -0.59944,-1.71566 -0.4961,-0.54432 -1.42627,-0.54432 -0.90262,0 -1.43316,0.60633 -0.52366,0.59945 -0.565,1.65365 z"
           style="font-size:14.11111069px;stroke-width:0.26458332px"
           id="path1689" />
        <path
           d="m 350.14181,213.41215 q -0.61323,0.16536 -1.25401,0.16536 -1.48828,0 -1.48828,-1.68809 v -4.97472 h -0.86128 v -0.90262 h 0.90951 l 0.36518,-1.66742 h 0.82682 v 1.66742 h 1.37804 v 0.90262 h -1.37804 v 4.706 q 0,0.53743 0.17225,0.75792 0.17915,0.2136 0.61323,0.2136 0.24805,0 0.71658,-0.0965 z"
           style="font-size:14.11111069px;stroke-width:0.26458332px"
           id="path1691" />
        <path
           d="m 351.18223,204.42734 v -1.18511 h 1.24024 v 1.18511 z m 0,9.03993 v -7.45519 h 1.24024 v 7.45519 z"
           style="font-size:14.11111069px;stroke-width:0.26458332px"
           id="path1693" />
        <path
           d="m 355.27501,209.70523 q 0,1.48828 0.46853,2.20486 0.46853,0.71658 1.41249,0.71658 0.66146,0 1.10243,-0.35829 0.44786,-0.35829 0.55121,-1.10243 l 1.25402,0.0827 q -0.1447,1.07487 -0.9164,1.71566 -0.7717,0.64078 -1.95681,0.64078 -1.56407,0 -2.3909,-0.98529 -0.81993,-0.99219 -0.81993,-2.88699 0,-1.88103 0.82682,-2.86632 0.82683,-0.99219 2.37023,-0.99219 1.14377,0 1.8948,0.59256 0.75792,0.59255 0.95085,1.63297 l -1.27469,0.0965 q -0.0965,-0.62011 -0.4892,-0.98529 -0.39274,-0.36518 -1.11621,-0.36518 -0.9853,0 -1.42627,0.65456 -0.44097,0.65457 -0.44097,2.20487 z"
           style="font-size:14.11111069px;stroke-width:0.26458332px"
           id="path1695" />
        <path
           d="m 366.82297,204.83386 v 3.61046 h 5.41569 v 1.08865 h -5.41569 v 3.9343 h -1.31603 v -9.70828 h 6.89708 v 1.07487 z"
           style="font-size:14.11111069px;stroke-width:0.26458332px"
           id="path1697" />
        <path
           d="m 373.91986,204.42734 v -1.18511 h 1.24024 v 1.18511 z m 0,9.03993 v -7.45519 h 1.24024 v 7.45519 z"
           style="font-size:14.11111069px;stroke-width:0.26458332px"
           id="path1699" />
        <path
           d="m 378.01953,210.0015 q 0,1.28158 0.53054,1.97749 0.53055,0.69591 1.5503,0.69591 0.80615,0 1.28846,-0.32384 0.48921,-0.32384 0.66146,-0.81993 l 1.08865,0.31005 q -0.66835,1.76389 -3.03857,1.76389 -1.65365,0 -2.52181,-0.98529 -0.86128,-0.9853 -0.86128,-2.92833 0,-1.84658 0.86128,-2.83187 0.86816,-0.9853 2.47357,-0.9853 3.28663,0 3.28663,3.96186 v 0.16536 z m 4.03765,-0.95084 q -0.10335,-1.17823 -0.59945,-1.71566 -0.49609,-0.54432 -1.42627,-0.54432 -0.90261,0 -1.43316,0.60633 -0.52365,0.59945 -0.56499,1.65365 z"
           style="font-size:14.11111069px;stroke-width:0.26458332px"
           id="path1701" />
        <path
           d="m 384.92349,213.46727 v -10.22504 h 1.24024 v 10.22504 z"
           style="font-size:14.11111069px;stroke-width:0.26458332px"
           id="path1703" />
        <path
           d="m 392.77142,212.26838 q -0.3445,0.71658 -0.91639,1.02664 -0.565,0.31005 -1.4056,0.31005 -1.41249,0 -2.08084,-0.95084 -0.66146,-0.95085 -0.66146,-2.8801 0,-3.89985 2.7423,-3.89985 0.84749,0 1.41249,0.31006 0.565,0.31006 0.9095,0.9853 h 0.0138 l -0.0138,-0.83372 v -3.09369 h 1.24024 v 8.68853 q 0,1.16444 0.0413,1.53651 h -1.18511 q -0.0207,-0.11024 -0.0482,-0.50987 -0.0207,-0.39964 -0.0207,-0.68902 z m -3.76204,-2.53559 q 0,1.56407 0.41341,2.23931 0.41341,0.67524 1.34359,0.67524 1.0542,0 1.52962,-0.73036 0.47542,-0.73036 0.47542,-2.26688 0,-1.48139 -0.47542,-2.17041 -0.47542,-0.68901 -1.51584,-0.68901 -0.93707,0 -1.35737,0.6959 -0.41341,0.68902 -0.41341,2.24621 z"
           style="font-size:14.11111069px;stroke-width:0.26458332px"
           id="path1705" />
      </g>
      <g
         aria-label="Bres"
         style="font-style:normal;font-variant:normal;font-weight:normal;font-stretch:normal;font-size:22.87513351px;line-height:125%;font-family:'Liberation Sans';-inkscape-font-specification:'Liberation Sans';letter-spacing:0px;word-spacing:0px;fill:#a40000;fill-opacity:1;stroke:none;stroke-width:0.42890877px;stroke-linecap:butt;stroke-linejoin:miter;stroke-opacity:1"
         id="text883">
        <path
           d="m 381.4811,139.94477 q 0,2.09986 -1.53022,3.27266 -1.53022,1.16163 -4.25558,1.16163 h -6.38895 v -15.73782 h 5.71878 q 5.54007,0 5.54007,3.81996 0,1.39619 -0.78186,2.3456 -0.78187,0.94941 -2.21156,1.27332 1.87647,0.22339 2.8929,1.26215 1.01642,1.0276 1.01642,2.6025 z m -3.06044,-7.22667 q 0,-1.27332 -0.87122,-1.82063 -0.87122,-0.5473 -2.52431,-0.5473 h -3.58541 v 4.98159 h 3.58541 q 1.70893,0 2.54665,-0.63666 0.84888,-0.64783 0.84888,-1.977 z m 0.90473,7.05913 q 0,-2.78121 -3.90933,-2.78121 h -3.97634 v 5.67411 h 4.14388 q 1.95467,0 2.84823,-0.72602 0.89356,-0.72602 0.89356,-2.16688 z"
           style="fill:#a40000;stroke-width:0.42890877px"
           id="path1718" />
        <path
           d="m 383.74069,148.95409 v -6.02595 q 0,-0.82766 -0.0436,-1.82956 h 1.23423 q 0.0581,1.33587 0.0581,1.6045 h 0.029 q 0.31219,-1.00917 0.71876,-1.37944 0.40657,-0.37027 1.14711,-0.37027 0.26136,0 0.52999,0.0726 v 1.19792 q -0.26137,-0.0726 -0.69698,-0.0726 -0.81314,0 -1.24149,0.70424 -0.42835,0.69698 -0.42835,2.00381 v 4.09474 z"
           style="font-size:14.86883545px;baseline-shift:sub;fill:#a40000;stroke-width:0.42890877px"
           id="path1720" />
        <path
           d="m 389.67951,145.30222 q 0,1.35039 0.55904,2.08367 0.55903,0.73328 1.63354,0.73328 0.84944,0 1.35765,-0.34123 0.51547,-0.34123 0.69697,-0.86396 l 1.14711,0.3267 q -0.70424,1.85861 -3.20173,1.85861 -1.74245,0 -2.65723,-1.03821 -0.90752,-1.0382 -0.90752,-3.08557 0,-1.94573 0.90752,-2.98393 0.91478,-1.03821 2.6064,-1.03821 3.46311,0 3.46311,4.1746 v 0.17425 z m 4.25446,-1.00191 q -0.1089,-1.24149 -0.63163,-1.80778 -0.52273,-0.57355 -1.50286,-0.57355 -0.95108,0 -1.51011,0.63889 -0.55178,0.63164 -0.59534,1.74244 z"
           style="font-size:14.86883545px;baseline-shift:sub;fill:#a40000;stroke-width:0.42890877px"
           id="path1722" />
        <path
           d="m 402.84947,146.78329 q 0,1.11081 -0.84218,1.7134 -0.83492,0.6026 -2.34504,0.6026 -1.46656,0 -2.26517,-0.47917 -0.79136,-0.48643 -1.03095,-1.51012 l 1.15437,-0.22506 q 0.16698,0.63163 0.68972,0.9293 0.52273,0.29041 1.45203,0.29041 0.99464,0 1.45203,-0.30493 0.46466,-0.30493 0.46466,-0.91478 0,-0.46466 -0.31945,-0.75506 -0.31945,-0.29041 -1.03095,-0.47917 l -0.93656,-0.24685 q -1.12533,-0.29041 -1.6045,-0.56629 -0.47191,-0.28315 -0.74054,-0.68246 -0.26862,-0.39931 -0.26862,-0.98012 0,-1.07451 0.76232,-1.63354 0.76958,-0.5663 2.23613,-0.5663 1.29957,0 2.06189,0.4574 0.76958,0.45739 0.97286,1.46655 l -1.17615,0.1452 q -0.1089,-0.52273 -0.58807,-0.79862 -0.47191,-0.28314 -1.27053,-0.28314 -0.88574,0 -1.30683,0.26862 -0.42109,0.26863 -0.42109,0.81314 0,0.33397 0.17424,0.55178 0.17425,0.2178 0.51548,0.37027 0.34122,0.15246 1.43751,0.42109 1.0382,0.26136 1.4956,0.48643 0.45739,0.2178 0.71875,0.48643 0.26863,0.26863 0.41383,0.62437 0.14521,0.34849 0.14521,0.79862 z"
           style="font-size:14.86883545px;baseline-shift:sub;fill:#a40000;stroke-width:0.42890877px"
           id="path1724" />
      </g>
      <g
         aria-label="Γ"
         style="font-style:normal;font-variant:normal;font-weight:normal;font-stretch:normal;font-size:35.5374527px;line-height:125%;font-family:'Liberation Sans';-inkscape-font-specification:'Liberation Sans';letter-spacing:0px;word-spacing:0px;fill:#ce5c00;fill-opacity:1;stroke:none;stroke-width:0.66632718px;stroke-linecap:butt;stroke-linejoin:miter;stroke-opacity:1"
         id="text889">
        <path
           d="m 347.17788,-78.596128 v 2.706954 h -12.35482 v 21.742397 h -3.31428 v -24.449351 z"
           style="fill:#ce5c00;stroke-width:0.66632718px"
           id="path1708" />
      </g>
      <g
         aria-label="δbg"
         style="font-style:normal;font-variant:normal;font-weight:normal;font-stretch:normal;font-size:20.74743271px;line-height:125%;font-family:'Liberation Sans';-inkscape-font-specification:'Liberation Sans';letter-spacing:0px;word-spacing:0px;fill:#4e9a06;fill-opacity:1;stroke:none;stroke-width:0.38901433px;stroke-linecap:butt;stroke-linejoin:miter;stroke-opacity:1"
         id="text893">
        <path
           d="m 185.13184,9.0053273 q 0,-0.8813606 -0.27353,-1.6512849 -0.26339,-0.7800548 -0.68888,-1.4385427 -0.41535,-0.6686184 -1.26632,-1.5499791 -1.81338,0.6483573 -2.77578,1.8538966 -0.96241,1.2055393 -0.96241,2.7859101 0,1.7120687 0.79019,2.6744737 0.80031,0.952275 2.20847,0.952275 1.4588,0 2.20846,-0.911753 0.7598,-0.911752 0.7598,-2.7149957 z M 182.52828,0.08028425 180.96817,-7.6040626e-4 184.16943,3.2815483 q 1.2258,1.2561922 1.75259,2.0666388 0.53692,0.800316 0.83071,1.6918072 0.29379,0.8813607 0.29379,1.9248107 0,2.299642 -1.30685,3.65714 -1.30684,1.357498 -3.57609,1.357498 -2.28952,0 -3.60649,-1.327106 -1.30685,-1.327106 -1.30685,-3.6672708 0,-1.965333 1.18528,-3.373484 1.18528,-1.4182815 3.52544,-2.2287281 l -3.23165,-3.43426742 V -1.2569526 h 7.42572 v 1.33723685 z"
           style="fill:#4e9a06;stroke-width:0.38901433px"
           id="path1711" />
        <path
           d="m 194.86175,14.330975 q 0,3.727041 -2.62078,3.727041 -0.80994,0 -1.3499,-0.289735 -0.53337,-0.296319 -0.8692,-0.948222 h -0.0132 q 0,0.204131 -0.0263,0.625563 -0.0263,0.414847 -0.0395,0.480696 h -1.14577 q 0.0395,-0.355583 0.0395,-1.468428 V 8.1543598 h 1.18528 v 2.7854032 q 0,0.428017 -0.0263,1.007486 h 0.0263 q 0.32924,-0.684827 0.8692,-0.981146 0.54655,-0.29632 1.3499,-0.29632 1.3499,0 1.98205,0.908713 0.63873,0.908713 0.63873,2.752479 z m -1.24454,0.03951 q 0,-1.494767 -0.39509,-2.140085 -0.39509,-0.645318 -1.28405,-0.645318 -1.0009,0 -1.46184,0.684827 -0.45436,0.684828 -0.45436,2.17301 0,1.402579 0.44777,2.074236 0.44777,0.665073 1.45526,0.665073 0.89554,0 1.29063,-0.658488 0.40168,-0.665072 0.40168,-2.153255 z"
           style="font-size:13.48582935px;baseline-shift:sub;fill:#4e9a06;stroke-width:0.38901433px"
           id="path1713" />
        <path
           d="m 199.04315,20.724891 q -1.16552,0 -1.85693,-0.460941 -0.69142,-0.454357 -0.88896,-1.297221 l 1.19186,-0.171207 q 0.11853,0.493866 0.52021,0.757261 0.40826,0.26998 1.06675,0.26998 1.77133,0 1.77133,-2.074237 v -1.145768 h -0.0132 q -0.33583,0.684827 -0.92188,1.033826 -0.58606,0.342413 -1.36966,0.342413 -1.31039,0 -1.92937,-0.869204 -0.61239,-0.869204 -0.61239,-2.732724 0,-1.88986 0.65849,-2.785403 0.66507,-0.902128 2.01497,-0.902128 0.75726,0 1.31039,0.348998 0.55971,0.342414 0.86262,0.981147 h 0.0132 q 0,-0.197546 0.0263,-0.684827 0.0263,-0.487281 0.0527,-0.533375 h 1.12601 q -0.0395,0.355583 -0.0395,1.475012 v 5.445694 q 0,3.002704 -2.98295,3.002704 z m 1.80426,-6.360992 q 0,-0.869203 -0.23706,-1.494767 -0.23705,-0.632148 -0.67165,-0.961392 -0.42802,-0.335829 -0.97457,-0.335829 -0.90871,0 -1.32356,0.658488 -0.41484,0.658488 -0.41484,2.1335 0,1.461843 0.3885,2.100576 0.38851,0.638733 1.33015,0.638733 0.55971,0 0.99432,-0.329243 0.4346,-0.329244 0.67165,-0.941638 0.23706,-0.618978 0.23706,-1.468428 z"
           style="font-size:13.48582935px;baseline-shift:sub;fill:#4e9a06;stroke-width:0.38901433px"
           id="path1715" />
      </g>
      <path
         style="fill:none;fill-rule:evenodd;stroke:#a40000;stroke-width:2.06500007;stroke-linecap:butt;stroke-linejoin:miter;stroke-opacity:1;stroke-miterlimit:4;stroke-dasharray:4.13000015,4.13000015;stroke-dashoffset:0"
         d="M 348.64528,-14.754765 V 164.40594"
         id="path897"
         inkscape:connector-curvature="0" />
      <path
         style="fill:none;fill-rule:evenodd;stroke:#ce5c00;stroke-width:1.76499999;stroke-linecap:butt;stroke-linejoin:miter;stroke-miterlimit:4;stroke-dasharray:none;stroke-opacity:1;marker-start:url(#marker1184);marker-end:url(#marker1223)"
         d="M 288.01785,-37.130952 H 398.38688"
         id="path919"
         inkscape:connector-curvature="0" />
      <path
         style="fill:none;fill-rule:evenodd;stroke:#4e9a06;stroke-width:1.165;stroke-linecap:butt;stroke-linejoin:miter;stroke-opacity:1;stroke-miterlimit:4;stroke-dasharray:none"
         d="M 233.96726,32.848444 H 121.38413 c 38.69246,-2.717593 78.96528,-4.219523 113.33908,-10.259156"
         id="path1609"
         inkscape:connector-curvature="0"
         sodipodi:nodetypes="ccc" />
    </g>
    <g
       id="g16"
       transform="matrix(1.5421949,0,0,-1.5421949,70.661061,129.02648)">
      <g
         id="g18"
         clip-path="url(#clipPath22)">
        <path
           d="m 32.4,55.256779 18.930661,-0.874384 15.381163,-0.923947 13.014829,-0.999779 10.648497,-1.028552 9.465331,-1.135111 7.690579,-1.129286 7.099,-1.261775 5.91583,-1.260749 5.32425,-1.343002 4.73267,-1.401592 4.73266,-1.644619 4.14108,-1.683025 3.5495,-1.65958 3.5495,-1.892371 3.5495,-2.15349 3.5495,-2.42912 4.14108,-3.143984 5.91583,-4.550394 1.77475,-1.103652 1.18317,-0.566381 1.18316,-0.372 1.18317,-0.11638 1.18317,0.209212 1.18316,0.610879 1.18317,1.089658 1.18317,1.638596 1.18316,2.239965 1.18317,2.863596 1.18317,3.467622 1.77474,6.169485 2.95792,11.690014 2.36633,9.06356 1.77475,5.874947 1.18317,3.332167 1.18317,2.839024 1.18316,2.359015 1.18317,1.912866 1.18316,1.512541 1.18317,1.163044 1.18317,0.864465 1.18316,0.613782 1.18317,0.406298 1.77475,0.301645 1.77475,0.02373 2.36633,-0.264108 2.95792,-0.621159 4.73266,-1.299096 11.24008,-3.175347 6.50742,-1.569919 6.50741,-1.345409 7.099,-1.24422 8.28216,-1.210346 8.87375,-1.069735 10.6485,-1.047416 12.42325,-0.980017 14.19799,-0.889086 17.15591,-0.84193 14.198,-0.55862 v 0"
           style="fill:none;stroke:#1f77b4;stroke-width:1.5;stroke-linecap:butt;stroke-linejoin:round;stroke-miterlimit:10;stroke-dasharray:none;stroke-dashoffset:0;stroke-opacity:1"
           id="path24"
           inkscape:connector-curvature="0" />
      </g>
    </g>
  </g>
</svg>
