<?xml version="1.0" encoding="UTF-8" standalone="no"?>
<!-- Created with matplotlib (https://matplotlib.org/) -->

<svg
   xmlns:dc="http://purl.org/dc/elements/1.1/"
   xmlns:cc="http://creativecommons.org/ns#"
   xmlns:rdf="http://www.w3.org/1999/02/22-rdf-syntax-ns#"
   xmlns:svg="http://www.w3.org/2000/svg"
   xmlns="http://www.w3.org/2000/svg"
   xmlns:sodipodi="http://sodipodi.sourceforge.net/DTD/sodipodi-0.dtd"
   xmlns:inkscape="http://www.inkscape.org/namespaces/inkscape"
   height="255.68283pt"
   version="1.1"
   viewBox="0 0 1278.0349 255.68283"
   width="1278.0349pt"
   id="svg245"
   sodipodi:docname="Orbitals.svg"
   inkscape:version="0.92.3 (2405546, 2018-03-11)">
  <sodipodi:namedview
     pagecolor="#ffffff"
     bordercolor="#666666"
     borderopacity="1"
     objecttolerance="10"
     gridtolerance="10"
     guidetolerance="10"
     inkscape:pageopacity="0"
     inkscape:pageshadow="2"
     inkscape:window-width="2560"
     inkscape:window-height="1375"
     id="namedview247"
     showgrid="false"
     fit-margin-top="0"
     fit-margin-left="0"
     fit-margin-right="0"
     fit-margin-bottom="0"
     inkscape:zoom="1.0243055"
     inkscape:cx="737.43619"
     inkscape:cy="199.97962"
     inkscape:window-x="0"
     inkscape:window-y="0"
     inkscape:window-maximized="1"
     inkscape:current-layer="axes_1" />
  <metadata
     id="metadata2">
    <rdf:RDF>
      <cc:Work>
        <dc:type
           rdf:resource="http://purl.org/dc/dcmitype/StillImage" />
        <dc:date>2020-09-15T14:45:52.487813</dc:date>
        <dc:format>image/svg+xml</dc:format>
        <dc:creator>
          <cc:Agent>
            <dc:title>Matplotlib v3.3.0, https://matplotlib.org/</dc:title>
          </cc:Agent>
        </dc:creator>
        <dc:title></dc:title>
      </cc:Work>
    </rdf:RDF>
  </metadata>
  <defs
     id="defs6"
     style="stroke-linecap:butt;stroke-linejoin:round">
    <style
       type="text/css"
       id="style4">*{stroke-linecap:butt;stroke-linejoin:round;}</style>
  </defs>
  <g
     id="figure_1"
     style="stroke-linecap:butt;stroke-linejoin:round"
     transform="translate(246.42217,-11.174711)">
    <g
       id="axes_1"
       style="stroke-linecap:butt;stroke-linejoin:round">
      <g
         id="line2d_14"
         transform="translate(-354.75255,-35.511861)"
         style="stroke-width:2.25;stroke-linecap:butt;stroke-linejoin:round;stroke-miterlimit:4;stroke-dasharray:none">
        <path
           clip-path="url(#pa55003cd16)"
           d="m 362.88038,174.528 -0.0632,-4.00038 -0.18942,-3.99639 -0.31548,-3.98842 -0.44123,-3.97647 -0.56654,-3.96056 -0.69129,-3.94071 -0.81535,-3.91691 -0.93859,-3.88923 -1.0609,-3.85765 -1.18215,-3.82224 -1.30223,-3.78302 -1.421,-3.74002 -1.53836,-3.6933 -1.65419,-3.6429 -1.76836,-3.58886 -1.88077,-3.53124 -1.99132,-3.47012 -2.09987,-3.40552 -2.20633,-3.33753 -2.31059,-3.266218 -2.41255,-3.191649 -2.5121,-3.113897 -2.60915,-3.033042 -2.7036,-2.949163 -2.79535,-2.862345 -2.88433,-2.772673 -2.97041,-2.680237 -3.05354,-2.585129 -3.13363,-2.487445 -3.21059,-2.387282 -3.28436,-2.284737 -3.35484,-2.179917 -3.42199,-2.072923 -3.48572,-1.963862 -3.54598,-1.852844 -3.60271,-1.739979 -3.65584,-1.62538 -3.70533,-1.50916 -3.75112,-1.391436 -3.79318,-1.272325 -3.83145,-1.151946 -3.86591,-1.030418 -3.89651,-0.907863 -3.92323,-0.784404 -3.94604,-0.660162 -3.96491,-0.535263 -3.97983,-0.409829 -3.99079,-0.283987 -3.99776,-0.157863 -4.00075,-0.03158 -3.99976,0.09473 -3.99477,0.220953 -3.9858,0.346951 -3.97287,0.472605 -3.95596,0.597787 -3.93513,0.722373 -3.91036,0.846239 -3.88169,0.969261 -3.84916,1.091318 -3.81279,1.212287 -3.77262,1.332046 -3.72869,1.450479 -3.68104,1.567465 -3.62973,1.682889 -3.57479,1.796636 -3.51629,1.908591 -3.45429,2.018644 -3.38883,2.126684 -3.32002,2.232606 -3.24788,2.3363 -3.1725,2.437667 -3.09397,2.536604 -3.01236,2.633011 -2.92773,2.726795 -2.84019,2.81786 -2.74982,2.906116 -2.65671,2.991475 -2.56094,3.073853 -2.46263,3.153166 -2.36187,3.229337 -2.25874,3.30229 -2.15337,3.37195 -2.04585,3.43824 -1.93628,3.50112 -1.8248,3.56049 -1.71149,3.61633 -1.59647,3.66856 -1.47986,3.71712 -1.36179,3.76199 -1.24234,3.8031 -1.12167,3.84043 -0.99987,3.87392 -0.87708,3.90356 -0.75341,3.9293 -0.62899,3.95112 -0.50395,3.96901 -0.37841,3.98295 -0.25247,3.9929 -0.1263,3.99888 v 4.00088 l 0.1263,3.99888 0.25247,3.9929 0.37841,3.98295 0.50395,3.96901 0.62899,3.95112 0.75341,3.9293 0.87708,3.90356 0.99987,3.87392 1.12167,3.84043 1.24234,3.8031 1.36179,3.76199 1.47986,3.71712 1.59647,3.66856 1.71149,3.61633 1.8248,3.56049 1.93628,3.50112 2.04585,3.43824 2.15337,3.37195 2.25874,3.30229 2.36187,3.22933 2.46263,3.15317 2.56094,3.07385 2.65671,2.99148 2.74982,2.90611 2.84019,2.81786 2.92773,2.7268 3.01236,2.63301 3.09397,2.5366 3.1725,2.43767 3.24788,2.3363 3.32002,2.23261 3.38883,2.12668 3.45429,2.01864 3.51629,1.9086 3.57479,1.79663 3.62973,1.68289 3.68104,1.56747 3.72869,1.45047 3.77262,1.33205 3.81279,1.21229 3.84916,1.09132 3.88169,0.96926 3.91036,0.84624 3.93513,0.72237 3.95596,0.59779 3.97287,0.4726 3.9858,0.34695 3.99477,0.22095 3.99976,0.0947 4.00075,-0.0316 3.99776,-0.15787 3.99079,-0.28398 3.97983,-0.40983 3.96491,-0.53526 3.94604,-0.66017 3.92323,-0.7844 3.89651,-0.90786 3.86591,-1.03042 3.83145,-1.15195 3.79318,-1.27232 3.75112,-1.39144 3.70533,-1.50916 3.65584,-1.62538 3.60271,-1.73998 3.54598,-1.85284 3.48572,-1.96386 3.42199,-2.07293 3.35484,-2.17991 3.28436,-2.28474 3.21059,-2.38728 3.13363,-2.48745 3.05354,-2.58513 2.97041,-2.68023 2.88433,-2.77268 2.79535,-2.86234 2.7036,-2.94916 2.60915,-3.03305 2.5121,-3.11389 2.41255,-3.19165 2.31059,-3.26622 2.20633,-3.33753 2.09987,-3.40552 1.99132,-3.47012 1.88077,-3.53124 1.76836,-3.58886 1.65419,-3.6429 1.53836,-3.6933 1.421,-3.74002 1.30223,-3.78302 1.18215,-3.82224 1.0609,-3.85766 0.93859,-3.88922 0.81535,-3.91692 0.69129,-3.9407 0.56654,-3.96056 0.44123,-3.97647 0.31548,-3.98842 0.18942,-3.99639 0.0632,-4.00038 v 0"
           style="fill:none;stroke:#1f77b4;stroke-width:2.25;stroke-linecap:square;stroke-linejoin:round;stroke-miterlimit:4;stroke-dasharray:none"
           id="path223"
           inkscape:connector-curvature="0" />
      </g>
      <g
         id="line2d_15"
         transform="translate(-14.008876,-35.51222)"
         style="stroke-width:2.25;stroke-linecap:butt;stroke-linejoin:round;stroke-miterlimit:4;stroke-dasharray:none">
        <path
           clip-path="url(#pa55003cd16)"
           d="m 362.88038,174.528 -0.18939,-3.99639 -0.56682,-3.96853 -0.94032,-3.91306 -1.30727,-3.83044 -1.66513,-3.7214 -2.01146,-3.5869 -2.34388,-3.42807 -2.66015,-3.24634 -2.9582,-3.04322 -3.23606,-2.82053 -3.49197,-2.58015 -3.72435,-2.32417 -3.93184,-2.05482 -4.11328,-1.7744 -4.26771,-1.48532 -4.39447,-1.19008 -4.49305,-0.89121 -4.56326,-0.59125 -4.60511,-0.29278 -4.61886,0.002 -4.605,0.28958 -4.56427,0.56856 -4.49765,0.83622 -4.40629,1.09035 -4.29159,1.32883 -4.1551,1.5497 -3.99862,1.75113 -3.82404,1.93155 -3.63341,2.08948 -3.42894,2.22374 -3.21292,2.33329 -2.98772,2.41738 -2.75579,2.47545 -2.5196,2.5072 -2.28165,2.51256 -2.04444,2.4917 -1.81043,2.44503 -1.58204,2.37321 -1.36161,2.27711 -2.10491,4.17445 -1.37267,3.52994 -0.77642,2.74372 -0.40135,2.41132 -0.0214,0.378 -0.0453,-0.62895 -0.25813,-1.6109 -0.65154,-2.52869 -1.20983,-3.3455 -0.85984,-1.9383 -1.05079,-2.08987 -1.25508,-2.22028 -1.47069,-2.32813 -1.69538,-2.41222 -1.92689,-2.47156 -2.16279,-2.50539 -2.40069,-2.51317 -2.63807,-2.49463 -2.87244,-2.44969 -3.10132,-2.37856 -3.32223,-2.28165 -3.53276,-2.15964 -3.7306,-2.0134 -3.91346,-1.84407 -4.07925,-1.65295 -4.22596,-1.44158 -4.35176,-1.21167 -4.45498,-0.96511 -4.53413,-0.70395 -4.58794,-0.43034 -4.61534,-0.14659 -4.61547,0.1449 -4.58772,0.44167 -4.53171,0.74121 -4.4473,1.04094 -4.33458,1.33831 -4.19392,1.63079 -4.02588,1.91584 -3.83129,2.19103 -3.61119,2.45398 -3.36686,2.70241 -3.09976,2.93421 -2.81159,3.14735 -2.50417,3.33997 -2.17954,3.51045 -1.83989,3.65727 -1.48749,3.77917 -1.12478,3.87509 -0.75423,3.94422 -0.37843,3.98594 v 3.99988 l 0.37843,3.98594 0.75423,3.94421 1.12478,3.8751 1.48749,3.77917 1.83989,3.65727 2.17954,3.51044 2.50417,3.33998 2.81159,3.14735 3.09976,2.9342 3.36686,2.70242 3.61119,2.45398 3.83129,2.19103 4.02588,1.91584 4.19392,1.63079 4.33458,1.33831 4.4473,1.04094 4.53171,0.7412 4.58772,0.44168 4.61547,0.1449 4.61534,-0.14659 4.58794,-0.43034 4.53413,-0.70395 4.45498,-0.96511 4.35176,-1.21168 4.22596,-1.44158 4.07925,-1.65294 3.91346,-1.84407 3.7306,-2.0134 3.53276,-2.15964 3.32223,-2.28165 3.10132,-2.37856 2.87244,-2.4497 2.63807,-2.49462 2.40069,-2.51317 2.16279,-2.50539 1.92689,-2.47156 1.69538,-2.41222 1.47069,-2.32813 1.25508,-2.22028 1.91063,-4.02818 1.20983,-3.3455 0.65154,-2.52868 0.30339,-2.23986 0.0214,0.37801 0.18753,1.36992 0.537,2.30732 1.05592,3.15265 1.72351,3.87173 1.15139,2.15781 1.36161,2.27711 1.58204,2.37321 1.81043,2.44503 2.04444,2.4917 2.28165,2.51256 2.5196,2.5072 2.75579,2.47545 2.98772,2.41738 3.21292,2.33329 3.42894,2.22374 3.63341,2.08948 3.82404,1.93155 3.99862,1.75113 4.1551,1.5497 4.29159,1.32883 4.40629,1.09035 4.49765,0.83622 4.56427,0.56856 4.605,0.28958 4.61886,0.002 4.60511,-0.29278 4.56326,-0.59125 4.49305,-0.89121 4.39447,-1.19008 4.26771,-1.48532 4.11328,-1.7744 3.93184,-2.05482 3.72435,-2.32417 3.49197,-2.58015 3.23606,-2.82053 2.9582,-3.04322 2.66015,-3.24634 2.34388,-3.42808 2.01146,-3.58689 1.66513,-3.7214 1.30727,-3.83044 0.94032,-3.91306 0.56682,-3.96853 0.18939,-3.99639 v 0"
           style="fill:none;stroke:#ff7f0e;stroke-width:2.25;stroke-linecap:square;stroke-linejoin:round;stroke-miterlimit:4;stroke-dasharray:none"
           id="path226"
           inkscape:connector-curvature="0" />
      </g>
      <g
         id="line2d_16"
         transform="translate(-10.104825,-31.484791)"
         style="stroke-width:2.25;stroke-linecap:butt;stroke-linejoin:round;stroke-miterlimit:4;stroke-dasharray:none">
        <path
           clip-path="url(#pa55003cd16)"
           d="m 362.88038,174.528 -0.44155,-3.98843 -1.31742,-3.91309 -2.1718,-3.76419 -2.99086,-3.54526 -3.7615,-3.26143 -4.47168,-2.91941 -5.11057,-2.52725 -5.66887,-2.09414 -6.13892,-1.63024 -6.51488,-1.14639 -6.79287,-0.65384 -6.97092,-0.16401 -7.04912,0.31179 -7.02952,0.76269 -6.91604,1.17846 -6.71438,1.54978 -6.43187,1.86846 -6.07727,2.12766 -5.66055,2.32202 -5.1926,2.44778 -4.68508,2.50292 -4.14999,2.48716 -3.59949,2.40194 -3.04561,2.25041 -2.49992,2.03737 -3.44919,3.22221 -1.85814,2.12345 0.38108,-0.60924 1.13059,-2.18021 1.41231,-3.52461 0.67911,-2.15682 0.6007,-2.34717 0.48533,-2.47657 0.34063,-2.54173 0.17471,-2.54104 -0.004,-2.47459 -0.18734,-2.34412 -0.36695,-2.15307 -0.5352,-1.90641 -0.68518,-1.61052 -0.81077,-1.27308 -0.907,-0.90279 -0.9701,-0.50921 -0.99757,-0.10251 -0.98838,0.30685 -0.94288,0.70829 -0.86283,1.09146 -0.75135,1.44647 -0.61289,1.76417 -0.45294,2.03632 -0.2781,2.2559 -0.0957,2.41717 0.0864,2.51597 0.2598,2.54966 0.41616,2.51732 0.54717,2.41973 0.64497,2.25934 1.41498,3.80833 1.24354,2.5435 0.6135,1.01457 -0.49337,-0.62003 -2.04396,-2.1892 -1.72037,-1.61654 -2.2336,-1.90969 -2.77104,-2.15122 -3.32224,-2.3342 -3.8759,-2.45307 -4.42022,-2.50386 -4.94305,-2.48424 -5.43226,-2.39364 -5.87601,-2.23321 -6.26299,-2.00587 -6.58271,-1.71616 -6.82581,-1.37022 -6.9842,-0.97557 -7.05134,-0.54102 -7.02243,-0.0763 -6.89442,0.40787 -6.66629,0.90049 -6.33895,1.39011 -5.91533,1.86538 -5.40032,2.3152 -4.80065,2.72904 -4.12486,3.09723 -3.38302,3.41107 -2.58658,3.66319 -1.74817,3.84766 -0.88129,3.96011 v 3.99788 l 0.88129,3.96011 1.74817,3.84766 2.58658,3.66319 3.38302,3.41107 4.12486,3.09722 4.80065,2.72905 5.40032,2.3152 5.91533,1.86538 6.33895,1.39011 6.66629,0.90048 6.89442,0.40788 7.02243,-0.0763 7.05134,-0.54102 6.9842,-0.97558 6.82581,-1.37021 6.58271,-1.71616 6.26299,-2.00587 5.87601,-2.23322 5.43226,-2.39363 4.94305,-2.48424 4.42022,-2.50386 3.8759,-2.45307 3.32224,-2.3342 2.77104,-2.15122 3.95397,-3.52623 2.04396,-2.18921 0.49337,-0.62002 -0.19803,0.30562 -0.98815,1.80264 -1.38356,3.21788 -0.70228,2.04026 -0.64497,2.25934 -0.54717,2.41973 -0.41616,2.51732 -0.2598,2.54966 -0.0864,2.51596 0.0957,2.41718 0.2781,2.25589 0.45294,2.03633 0.61289,1.76416 0.75135,1.44648 0.86283,1.09146 0.94288,0.70829 0.98838,0.30685 0.99757,-0.10251 0.9701,-0.50921 0.907,-0.90279 0.81077,-1.27308 0.68518,-1.61052 0.5352,-1.90641 0.36695,-2.15307 0.18734,-2.34412 0.004,-2.47459 -0.17471,-2.54104 -0.34063,-2.54173 -0.48533,-2.47657 -0.6007,-2.34717 -1.39282,-4.06722 -1.32762,-2.89014 -0.88265,-1.51352 0.23966,0.31105 1.61848,1.8124 1.47585,1.45313 1.97334,1.76908 2.49992,2.03737 3.04561,2.25041 3.59949,2.40194 4.14999,2.48716 4.68508,2.50292 5.1926,2.44778 5.66055,2.32202 6.07727,2.12765 6.43187,1.86847 6.71438,1.54978 6.91604,1.17846 7.02952,0.76269 7.04912,0.31179 6.97092,-0.16401 6.79287,-0.65384 6.51488,-1.14639 6.13892,-1.63024 5.66887,-2.09414 5.11057,-2.52725 4.47168,-2.91941 3.7615,-3.26143 2.99086,-3.54526 2.1718,-3.76419 1.31742,-3.91309 0.44155,-3.98843 v 0"
           style="fill:none;stroke:#2ca02c;stroke-width:2.25;stroke-linecap:square;stroke-linejoin:round;stroke-miterlimit:4;stroke-dasharray:none"
           id="path229"
           inkscape:connector-curvature="0"
           transform="translate(336.81357,-4.0271188)" />
      </g>
      <g
         id="line2d_17"
         transform="translate(667.40341,-35.51172)"
         style="stroke-width:2.25;stroke-linecap:butt;stroke-linejoin:round;stroke-miterlimit:4;stroke-dasharray:none">
        <path
           clip-path="url(#pa55003cd16)"
           d="m 362.88038,174.528 -0.81909,-3.9765 -2.43278,-3.83062 -3.97404,-3.54554 -5.39759,-3.13433 -6.6627,-2.61585 -7.73461,-2.01376 -8.58579,-1.35549 -9.19695,-0.67089 -9.55763,0.009 -9.66642,0.65422 -9.53085,1.23578 -9.16686,1.72845 -8.59801,2.11137 -7.8543,2.36893 -6.97082,2.4917 -5.98614,2.47671 -4.94072,2.32758 -3.87513,2.05431 -4.66521,2.87679 -1.07078,0.77969 0.52087,-0.46445 2.43496,-2.52074 1.61317,-1.92867 1.6848,-2.2515 1.6277,-2.46107 1.4601,-2.54713 1.20396,-2.50559 0.88353,-2.33879 0.52421,-2.05529 0.15103,-1.66942 -0.21247,-1.20059 -0.54538,-0.67228 -0.83044,-0.11087 -1.0546,0.45564 -1.20961,0.99908 -1.2921,1.49243 -1.30352,1.91124 -1.24979,2.23474 -1.14068,2.44693 -0.98904,2.53737 -0.80985,2.50162 -1.05246,4.40664 -0.40081,2.90953 -0.0477,0.8417 -0.0173,-0.42349 -0.27841,-2.43158 -0.3468,-1.88737 -0.52466,-2.21713 -0.71495,-2.43676 -0.90189,-2.53529 -1.06928,-2.5078 -1.20142,-2.35554 -1.28427,-2.08602 -1.30642,-1.71255 -1.25994,-1.25362 -1.14108,-0.73198 -0.95076,-0.17351 -0.69481,0.39398 -0.38392,0.94228 -0.0333,1.44399 0.33782,1.87404 0.70715,2.21086 1.0502,2.43746 1.34163,2.54231 1.55641,2.51994 1.6713,2.37123 1.66605,2.10337 2.7611,2.99799 1.00531,0.92297 -0.51992,-0.39237 -1.37159,-0.94449 -2.32364,-1.44783 -3.3471,-1.8759 -4.40794,-2.20559 -5.46847,-2.41843 -6.48863,-2.50136 -7.42768,-2.44751 -8.24593,-2.25655 -8.9063,-1.93474 -9.3761,-1.49465 -9.62837,-0.95461 -9.64324,-0.33791 -9.40891,0.32837 -8.92224,1.01456 -8.18919,1.68982 -7.22471,2.32361 -6.05228,2.88713 -4.70319,3.35465 -3.21538,3.7048 -1.63204,3.92153 v 3.9949 l 1.63204,3.92153 3.21538,3.7048 4.70319,3.35465 6.05228,2.88713 7.22471,2.32361 8.18919,1.68982 8.92224,1.01456 9.40891,0.32837 9.64324,-0.33791 9.62837,-0.95461 9.3761,-1.49465 8.9063,-1.93474 8.24593,-2.25656 7.42768,-2.4475 6.48863,-2.50136 5.46847,-2.41843 4.40794,-2.2056 3.3471,-1.87589 3.69523,-2.39232 0.51992,-0.39237 -0.20838,0.17992 -2.03338,2.01147 -1.52465,1.72957 -1.66605,2.10337 -1.6713,2.37123 -1.55641,2.51994 -1.34163,2.54231 -1.0502,2.43746 -0.70715,2.21086 -0.33782,1.87404 0.0333,1.44399 0.38392,0.94228 0.69481,0.39398 0.95076,-0.17351 1.14108,-0.73198 1.25994,-1.25362 1.30642,-1.71255 1.28427,-2.08602 1.20142,-2.35554 1.06928,-2.5078 0.90189,-2.53529 0.71495,-2.43676 0.87146,-4.1045 0.29569,-2.85507 0.0477,0.8417 0.40081,2.90953 0.43324,2.06511 0.61922,2.34153 0.80985,2.50162 0.98904,2.53737 1.14068,2.44693 1.24979,2.23474 1.30352,1.91124 1.2921,1.49243 1.20961,0.99908 1.0546,0.45564 0.83044,-0.11087 0.54538,-0.67228 0.21247,-1.20059 -0.15103,-1.66942 -0.52421,-2.05529 -0.88353,-2.33879 -1.20396,-2.50559 -1.4601,-2.54713 -1.6277,-2.46107 -1.6848,-2.2515 -3.01251,-3.43724 -1.55649,-1.47662 0.13916,0.10692 2.76837,1.87675 2.82846,1.6728 3.87513,2.05432 4.94072,2.32758 5.98614,2.4767 6.97082,2.49171 7.8543,2.36893 8.59801,2.11136 9.16686,1.72846 9.53085,1.23578 9.66642,0.65422 9.55763,0.009 9.19695,-0.67089 8.58579,-1.35549 7.73461,-2.01376 6.6627,-2.61585 5.39759,-3.13434 3.97404,-3.54553 2.43278,-3.83062 0.81909,-3.9765 v 0"
           style="fill:none;stroke:#d62728;stroke-width:2.25;stroke-linecap:square;stroke-linejoin:round;stroke-miterlimit:4;stroke-dasharray:none"
           id="path232"
           inkscape:connector-curvature="0" />
      </g>
    </g>
  </g>
  <defs
     id="defs243">
    <clipPath
       id="pa55003cd16"
       style="stroke-linecap:butt;stroke-linejoin:round">
      <path
         d="m 369.216,174.528 c 0,-17.47275 -3.44175,-34.77561 -10.12829,-50.91833 C 352.40118,107.46695 342.5999,92.798303 330.2448,80.4432 317.8897,68.088097 303.22105,58.286818 287.07833,51.600285 270.93561,44.913752 253.63275,41.472 236.16,41.472 c -17.47275,0 -34.77561,3.441752 -50.91833,10.128285 -16.14272,6.686533 -30.81137,16.487812 -43.16647,28.842915 -12.3551,12.355103 -22.15638,27.02375 -28.84291,43.16647 -6.68654,16.14272 -10.12829,33.44558 -10.12829,50.91833 0,17.47275 3.44175,34.77561 10.12829,50.91833 6.68653,16.14272 16.48781,30.81137 28.84291,43.16647 12.3551,12.3551 27.02375,22.15638 43.16647,28.84291 16.14272,6.68654 33.44558,10.12829 50.91833,10.12829 17.47275,0 34.77561,-3.44175 50.91833,-10.12829 16.14272,-6.68653 30.81137,-16.48781 43.16647,-28.84291 12.3551,-12.3551 22.15638,-27.02375 28.84291,-43.16647 6.68654,-16.14272 10.12829,-33.44558 10.12829,-50.91833 m -133.056,0 c 0,0 0,0 0,0 0,0 0,0 0,0 0,0 0,0 0,0 0,0 0,0 0,0 0,0 0,0 0,0 0,0 0,0 0,0 0,0 0,0 0,0 0,0 0,0 0,0 0,0 0,0 0,0 0,0 0,0 0,0 0,0 0,0 0,0 0,0 0,0 0,0 0,0 0,0 0,0 0,0 0,0 0,0 0,0 0,0 0,0 0,0 0,0 0,0 m 133.056,0 z"
         id="path240"
         inkscape:connector-curvature="0"
         style="stroke-linecap:butt;stroke-linejoin:round" />
    </clipPath>
  </defs>
</svg>
