<?xml version="1.0" encoding="UTF-8" standalone="no"?>
<!-- Created with matplotlib (https://matplotlib.org/) -->

<svg
   xmlns:dc="http://purl.org/dc/elements/1.1/"
   xmlns:cc="http://creativecommons.org/ns#"
   xmlns:rdf="http://www.w3.org/1999/02/22-rdf-syntax-ns#"
   xmlns:svg="http://www.w3.org/2000/svg"
   xmlns="http://www.w3.org/2000/svg"
   xmlns:xlink="http://www.w3.org/1999/xlink"
   xmlns:sodipodi="http://sodipodi.sourceforge.net/DTD/sodipodi-0.dtd"
   xmlns:inkscape="http://www.inkscape.org/namespaces/inkscape"
   height="345.6pt"
   version="1.1"
   viewBox="0 0 460.8 345.6"
   width="460.8pt"
   id="svg348"
   sodipodi:docname="PolesDance.svg"
   inkscape:version="0.92.3 (2405546, 2018-03-11)">
  <sodipodi:namedview
     pagecolor="#ffffff"
     bordercolor="#666666"
     borderopacity="1"
     objecttolerance="10"
     gridtolerance="10"
     guidetolerance="10"
     inkscape:pageopacity="0"
     inkscape:pageshadow="2"
     inkscape:window-width="2560"
     inkscape:window-height="1411"
     id="namedview350"
     showgrid="false"
     inkscape:zoom="2.0486111"
     inkscape:cx="171.56628"
     inkscape:cy="296.58267"
     inkscape:window-x="2560"
     inkscape:window-y="0"
     inkscape:window-maximized="1"
     inkscape:current-layer="figure_1" />
  <metadata
     id="metadata2">
    <rdf:RDF>
      <cc:Work>
        <dc:type
           rdf:resource="http://purl.org/dc/dcmitype/StillImage" />
        <dc:date>2020-09-16T11:16:20.321861</dc:date>
        <dc:format>image/svg+xml</dc:format>
        <dc:creator>
          <cc:Agent>
            <dc:title>Matplotlib v3.3.0, https://matplotlib.org/</dc:title>
          </cc:Agent>
        </dc:creator>
      </cc:Work>
    </rdf:RDF>
  </metadata>
  <defs
     id="defs6">
    <marker
       inkscape:isstock="true"
       style="overflow:visible;"
       id="marker1206"
       refX="0.0"
       refY="0.0"
       orient="auto"
       inkscape:stockid="Arrow2Lend">
      <path
         transform="scale(1.1) rotate(180) translate(1,0)"
         d="M 8.7185878,4.0337352 L -2.2072895,0.016013256 L 8.7185884,-4.0017078 C 6.9730900,-1.6296469 6.9831476,1.6157441 8.7185878,4.0337352 z "
         style="fill-rule:evenodd;stroke-width:0.625;stroke-linejoin:round;stroke:#73d216;stroke-opacity:1;fill:#73d216;fill-opacity:1"
         id="path1204" />
    </marker>
    <marker
       inkscape:isstock="true"
       style="overflow:visible;"
       id="marker1148"
       refX="0.0"
       refY="0.0"
       orient="auto"
       inkscape:stockid="Arrow2Lend">
      <path
         transform="scale(1.1) rotate(180) translate(1,0)"
         d="M 8.7185878,4.0337352 L -2.2072895,0.016013256 L 8.7185884,-4.0017078 C 6.9730900,-1.6296469 6.9831476,1.6157441 8.7185878,4.0337352 z "
         style="fill-rule:evenodd;stroke-width:0.625;stroke-linejoin:round;stroke:#4e9a06;stroke-opacity:1;fill:#4e9a06;fill-opacity:1"
         id="path1146" />
    </marker>
    <marker
       inkscape:stockid="Arrow2Lend"
       orient="auto"
       refY="0.0"
       refX="0.0"
       id="marker1477"
       style="overflow:visible;"
       inkscape:isstock="true">
      <path
         id="path1475"
         style="fill-rule:evenodd;stroke-width:0.625;stroke-linejoin:round;stroke:#1f77b4;stroke-opacity:1;fill:#1f77b4;fill-opacity:1"
         d="M 8.7185878,4.0337352 L -2.2072895,0.016013256 L 8.7185884,-4.0017078 C 6.9730900,-1.6296469 6.9831476,1.6157441 8.7185878,4.0337352 z "
         transform="scale(1.1) rotate(180) translate(1,0)" />
    </marker>
    <marker
       inkscape:stockid="Arrow1Mend"
       orient="auto"
       refY="0.0"
       refX="0.0"
       id="Arrow1Mend"
       style="overflow:visible;"
       inkscape:isstock="true">
      <path
         id="path1168"
         d="M 0.0,0.0 L 5.0,-5.0 L -12.5,0.0 L 5.0,5.0 L 0.0,0.0 z "
         style="fill-rule:evenodd;stroke:#1f77b4;stroke-width:1pt;stroke-opacity:1;fill:#1f77b4;fill-opacity:1"
         transform="scale(0.4) rotate(180) translate(10,0)" />
    </marker>
    <marker
       inkscape:stockid="Arrow2Lend"
       orient="auto"
       refY="0.0"
       refX="0.0"
       id="Arrow2Lend"
       style="overflow:visible;"
       inkscape:isstock="true"
       inkscape:collect="always">
      <path
         id="path1180"
         style="fill-rule:evenodd;stroke-width:0.625;stroke-linejoin:round;stroke:#000000;stroke-opacity:1;fill:#000000;fill-opacity:1"
         d="M 8.7185878,4.0337352 L -2.2072895,0.016013256 L 8.7185884,-4.0017078 C 6.9730900,-1.6296469 6.9831476,1.6157441 8.7185878,4.0337352 z "
         transform="scale(1.1) rotate(180) translate(1,0)" />
    </marker>
    <style
       type="text/css"
       id="style4">*{stroke-linecap:butt;stroke-linejoin:round;}</style>
    <clipPath
       id="p86bef944ab">
      <rect
         height="266.112"
         width="357.12"
         x="57.599998"
         y="41.472"
         id="rect322" />
    </clipPath>
    <clipPath
       id="p7adedbff3c">
      <rect
         height="266.112"
         width="357.12"
         x="57.599998"
         y="41.472"
         id="rect325" />
    </clipPath>
    <clipPath
       id="p7adedbff3c-1">
      <rect
         height="266.112"
         width="357.12"
         x="57.599998"
         y="41.472"
         id="rect325-2" />
    </clipPath>
    <clipPath
       id="pca9dbcaf78">
      <rect
         height="266.112"
         width="357.12"
         x="57.599998"
         y="41.472"
         id="rect328" />
    </clipPath>
  </defs>
  <g
     id="figure_1">
    <g
       id="patch_1">
      <path
         d="M 0 345.6  L 460.8 345.6  L 460.8 0  L 0 0  z "
         style="fill:#ffffff;"
         id="path8" />
    </g>
    <g
       id="axes_1">
      <g
         id="patch_2">
        <path
           d="M 57.6 307.584  L 414.72 307.584  L 414.72 41.472  L 57.6 41.472  z "
           style="fill:#ffffff;"
           id="path11" />
      </g>
      <g
         id="matplotlib.axis_1">
        <g
           id="xtick_1">
          <g
             id="line2d_1">
            <defs
               id="defs15">
              <path
                 d="M 0 0  L 0 3.5  "
                 id="m158c93c185"
                 style="stroke:#000000;stroke-width:0.8;" />
            </defs>
            <g
               id="g19">
              <use
                 style="stroke:#000000;stroke-width:0.8;"
                 x="57.6"
                 xlink:href="#m158c93c185"
                 y="307.584"
                 id="use17" />
            </g>
          </g>
          <g
             id="text_1">
            <!-- 0 -->
            <g
               transform="translate(54.41875 322.182437)scale(0.1 -0.1)"
               id="g27">
              <defs
                 id="defs23">
                <path
                   d="M 31.78125 66.40625  Q 24.171875 66.40625 20.328125 58.90625  Q 16.5 51.421875 16.5 36.375  Q 16.5 21.390625 20.328125 13.890625  Q 24.171875 6.390625 31.78125 6.390625  Q 39.453125 6.390625 43.28125 13.890625  Q 47.125 21.390625 47.125 36.375  Q 47.125 51.421875 43.28125 58.90625  Q 39.453125 66.40625 31.78125 66.40625  z M 31.78125 74.21875  Q 44.046875 74.21875 50.515625 64.515625  Q 56.984375 54.828125 56.984375 36.375  Q 56.984375 17.96875 50.515625 8.265625  Q 44.046875 -1.421875 31.78125 -1.421875  Q 19.53125 -1.421875 13.0625 8.265625  Q 6.59375 17.96875 6.59375 36.375  Q 6.59375 54.828125 13.0625 64.515625  Q 19.53125 74.21875 31.78125 74.21875  z "
                   id="DejaVuSans-48" />
              </defs>
              <use
                 xlink:href="#DejaVuSans-48"
                 id="use25" />
            </g>
          </g>
        </g>
        <g
           id="xtick_2">
          <g
             id="line2d_2">
            <g
               id="g33">
              <use
                 style="stroke:#000000;stroke-width:0.8;"
                 x="129.024"
                 xlink:href="#m158c93c185"
                 y="307.584"
                 id="use31" />
            </g>
          </g>
          <g
             id="text_2">
            <!-- 200 -->
            <g
               transform="translate(119.48025 322.182437)scale(0.1 -0.1)"
               id="g45">
              <defs
                 id="defs37">
                <path
                   d="M 19.1875 8.296875  L 53.609375 8.296875  L 53.609375 0  L 7.328125 0  L 7.328125 8.296875  Q 12.9375 14.109375 22.625 23.890625  Q 32.328125 33.6875 34.8125 36.53125  Q 39.546875 41.84375 41.421875 45.53125  Q 43.3125 49.21875 43.3125 52.78125  Q 43.3125 58.59375 39.234375 62.25  Q 35.15625 65.921875 28.609375 65.921875  Q 23.96875 65.921875 18.8125 64.3125  Q 13.671875 62.703125 7.8125 59.421875  L 7.8125 69.390625  Q 13.765625 71.78125 18.9375 73  Q 24.125 74.21875 28.421875 74.21875  Q 39.75 74.21875 46.484375 68.546875  Q 53.21875 62.890625 53.21875 53.421875  Q 53.21875 48.921875 51.53125 44.890625  Q 49.859375 40.875 45.40625 35.40625  Q 44.1875 33.984375 37.640625 27.21875  Q 31.109375 20.453125 19.1875 8.296875  z "
                   id="DejaVuSans-50" />
              </defs>
              <use
                 xlink:href="#DejaVuSans-50"
                 id="use39" />
              <use
                 x="63.623047"
                 xlink:href="#DejaVuSans-48"
                 id="use41" />
              <use
                 x="127.246094"
                 xlink:href="#DejaVuSans-48"
                 id="use43" />
            </g>
          </g>
        </g>
        <g
           id="xtick_3">
          <g
             id="line2d_3">
            <g
               id="g51">
              <use
                 style="stroke:#000000;stroke-width:0.8;"
                 x="200.448"
                 xlink:href="#m158c93c185"
                 y="307.584"
                 id="use49" />
            </g>
          </g>
          <g
             id="text_3">
            <!-- 400 -->
            <g
               transform="translate(190.90425 322.182437)scale(0.1 -0.1)"
               id="g63">
              <defs
                 id="defs55">
                <path
                   d="M 37.796875 64.3125  L 12.890625 25.390625  L 37.796875 25.390625  z M 35.203125 72.90625  L 47.609375 72.90625  L 47.609375 25.390625  L 58.015625 25.390625  L 58.015625 17.1875  L 47.609375 17.1875  L 47.609375 0  L 37.796875 0  L 37.796875 17.1875  L 4.890625 17.1875  L 4.890625 26.703125  z "
                   id="DejaVuSans-52" />
              </defs>
              <use
                 xlink:href="#DejaVuSans-52"
                 id="use57" />
              <use
                 x="63.623047"
                 xlink:href="#DejaVuSans-48"
                 id="use59" />
              <use
                 x="127.246094"
                 xlink:href="#DejaVuSans-48"
                 id="use61" />
            </g>
          </g>
        </g>
        <g
           id="xtick_4">
          <g
             id="line2d_4">
            <g
               id="g69">
              <use
                 style="stroke:#000000;stroke-width:0.8;"
                 x="271.872"
                 xlink:href="#m158c93c185"
                 y="307.584"
                 id="use67" />
            </g>
          </g>
          <g
             id="text_4">
            <!-- 600 -->
            <g
               transform="translate(262.32825 322.182437)scale(0.1 -0.1)"
               id="g81">
              <defs
                 id="defs73">
                <path
                   d="M 33.015625 40.375  Q 26.375 40.375 22.484375 35.828125  Q 18.609375 31.296875 18.609375 23.390625  Q 18.609375 15.53125 22.484375 10.953125  Q 26.375 6.390625 33.015625 6.390625  Q 39.65625 6.390625 43.53125 10.953125  Q 47.40625 15.53125 47.40625 23.390625  Q 47.40625 31.296875 43.53125 35.828125  Q 39.65625 40.375 33.015625 40.375  z M 52.59375 71.296875  L 52.59375 62.3125  Q 48.875 64.0625 45.09375 64.984375  Q 41.3125 65.921875 37.59375 65.921875  Q 27.828125 65.921875 22.671875 59.328125  Q 17.53125 52.734375 16.796875 39.40625  Q 19.671875 43.65625 24.015625 45.921875  Q 28.375 48.1875 33.59375 48.1875  Q 44.578125 48.1875 50.953125 41.515625  Q 57.328125 34.859375 57.328125 23.390625  Q 57.328125 12.15625 50.6875 5.359375  Q 44.046875 -1.421875 33.015625 -1.421875  Q 20.359375 -1.421875 13.671875 8.265625  Q 6.984375 17.96875 6.984375 36.375  Q 6.984375 53.65625 15.1875 63.9375  Q 23.390625 74.21875 37.203125 74.21875  Q 40.921875 74.21875 44.703125 73.484375  Q 48.484375 72.75 52.59375 71.296875  z "
                   id="DejaVuSans-54" />
              </defs>
              <use
                 xlink:href="#DejaVuSans-54"
                 id="use75" />
              <use
                 x="63.623047"
                 xlink:href="#DejaVuSans-48"
                 id="use77" />
              <use
                 x="127.246094"
                 xlink:href="#DejaVuSans-48"
                 id="use79" />
            </g>
          </g>
        </g>
        <g
           id="xtick_5">
          <g
             id="line2d_5">
            <g
               id="g87">
              <use
                 style="stroke:#000000;stroke-width:0.8;"
                 x="343.296"
                 xlink:href="#m158c93c185"
                 y="307.584"
                 id="use85" />
            </g>
          </g>
          <g
             id="text_5">
            <!-- 800 -->
            <g
               transform="translate(333.75225 322.182437)scale(0.1 -0.1)"
               id="g99">
              <defs
                 id="defs91">
                <path
                   d="M 31.78125 34.625  Q 24.75 34.625 20.71875 30.859375  Q 16.703125 27.09375 16.703125 20.515625  Q 16.703125 13.921875 20.71875 10.15625  Q 24.75 6.390625 31.78125 6.390625  Q 38.8125 6.390625 42.859375 10.171875  Q 46.921875 13.96875 46.921875 20.515625  Q 46.921875 27.09375 42.890625 30.859375  Q 38.875 34.625 31.78125 34.625  z M 21.921875 38.8125  Q 15.578125 40.375 12.03125 44.71875  Q 8.5 49.078125 8.5 55.328125  Q 8.5 64.0625 14.71875 69.140625  Q 20.953125 74.21875 31.78125 74.21875  Q 42.671875 74.21875 48.875 69.140625  Q 55.078125 64.0625 55.078125 55.328125  Q 55.078125 49.078125 51.53125 44.71875  Q 48 40.375 41.703125 38.8125  Q 48.828125 37.15625 52.796875 32.3125  Q 56.78125 27.484375 56.78125 20.515625  Q 56.78125 9.90625 50.3125 4.234375  Q 43.84375 -1.421875 31.78125 -1.421875  Q 19.734375 -1.421875 13.25 4.234375  Q 6.78125 9.90625 6.78125 20.515625  Q 6.78125 27.484375 10.78125 32.3125  Q 14.796875 37.15625 21.921875 38.8125  z M 18.3125 54.390625  Q 18.3125 48.734375 21.84375 45.5625  Q 25.390625 42.390625 31.78125 42.390625  Q 38.140625 42.390625 41.71875 45.5625  Q 45.3125 48.734375 45.3125 54.390625  Q 45.3125 60.0625 41.71875 63.234375  Q 38.140625 66.40625 31.78125 66.40625  Q 25.390625 66.40625 21.84375 63.234375  Q 18.3125 60.0625 18.3125 54.390625  z "
                   id="DejaVuSans-56" />
              </defs>
              <use
                 xlink:href="#DejaVuSans-56"
                 id="use93" />
              <use
                 x="63.623047"
                 xlink:href="#DejaVuSans-48"
                 id="use95" />
              <use
                 x="127.246094"
                 xlink:href="#DejaVuSans-48"
                 id="use97" />
            </g>
          </g>
        </g>
        <g
           id="xtick_6">
          <g
             id="line2d_6">
            <g
               id="g105">
              <use
                 style="stroke:#000000;stroke-width:0.8;"
                 x="414.72"
                 xlink:href="#m158c93c185"
                 y="307.584"
                 id="use103" />
            </g>
          </g>
          <g
             id="text_6">
            <!-- 1000 -->
            <g
               transform="translate(401.995 322.182437)scale(0.1 -0.1)"
               id="g119">
              <defs
                 id="defs109">
                <path
                   d="M 12.40625 8.296875  L 28.515625 8.296875  L 28.515625 63.921875  L 10.984375 60.40625  L 10.984375 69.390625  L 28.421875 72.90625  L 38.28125 72.90625  L 38.28125 8.296875  L 54.390625 8.296875  L 54.390625 0  L 12.40625 0  z "
                   id="DejaVuSans-49" />
              </defs>
              <use
                 xlink:href="#DejaVuSans-49"
                 id="use111" />
              <use
                 x="63.623047"
                 xlink:href="#DejaVuSans-48"
                 id="use113" />
              <use
                 x="127.246094"
                 xlink:href="#DejaVuSans-48"
                 id="use115" />
              <use
                 x="190.869141"
                 xlink:href="#DejaVuSans-48"
                 id="use117" />
            </g>
          </g>
        </g>
        <g
           id="text_7">
          <!-- Imag Energy [uK] -->
          <g
             transform="translate(192.542812 335.860562)scale(0.1 -0.1)"
             id="g171">
            <defs
               id="defs137">
              <path
                 d="M 9.8125 72.90625  L 19.671875 72.90625  L 19.671875 0  L 9.8125 0  z "
                 id="DejaVuSans-73" />
              <path
                 d="M 52 44.1875  Q 55.375 50.25 60.0625 53.125  Q 64.75 56 71.09375 56  Q 79.640625 56 84.28125 50.015625  Q 88.921875 44.046875 88.921875 33.015625  L 88.921875 0  L 79.890625 0  L 79.890625 32.71875  Q 79.890625 40.578125 77.09375 44.375  Q 74.3125 48.1875 68.609375 48.1875  Q 61.625 48.1875 57.5625 43.546875  Q 53.515625 38.921875 53.515625 30.90625  L 53.515625 0  L 44.484375 0  L 44.484375 32.71875  Q 44.484375 40.625 41.703125 44.40625  Q 38.921875 48.1875 33.109375 48.1875  Q 26.21875 48.1875 22.15625 43.53125  Q 18.109375 38.875 18.109375 30.90625  L 18.109375 0  L 9.078125 0  L 9.078125 54.6875  L 18.109375 54.6875  L 18.109375 46.1875  Q 21.1875 51.21875 25.484375 53.609375  Q 29.78125 56 35.6875 56  Q 41.65625 56 45.828125 52.96875  Q 50 49.953125 52 44.1875  z "
                 id="DejaVuSans-109" />
              <path
                 d="M 34.28125 27.484375  Q 23.390625 27.484375 19.1875 25  Q 14.984375 22.515625 14.984375 16.5  Q 14.984375 11.71875 18.140625 8.90625  Q 21.296875 6.109375 26.703125 6.109375  Q 34.1875 6.109375 38.703125 11.40625  Q 43.21875 16.703125 43.21875 25.484375  L 43.21875 27.484375  z M 52.203125 31.203125  L 52.203125 0  L 43.21875 0  L 43.21875 8.296875  Q 40.140625 3.328125 35.546875 0.953125  Q 30.953125 -1.421875 24.3125 -1.421875  Q 15.921875 -1.421875 10.953125 3.296875  Q 6 8.015625 6 15.921875  Q 6 25.140625 12.171875 29.828125  Q 18.359375 34.515625 30.609375 34.515625  L 43.21875 34.515625  L 43.21875 35.40625  Q 43.21875 41.609375 39.140625 45  Q 35.0625 48.390625 27.6875 48.390625  Q 23 48.390625 18.546875 47.265625  Q 14.109375 46.140625 10.015625 43.890625  L 10.015625 52.203125  Q 14.9375 54.109375 19.578125 55.046875  Q 24.21875 56 28.609375 56  Q 40.484375 56 46.34375 49.84375  Q 52.203125 43.703125 52.203125 31.203125  z "
                 id="DejaVuSans-97" />
              <path
                 d="M 45.40625 27.984375  Q 45.40625 37.75 41.375 43.109375  Q 37.359375 48.484375 30.078125 48.484375  Q 22.859375 48.484375 18.828125 43.109375  Q 14.796875 37.75 14.796875 27.984375  Q 14.796875 18.265625 18.828125 12.890625  Q 22.859375 7.515625 30.078125 7.515625  Q 37.359375 7.515625 41.375 12.890625  Q 45.40625 18.265625 45.40625 27.984375  z M 54.390625 6.78125  Q 54.390625 -7.171875 48.1875 -13.984375  Q 42 -20.796875 29.203125 -20.796875  Q 24.46875 -20.796875 20.265625 -20.09375  Q 16.0625 -19.390625 12.109375 -17.921875  L 12.109375 -9.1875  Q 16.0625 -11.328125 19.921875 -12.34375  Q 23.78125 -13.375 27.78125 -13.375  Q 36.625 -13.375 41.015625 -8.765625  Q 45.40625 -4.15625 45.40625 5.171875  L 45.40625 9.625  Q 42.625 4.78125 38.28125 2.390625  Q 33.9375 0 27.875 0  Q 17.828125 0 11.671875 7.65625  Q 5.515625 15.328125 5.515625 27.984375  Q 5.515625 40.671875 11.671875 48.328125  Q 17.828125 56 27.875 56  Q 33.9375 56 38.28125 53.609375  Q 42.625 51.21875 45.40625 46.390625  L 45.40625 54.6875  L 54.390625 54.6875  z "
                 id="DejaVuSans-103" />
              <path
                 id="DejaVuSans-32" />
              <path
                 d="M 9.8125 72.90625  L 55.90625 72.90625  L 55.90625 64.59375  L 19.671875 64.59375  L 19.671875 43.015625  L 54.390625 43.015625  L 54.390625 34.71875  L 19.671875 34.71875  L 19.671875 8.296875  L 56.78125 8.296875  L 56.78125 0  L 9.8125 0  z "
                 id="DejaVuSans-69" />
              <path
                 d="M 54.890625 33.015625  L 54.890625 0  L 45.90625 0  L 45.90625 32.71875  Q 45.90625 40.484375 42.875 44.328125  Q 39.84375 48.1875 33.796875 48.1875  Q 26.515625 48.1875 22.3125 43.546875  Q 18.109375 38.921875 18.109375 30.90625  L 18.109375 0  L 9.078125 0  L 9.078125 54.6875  L 18.109375 54.6875  L 18.109375 46.1875  Q 21.34375 51.125 25.703125 53.5625  Q 30.078125 56 35.796875 56  Q 45.21875 56 50.046875 50.171875  Q 54.890625 44.34375 54.890625 33.015625  z "
                 id="DejaVuSans-110" />
              <path
                 d="M 56.203125 29.59375  L 56.203125 25.203125  L 14.890625 25.203125  Q 15.484375 15.921875 20.484375 11.0625  Q 25.484375 6.203125 34.421875 6.203125  Q 39.59375 6.203125 44.453125 7.46875  Q 49.3125 8.734375 54.109375 11.28125  L 54.109375 2.78125  Q 49.265625 0.734375 44.1875 -0.34375  Q 39.109375 -1.421875 33.890625 -1.421875  Q 20.796875 -1.421875 13.15625 6.1875  Q 5.515625 13.8125 5.515625 26.8125  Q 5.515625 40.234375 12.765625 48.109375  Q 20.015625 56 32.328125 56  Q 43.359375 56 49.78125 48.890625  Q 56.203125 41.796875 56.203125 29.59375  z M 47.21875 32.234375  Q 47.125 39.59375 43.09375 43.984375  Q 39.0625 48.390625 32.421875 48.390625  Q 24.90625 48.390625 20.390625 44.140625  Q 15.875 39.890625 15.1875 32.171875  z "
                 id="DejaVuSans-101" />
              <path
                 d="M 41.109375 46.296875  Q 39.59375 47.171875 37.8125 47.578125  Q 36.03125 48 33.890625 48  Q 26.265625 48 22.1875 43.046875  Q 18.109375 38.09375 18.109375 28.8125  L 18.109375 0  L 9.078125 0  L 9.078125 54.6875  L 18.109375 54.6875  L 18.109375 46.1875  Q 20.953125 51.171875 25.484375 53.578125  Q 30.03125 56 36.53125 56  Q 37.453125 56 38.578125 55.875  Q 39.703125 55.765625 41.0625 55.515625  z "
                 id="DejaVuSans-114" />
              <path
                 d="M 32.171875 -5.078125  Q 28.375 -14.84375 24.75 -17.8125  Q 21.140625 -20.796875 15.09375 -20.796875  L 7.90625 -20.796875  L 7.90625 -13.28125  L 13.1875 -13.28125  Q 16.890625 -13.28125 18.9375 -11.515625  Q 21 -9.765625 23.484375 -3.21875  L 25.09375 0.875  L 2.984375 54.6875  L 12.5 54.6875  L 29.59375 11.921875  L 46.6875 54.6875  L 56.203125 54.6875  z "
                 id="DejaVuSans-121" />
              <path
                 d="M 8.59375 75.984375  L 29.296875 75.984375  L 29.296875 69  L 17.578125 69  L 17.578125 -6.203125  L 29.296875 -6.203125  L 29.296875 -13.1875  L 8.59375 -13.1875  z "
                 id="DejaVuSans-91" />
              <path
                 d="M 8.5 21.578125  L 8.5 54.6875  L 17.484375 54.6875  L 17.484375 21.921875  Q 17.484375 14.15625 20.5 10.265625  Q 23.53125 6.390625 29.59375 6.390625  Q 36.859375 6.390625 41.078125 11.03125  Q 45.3125 15.671875 45.3125 23.6875  L 45.3125 54.6875  L 54.296875 54.6875  L 54.296875 0  L 45.3125 0  L 45.3125 8.40625  Q 42.046875 3.421875 37.71875 1  Q 33.40625 -1.421875 27.6875 -1.421875  Q 18.265625 -1.421875 13.375 4.4375  Q 8.5 10.296875 8.5 21.578125  z M 31.109375 56  z "
                 id="DejaVuSans-117" />
              <path
                 d="M 9.8125 72.90625  L 19.671875 72.90625  L 19.671875 42.09375  L 52.390625 72.90625  L 65.09375 72.90625  L 28.90625 38.921875  L 67.671875 0  L 54.6875 0  L 19.671875 35.109375  L 19.671875 0  L 9.8125 0  z "
                 id="DejaVuSans-75" />
              <path
                 d="M 30.421875 75.984375  L 30.421875 -13.1875  L 9.71875 -13.1875  L 9.71875 -6.203125  L 21.390625 -6.203125  L 21.390625 69  L 9.71875 69  L 9.71875 75.984375  z "
                 id="DejaVuSans-93" />
            </defs>
            <use
               xlink:href="#DejaVuSans-73"
               id="use139" />
            <use
               x="29.492188"
               xlink:href="#DejaVuSans-109"
               id="use141" />
            <use
               x="126.904297"
               xlink:href="#DejaVuSans-97"
               id="use143" />
            <use
               x="188.183594"
               xlink:href="#DejaVuSans-103"
               id="use145" />
            <use
               x="251.660156"
               xlink:href="#DejaVuSans-32"
               id="use147" />
            <use
               x="283.447266"
               xlink:href="#DejaVuSans-69"
               id="use149" />
            <use
               x="346.630859"
               xlink:href="#DejaVuSans-110"
               id="use151" />
            <use
               x="410.009766"
               xlink:href="#DejaVuSans-101"
               id="use153" />
            <use
               x="471.533203"
               xlink:href="#DejaVuSans-114"
               id="use155" />
            <use
               x="510.896484"
               xlink:href="#DejaVuSans-103"
               id="use157" />
            <use
               x="574.373047"
               xlink:href="#DejaVuSans-121"
               id="use159" />
            <use
               x="633.552734"
               xlink:href="#DejaVuSans-32"
               id="use161" />
            <use
               x="665.339844"
               xlink:href="#DejaVuSans-91"
               id="use163" />
            <use
               x="704.353516"
               xlink:href="#DejaVuSans-117"
               id="use165" />
            <use
               x="767.732422"
               xlink:href="#DejaVuSans-75"
               id="use167" />
            <use
               x="833.308594"
               xlink:href="#DejaVuSans-93"
               id="use169" />
          </g>
        </g>
      </g>
      <g
         id="matplotlib.axis_2">
        <g
           id="ytick_1">
          <g
             id="line2d_7">
            <defs
               id="defs176">
              <path
                 d="M 0 0  L -3.5 0  "
                 id="m23d7ed126b"
                 style="stroke:#000000;stroke-width:0.8;" />
            </defs>
            <g
               id="g180">
              <use
                 style="stroke:#000000;stroke-width:0.8;"
                 x="57.6"
                 xlink:href="#m23d7ed126b"
                 y="307.584"
                 id="use178" />
            </g>
          </g>
          <g
             id="text_8">
            <!-- −200 -->
            <g
               transform="translate(23.132812 311.383219)scale(0.1 -0.1)"
               id="g194">
              <defs
                 id="defs184">
                <path
                   d="M 10.59375 35.5  L 73.1875 35.5  L 73.1875 27.203125  L 10.59375 27.203125  z "
                   id="DejaVuSans-8722" />
              </defs>
              <use
                 xlink:href="#DejaVuSans-8722"
                 id="use186" />
              <use
                 x="83.789062"
                 xlink:href="#DejaVuSans-50"
                 id="use188" />
              <use
                 x="147.412109"
                 xlink:href="#DejaVuSans-48"
                 id="use190" />
              <use
                 x="211.035156"
                 xlink:href="#DejaVuSans-48"
                 id="use192" />
            </g>
          </g>
        </g>
        <g
           id="ytick_2">
          <g
             id="line2d_8">
            <g
               id="g200">
              <use
                 style="stroke:#000000;stroke-width:0.8;"
                 x="57.6"
                 xlink:href="#m23d7ed126b"
                 y="274.32"
                 id="use198" />
            </g>
          </g>
          <g
             id="text_9">
            <!-- −150 -->
            <g
               transform="translate(23.132812 278.119219)scale(0.1 -0.1)"
               id="g214">
              <defs
                 id="defs204">
                <path
                   d="M 10.796875 72.90625  L 49.515625 72.90625  L 49.515625 64.59375  L 19.828125 64.59375  L 19.828125 46.734375  Q 21.96875 47.46875 24.109375 47.828125  Q 26.265625 48.1875 28.421875 48.1875  Q 40.625 48.1875 47.75 41.5  Q 54.890625 34.8125 54.890625 23.390625  Q 54.890625 11.625 47.5625 5.09375  Q 40.234375 -1.421875 26.90625 -1.421875  Q 22.3125 -1.421875 17.546875 -0.640625  Q 12.796875 0.140625 7.71875 1.703125  L 7.71875 11.625  Q 12.109375 9.234375 16.796875 8.0625  Q 21.484375 6.890625 26.703125 6.890625  Q 35.15625 6.890625 40.078125 11.328125  Q 45.015625 15.765625 45.015625 23.390625  Q 45.015625 31 40.078125 35.4375  Q 35.15625 39.890625 26.703125 39.890625  Q 22.75 39.890625 18.8125 39.015625  Q 14.890625 38.140625 10.796875 36.28125  z "
                   id="DejaVuSans-53" />
              </defs>
              <use
                 xlink:href="#DejaVuSans-8722"
                 id="use206" />
              <use
                 x="83.789062"
                 xlink:href="#DejaVuSans-49"
                 id="use208" />
              <use
                 x="147.412109"
                 xlink:href="#DejaVuSans-53"
                 id="use210" />
              <use
                 x="211.035156"
                 xlink:href="#DejaVuSans-48"
                 id="use212" />
            </g>
          </g>
        </g>
        <g
           id="ytick_3">
          <g
             id="line2d_9">
            <g
               id="g220">
              <use
                 style="stroke:#000000;stroke-width:0.8;"
                 x="57.6"
                 xlink:href="#m23d7ed126b"
                 y="241.056"
                 id="use218" />
            </g>
          </g>
          <g
             id="text_10">
            <!-- −100 -->
            <g
               transform="translate(23.132812 244.855219)scale(0.1 -0.1)"
               id="g231">
              <use
                 xlink:href="#DejaVuSans-8722"
                 id="use223" />
              <use
                 x="83.789062"
                 xlink:href="#DejaVuSans-49"
                 id="use225" />
              <use
                 x="147.412109"
                 xlink:href="#DejaVuSans-48"
                 id="use227" />
              <use
                 x="211.035156"
                 xlink:href="#DejaVuSans-48"
                 id="use229" />
            </g>
          </g>
        </g>
        <g
           id="ytick_4">
          <g
             id="line2d_10">
            <g
               id="g237">
              <use
                 style="stroke:#000000;stroke-width:0.8;"
                 x="57.6"
                 xlink:href="#m23d7ed126b"
                 y="207.792"
                 id="use235" />
            </g>
          </g>
          <g
             id="text_11">
            <!-- −50 -->
            <g
               transform="translate(29.495313 211.591219)scale(0.1 -0.1)"
               id="g246">
              <use
                 xlink:href="#DejaVuSans-8722"
                 id="use240" />
              <use
                 x="83.789062"
                 xlink:href="#DejaVuSans-53"
                 id="use242" />
              <use
                 x="147.412109"
                 xlink:href="#DejaVuSans-48"
                 id="use244" />
            </g>
          </g>
        </g>
        <g
           id="ytick_5">
          <g
             id="line2d_11">
            <g
               id="g252">
              <use
                 style="stroke:#000000;stroke-width:0.8;"
                 x="57.6"
                 xlink:href="#m23d7ed126b"
                 y="174.528"
                 id="use250" />
            </g>
          </g>
          <g
             id="text_12">
            <!-- 0 -->
            <g
               transform="translate(44.2375 178.327219)scale(0.1 -0.1)"
               id="g257">
              <use
                 xlink:href="#DejaVuSans-48"
                 id="use255" />
            </g>
          </g>
        </g>
        <g
           id="ytick_6">
          <g
             id="line2d_12">
            <g
               id="g263">
              <use
                 style="stroke:#000000;stroke-width:0.8;"
                 x="57.6"
                 xlink:href="#m23d7ed126b"
                 y="141.264"
                 id="use261" />
            </g>
          </g>
          <g
             id="text_13">
            <!-- 50 -->
            <g
               transform="translate(37.875 145.063219)scale(0.1 -0.1)"
               id="g270">
              <use
                 xlink:href="#DejaVuSans-53"
                 id="use266" />
              <use
                 x="63.623047"
                 xlink:href="#DejaVuSans-48"
                 id="use268" />
            </g>
          </g>
        </g>
        <g
           id="ytick_7">
          <g
             id="line2d_13">
            <g
               id="g276">
              <use
                 style="stroke:#000000;stroke-width:0.8;"
                 x="57.6"
                 xlink:href="#m23d7ed126b"
                 y="108"
                 id="use274" />
            </g>
          </g>
          <g
             id="text_14">
            <!-- 100 -->
            <g
               transform="translate(31.5125 111.799219)scale(0.1 -0.1)"
               id="g285">
              <use
                 xlink:href="#DejaVuSans-49"
                 id="use279" />
              <use
                 x="63.623047"
                 xlink:href="#DejaVuSans-48"
                 id="use281" />
              <use
                 x="127.246094"
                 xlink:href="#DejaVuSans-48"
                 id="use283" />
            </g>
          </g>
        </g>
        <g
           id="ytick_8">
          <g
             id="line2d_14">
            <g
               id="g291">
              <use
                 style="stroke:#000000;stroke-width:0.8;"
                 x="57.6"
                 xlink:href="#m23d7ed126b"
                 y="74.736"
                 id="use289" />
            </g>
          </g>
          <g
             id="text_15">
            <!-- 150 -->
            <g
               transform="translate(31.5125 78.535219)scale(0.1 -0.1)"
               id="g300">
              <use
                 xlink:href="#DejaVuSans-49"
                 id="use294" />
              <use
                 x="63.623047"
                 xlink:href="#DejaVuSans-53"
                 id="use296" />
              <use
                 x="127.246094"
                 xlink:href="#DejaVuSans-48"
                 id="use298" />
            </g>
          </g>
        </g>
        <g
           id="ytick_9">
          <g
             id="line2d_15">
            <g
               id="g306">
              <use
                 style="stroke:#000000;stroke-width:0.8;"
                 x="57.6"
                 xlink:href="#m23d7ed126b"
                 y="41.472"
                 id="use304" />
            </g>
          </g>
          <g
             id="text_16">
            <!-- 200 -->
            <g
               transform="translate(31.5125 45.271219)scale(0.1 -0.1)"
               id="g315">
              <use
                 xlink:href="#DejaVuSans-50"
                 id="use309" />
              <use
                 x="63.623047"
                 xlink:href="#DejaVuSans-48"
                 id="use311" />
              <use
                 x="127.246094"
                 xlink:href="#DejaVuSans-48"
                 id="use313" />
            </g>
          </g>
        </g>
      </g>
      <g
         id="line2d_16">
        <path
           clip-path="url(#p20ead3b28f)"
           d="M 57.6 174.528  L 414.72 174.528  "
           style="fill:none;stroke:#2ca02c;stroke-linecap:square;stroke-opacity:0.4;stroke-width:1.5;"
           id="path320" />
      </g>
      <g
         id="line2d_17">
        <path
           clip-path="url(#p20ead3b28f)"
           d="m 162.52523,222.85691 4.92384,4.47733 4.26552,3.58848 3.7707,2.90527 3.80789,2.64978 3.44173,2.12882 3.30975,1.79579 3.42258,1.6009 9.65601,4.13076 6.64068,1.65162 4.45328,0.75659 3.67421,0.4554 5.37743,0.36699 1.43913,0.0126 2.64101,0.42762 4.66241,0.11564 6.71362,-0.0942 7.27202,-0.37658 7.81503,-0.63243 12.70417,-1.36929 18.58304,-2.44891 2.45667,-0.1069 4.44557,-0.43023 3.30895,-0.70719 2.42114,0.0512 2.59417,-0.55029 5.28129,-0.84666 5.32262,-0.56133 8.09141,-1.1096 19.54087,-2.32136 11.517,-1.1902 v 0"
           style="fill:none;stroke:#1f77b4;stroke-width:1.5;stroke-linecap:square;stroke-linejoin:round"
           id="path323"
           inkscape:connector-curvature="0"
           sodipodi:nodetypes="cccccccccccccccccccccccccccccccc" />
      </g>
      <g
         id="line2d_18">
        <path
           clip-path="url(#p20ead3b28f)"
           d="m 64.520158,174.81429 2.20926,0.14529 1.982441,-0.34636 1.901235,0.23109 1.75842,-0.12133 1.788096,0.13912 1.745931,0.0284 1.678554,0.15159 1.707663,0.0766 1.590523,0.16037 1.639376,0.1353 1.529325,0.14661 1.543192,0.20643 1.491673,0.14054 1.433955,0.22998 1.447778,0.20666 1.363304,0.18797 1.34725,0.28473 1.343649,0.21238 1.249281,0.2294 1.253255,0.33306 1.254727,0.22793 1.138795,0.2343 1.144249,0.39158 1.19164,0.28806 1.05174,0.14941 0.99489,0.43289 1.10064,0.45706 1.13442,0.0997 0.75216,0.18777 0.92635,0.64035 1.03367,0.55465 1.512,0.37862 -0.11042,-0.28195 1.01728,0.77824 0.91054,0.53185 0.82998,0.61574 0.56439,0.39991 0.8042,0.0378 0.81656,0.36122 0.7617,0.34054 0.70657,0.39032 0.66433,0.34863 0.65518,0.30261 0.65343,0.3032 0.63915,0.31895 0.6178,0.32774 0.59534,0.32704 0.58132,0.34495 0.55215,0.28592 0.54355,0.30462 0.52926,0.30036 0.51486,0.29672 0.50056,0.2926 0.48681,0.28782 0.4738,0.28282 0.4615,0.27806 0.44972,0.27379 0.43829,0.26996 0.42711,0.2664 0.41616,0.26294 0.40543,0.25946 0.39498,0.25591 0.38481,0.25229 0.37496,0.24862 0.36542,0.24488 0.35618,0.24115 0.34724,0.23739 0.33861,0.23366 0.33026,0.22994 0.32219,0.22626 0.3144,0.22262 0.30687,0.21905 0.29961,0.21554 0.29258,0.21212 0.28545,0.20988 0.27958,0.20444 0.27287,0.20239 0.26671,0.19933 0.26074,0.19637"
           style="fill:none;stroke:#ff7f0e;stroke-width:1.5;stroke-linecap:square;stroke-linejoin:round"
           id="path326"
           inkscape:connector-curvature="0"
           sodipodi:nodetypes="cccccccccccccccccccccccccccccccccccccccccccccccccccccccccccccccccccccccccccccccc" />
      </g>
      <g
         id="patch_3">
        <path
           d="M 57.6 307.584  L 57.6 41.472  "
           style="fill:none;stroke:#000000;stroke-linecap:square;stroke-linejoin:miter;stroke-width:0.8;"
           id="path329" />
      </g>
      <g
         id="patch_4">
        <path
           d="M 414.72 307.584  L 414.72 41.472  "
           style="fill:none;stroke:#000000;stroke-linecap:square;stroke-linejoin:miter;stroke-width:0.8;"
           id="path332" />
      </g>
      <g
         id="patch_5">
        <path
           d="M 57.6 307.584  L 414.72 307.584  "
           style="fill:none;stroke:#000000;stroke-linecap:square;stroke-linejoin:miter;stroke-width:0.8;"
           id="path335" />
      </g>
      <g
         id="patch_6">
        <path
           d="M 57.6 41.472  L 414.72 41.472  "
           style="fill:none;stroke:#000000;stroke-linecap:square;stroke-linejoin:miter;stroke-width:0.8;"
           id="path338" />
      </g>
      <path
         style="fill:none;fill-rule:evenodd;stroke:#ff7f0e;stroke-width:0.75px;stroke-linecap:butt;stroke-linejoin:miter;stroke-opacity:1;marker-end:url(#Arrow2Lend)"
         d="m 75.050851,188.24746 c 21.241759,0.93835 31.670659,8.26611 42.467799,15.37628"
         id="path1157"
         inkscape:connector-curvature="0"
         sodipodi:nodetypes="cc" />
      <path
         style="fill:none;fill-rule:evenodd;stroke:#1f77b4;stroke-width:0.75px;stroke-linecap:butt;stroke-linejoin:miter;stroke-opacity:1;marker-end:url(#marker1477)"
         d="m 179.75594,212.01357 c 26.46899,36.99411 109.90262,14.37136 155.59322,9.33559"
         id="path1447"
         inkscape:connector-curvature="0"
         sodipodi:nodetypes="cc" />
      <g
         id="g1056"
         transform="translate(-10.478556,16.05282)"
         style="stroke:#4e9a06;stroke-linecap:butt;stroke-linejoin:round">
        <path
           inkscape:connector-curvature="0"
           id="path1050"
           d="m 97.077376,154.034 8.672244,8.67224"
           style="fill:none;fill-rule:evenodd;stroke:#4e9a06;stroke-width:0.75px;stroke-linecap:butt;stroke-linejoin:miter;stroke-opacity:1" />
        <path
           style="fill:none;fill-rule:evenodd;stroke:#4e9a06;stroke-width:0.75px;stroke-linecap:butt;stroke-linejoin:miter;stroke-opacity:1"
           d="m 105.74962,154.034 -8.672242,8.67224"
           id="path1052"
           inkscape:connector-curvature="0" />
      </g>
      <g
         style="fill:#73d216;stroke:#73d216;stroke-linecap:butt;stroke-linejoin:round"
         transform="translate(61.521444,16.05282)"
         id="g1062">
        <path
           style="fill:#73d216;fill-rule:evenodd;stroke:#73d216;stroke-width:0.75px;stroke-linecap:butt;stroke-linejoin:miter;stroke-opacity:1"
           d="m 97.077376,154.034 8.672244,8.67224"
           id="path1058"
           inkscape:connector-curvature="0" />
        <path
           inkscape:connector-curvature="0"
           id="path1060"
           d="m 105.74962,154.034 -8.672242,8.67224"
           style="fill:#73d216;fill-rule:evenodd;stroke:#73d216;stroke-width:0.75px;stroke-linecap:butt;stroke-linejoin:miter;stroke-opacity:1" />
      </g>
      <g
         id="g1068"
         transform="translate(129.02144,16.05282)"
         style="fill:#73d216;stroke:#8ae234;stroke-linecap:butt;stroke-linejoin:round">
        <path
           inkscape:connector-curvature="0"
           id="path1064"
           d="m 97.077376,154.034 8.672244,8.67224"
           style="fill:#73d216;fill-rule:evenodd;stroke:#8ae234;stroke-width:0.75px;stroke-linecap:butt;stroke-linejoin:miter;stroke-opacity:1" />
        <path
           style="fill:#73d216;fill-rule:evenodd;stroke:#8ae234;stroke-width:0.75px;stroke-linecap:butt;stroke-linejoin:miter;stroke-opacity:1"
           d="m 105.74962,154.034 -8.672242,8.67224"
           id="path1066"
           inkscape:connector-curvature="0" />
      </g>
      <g
         transform="matrix(0.24794402,0,0,0.13490918,45.052309,51.666209)"
         id="line2d_18-1"
         style="stroke:#4e9a06;stroke-width:4.32859802;stroke-linecap:butt;stroke-linejoin:round;stroke-miterlimit:4;stroke-dasharray:none">
        <path
           inkscape:connector-curvature="0"
           clip-path="url(#p86bef944ab)"
           d="m 73.832727,295.12294 120.423243,0.17073 41.49719,0.0922 2.44102,-0.20191 1.62734,-0.29862 1.62734,-0.60996 0.81367,-0.54135 0.81367,-0.84092 0.81367,-1.37155 0.81367,-2.38898 0.81367,-4.55824 0.81367,-9.91158 0.81367,-26.02719 0.81367,-82.94241 0.81367,-112.12517 0.81367,122.18944 0.81367,65.95608 0.81367,23.91612 0.81368,10.61295 0.81367,5.57563 0.81367,3.29638 0.81367,2.12024 0.81367,1.45158 0.81367,1.04247 0.81367,0.7774 1.62734,1.06862 1.62734,0.68955 2.44101,0.66121 3.25468,0.52692 4.06836,0.38732 6.50936,0.34387 9.76405,0.26086 17.08708,0.20781 34.17416,0.15777 61.02529,0.0939 v 0"
           style="fill:none;stroke:#4e9a06;stroke-width:4.32859802;stroke-linecap:square;stroke-linejoin:round;stroke-miterlimit:4;stroke-dasharray:none"
           id="path305" />
      </g>
    </g>
    <g
       transform="matrix(0.24051588,0,0,0.24051588,105.6701,57.672311)"
       id="line2d_19"
       style="stroke:#73d216;stroke-width:5.36658955;stroke-linecap:butt;stroke-linejoin:round;stroke-miterlimit:4;stroke-dasharray:none">
      <path
         inkscape:connector-curvature="0"
         clip-path="url(#p7adedbff3c-1)"
         d="m 73.832727,222.48409 11.391388,1.34291 9.764046,1.36568 8.950379,1.4639 8.1367,1.54135 7.32304,1.58927 7.32303,1.81253 6.50937,1.82713 6.50936,2.0596 5.69569,2.01709 5.6957,2.24085 5.69569,2.4875 5.6957,2.75671 4.88202,2.59289 4.88202,2.81644 4.88203,3.04657 4.88202,3.2773 5.69569,4.10385 5.6957,4.37329 7.32303,5.91461 13.01873,10.59868 4.88202,3.66276 4.06836,2.76977 3.25468,1.97174 3.25468,1.71116 3.25468,1.41436 2.44101,0.84742 2.44102,0.65312 2.44101,0.45148 2.44101,0.24548 2.44101,0.0383 2.44101,-0.16707 2.44101,-0.36745 2.44102,-0.56006 2.44101,-0.7424 3.25468,-1.25178 3.25468,-1.51971 3.25468,-1.75016 4.06836,-2.45225 4.88202,-3.2309 6.50936,-4.59871 15.45974,-11.03424 6.50937,-4.33566 5.69569,-3.55231 5.6957,-3.30626 5.69569,-3.05528 5.69569,-2.80903 5.6957,-2.57365 5.69569,-2.35276 6.50936,-2.43927 6.50937,-2.19702 6.50936,-1.97925 7.32304,-1.99494 8.1367,-1.96381 8.13671,-1.73282 8.95038,-1.67692 9.76404,-1.59622 0.81367,-0.12325 v 0"
         style="fill:none;stroke:#73d216;stroke-width:5.36658955;stroke-linecap:square;stroke-linejoin:round;stroke-miterlimit:4;stroke-dasharray:none"
         id="path308" />
    </g>
    <g
       transform="matrix(0.23364265,0,0,0.23364265,171.58502,90.982086)"
       id="line2d_20"
       style="stroke-linecap:butt;stroke-linejoin:round;stroke:#8ae234;stroke-width:4.85356595;stroke-miterlimit:4;stroke-dasharray:none">
      <path
         inkscape:connector-curvature="0"
         clip-path="url(#pca9dbcaf78)"
         d="m 73.832727,263.38023 25.223787,-0.78917 20.341766,-0.85199 16.27341,-0.89123 13.8324,-0.97174 11.39138,-1.00906 9.76405,-1.07086 8.95038,-1.20462 7.32303,-1.19054 7.32304,-1.42124 6.50936,-1.49203 6.50937,-1.72071 13.83239,-3.84723 2.44102,-0.41946 2.44101,-0.15372 1.62734,0.11734 1.62734,0.35883 1.62734,0.66885 1.62734,1.05658 1.62734,1.52652 1.62734,2.07393 1.62735,2.67948 1.62734,3.30448 1.62734,3.8898 2.44101,6.66346 4.06835,11.51495 1.62734,4.04323 1.62734,3.44655 1.62735,2.77003 1.62734,2.08857 1.62734,1.45806 1.62734,0.91131 1.62734,0.46086 1.62734,0.10514 1.62734,-0.16564 1.62734,-0.36468 2.44101,-0.79677 4.06836,-1.66848 8.95037,-3.8148 4.88203,-1.82874 4.88202,-1.60339 5.69569,-1.60847 5.6957,-1.36645 6.50936,-1.3187 7.32304,-1.23638 8.1367,-1.1351 8.95038,-1.02675 10.57771,-0.98834 12.20506,-0.91678 14.64607,-0.8724 17.90075,-0.82952 12.20506,-0.45778 v 0"
         style="fill:none;stroke:#8ae234;stroke-width:4.85356595;stroke-linecap:square;stroke-linejoin:round;stroke-miterlimit:4;stroke-dasharray:none"
         id="path311" />
    </g>
    <path
       style="fill:none;fill-rule:evenodd;stroke:#4e9a06;stroke-width:0.75px;stroke-linecap:butt;stroke-linejoin:miter;stroke-opacity:1;marker-end:url(#marker1148)"
       d="m 91.118624,161.86716 8.786434,-54.91525"
       id="path1136"
       inkscape:connector-curvature="0" />
    <path
       style="fill:none;fill-rule:evenodd;stroke:#73d216;stroke-width:0.75px;stroke-linecap:butt;stroke-linejoin:miter;stroke-opacity:1;marker-end:url(#marker1206)"
       d="M 163.35254,164.53514 V 136.71142"
       id="path1138"
       inkscape:connector-curvature="0" />
  </g>
  <defs
     id="defs346">
    <clipPath
       id="p20ead3b28f">
      <rect
         height="266.112"
         width="357.12"
         x="57.6"
         y="41.472"
         id="rect343" />
    </clipPath>
  </defs>
</svg>
