<?xml version="1.0" encoding="utf-8" standalone="no"?>
<!DOCTYPE svg PUBLIC "-//W3C//DTD SVG 1.1//EN"
  "http://www.w3.org/Graphics/SVG/1.1/DTD/svg11.dtd">
<!-- Created with matplotlib (https://matplotlib.org/) -->
<svg height="345.6pt" version="1.1" viewBox="0 0 460.8 345.6" width="460.8pt" xmlns="http://www.w3.org/2000/svg" xmlns:xlink="http://www.w3.org/1999/xlink">
 <metadata>
  <rdf:RDF xmlns:cc="http://creativecommons.org/ns#" xmlns:dc="http://purl.org/dc/elements/1.1/" xmlns:rdf="http://www.w3.org/1999/02/22-rdf-syntax-ns#">
   <cc:Work>
    <dc:type rdf:resource="http://purl.org/dc/dcmitype/StillImage"/>
    <dc:date>2020-09-08T15:09:50.003961</dc:date>
    <dc:format>image/svg+xml</dc:format>
    <dc:creator>
     <cc:Agent>
      <dc:title>Matplotlib v3.3.0, https://matplotlib.org/</dc:title>
     </cc:Agent>
    </dc:creator>
   </cc:Work>
  </rdf:RDF>
 </metadata>
 <defs>
  <style type="text/css">*{stroke-linecap:butt;stroke-linejoin:round;}</style>
 </defs>
 <g id="figure_1">
  <g id="patch_1">
   <path d="M 0 345.6 
L 460.8 345.6 
L 460.8 0 
L 0 0 
z
" style="fill:#ffffff;"/>
  </g>
  <g id="axes_1">
   <g id="patch_2">
    <path d="M 63.778767 289.909706 
L 445.68 289.909706 
L 445.68 15.12 
L 63.778767 15.12 
z
" style="fill:#ffffff;"/>
   </g>
   <g id="matplotlib.axis_1">
    <g id="xtick_1">
     <g id="line2d_1">
      <defs>
       <path d="M 0 0 
L 0 3.5 
" id="me0f0ecf0e7" style="stroke:#000000;stroke-width:0.8;"/>
      </defs>
      <g>
       <use style="stroke:#000000;stroke-width:0.8;" x="80.790384" xlink:href="#me0f0ecf0e7" y="289.909706"/>
      </g>
     </g>
     <g id="text_1">
      <!-- $\mathdefault{0}$ -->
      <g transform="translate(77.30346 306.595582)scale(0.14 -0.14)">
       <defs>
        <path d="M 26.296875 69 
C 10.796875 69 2.90625 56.6875 2.90625 32.453125 
C 2.90625 20.71875 5 10.625 8.5 5.71875 
C 12 0.796875 17.59375 -2 23.796875 -2 
C 38.90625 -2 46.5 11.015625 46.5 36.65625 
C 46.5 58.578125 40 69 26.296875 69 
z
M 24.5 65.5 
C 34.203125 65.5 38.09375 55.6875 38.09375 31.640625 
C 38.09375 10.328125 34.296875 1.5 25.09375 1.5 
C 15.40625 1.5 11.296875 11.625 11.296875 36.0625 
C 11.296875 57.1875 15 65.5 24.5 65.5 
z
" id="URW_Palladio_L_Roman-48"/>
       </defs>
       <use transform="scale(0.996264)" xlink:href="#URW_Palladio_L_Roman-48"/>
      </g>
     </g>
    </g>
    <g id="xtick_2">
     <g id="line2d_2">
      <g>
       <use style="stroke:#000000;stroke-width:0.8;" x="150.296478" xlink:href="#me0f0ecf0e7" y="289.909706"/>
      </g>
     </g>
     <g id="text_2">
      <!-- $\mathdefault{200}$ -->
      <g transform="translate(139.835706 306.595582)scale(0.14 -0.14)">
       <defs>
        <path d="M 1.59375 2.5 
L 1.59375 0 
C 20.296875 0 20.296875 0 23.90625 0 
C 27.5 0 27.5 0 46.796875 0 
C 46.59375 1.953125 46.59375 2.90625 46.59375 4.203125 
C 46.59375 5.4375 46.59375 6.359375 46.796875 8.421875 
C 35.296875 8.421875 30.703125 8.421875 12.203125 8.421875 
L 30.40625 27.515625 
C 40.09375 37.71875 43.09375 43.171875 43.09375 50.59375 
C 43.09375 61.96875 35.296875 69 22.59375 69 
C 15.40625 69 10.5 67 5.59375 62.015625 
L 3.90625 48.421875 
L 6.796875 48.421875 
L 8.09375 53.015625 
C 9.703125 58.796875 13.296875 61.296875 20 61.296875 
C 28.59375 61.296875 34.09375 55.890625 34.09375 47.421875 
C 34.09375 39.921875 29.90625 32.546875 18.59375 20.5625 
z
" id="URW_Palladio_L_Roman-50"/>
       </defs>
       <use transform="scale(0.996264)" xlink:href="#URW_Palladio_L_Roman-50"/>
       <use transform="translate(49.8132 0)scale(0.996264)" xlink:href="#URW_Palladio_L_Roman-48"/>
       <use transform="translate(99.626401 0)scale(0.996264)" xlink:href="#URW_Palladio_L_Roman-48"/>
      </g>
     </g>
    </g>
    <g id="xtick_3">
     <g id="line2d_3">
      <g>
       <use style="stroke:#000000;stroke-width:0.8;" x="219.802572" xlink:href="#me0f0ecf0e7" y="289.909706"/>
      </g>
     </g>
     <g id="text_3">
      <!-- $\mathdefault{400}$ -->
      <g transform="translate(209.341799 306.595582)scale(0.14 -0.14)">
       <defs>
        <path d="M 28 18 
L 28 10.515625 
C 28 4.515625 26.90625 3.109375 22 3.109375 
L 15.796875 3.109375 
L 15.796875 0 
C 29.09375 0 29.09375 0 31.5 0 
C 33.90625 0 33.90625 0 47.203125 0 
L 47.203125 3.109375 
L 42.40625 3.109375 
C 37.5 3.109375 36.40625 4.40625 36.40625 10.453125 
L 36.40625 18 
C 42.296875 18 44.40625 18 47.203125 17.703125 
L 47.203125 24.8125 
C 42.5 24.421875 40.59375 24.421875 39.09375 24.421875 
L 38.796875 24.421875 
L 36.40625 24.421875 
L 36.40625 38.390625 
C 36.40625 56.25 36.59375 64.875 37.09375 69 
L 35.90625 69.5 
L 28.5 66.796875 
L 0.203125 20.296875 
L 1.296875 18 
z
M 28 24.421875 
L 6.5 24.421875 
L 28 59.78125 
z
" id="URW_Palladio_L_Roman-52"/>
       </defs>
       <use transform="scale(0.996264)" xlink:href="#URW_Palladio_L_Roman-52"/>
       <use transform="translate(49.8132 0)scale(0.996264)" xlink:href="#URW_Palladio_L_Roman-48"/>
       <use transform="translate(99.626401 0)scale(0.996264)" xlink:href="#URW_Palladio_L_Roman-48"/>
      </g>
     </g>
    </g>
    <g id="xtick_4">
     <g id="line2d_4">
      <g>
       <use style="stroke:#000000;stroke-width:0.8;" x="289.308665" xlink:href="#me0f0ecf0e7" y="289.909706"/>
      </g>
     </g>
     <g id="text_4">
      <!-- $\mathdefault{600}$ -->
      <g transform="translate(278.847893 306.595582)scale(0.14 -0.14)">
       <defs>
        <path d="M 41.59375 67.34375 
L 37.90625 69.046875 
C 28.296875 65.84375 24.203125 63.84375 19.09375 59.4375 
C 8.796875 50.71875 3.203125 38.5 3.203125 24.765625 
C 3.203125 8.21875 11.203125 -2 24.09375 -2 
C 37.09375 -2 46.796875 8.3125 46.796875 21.953125 
C 46.796875 33.484375 39.90625 41 29.296875 41 
C 24.296875 41 21.296875 39.6875 15.40625 34.984375 
C 14.296875 34.078125 14.203125 33.984375 13.09375 33.1875 
C 15.203125 51.3125 23.59375 61.140625 41.59375 66.546875 
z
M 25.5 34.984375 
C 33.09375 34.984375 38.203125 28.375 38.203125 18.453125 
C 38.203125 8.015625 33.09375 1.296875 25.40625 1.296875 
C 16.90625 1.296875 12.296875 8.609375 12.296875 22.0625 
C 12.296875 25.5625 12.703125 27.46875 13.796875 29.171875 
C 16 32.578125 20.703125 34.984375 25.5 34.984375 
z
" id="URW_Palladio_L_Roman-54"/>
       </defs>
       <use transform="scale(0.996264)" xlink:href="#URW_Palladio_L_Roman-54"/>
       <use transform="translate(49.8132 0)scale(0.996264)" xlink:href="#URW_Palladio_L_Roman-48"/>
       <use transform="translate(99.626401 0)scale(0.996264)" xlink:href="#URW_Palladio_L_Roman-48"/>
      </g>
     </g>
    </g>
    <g id="xtick_5">
     <g id="line2d_5">
      <g>
       <use style="stroke:#000000;stroke-width:0.8;" x="358.814759" xlink:href="#me0f0ecf0e7" y="289.909706"/>
      </g>
     </g>
     <g id="text_5">
      <!-- $\mathdefault{800}$ -->
      <g transform="translate(348.353987 306.595582)scale(0.14 -0.14)">
       <defs>
        <path d="M 16.796875 34.546875 
C 12.703125 32.65625 11 31.546875 8.796875 29.4375 
C 5 25.640625 3 21.125 3 15.921875 
C 3 5.609375 11.296875 -2 22.59375 -2 
C 35.59375 -2 46.40625 8.21875 46.40625 20.625 
C 46.40625 28.640625 42.703125 32.953125 31.296875 38.15625 
C 40.40625 44.375 43.59375 48.578125 43.59375 54.578125 
C 43.59375 63.1875 36.5 69 25.90625 69 
C 14 69 5.296875 61.390625 5.296875 50.890625 
C 5.296875 44.078125 8 40.265625 16.796875 34.546875 
z
M 28.40625 29.546875 
C 34.703125 26.734375 38.5 21.828125 38.5 16.4375 
C 38.5 8.015625 32.203125 1.40625 24.09375 1.40625 
C 15.59375 1.40625 10.09375 7.421875 10.09375 16.734375 
C 10.09375 24.03125 13 28.640625 20.40625 33.15625 
z
M 22.296875 42.375 
C 16 45.46875 12.796875 49.484375 12.796875 54.484375 
C 12.796875 61.09375 17.59375 65.59375 24.703125 65.59375 
C 32 65.59375 36.796875 60.796875 36.796875 53.46875 
C 36.796875 47.78125 34.296875 43.875 27.796875 39.65625 
z
" id="URW_Palladio_L_Roman-56"/>
       </defs>
       <use transform="scale(0.996264)" xlink:href="#URW_Palladio_L_Roman-56"/>
       <use transform="translate(49.8132 0)scale(0.996264)" xlink:href="#URW_Palladio_L_Roman-48"/>
       <use transform="translate(99.626401 0)scale(0.996264)" xlink:href="#URW_Palladio_L_Roman-48"/>
      </g>
     </g>
    </g>
    <g id="xtick_6">
     <g id="line2d_6">
      <g>
       <use style="stroke:#000000;stroke-width:0.8;" x="428.320853" xlink:href="#me0f0ecf0e7" y="289.909706"/>
      </g>
     </g>
     <g id="text_6">
      <!-- $\mathdefault{1000}$ -->
      <g transform="translate(414.373157 306.595582)scale(0.14 -0.14)">
       <defs>
        <path d="M 6.703125 56 
L 7.703125 56 
L 20.59375 61.8125 
C 20.703125 61.90625 20.796875 61.90625 20.90625 61.90625 
C 21.5 61.90625 21.703125 61.015625 21.703125 58.609375 
L 21.703125 9.578125 
C 21.703125 4.3125 20.59375 3.203125 15.203125 3.203125 
L 9.59375 3.203125 
L 9.59375 0 
C 25 0 25 0 26.09375 0 
C 27.40625 0 29.59375 0 33 0 
C 34.203125 0 37.703125 0 41.796875 0 
L 41.796875 3.203125 
L 36.59375 3.203125 
C 31.09375 3.203125 30.09375 4.3125 30.09375 9.5625 
L 30.09375 69.421875 
L 28.703125 69.921875 
C 22.203125 66.515625 15.09375 63.515625 6 60.3125 
z
" id="URW_Palladio_L_Roman-49"/>
       </defs>
       <use transform="scale(0.996264)" xlink:href="#URW_Palladio_L_Roman-49"/>
       <use transform="translate(49.8132 0)scale(0.996264)" xlink:href="#URW_Palladio_L_Roman-48"/>
       <use transform="translate(99.626401 0)scale(0.996264)" xlink:href="#URW_Palladio_L_Roman-48"/>
       <use transform="translate(149.439601 0)scale(0.996264)" xlink:href="#URW_Palladio_L_Roman-48"/>
      </g>
     </g>
    </g>
    <g id="text_7">
     <!-- Energy [{$\mu$}K] -->
     <g transform="translate(213.174346 325.860528)scale(0.168 -0.168)">
      <defs>
       <path d="M 30.59375 6.765625 
C 22.59375 6.765625 19 6.765625 17.203125 6.765625 
L 17.203125 32.921875 
L 48.203125 32.921875 
L 48.203125 39 
L 17.203125 39 
L 17.203125 62.640625 
L 30.09375 62.640625 
C 31.296875 62.640625 32.5 62.640625 33.703125 62.640625 
L 50.796875 62.640625 
L 50.796875 69 
L 8.796875 69 
L 8.796875 0 
L 52.09375 0 
L 52.09375 6.765625 
z
" id="CMSS17-69"/>
       <path d="M 40.90625 29.328125 
C 40.90625 35.671875 39.40625 44 28.09375 44 
C 21.703125 44 17.5 40.71875 14.703125 37.328125 
L 14.703125 43.09375 
L 7.40625 43.09375 
L 7.40625 0 
L 15 0 
L 15 24.359375 
C 15 30.6875 17.40625 37.9375 24.203125 37.9375 
C 33 37.9375 33.296875 32 33.296875 28.578125 
L 33.296875 0 
L 40.90625 0 
z
" id="CMSS17-110"/>
       <path d="M 39.09375 21.515625 
C 39.09375 24.84375 38.90625 31.296875 35.703125 36.640625 
C 32.203125 42.390625 26.5 44 22.203125 44 
C 11.796875 44 3 34.1875 3 21.484375 
C 3 9.09375 12.09375 -1 23.59375 -1 
C 28.09375 -1 33.59375 0.296875 38.59375 3.875 
C 38.59375 4.28125 38.40625 6.46875 38.296875 6.5625 
C 38.296875 6.765625 38 9.84375 38 10.25 
C 33.203125 6.359375 27.703125 5.078125 23.703125 5.078125 
C 17.296875 5.078125 10.40625 10.421875 10.09375 21.515625 
z
M 10.90625 27 
C 12.203125 32.5625 16.59375 37.828125 22.203125 37.828125 
C 23.703125 37.828125 30.703125 37.828125 32.5 27 
z
" id="CMSS17-101"/>
       <path d="M 14.90625 21.296875 
C 14.90625 30.703125 21.796875 37 30.59375 37 
L 30.59375 43.578125 
C 24.203125 43.578125 18.203125 40.390625 14.59375 35.203125 
L 14.59375 43.09375 
L 7.5 43.09375 
L 7.5 0 
L 14.90625 0 
z
" id="CMSS17-114"/>
       <path d="M 44.5 43.875 
C 38.796875 43.875 33.90625 42.78125 29.90625 40.890625 
C 26.59375 43.390625 23.203125 43.875 20.90625 43.875 
C 12.203125 43.875 5.59375 36.703125 5.59375 28.34375 
C 5.59375 22.9375 8.59375 18.859375 8.796875 18.671875 
C 7 16.171875 6 13.484375 6 10.5 
C 6 7 7.40625 4.515625 8.5 3.125 
C 3.296875 -0.046875 2.59375 -4.90625 2.59375 -6.796875 
C 2.59375 -14.03125 11.703125 -20 23.40625 -20 
C 35.203125 -20 44.296875 -14.03125 44.296875 -6.6875 
C 44.296875 7 29 7 24.796875 7 
L 16.703125 7 
C 15.203125 7 11.203125 7 11.203125 12.359375 
C 11.203125 14.390625 12.09375 15.6875 12.203125 15.78125 
C 13.703125 14.6875 16.796875 13 20.90625 13 
C 29.203125 13 36.09375 19.96875 36.09375 28.546875 
C 36.09375 33.3125 33.90625 36.796875 33 38 
L 33.296875 38 
C 33.59375 38 37.796875 38 39.296875 38 
C 42.5 38 42.796875 37.953125 45.59375 37.796875 
z
M 20.90625 18.46875 
C 17.5 18.46875 12.703125 20.546875 12.703125 28.484375 
C 12.703125 37.109375 18.203125 38.5 20.796875 38.5 
C 24.203125 38.5 29 36.421875 29 28.484375 
C 29 19.859375 23.5 18.46875 20.90625 18.46875 
z
M 24.703125 -0.15625 
C 27.09375 -0.15625 37.203125 -0.15625 37.203125 -6.90625 
C 37.203125 -11.15625 31 -14.515625 23.5 -14.515625 
C 15.90625 -14.515625 9.703125 -11.25 9.703125 -6.796875 
C 9.703125 -6.296875 9.703125 -0.15625 16.59375 -0.15625 
z
" id="CMSS17-103"/>
       <path d="M 41.796875 43 
L 34 43 
C 25.5 20.21875 22.59375 10.96875 22.40625 5.984375 
L 22.296875 5.984375 
C 22 10.875 17.59375 22.8125 14.09375 31.359375 
L 9.40625 43 
L 1.296875 43 
L 19 0.203125 
C 17.90625 -2.78125 16.296875 -7.265625 15.796875 -8.265625 
C 13.59375 -13.828125 12.09375 -13.828125 10.5 -13.828125 
C 10.09375 -13.828125 6.90625 -13.828125 3.296875 -12.640625 
L 3.90625 -19.203125 
C 6.40625 -19.703125 8.90625 -20 10.703125 -20 
C 13.203125 -20 18.203125 -20 22.796875 -7.765625 
z
" id="CMSS17-121"/>
       <path d="M 25.203125 -25 
L 25.203125 -18.9375 
L 16.59375 -18.9375 
L 16.59375 68 
L 25.203125 68 
L 25.203125 74.078125 
L 9.296875 74.078125 
L 9.296875 -25 
z
" id="CMSS17-91"/>
       <path d="M 5.90625 39.09375 
L 6.59375 37.078125 
L 9.796875 39.1875 
C 12.703125 41 13.703125 41.5 14.59375 41.5 
C 15.59375 41.5 16.296875 40.59375 16.296875 39.484375 
C 16.296875 38.984375 16.203125 38.28125 3.203125 -26.796875 
L 4.59375 -27.609375 
L 7.59375 -26.40625 
C 9.90625 -25.5 10.796875 -24.5 10.90625 -23.1875 
L 12.09375 -0.796875 
C 13.296875 -0.9375 14 -1 14.296875 -1 
C 17.296875 -1 23.796875 4.125 30.40625 11.5625 
C 34.5 16.171875 36.59375 18.984375 39.703125 24.109375 
L 36.203125 10.75 
C 35.203125 6.890625 34.90625 4.671875 34.90625 3.046875 
C 34.90625 0.53125 36 -1 37.90625 -1 
C 40.5 -1 44.203125 1.265625 53.90625 8.609375 
L 52.90625 10.421875 
L 50.296875 8.71875 
C 47.796875 7.109375 45.40625 6 44.203125 6 
C 43.40625 6 42.90625 6.703125 42.90625 7.703125 
C 42.90625 8.515625 43.09375 10.125 43.5 11.71875 
C 45.796875 22.671875 48.90625 36.046875 51.90625 47.59375 
L 51.203125 48.5 
L 44.40625 46.78125 
L 43.40625 41.671875 
C 41.90625 34.03125 39.5 27.296875 36.59375 22.671875 
C 30.703125 13.4375 22.703125 6 18.59375 6 
C 17.703125 6 17.296875 6.90625 17.296875 8.609375 
C 17.296875 10.125 17.40625 11.21875 18 13.828125 
L 23.703125 41.0625 
C 24 42.671875 24.203125 44.078125 24.203125 45.28125 
C 24.203125 47.390625 23.40625 48.5 22 48.5 
C 19.90625 48.5 16.203125 46.484375 8.703125 41.078125 
z
" id="Pazo_Math_Italic-109"/>
       <path d="M 34.90625 41.65625 
L 59.796875 69 
L 50.203125 69 
L 17.203125 32.90625 
L 17.203125 69 
L 8.796875 69 
L 8.796875 0 
L 17.203125 0 
L 17.203125 22.375 
L 29.296875 35.59375 
L 51.796875 0 
L 61.09375 0 
z
" id="CMSS17-75"/>
       <path d="M 17.90625 74.078125 
L 2 74.078125 
L 2 68 
L 10.59375 68 
L 10.59375 -18.9375 
L 2 -18.9375 
L 2 -25 
L 17.90625 -25 
z
" id="CMSS17-93"/>
      </defs>
      <use transform="scale(0.996264)" xlink:href="#CMSS17-69"/>
      <use transform="translate(55.892013 0)scale(0.996264)" xlink:href="#CMSS17-110"/>
      <use transform="translate(104.096956 0)scale(0.996264)" xlink:href="#CMSS17-101"/>
      <use transform="translate(145.735778 0)scale(0.996264)" xlink:href="#CMSS17-114"/>
      <use transform="translate(177.645551 0)scale(0.996264)" xlink:href="#CMSS17-103"/>
      <use transform="translate(224.489175 0)scale(0.996264)" xlink:href="#CMSS17-121"/>
      <use transform="translate(298.718429 0)scale(0.996264)" xlink:href="#CMSS17-91"/>
      <use transform="translate(327.149167 0)scale(0.996264)" xlink:href="#Pazo_Math_Italic-109"/>
      <use transform="translate(386.47575 0)scale(0.996264)" xlink:href="#CMSS17-75"/>
      <use transform="translate(451.296043 0)scale(0.996264)" xlink:href="#CMSS17-93"/>
     </g>
    </g>
   </g>
   <g id="matplotlib.axis_2">
    <g id="ytick_1">
     <g id="line2d_7">
      <defs>
       <path d="M 0 0 
L -3.5 0 
" id="m3865c4c1cf" style="stroke:#000000;stroke-width:0.8;"/>
      </defs>
      <g>
       <use style="stroke:#000000;stroke-width:0.8;" x="63.778767" xlink:href="#m3865c4c1cf" y="247.786493"/>
      </g>
     </g>
     <g id="text_8">
      <!-- $\mathdefault{930}$ -->
      <g transform="translate(35.857223 252.629431)scale(0.14 -0.14)">
       <defs>
        <path d="M 9.59375 -1.65625 
C 20.703125 1.953125 25.5 4.25 30.90625 8.84375 
C 40.59375 17.15625 45.703125 28.671875 45.703125 42.078125 
C 45.703125 59 37.59375 69.296875 24.40625 69.296875 
C 11.59375 69.296875 2 59.296875 2 45.90625 
C 2 34.390625 9.5 26 19.90625 26 
C 23.296875 26 27.203125 27.09375 29 28.59375 
L 36 34.40625 
C 35.203125 17.578125 24.296875 5.25 6.203125 0.84375 
L 6.203125 0.046875 
z
M 24 66 
C 28.5 66 31.796875 64.09375 34 60.09375 
C 35.796875 56.890625 37 52 37 47.5 
C 37 38.296875 31.703125 32.109375 24 32.109375 
C 16 32.109375 10.59375 39.203125 10.59375 49.59375 
C 10.59375 59.703125 15.796875 66 24 66 
z
" id="URW_Palladio_L_Roman-57"/>
        <path d="M 4.296875 49.953125 
L 7.40625 49.953125 
L 9.203125 55.53125 
C 10.296875 58.90625 16.59375 62.296875 21.796875 62.296875 
C 28.296875 62.296875 33.59375 57.015625 33.59375 50.75 
C 33.59375 43.28125 27.703125 37 20.59375 37 
C 19.796875 37 18.703125 37 17.40625 37.203125 
L 15.90625 37.203125 
L 14.703125 31.984375 
L 15.40625 31.375 
C 19.203125 33.09375 21.09375 33.59375 23.796875 33.59375 
C 32.09375 33.59375 36.90625 28.265625 36.90625 19.09375 
C 36.90625 8.84375 30.796875 2.109375 21.5 2.109375 
C 16.90625 2.109375 12.796875 3.609375 9.796875 6.421875 
C 7.40625 8.640625 6.09375 10.953125 4.203125 16.390625 
L 1.5 15.390625 
C 3.59375 9.265625 4.40625 5.640625 5 0.609375 
C 10.296875 -1.203125 14.703125 -2 18.40625 -2 
C 26.40625 -2 35.59375 2.515625 41.09375 9.265625 
C 44.5 13.390625 46.203125 17.8125 46.203125 22.53125 
C 46.203125 27.359375 44.203125 31.59375 40.59375 34.09375 
C 38.09375 35.90625 35.796875 36.71875 30.796875 37.609375 
C 38.796875 43.796875 41.796875 48.375 41.796875 54.25 
C 41.796875 63.125 34.40625 69 23.296875 69 
C 16.5 69 12 67.109375 7.203125 62.328125 
z
" id="URW_Palladio_L_Roman-51"/>
       </defs>
       <use transform="scale(0.996264)" xlink:href="#URW_Palladio_L_Roman-57"/>
       <use transform="translate(49.8132 0)scale(0.996264)" xlink:href="#URW_Palladio_L_Roman-51"/>
       <use transform="translate(99.626401 0)scale(0.996264)" xlink:href="#URW_Palladio_L_Roman-48"/>
      </g>
     </g>
    </g>
    <g id="ytick_2">
     <g id="line2d_8">
      <g>
       <use style="stroke:#000000;stroke-width:0.8;" x="63.778767" xlink:href="#m3865c4c1cf" y="188.467746"/>
      </g>
     </g>
     <g id="text_9">
      <!-- $\mathdefault{931}$ -->
      <g transform="translate(35.857223 193.310684)scale(0.14 -0.14)">
       <use transform="scale(0.996264)" xlink:href="#URW_Palladio_L_Roman-57"/>
       <use transform="translate(49.8132 0)scale(0.996264)" xlink:href="#URW_Palladio_L_Roman-51"/>
       <use transform="translate(99.626401 0)scale(0.996264)" xlink:href="#URW_Palladio_L_Roman-49"/>
      </g>
     </g>
    </g>
    <g id="ytick_3">
     <g id="line2d_9">
      <g>
       <use style="stroke:#000000;stroke-width:0.8;" x="63.778767" xlink:href="#m3865c4c1cf" y="129.148999"/>
      </g>
     </g>
     <g id="text_10">
      <!-- $\mathdefault{932}$ -->
      <g transform="translate(35.857223 133.991937)scale(0.14 -0.14)">
       <use transform="scale(0.996264)" xlink:href="#URW_Palladio_L_Roman-57"/>
       <use transform="translate(49.8132 0)scale(0.996264)" xlink:href="#URW_Palladio_L_Roman-51"/>
       <use transform="translate(99.626401 0)scale(0.996264)" xlink:href="#URW_Palladio_L_Roman-50"/>
      </g>
     </g>
    </g>
    <g id="ytick_4">
     <g id="line2d_10">
      <g>
       <use style="stroke:#000000;stroke-width:0.8;" x="63.778767" xlink:href="#m3865c4c1cf" y="69.830252"/>
      </g>
     </g>
     <g id="text_11">
      <!-- $\mathdefault{933}$ -->
      <g transform="translate(35.857223 74.67319)scale(0.14 -0.14)">
       <use transform="scale(0.996264)" xlink:href="#URW_Palladio_L_Roman-57"/>
       <use transform="translate(49.8132 0)scale(0.996264)" xlink:href="#URW_Palladio_L_Roman-51"/>
       <use transform="translate(99.626401 0)scale(0.996264)" xlink:href="#URW_Palladio_L_Roman-51"/>
      </g>
     </g>
    </g>
    <g id="text_12">
     <!-- $B_\mathrm{res}$ [G] -->
     <g transform="translate(27.672917 178.84396)rotate(-90)scale(0.168 -0.168)">
      <defs>
       <path d="M 9.703125 65.703125 
L 15 65.703125 
C 17.40625 65.703125 18.5 64.90625 18.5 63.09375 
C 18.5 61.703125 18.09375 58.5 17.59375 55.5 
L 8.90625 5.109375 
C 8.5 3.296875 7.296875 2.59375 3.09375 1.90625 
L 2.59375 -0.703125 
L 6.296875 -0.703125 
C 9 -0.703125 10.5 -0.703125 11.703125 -0.703125 
C 12.796875 -0.703125 15.40625 -0.703125 18 -0.703125 
L 21.703125 -0.703125 
L 23.703125 -0.703125 
C 25.59375 -0.703125 26.90625 -1 27.703125 -1 
C 32.5 -1 37.296875 0.390625 42 3.171875 
C 49.90625 7.859375 54.296875 14.609375 54.296875 22.1875 
C 54.296875 26.46875 52.90625 29.734375 50.203125 31.921875 
C 47.59375 34.015625 44.59375 34.90625 37.703125 35.90625 
C 43.40625 37.90625 45.90625 39.109375 49 41.90625 
C 53.59375 45.796875 55.90625 50.515625 55.90625 55.609375 
C 55.90625 63.796875 50.09375 68.59375 40.09375 68.59375 
C 39.90625 68.59375 38.90625 68.59375 37.40625 68.59375 
L 31.09375 68.59375 
C 29.90625 68.59375 26.296875 68.59375 25.09375 68.59375 
C 23.203125 68.59375 20.09375 68.59375 15.203125 68.59375 
L 10 68.59375 
z
M 21.703125 33.421875 
L 30.203125 33.421875 
C 40.5 33.421875 45.5 29.234375 45.5 20.59375 
C 45.5 10.34375 38.203125 2.984375 28.203125 2.984375 
C 26.203125 2.984375 23.296875 2.984375 20 3.34375 
C 19.40625 3.46875 18.203125 3.578125 16.59375 3.578125 
z
M 27.203125 64.5 
C 28.296875 64.5 28.5 64.609375 30.59375 64.703125 
C 32.703125 64.90625 34 65 35.203125 65 
C 43.296875 65 47.296875 61.390625 47.296875 53.859375 
C 47.296875 43.328125 39.90625 37 27.5 37 
L 22.296875 37 
z
" id="URW_Palladio_L_Italic-66"/>
       <path d="M 2.296875 40.078125 
L 6 40.078125 
C 10 40.078125 10.40625 39.375 10.40625 32.71875 
L 10.40625 10.046875 
C 10.40625 3.703125 10.09375 3 6.703125 3 
L 2.09375 3 
L 2.09375 -0.109375 
C 9.296875 -0.109375 11.90625 -0.109375 14.40625 -0.109375 
C 16.40625 -0.109375 16.40625 -0.109375 28.703125 -0.109375 
L 28.703125 3 
L 23.5 3 
C 19 3 18.796875 3.296875 18.796875 9.96875 
L 18.796875 27.359375 
C 18.796875 33.421875 22.796875 38.484375 27.703125 38.484375 
C 30.703125 38.484375 32.796875 37.078125 34.40625 33.890625 
L 36.5 33.890625 
L 37.40625 45.890625 
C 36.296875 46.59375 34.5 47 32.703125 47 
C 29.703125 47 26.5 45.390625 24.40625 42.890625 
L 18.796875 36.28125 
L 18.796875 46.59375 
L 17.90625 47 
C 12.796875 44.890625 7.59375 43.484375 2.296875 42.890625 
z
" id="URW_Palladio_L_Roman-114"/>
       <path d="M 43.703125 6.984375 
L 42.40625 7.984375 
C 36 4.203125 33.703125 3.3125 29.40625 3.3125 
C 22.90625 3.3125 17.5 6.21875 14.703125 11.109375 
C 12.796875 14.390625 12.09375 17.203125 11.90625 23 
L 26.5 23 
C 33.40625 23 37.703125 23 44.59375 24.125 
C 44.703125 25.53125 44.796875 26.453125 44.796875 27.671875 
C 44.796875 39.375 37.40625 47 26.203125 47 
C 22.5 47 18.203125 45.6875 14.09375 43.28125 
C 5.90625 38.578125 2.59375 32.359375 2.59375 21.9375 
C 2.59375 15.625 4.09375 10.21875 6.796875 6.40625 
C 10.796875 1.109375 17.5 -2 25 -2 
C 28.703125 -2 32.40625 -1.203125 36.5 0.578125 
C 39.203125 1.6875 41.296875 2.984375 41.703125 3.59375 
z
M 35.90625 26.40625 
C 30.703125 26.40625 28.296875 26.40625 24.703125 26.40625 
C 20.09375 26.40625 17.5 26.40625 12.09375 26.90625 
C 12.09375 31.671875 12.5 33.890625 13.796875 36.515625 
C 15.90625 40.96875 20.203125 43.6875 25 43.6875 
C 28.296875 43.6875 30.90625 42.359375 32.703125 39.59375 
C 34.90625 36.234375 35.59375 33.265625 35.90625 26.40625 
z
" id="URW_Palladio_L_Roman-101"/>
       <path d="M 4.09375 14.328125 
C 4.09375 7.421875 3.796875 4.40625 3 0.40625 
C 8.203125 -1.296875 12.09375 -2 16.703125 -2 
C 29.796875 -2 39.09375 5.015625 39.09375 14.828125 
C 39.09375 17.9375 38.203125 20.234375 36.296875 22.25 
C 33.703125 24.75 30.40625 25.953125 21.59375 27.65625 
C 13.40625 29.265625 10.703125 31.265625 10.703125 35.875 
C 10.703125 40.875 14.203125 43.6875 20.296875 43.6875 
C 27 43.6875 32.09375 40.1875 32.09375 35.46875 
L 32.09375 33.171875 
L 34.90625 33.171875 
C 35 38.984375 35.09375 41.375 35.40625 44.484375 
C 30.09375 46.296875 26.5 47 22.40625 47 
C 10.796875 47 3.703125 41.484375 3.703125 32.46875 
C 3.703125 27.65625 5.90625 24.25 10.5 22.140625 
C 13.203125 20.9375 18.5 19.34375 25.296875 17.828125 
C 29.796875 16.828125 31.703125 14.734375 31.703125 10.921875 
C 31.703125 5.515625 26.703125 1.703125 19.59375 1.703125 
C 12.296875 1.703125 7.09375 5.203125 7.09375 10.21875 
L 7.09375 14.328125 
z
" id="URW_Palladio_L_Roman-115"/>
       <path d="M 56.40625 29 
L 36.5 29 
L 36.5 22.828125 
L 48.796875 22.828125 
L 48.796875 7.359375 
C 44.90625 6.265625 40.90625 5.46875 36.90625 5.46875 
C 22.90625 5.46875 14.59375 20.328125 14.59375 34.375 
C 14.59375 48.359375 23.296875 63 36.90625 63 
C 44.59375 63 48.90625 60.640625 54.203125 56.671875 
L 55.5 64.59375 
C 48.90625 67.984375 44.796875 69.375 37.296875 69.375 
C 17.90625 69.375 6.203125 51.9375 6.203125 34.09375 
C 6.203125 17.03125 18 -1 36.703125 -1 
C 43.703125 -1 50.203125 0.796875 56.40625 3.875 
z
" id="CMSS17-71"/>
      </defs>
      <use transform="scale(0.996264)" xlink:href="#URW_Palladio_L_Italic-66"/>
      <use transform="translate(59.626331 -14.943915)scale(0.757155)" xlink:href="#URW_Palladio_L_Roman-114"/>
      <use transform="translate(88.171204 -14.943915)scale(0.757155)" xlink:href="#URW_Palladio_L_Roman-101"/>
      <use transform="translate(124.438355 -14.943915)scale(0.757155)" xlink:href="#URW_Palladio_L_Roman-115"/>
      <use transform="translate(188.268876 0)scale(0.996264)" xlink:href="#CMSS17-91"/>
      <use transform="translate(215.454314 0)scale(0.996264)" xlink:href="#CMSS17-71"/>
      <use transform="translate(277.91254 0)scale(0.996264)" xlink:href="#CMSS17-93"/>
     </g>
    </g>
   </g>
   <g id="LineCollection_1">
    <path clip-path="url(#p3fbbd65e76)" d="M 135.005137 165.198252 
L 135.005137 151.60407 
" style="fill:none;stroke:#ff7f0e;stroke-opacity:0.7;stroke-width:1.5;"/>
    <path clip-path="url(#p3fbbd65e76)" d="M 151.061045 119.408904 
L 151.061045 112.009797 
" style="fill:none;stroke:#ff7f0e;stroke-opacity:0.7;stroke-width:1.5;"/>
    <path clip-path="url(#p3fbbd65e76)" d="M 158.289679 97.136268 
L 158.289679 84.926609 
" style="fill:none;stroke:#ff7f0e;stroke-opacity:0.7;stroke-width:1.5;"/>
    <path clip-path="url(#p3fbbd65e76)" d="M 163.884919 89.443714 
L 163.884919 76.031204 
" style="fill:none;stroke:#ff7f0e;stroke-opacity:0.7;stroke-width:1.5;"/>
    <path clip-path="url(#p3fbbd65e76)" d="M 167.951026 97.610851 
L 167.951026 73.734436 
" style="fill:none;stroke:#ff7f0e;stroke-opacity:0.7;stroke-width:1.5;"/>
    <path clip-path="url(#p3fbbd65e76)" d="M 174.380339 118.617038 
L 174.380339 93.92726 
" style="fill:none;stroke:#ff7f0e;stroke-opacity:0.7;stroke-width:1.5;"/>
    <path clip-path="url(#p3fbbd65e76)" d="M 179.141507 151.976082 
L 179.141507 137.618002 
" style="fill:none;stroke:#ff7f0e;stroke-opacity:0.7;stroke-width:1.5;"/>
    <path clip-path="url(#p3fbbd65e76)" d="M 186.126869 191.336861 
L 186.126869 165.853872 
" style="fill:none;stroke:#ff7f0e;stroke-opacity:0.7;stroke-width:1.5;"/>
    <path clip-path="url(#p3fbbd65e76)" d="M 194.293835 222.082225 
L 194.293835 195.677977 
" style="fill:none;stroke:#ff7f0e;stroke-opacity:0.7;stroke-width:1.5;"/>
    <path clip-path="url(#p3fbbd65e76)" d="M 201.904752 256.298977 
L 201.904752 235.078537 
" style="fill:none;stroke:#ff7f0e;stroke-opacity:0.7;stroke-width:1.5;"/>
    <path clip-path="url(#p3fbbd65e76)" d="M 217.96066 268.021757 
L 217.96066 246.718955 
" style="fill:none;stroke:#ff7f0e;stroke-opacity:0.7;stroke-width:1.5;"/>
    <path clip-path="url(#p3fbbd65e76)" d="M 231.340583 249.130532 
L 231.340583 233.037567 
" style="fill:none;stroke:#ff7f0e;stroke-opacity:0.7;stroke-width:1.5;"/>
    <path clip-path="url(#p3fbbd65e76)" d="M 254.208088 235.130838 
L 254.208088 204.582394 
" style="fill:none;stroke:#ff7f0e;stroke-opacity:0.7;stroke-width:1.5;"/>
    <path clip-path="url(#p3fbbd65e76)" d="M 276.102508 177.0518 
L 276.102508 170.180042 
" style="fill:none;stroke:#ff7f0e;stroke-opacity:0.7;stroke-width:1.5;"/>
    <path clip-path="url(#p3fbbd65e76)" d="M 294.347857 161.582263 
L 294.347857 128.451634 
" style="fill:none;stroke:#ff7f0e;stroke-opacity:0.7;stroke-width:1.5;"/>
    <path clip-path="url(#p3fbbd65e76)" d="M 323.019121 121.810582 
L 323.019121 106.833396 
" style="fill:none;stroke:#ff7f0e;stroke-opacity:0.7;stroke-width:1.5;"/>
    <path clip-path="url(#p3fbbd65e76)" d="M 376.087024 70.726275 
L 376.087024 63.111186 
" style="fill:none;stroke:#ff7f0e;stroke-opacity:0.7;stroke-width:1.5;"/>
   </g>
   <g id="line2d_11">
    <path clip-path="url(#p3fbbd65e76)" d="M 81.137914 261.627533 
L 84.265689 257.323201 
L 87.740993 252.023505 
L 91.216298 246.534473 
L 94.691603 240.836983 
L 98.166907 234.910567 
L 101.642212 228.880844 
L 105.117517 222.381932 
L 108.592821 215.448903 
L 112.068126 208.208981 
L 115.543431 200.629005 
L 119.018735 192.670686 
L 122.49404 184.0844 
L 125.969345 174.911662 
L 129.44465 165.078821 
L 132.919954 154.509117 
L 136.395259 143.133911 
L 139.870564 130.914408 
L 143.345868 117.863578 
L 146.821173 104.099819 
L 150.296478 89.942944 
L 153.771782 76.052373 
L 157.247087 63.635084 
L 160.722392 54.088853 
L 164.197696 51.578494 
L 167.673001 58.719836 
L 171.148306 77.819065 
L 174.623611 108.293185 
L 178.098915 145.791572 
L 181.57422 183.846062 
L 185.049525 216.864966 
L 188.524829 242.100792 
L 192.000134 259.40187 
L 195.475439 270.006645 
L 198.950743 275.526541 
L 202.426048 277.419265 
L 205.901353 276.818222 
L 209.376657 274.545671 
L 212.851962 271.175895 
L 216.327267 267.10175 
L 219.802572 262.588954 
L 223.277876 257.816042 
L 226.753181 252.90237 
L 230.228486 247.927268 
L 233.70379 242.943004 
L 237.179095 237.983524 
L 240.6544 233.070357 
L 244.129704 228.216618 
L 247.605009 223.429753 
L 251.080314 218.713407 
L 254.555618 214.068682 
L 258.030923 209.494924 
L 261.506228 204.990294 
L 264.981533 200.552097 
L 268.456837 196.177442 
L 271.932142 191.863182 
L 275.407447 187.606132 
L 278.882751 183.403161 
L 282.358056 179.251252 
L 285.833361 175.147481 
L 289.308665 171.088992 
L 292.78397 167.073036 
L 296.259275 163.097023 
L 299.734579 159.158563 
L 303.209884 155.25547 
L 306.685189 151.385718 
L 310.160494 147.547471 
L 313.635798 143.739012 
L 317.111103 139.958638 
L 320.586408 136.204682 
L 324.061712 132.475463 
L 327.537017 128.76955 
L 331.012322 125.085679 
L 334.487626 121.422658 
L 337.962931 117.779422 
L 341.438236 114.154978 
L 344.91354 110.548441 
L 348.388845 106.959076 
L 351.86415 103.385951 
L 355.339455 99.82807 
L 358.814759 96.284547 
L 362.290064 92.754635 
L 365.765369 89.237672 
L 369.240673 85.733149 
L 372.715978 82.240474 
L 376.191283 78.759099 
L 379.666587 75.288616 
L 383.141892 71.828587 
L 386.617197 68.378559 
L 390.092501 64.938264 
L 393.567806 61.50686 
L 397.043111 58.083936 
L 400.518416 54.669109 
L 403.99372 51.262128 
L 407.469025 47.862762 
L 410.94433 44.470635 
L 414.419634 41.08549 
L 417.894939 37.70706 
L 421.370244 34.335254 
L 424.845548 30.969704 
L 428.320853 27.610441 
" style="fill:none;stroke:#1f77b4;stroke-linecap:square;stroke-opacity:0.5;stroke-width:1.5;"/>
    <defs>
     <path d="M 0 1.5 
C 0.397805 1.5 0.77937 1.341951 1.06066 1.06066 
C 1.341951 0.77937 1.5 0.397805 1.5 0 
C 1.5 -0.397805 1.341951 -0.77937 1.06066 -1.06066 
C 0.77937 -1.341951 0.397805 -1.5 0 -1.5 
C -0.397805 -1.5 -0.77937 -1.341951 -1.06066 -1.06066 
C -1.341951 -0.77937 -1.5 -0.397805 -1.5 0 
C -1.5 0.397805 -1.341951 0.77937 -1.06066 1.06066 
C -0.77937 1.341951 -0.397805 1.5 0 1.5 
z
" id="m0d83b2722d" style="stroke:#1f77b4;stroke-opacity:0.5;"/>
    </defs>
    <g clip-path="url(#p3fbbd65e76)">
     <use style="fill:#1f77b4;fill-opacity:0.5;stroke:#1f77b4;stroke-opacity:0.5;" x="81.137914" xlink:href="#m0d83b2722d" y="261.627533"/>
     <use style="fill:#1f77b4;fill-opacity:0.5;stroke:#1f77b4;stroke-opacity:0.5;" x="84.265689" xlink:href="#m0d83b2722d" y="257.323201"/>
     <use style="fill:#1f77b4;fill-opacity:0.5;stroke:#1f77b4;stroke-opacity:0.5;" x="87.740993" xlink:href="#m0d83b2722d" y="252.023505"/>
     <use style="fill:#1f77b4;fill-opacity:0.5;stroke:#1f77b4;stroke-opacity:0.5;" x="91.216298" xlink:href="#m0d83b2722d" y="246.534473"/>
     <use style="fill:#1f77b4;fill-opacity:0.5;stroke:#1f77b4;stroke-opacity:0.5;" x="94.691603" xlink:href="#m0d83b2722d" y="240.836983"/>
     <use style="fill:#1f77b4;fill-opacity:0.5;stroke:#1f77b4;stroke-opacity:0.5;" x="98.166907" xlink:href="#m0d83b2722d" y="234.910567"/>
     <use style="fill:#1f77b4;fill-opacity:0.5;stroke:#1f77b4;stroke-opacity:0.5;" x="101.642212" xlink:href="#m0d83b2722d" y="228.880844"/>
     <use style="fill:#1f77b4;fill-opacity:0.5;stroke:#1f77b4;stroke-opacity:0.5;" x="105.117517" xlink:href="#m0d83b2722d" y="222.381932"/>
     <use style="fill:#1f77b4;fill-opacity:0.5;stroke:#1f77b4;stroke-opacity:0.5;" x="108.592821" xlink:href="#m0d83b2722d" y="215.448903"/>
     <use style="fill:#1f77b4;fill-opacity:0.5;stroke:#1f77b4;stroke-opacity:0.5;" x="112.068126" xlink:href="#m0d83b2722d" y="208.208981"/>
     <use style="fill:#1f77b4;fill-opacity:0.5;stroke:#1f77b4;stroke-opacity:0.5;" x="115.543431" xlink:href="#m0d83b2722d" y="200.629005"/>
     <use style="fill:#1f77b4;fill-opacity:0.5;stroke:#1f77b4;stroke-opacity:0.5;" x="119.018735" xlink:href="#m0d83b2722d" y="192.670686"/>
     <use style="fill:#1f77b4;fill-opacity:0.5;stroke:#1f77b4;stroke-opacity:0.5;" x="122.49404" xlink:href="#m0d83b2722d" y="184.0844"/>
     <use style="fill:#1f77b4;fill-opacity:0.5;stroke:#1f77b4;stroke-opacity:0.5;" x="125.969345" xlink:href="#m0d83b2722d" y="174.911662"/>
     <use style="fill:#1f77b4;fill-opacity:0.5;stroke:#1f77b4;stroke-opacity:0.5;" x="129.44465" xlink:href="#m0d83b2722d" y="165.078821"/>
     <use style="fill:#1f77b4;fill-opacity:0.5;stroke:#1f77b4;stroke-opacity:0.5;" x="132.919954" xlink:href="#m0d83b2722d" y="154.509117"/>
     <use style="fill:#1f77b4;fill-opacity:0.5;stroke:#1f77b4;stroke-opacity:0.5;" x="136.395259" xlink:href="#m0d83b2722d" y="143.133911"/>
     <use style="fill:#1f77b4;fill-opacity:0.5;stroke:#1f77b4;stroke-opacity:0.5;" x="139.870564" xlink:href="#m0d83b2722d" y="130.914408"/>
     <use style="fill:#1f77b4;fill-opacity:0.5;stroke:#1f77b4;stroke-opacity:0.5;" x="143.345868" xlink:href="#m0d83b2722d" y="117.863578"/>
     <use style="fill:#1f77b4;fill-opacity:0.5;stroke:#1f77b4;stroke-opacity:0.5;" x="146.821173" xlink:href="#m0d83b2722d" y="104.099819"/>
     <use style="fill:#1f77b4;fill-opacity:0.5;stroke:#1f77b4;stroke-opacity:0.5;" x="150.296478" xlink:href="#m0d83b2722d" y="89.942944"/>
     <use style="fill:#1f77b4;fill-opacity:0.5;stroke:#1f77b4;stroke-opacity:0.5;" x="153.771782" xlink:href="#m0d83b2722d" y="76.052373"/>
     <use style="fill:#1f77b4;fill-opacity:0.5;stroke:#1f77b4;stroke-opacity:0.5;" x="157.247087" xlink:href="#m0d83b2722d" y="63.635084"/>
     <use style="fill:#1f77b4;fill-opacity:0.5;stroke:#1f77b4;stroke-opacity:0.5;" x="160.722392" xlink:href="#m0d83b2722d" y="54.088853"/>
     <use style="fill:#1f77b4;fill-opacity:0.5;stroke:#1f77b4;stroke-opacity:0.5;" x="164.197696" xlink:href="#m0d83b2722d" y="51.578494"/>
     <use style="fill:#1f77b4;fill-opacity:0.5;stroke:#1f77b4;stroke-opacity:0.5;" x="167.673001" xlink:href="#m0d83b2722d" y="58.719836"/>
     <use style="fill:#1f77b4;fill-opacity:0.5;stroke:#1f77b4;stroke-opacity:0.5;" x="171.148306" xlink:href="#m0d83b2722d" y="77.819065"/>
     <use style="fill:#1f77b4;fill-opacity:0.5;stroke:#1f77b4;stroke-opacity:0.5;" x="174.623611" xlink:href="#m0d83b2722d" y="108.293185"/>
     <use style="fill:#1f77b4;fill-opacity:0.5;stroke:#1f77b4;stroke-opacity:0.5;" x="178.098915" xlink:href="#m0d83b2722d" y="145.791572"/>
     <use style="fill:#1f77b4;fill-opacity:0.5;stroke:#1f77b4;stroke-opacity:0.5;" x="181.57422" xlink:href="#m0d83b2722d" y="183.846062"/>
     <use style="fill:#1f77b4;fill-opacity:0.5;stroke:#1f77b4;stroke-opacity:0.5;" x="185.049525" xlink:href="#m0d83b2722d" y="216.864966"/>
     <use style="fill:#1f77b4;fill-opacity:0.5;stroke:#1f77b4;stroke-opacity:0.5;" x="188.524829" xlink:href="#m0d83b2722d" y="242.100792"/>
     <use style="fill:#1f77b4;fill-opacity:0.5;stroke:#1f77b4;stroke-opacity:0.5;" x="192.000134" xlink:href="#m0d83b2722d" y="259.40187"/>
     <use style="fill:#1f77b4;fill-opacity:0.5;stroke:#1f77b4;stroke-opacity:0.5;" x="195.475439" xlink:href="#m0d83b2722d" y="270.006645"/>
     <use style="fill:#1f77b4;fill-opacity:0.5;stroke:#1f77b4;stroke-opacity:0.5;" x="198.950743" xlink:href="#m0d83b2722d" y="275.526541"/>
     <use style="fill:#1f77b4;fill-opacity:0.5;stroke:#1f77b4;stroke-opacity:0.5;" x="202.426048" xlink:href="#m0d83b2722d" y="277.419265"/>
     <use style="fill:#1f77b4;fill-opacity:0.5;stroke:#1f77b4;stroke-opacity:0.5;" x="205.901353" xlink:href="#m0d83b2722d" y="276.818222"/>
     <use style="fill:#1f77b4;fill-opacity:0.5;stroke:#1f77b4;stroke-opacity:0.5;" x="209.376657" xlink:href="#m0d83b2722d" y="274.545671"/>
     <use style="fill:#1f77b4;fill-opacity:0.5;stroke:#1f77b4;stroke-opacity:0.5;" x="212.851962" xlink:href="#m0d83b2722d" y="271.175895"/>
     <use style="fill:#1f77b4;fill-opacity:0.5;stroke:#1f77b4;stroke-opacity:0.5;" x="216.327267" xlink:href="#m0d83b2722d" y="267.10175"/>
     <use style="fill:#1f77b4;fill-opacity:0.5;stroke:#1f77b4;stroke-opacity:0.5;" x="219.802572" xlink:href="#m0d83b2722d" y="262.588954"/>
     <use style="fill:#1f77b4;fill-opacity:0.5;stroke:#1f77b4;stroke-opacity:0.5;" x="223.277876" xlink:href="#m0d83b2722d" y="257.816042"/>
     <use style="fill:#1f77b4;fill-opacity:0.5;stroke:#1f77b4;stroke-opacity:0.5;" x="226.753181" xlink:href="#m0d83b2722d" y="252.90237"/>
     <use style="fill:#1f77b4;fill-opacity:0.5;stroke:#1f77b4;stroke-opacity:0.5;" x="230.228486" xlink:href="#m0d83b2722d" y="247.927268"/>
     <use style="fill:#1f77b4;fill-opacity:0.5;stroke:#1f77b4;stroke-opacity:0.5;" x="233.70379" xlink:href="#m0d83b2722d" y="242.943004"/>
     <use style="fill:#1f77b4;fill-opacity:0.5;stroke:#1f77b4;stroke-opacity:0.5;" x="237.179095" xlink:href="#m0d83b2722d" y="237.983524"/>
     <use style="fill:#1f77b4;fill-opacity:0.5;stroke:#1f77b4;stroke-opacity:0.5;" x="240.6544" xlink:href="#m0d83b2722d" y="233.070357"/>
     <use style="fill:#1f77b4;fill-opacity:0.5;stroke:#1f77b4;stroke-opacity:0.5;" x="244.129704" xlink:href="#m0d83b2722d" y="228.216618"/>
     <use style="fill:#1f77b4;fill-opacity:0.5;stroke:#1f77b4;stroke-opacity:0.5;" x="247.605009" xlink:href="#m0d83b2722d" y="223.429753"/>
     <use style="fill:#1f77b4;fill-opacity:0.5;stroke:#1f77b4;stroke-opacity:0.5;" x="251.080314" xlink:href="#m0d83b2722d" y="218.713407"/>
     <use style="fill:#1f77b4;fill-opacity:0.5;stroke:#1f77b4;stroke-opacity:0.5;" x="254.555618" xlink:href="#m0d83b2722d" y="214.068682"/>
     <use style="fill:#1f77b4;fill-opacity:0.5;stroke:#1f77b4;stroke-opacity:0.5;" x="258.030923" xlink:href="#m0d83b2722d" y="209.494924"/>
     <use style="fill:#1f77b4;fill-opacity:0.5;stroke:#1f77b4;stroke-opacity:0.5;" x="261.506228" xlink:href="#m0d83b2722d" y="204.990294"/>
     <use style="fill:#1f77b4;fill-opacity:0.5;stroke:#1f77b4;stroke-opacity:0.5;" x="264.981533" xlink:href="#m0d83b2722d" y="200.552097"/>
     <use style="fill:#1f77b4;fill-opacity:0.5;stroke:#1f77b4;stroke-opacity:0.5;" x="268.456837" xlink:href="#m0d83b2722d" y="196.177442"/>
     <use style="fill:#1f77b4;fill-opacity:0.5;stroke:#1f77b4;stroke-opacity:0.5;" x="271.932142" xlink:href="#m0d83b2722d" y="191.863182"/>
     <use style="fill:#1f77b4;fill-opacity:0.5;stroke:#1f77b4;stroke-opacity:0.5;" x="275.407447" xlink:href="#m0d83b2722d" y="187.606132"/>
     <use style="fill:#1f77b4;fill-opacity:0.5;stroke:#1f77b4;stroke-opacity:0.5;" x="278.882751" xlink:href="#m0d83b2722d" y="183.403161"/>
     <use style="fill:#1f77b4;fill-opacity:0.5;stroke:#1f77b4;stroke-opacity:0.5;" x="282.358056" xlink:href="#m0d83b2722d" y="179.251252"/>
     <use style="fill:#1f77b4;fill-opacity:0.5;stroke:#1f77b4;stroke-opacity:0.5;" x="285.833361" xlink:href="#m0d83b2722d" y="175.147481"/>
     <use style="fill:#1f77b4;fill-opacity:0.5;stroke:#1f77b4;stroke-opacity:0.5;" x="289.308665" xlink:href="#m0d83b2722d" y="171.088992"/>
     <use style="fill:#1f77b4;fill-opacity:0.5;stroke:#1f77b4;stroke-opacity:0.5;" x="292.78397" xlink:href="#m0d83b2722d" y="167.073036"/>
     <use style="fill:#1f77b4;fill-opacity:0.5;stroke:#1f77b4;stroke-opacity:0.5;" x="296.259275" xlink:href="#m0d83b2722d" y="163.097023"/>
     <use style="fill:#1f77b4;fill-opacity:0.5;stroke:#1f77b4;stroke-opacity:0.5;" x="299.734579" xlink:href="#m0d83b2722d" y="159.158563"/>
     <use style="fill:#1f77b4;fill-opacity:0.5;stroke:#1f77b4;stroke-opacity:0.5;" x="303.209884" xlink:href="#m0d83b2722d" y="155.25547"/>
     <use style="fill:#1f77b4;fill-opacity:0.5;stroke:#1f77b4;stroke-opacity:0.5;" x="306.685189" xlink:href="#m0d83b2722d" y="151.385718"/>
     <use style="fill:#1f77b4;fill-opacity:0.5;stroke:#1f77b4;stroke-opacity:0.5;" x="310.160494" xlink:href="#m0d83b2722d" y="147.547471"/>
     <use style="fill:#1f77b4;fill-opacity:0.5;stroke:#1f77b4;stroke-opacity:0.5;" x="313.635798" xlink:href="#m0d83b2722d" y="143.739012"/>
     <use style="fill:#1f77b4;fill-opacity:0.5;stroke:#1f77b4;stroke-opacity:0.5;" x="317.111103" xlink:href="#m0d83b2722d" y="139.958638"/>
     <use style="fill:#1f77b4;fill-opacity:0.5;stroke:#1f77b4;stroke-opacity:0.5;" x="320.586408" xlink:href="#m0d83b2722d" y="136.204682"/>
     <use style="fill:#1f77b4;fill-opacity:0.5;stroke:#1f77b4;stroke-opacity:0.5;" x="324.061712" xlink:href="#m0d83b2722d" y="132.475463"/>
     <use style="fill:#1f77b4;fill-opacity:0.5;stroke:#1f77b4;stroke-opacity:0.5;" x="327.537017" xlink:href="#m0d83b2722d" y="128.76955"/>
     <use style="fill:#1f77b4;fill-opacity:0.5;stroke:#1f77b4;stroke-opacity:0.5;" x="331.012322" xlink:href="#m0d83b2722d" y="125.085679"/>
     <use style="fill:#1f77b4;fill-opacity:0.5;stroke:#1f77b4;stroke-opacity:0.5;" x="334.487626" xlink:href="#m0d83b2722d" y="121.422658"/>
     <use style="fill:#1f77b4;fill-opacity:0.5;stroke:#1f77b4;stroke-opacity:0.5;" x="337.962931" xlink:href="#m0d83b2722d" y="117.779422"/>
     <use style="fill:#1f77b4;fill-opacity:0.5;stroke:#1f77b4;stroke-opacity:0.5;" x="341.438236" xlink:href="#m0d83b2722d" y="114.154978"/>
     <use style="fill:#1f77b4;fill-opacity:0.5;stroke:#1f77b4;stroke-opacity:0.5;" x="344.91354" xlink:href="#m0d83b2722d" y="110.548441"/>
     <use style="fill:#1f77b4;fill-opacity:0.5;stroke:#1f77b4;stroke-opacity:0.5;" x="348.388845" xlink:href="#m0d83b2722d" y="106.959076"/>
     <use style="fill:#1f77b4;fill-opacity:0.5;stroke:#1f77b4;stroke-opacity:0.5;" x="351.86415" xlink:href="#m0d83b2722d" y="103.385951"/>
     <use style="fill:#1f77b4;fill-opacity:0.5;stroke:#1f77b4;stroke-opacity:0.5;" x="355.339455" xlink:href="#m0d83b2722d" y="99.82807"/>
     <use style="fill:#1f77b4;fill-opacity:0.5;stroke:#1f77b4;stroke-opacity:0.5;" x="358.814759" xlink:href="#m0d83b2722d" y="96.284547"/>
     <use style="fill:#1f77b4;fill-opacity:0.5;stroke:#1f77b4;stroke-opacity:0.5;" x="362.290064" xlink:href="#m0d83b2722d" y="92.754635"/>
     <use style="fill:#1f77b4;fill-opacity:0.5;stroke:#1f77b4;stroke-opacity:0.5;" x="365.765369" xlink:href="#m0d83b2722d" y="89.237672"/>
     <use style="fill:#1f77b4;fill-opacity:0.5;stroke:#1f77b4;stroke-opacity:0.5;" x="369.240673" xlink:href="#m0d83b2722d" y="85.733149"/>
     <use style="fill:#1f77b4;fill-opacity:0.5;stroke:#1f77b4;stroke-opacity:0.5;" x="372.715978" xlink:href="#m0d83b2722d" y="82.240474"/>
     <use style="fill:#1f77b4;fill-opacity:0.5;stroke:#1f77b4;stroke-opacity:0.5;" x="376.191283" xlink:href="#m0d83b2722d" y="78.759099"/>
     <use style="fill:#1f77b4;fill-opacity:0.5;stroke:#1f77b4;stroke-opacity:0.5;" x="379.666587" xlink:href="#m0d83b2722d" y="75.288616"/>
     <use style="fill:#1f77b4;fill-opacity:0.5;stroke:#1f77b4;stroke-opacity:0.5;" x="383.141892" xlink:href="#m0d83b2722d" y="71.828587"/>
     <use style="fill:#1f77b4;fill-opacity:0.5;stroke:#1f77b4;stroke-opacity:0.5;" x="386.617197" xlink:href="#m0d83b2722d" y="68.378559"/>
     <use style="fill:#1f77b4;fill-opacity:0.5;stroke:#1f77b4;stroke-opacity:0.5;" x="390.092501" xlink:href="#m0d83b2722d" y="64.938264"/>
     <use style="fill:#1f77b4;fill-opacity:0.5;stroke:#1f77b4;stroke-opacity:0.5;" x="393.567806" xlink:href="#m0d83b2722d" y="61.50686"/>
     <use style="fill:#1f77b4;fill-opacity:0.5;stroke:#1f77b4;stroke-opacity:0.5;" x="397.043111" xlink:href="#m0d83b2722d" y="58.083936"/>
     <use style="fill:#1f77b4;fill-opacity:0.5;stroke:#1f77b4;stroke-opacity:0.5;" x="400.518416" xlink:href="#m0d83b2722d" y="54.669109"/>
     <use style="fill:#1f77b4;fill-opacity:0.5;stroke:#1f77b4;stroke-opacity:0.5;" x="403.99372" xlink:href="#m0d83b2722d" y="51.262128"/>
     <use style="fill:#1f77b4;fill-opacity:0.5;stroke:#1f77b4;stroke-opacity:0.5;" x="407.469025" xlink:href="#m0d83b2722d" y="47.862762"/>
     <use style="fill:#1f77b4;fill-opacity:0.5;stroke:#1f77b4;stroke-opacity:0.5;" x="410.94433" xlink:href="#m0d83b2722d" y="44.470635"/>
     <use style="fill:#1f77b4;fill-opacity:0.5;stroke:#1f77b4;stroke-opacity:0.5;" x="414.419634" xlink:href="#m0d83b2722d" y="41.08549"/>
     <use style="fill:#1f77b4;fill-opacity:0.5;stroke:#1f77b4;stroke-opacity:0.5;" x="417.894939" xlink:href="#m0d83b2722d" y="37.70706"/>
     <use style="fill:#1f77b4;fill-opacity:0.5;stroke:#1f77b4;stroke-opacity:0.5;" x="421.370244" xlink:href="#m0d83b2722d" y="34.335254"/>
     <use style="fill:#1f77b4;fill-opacity:0.5;stroke:#1f77b4;stroke-opacity:0.5;" x="424.845548" xlink:href="#m0d83b2722d" y="30.969704"/>
     <use style="fill:#1f77b4;fill-opacity:0.5;stroke:#1f77b4;stroke-opacity:0.5;" x="428.320853" xlink:href="#m0d83b2722d" y="27.610441"/>
    </g>
   </g>
   <g id="line2d_12">
    <defs>
     <path d="M 0 3 
C 0.795609 3 1.55874 2.683901 2.12132 2.12132 
C 2.683901 1.55874 3 0.795609 3 0 
C 3 -0.795609 2.683901 -1.55874 2.12132 -2.12132 
C 1.55874 -2.683901 0.795609 -3 0 -3 
C -0.795609 -3 -1.55874 -2.683901 -2.12132 -2.12132 
C -2.683901 -1.55874 -3 -0.795609 -3 0 
C -3 0.795609 -2.683901 1.55874 -2.12132 2.12132 
C -1.55874 2.683901 -0.795609 3 0 3 
z
" id="mbb1a8c2740" style="stroke:#ff7f0e;stroke-opacity:0.7;"/>
    </defs>
    <g clip-path="url(#p3fbbd65e76)">
     <use style="fill:#ff7f0e;fill-opacity:0.7;stroke:#ff7f0e;stroke-opacity:0.7;" x="135.005137" xlink:href="#mbb1a8c2740" y="158.401161"/>
     <use style="fill:#ff7f0e;fill-opacity:0.7;stroke:#ff7f0e;stroke-opacity:0.7;" x="151.061045" xlink:href="#mbb1a8c2740" y="115.709351"/>
     <use style="fill:#ff7f0e;fill-opacity:0.7;stroke:#ff7f0e;stroke-opacity:0.7;" x="158.289679" xlink:href="#mbb1a8c2740" y="91.031438"/>
     <use style="fill:#ff7f0e;fill-opacity:0.7;stroke:#ff7f0e;stroke-opacity:0.7;" x="163.884919" xlink:href="#mbb1a8c2740" y="82.737459"/>
     <use style="fill:#ff7f0e;fill-opacity:0.7;stroke:#ff7f0e;stroke-opacity:0.7;" x="167.951026" xlink:href="#mbb1a8c2740" y="85.672643"/>
     <use style="fill:#ff7f0e;fill-opacity:0.7;stroke:#ff7f0e;stroke-opacity:0.7;" x="174.380339" xlink:href="#mbb1a8c2740" y="106.272149"/>
     <use style="fill:#ff7f0e;fill-opacity:0.7;stroke:#ff7f0e;stroke-opacity:0.7;" x="179.141507" xlink:href="#mbb1a8c2740" y="144.797042"/>
     <use style="fill:#ff7f0e;fill-opacity:0.7;stroke:#ff7f0e;stroke-opacity:0.7;" x="186.126869" xlink:href="#mbb1a8c2740" y="178.595367"/>
     <use style="fill:#ff7f0e;fill-opacity:0.7;stroke:#ff7f0e;stroke-opacity:0.7;" x="194.293835" xlink:href="#mbb1a8c2740" y="208.880101"/>
     <use style="fill:#ff7f0e;fill-opacity:0.7;stroke:#ff7f0e;stroke-opacity:0.7;" x="201.904752" xlink:href="#mbb1a8c2740" y="245.688757"/>
     <use style="fill:#ff7f0e;fill-opacity:0.7;stroke:#ff7f0e;stroke-opacity:0.7;" x="217.96066" xlink:href="#mbb1a8c2740" y="257.370356"/>
     <use style="fill:#ff7f0e;fill-opacity:0.7;stroke:#ff7f0e;stroke-opacity:0.7;" x="231.340583" xlink:href="#mbb1a8c2740" y="241.084049"/>
     <use style="fill:#ff7f0e;fill-opacity:0.7;stroke:#ff7f0e;stroke-opacity:0.7;" x="254.208088" xlink:href="#mbb1a8c2740" y="219.856616"/>
     <use style="fill:#ff7f0e;fill-opacity:0.7;stroke:#ff7f0e;stroke-opacity:0.7;" x="276.102508" xlink:href="#mbb1a8c2740" y="173.615921"/>
     <use style="fill:#ff7f0e;fill-opacity:0.7;stroke:#ff7f0e;stroke-opacity:0.7;" x="294.347857" xlink:href="#mbb1a8c2740" y="145.016949"/>
     <use style="fill:#ff7f0e;fill-opacity:0.7;stroke:#ff7f0e;stroke-opacity:0.7;" x="323.019121" xlink:href="#mbb1a8c2740" y="114.321989"/>
     <use style="fill:#ff7f0e;fill-opacity:0.7;stroke:#ff7f0e;stroke-opacity:0.7;" x="376.087024" xlink:href="#mbb1a8c2740" y="66.918731"/>
    </g>
   </g>
   <g id="patch_3">
    <path d="M 63.778767 289.909706 
L 63.778767 15.12 
" style="fill:none;stroke:#000000;stroke-linecap:square;stroke-linejoin:miter;stroke-width:0.8;"/>
   </g>
   <g id="patch_4">
    <path d="M 445.68 289.909706 
L 445.68 15.12 
" style="fill:none;stroke:#000000;stroke-linecap:square;stroke-linejoin:miter;stroke-width:0.8;"/>
   </g>
   <g id="patch_5">
    <path d="M 63.778767 289.909706 
L 445.68 289.909706 
" style="fill:none;stroke:#000000;stroke-linecap:square;stroke-linejoin:miter;stroke-width:0.8;"/>
   </g>
   <g id="patch_6">
    <path d="M 63.778767 15.12 
L 445.68 15.12 
" style="fill:none;stroke:#000000;stroke-linecap:square;stroke-linejoin:miter;stroke-width:0.8;"/>
   </g>
  </g>
 </g>
 <defs>
  <clipPath id="p3fbbd65e76">
   <rect height="274.789706" width="381.901233" x="63.778767" y="15.12"/>
  </clipPath>
 </defs>
</svg>
