<?xml version="1.0" encoding="utf-8" standalone="no"?>
<!DOCTYPE svg PUBLIC "-//W3C//DTD SVG 1.1//EN"
  "http://www.w3.org/Graphics/SVG/1.1/DTD/svg11.dtd">
<!-- Created with matplotlib (https://matplotlib.org/) -->
<svg height="345.6pt" version="1.1" viewBox="0 0 460.8 345.6" width="460.8pt" xmlns="http://www.w3.org/2000/svg" xmlns:xlink="http://www.w3.org/1999/xlink">
 <metadata>
  <rdf:RDF xmlns:cc="http://creativecommons.org/ns#" xmlns:dc="http://purl.org/dc/elements/1.1/" xmlns:rdf="http://www.w3.org/1999/02/22-rdf-syntax-ns#">
   <cc:Work>
    <dc:type rdf:resource="http://purl.org/dc/dcmitype/StillImage"/>
    <dc:date>2020-09-08T15:09:49.920995</dc:date>
    <dc:format>image/svg+xml</dc:format>
    <dc:creator>
     <cc:Agent>
      <dc:title>Matplotlib v3.3.0, https://matplotlib.org/</dc:title>
     </cc:Agent>
    </dc:creator>
   </cc:Work>
  </rdf:RDF>
 </metadata>
 <defs>
  <style type="text/css">*{stroke-linecap:butt;stroke-linejoin:round;}</style>
 </defs>
 <g id="figure_1">
  <g id="patch_1">
   <path d="M 0 345.6 
L 460.8 345.6 
L 460.8 0 
L 0 0 
z
" style="fill:#ffffff;"/>
  </g>
  <g id="axes_1">
   <g id="patch_2">
    <path d="M 49.831071 289.909706 
L 445.68 289.909706 
L 445.68 15.12 
L 49.831071 15.12 
z
" style="fill:#ffffff;"/>
   </g>
   <g id="matplotlib.axis_1">
    <g id="xtick_1">
     <g id="line2d_1">
      <defs>
       <path d="M 0 0 
L 0 3.5 
" id="mf9530004a2" style="stroke:#000000;stroke-width:0.8;"/>
      </defs>
      <g>
       <use style="stroke:#000000;stroke-width:0.8;" x="67.463982" xlink:href="#mf9530004a2" y="289.909706"/>
      </g>
     </g>
     <g id="text_1">
      <!-- $\mathdefault{0}$ -->
      <g transform="translate(63.977057 306.595582)scale(0.14 -0.14)">
       <defs>
        <path d="M 26.296875 69 
C 10.796875 69 2.90625 56.6875 2.90625 32.453125 
C 2.90625 20.71875 5 10.625 8.5 5.71875 
C 12 0.796875 17.59375 -2 23.796875 -2 
C 38.90625 -2 46.5 11.015625 46.5 36.65625 
C 46.5 58.578125 40 69 26.296875 69 
z
M 24.5 65.5 
C 34.203125 65.5 38.09375 55.6875 38.09375 31.640625 
C 38.09375 10.328125 34.296875 1.5 25.09375 1.5 
C 15.40625 1.5 11.296875 11.625 11.296875 36.0625 
C 11.296875 57.1875 15 65.5 24.5 65.5 
z
" id="URW_Palladio_L_Roman-48"/>
       </defs>
       <use transform="scale(0.996264)" xlink:href="#URW_Palladio_L_Roman-48"/>
      </g>
     </g>
    </g>
    <g id="xtick_2">
     <g id="line2d_2">
      <g>
       <use style="stroke:#000000;stroke-width:0.8;" x="139.508559" xlink:href="#mf9530004a2" y="289.909706"/>
      </g>
     </g>
     <g id="text_2">
      <!-- $\mathdefault{200}$ -->
      <g transform="translate(129.047786 306.595582)scale(0.14 -0.14)">
       <defs>
        <path d="M 1.59375 2.5 
L 1.59375 0 
C 20.296875 0 20.296875 0 23.90625 0 
C 27.5 0 27.5 0 46.796875 0 
C 46.59375 1.953125 46.59375 2.90625 46.59375 4.203125 
C 46.59375 5.4375 46.59375 6.359375 46.796875 8.421875 
C 35.296875 8.421875 30.703125 8.421875 12.203125 8.421875 
L 30.40625 27.515625 
C 40.09375 37.71875 43.09375 43.171875 43.09375 50.59375 
C 43.09375 61.96875 35.296875 69 22.59375 69 
C 15.40625 69 10.5 67 5.59375 62.015625 
L 3.90625 48.421875 
L 6.796875 48.421875 
L 8.09375 53.015625 
C 9.703125 58.796875 13.296875 61.296875 20 61.296875 
C 28.59375 61.296875 34.09375 55.890625 34.09375 47.421875 
C 34.09375 39.921875 29.90625 32.546875 18.59375 20.5625 
z
" id="URW_Palladio_L_Roman-50"/>
       </defs>
       <use transform="scale(0.996264)" xlink:href="#URW_Palladio_L_Roman-50"/>
       <use transform="translate(49.8132 0)scale(0.996264)" xlink:href="#URW_Palladio_L_Roman-48"/>
       <use transform="translate(99.626401 0)scale(0.996264)" xlink:href="#URW_Palladio_L_Roman-48"/>
      </g>
     </g>
    </g>
    <g id="xtick_3">
     <g id="line2d_3">
      <g>
       <use style="stroke:#000000;stroke-width:0.8;" x="211.553136" xlink:href="#mf9530004a2" y="289.909706"/>
      </g>
     </g>
     <g id="text_3">
      <!-- $\mathdefault{400}$ -->
      <g transform="translate(201.092364 306.595582)scale(0.14 -0.14)">
       <defs>
        <path d="M 28 18 
L 28 10.515625 
C 28 4.515625 26.90625 3.109375 22 3.109375 
L 15.796875 3.109375 
L 15.796875 0 
C 29.09375 0 29.09375 0 31.5 0 
C 33.90625 0 33.90625 0 47.203125 0 
L 47.203125 3.109375 
L 42.40625 3.109375 
C 37.5 3.109375 36.40625 4.40625 36.40625 10.453125 
L 36.40625 18 
C 42.296875 18 44.40625 18 47.203125 17.703125 
L 47.203125 24.8125 
C 42.5 24.421875 40.59375 24.421875 39.09375 24.421875 
L 38.796875 24.421875 
L 36.40625 24.421875 
L 36.40625 38.390625 
C 36.40625 56.25 36.59375 64.875 37.09375 69 
L 35.90625 69.5 
L 28.5 66.796875 
L 0.203125 20.296875 
L 1.296875 18 
z
M 28 24.421875 
L 6.5 24.421875 
L 28 59.78125 
z
" id="URW_Palladio_L_Roman-52"/>
       </defs>
       <use transform="scale(0.996264)" xlink:href="#URW_Palladio_L_Roman-52"/>
       <use transform="translate(49.8132 0)scale(0.996264)" xlink:href="#URW_Palladio_L_Roman-48"/>
       <use transform="translate(99.626401 0)scale(0.996264)" xlink:href="#URW_Palladio_L_Roman-48"/>
      </g>
     </g>
    </g>
    <g id="xtick_4">
     <g id="line2d_4">
      <g>
       <use style="stroke:#000000;stroke-width:0.8;" x="283.597713" xlink:href="#mf9530004a2" y="289.909706"/>
      </g>
     </g>
     <g id="text_4">
      <!-- $\mathdefault{600}$ -->
      <g transform="translate(273.136941 306.595582)scale(0.14 -0.14)">
       <defs>
        <path d="M 41.59375 67.34375 
L 37.90625 69.046875 
C 28.296875 65.84375 24.203125 63.84375 19.09375 59.4375 
C 8.796875 50.71875 3.203125 38.5 3.203125 24.765625 
C 3.203125 8.21875 11.203125 -2 24.09375 -2 
C 37.09375 -2 46.796875 8.3125 46.796875 21.953125 
C 46.796875 33.484375 39.90625 41 29.296875 41 
C 24.296875 41 21.296875 39.6875 15.40625 34.984375 
C 14.296875 34.078125 14.203125 33.984375 13.09375 33.1875 
C 15.203125 51.3125 23.59375 61.140625 41.59375 66.546875 
z
M 25.5 34.984375 
C 33.09375 34.984375 38.203125 28.375 38.203125 18.453125 
C 38.203125 8.015625 33.09375 1.296875 25.40625 1.296875 
C 16.90625 1.296875 12.296875 8.609375 12.296875 22.0625 
C 12.296875 25.5625 12.703125 27.46875 13.796875 29.171875 
C 16 32.578125 20.703125 34.984375 25.5 34.984375 
z
" id="URW_Palladio_L_Roman-54"/>
       </defs>
       <use transform="scale(0.996264)" xlink:href="#URW_Palladio_L_Roman-54"/>
       <use transform="translate(49.8132 0)scale(0.996264)" xlink:href="#URW_Palladio_L_Roman-48"/>
       <use transform="translate(99.626401 0)scale(0.996264)" xlink:href="#URW_Palladio_L_Roman-48"/>
      </g>
     </g>
    </g>
    <g id="xtick_5">
     <g id="line2d_5">
      <g>
       <use style="stroke:#000000;stroke-width:0.8;" x="355.64229" xlink:href="#mf9530004a2" y="289.909706"/>
      </g>
     </g>
     <g id="text_5">
      <!-- $\mathdefault{800}$ -->
      <g transform="translate(345.181518 306.595582)scale(0.14 -0.14)">
       <defs>
        <path d="M 16.796875 34.546875 
C 12.703125 32.65625 11 31.546875 8.796875 29.4375 
C 5 25.640625 3 21.125 3 15.921875 
C 3 5.609375 11.296875 -2 22.59375 -2 
C 35.59375 -2 46.40625 8.21875 46.40625 20.625 
C 46.40625 28.640625 42.703125 32.953125 31.296875 38.15625 
C 40.40625 44.375 43.59375 48.578125 43.59375 54.578125 
C 43.59375 63.1875 36.5 69 25.90625 69 
C 14 69 5.296875 61.390625 5.296875 50.890625 
C 5.296875 44.078125 8 40.265625 16.796875 34.546875 
z
M 28.40625 29.546875 
C 34.703125 26.734375 38.5 21.828125 38.5 16.4375 
C 38.5 8.015625 32.203125 1.40625 24.09375 1.40625 
C 15.59375 1.40625 10.09375 7.421875 10.09375 16.734375 
C 10.09375 24.03125 13 28.640625 20.40625 33.15625 
z
M 22.296875 42.375 
C 16 45.46875 12.796875 49.484375 12.796875 54.484375 
C 12.796875 61.09375 17.59375 65.59375 24.703125 65.59375 
C 32 65.59375 36.796875 60.796875 36.796875 53.46875 
C 36.796875 47.78125 34.296875 43.875 27.796875 39.65625 
z
" id="URW_Palladio_L_Roman-56"/>
       </defs>
       <use transform="scale(0.996264)" xlink:href="#URW_Palladio_L_Roman-56"/>
       <use transform="translate(49.8132 0)scale(0.996264)" xlink:href="#URW_Palladio_L_Roman-48"/>
       <use transform="translate(99.626401 0)scale(0.996264)" xlink:href="#URW_Palladio_L_Roman-48"/>
      </g>
     </g>
    </g>
    <g id="xtick_6">
     <g id="line2d_6">
      <g>
       <use style="stroke:#000000;stroke-width:0.8;" x="427.686867" xlink:href="#mf9530004a2" y="289.909706"/>
      </g>
     </g>
     <g id="text_6">
      <!-- $\mathdefault{1000}$ -->
      <g transform="translate(413.739171 306.595582)scale(0.14 -0.14)">
       <defs>
        <path d="M 6.703125 56 
L 7.703125 56 
L 20.59375 61.8125 
C 20.703125 61.90625 20.796875 61.90625 20.90625 61.90625 
C 21.5 61.90625 21.703125 61.015625 21.703125 58.609375 
L 21.703125 9.578125 
C 21.703125 4.3125 20.59375 3.203125 15.203125 3.203125 
L 9.59375 3.203125 
L 9.59375 0 
C 25 0 25 0 26.09375 0 
C 27.40625 0 29.59375 0 33 0 
C 34.203125 0 37.703125 0 41.796875 0 
L 41.796875 3.203125 
L 36.59375 3.203125 
C 31.09375 3.203125 30.09375 4.3125 30.09375 9.5625 
L 30.09375 69.421875 
L 28.703125 69.921875 
C 22.203125 66.515625 15.09375 63.515625 6 60.3125 
z
" id="URW_Palladio_L_Roman-49"/>
       </defs>
       <use transform="scale(0.996264)" xlink:href="#URW_Palladio_L_Roman-49"/>
       <use transform="translate(49.8132 0)scale(0.996264)" xlink:href="#URW_Palladio_L_Roman-48"/>
       <use transform="translate(99.626401 0)scale(0.996264)" xlink:href="#URW_Palladio_L_Roman-48"/>
       <use transform="translate(149.439601 0)scale(0.996264)" xlink:href="#URW_Palladio_L_Roman-48"/>
      </g>
     </g>
    </g>
    <g id="text_7">
     <!-- Energy [{$\mu$}K] -->
     <g transform="translate(206.200498 325.860528)scale(0.168 -0.168)">
      <defs>
       <path d="M 30.59375 6.765625 
C 22.59375 6.765625 19 6.765625 17.203125 6.765625 
L 17.203125 32.921875 
L 48.203125 32.921875 
L 48.203125 39 
L 17.203125 39 
L 17.203125 62.640625 
L 30.09375 62.640625 
C 31.296875 62.640625 32.5 62.640625 33.703125 62.640625 
L 50.796875 62.640625 
L 50.796875 69 
L 8.796875 69 
L 8.796875 0 
L 52.09375 0 
L 52.09375 6.765625 
z
" id="CMSS17-69"/>
       <path d="M 40.90625 29.328125 
C 40.90625 35.671875 39.40625 44 28.09375 44 
C 21.703125 44 17.5 40.71875 14.703125 37.328125 
L 14.703125 43.09375 
L 7.40625 43.09375 
L 7.40625 0 
L 15 0 
L 15 24.359375 
C 15 30.6875 17.40625 37.9375 24.203125 37.9375 
C 33 37.9375 33.296875 32 33.296875 28.578125 
L 33.296875 0 
L 40.90625 0 
z
" id="CMSS17-110"/>
       <path d="M 39.09375 21.515625 
C 39.09375 24.84375 38.90625 31.296875 35.703125 36.640625 
C 32.203125 42.390625 26.5 44 22.203125 44 
C 11.796875 44 3 34.1875 3 21.484375 
C 3 9.09375 12.09375 -1 23.59375 -1 
C 28.09375 -1 33.59375 0.296875 38.59375 3.875 
C 38.59375 4.28125 38.40625 6.46875 38.296875 6.5625 
C 38.296875 6.765625 38 9.84375 38 10.25 
C 33.203125 6.359375 27.703125 5.078125 23.703125 5.078125 
C 17.296875 5.078125 10.40625 10.421875 10.09375 21.515625 
z
M 10.90625 27 
C 12.203125 32.5625 16.59375 37.828125 22.203125 37.828125 
C 23.703125 37.828125 30.703125 37.828125 32.5 27 
z
" id="CMSS17-101"/>
       <path d="M 14.90625 21.296875 
C 14.90625 30.703125 21.796875 37 30.59375 37 
L 30.59375 43.578125 
C 24.203125 43.578125 18.203125 40.390625 14.59375 35.203125 
L 14.59375 43.09375 
L 7.5 43.09375 
L 7.5 0 
L 14.90625 0 
z
" id="CMSS17-114"/>
       <path d="M 44.5 43.875 
C 38.796875 43.875 33.90625 42.78125 29.90625 40.890625 
C 26.59375 43.390625 23.203125 43.875 20.90625 43.875 
C 12.203125 43.875 5.59375 36.703125 5.59375 28.34375 
C 5.59375 22.9375 8.59375 18.859375 8.796875 18.671875 
C 7 16.171875 6 13.484375 6 10.5 
C 6 7 7.40625 4.515625 8.5 3.125 
C 3.296875 -0.046875 2.59375 -4.90625 2.59375 -6.796875 
C 2.59375 -14.03125 11.703125 -20 23.40625 -20 
C 35.203125 -20 44.296875 -14.03125 44.296875 -6.6875 
C 44.296875 7 29 7 24.796875 7 
L 16.703125 7 
C 15.203125 7 11.203125 7 11.203125 12.359375 
C 11.203125 14.390625 12.09375 15.6875 12.203125 15.78125 
C 13.703125 14.6875 16.796875 13 20.90625 13 
C 29.203125 13 36.09375 19.96875 36.09375 28.546875 
C 36.09375 33.3125 33.90625 36.796875 33 38 
L 33.296875 38 
C 33.59375 38 37.796875 38 39.296875 38 
C 42.5 38 42.796875 37.953125 45.59375 37.796875 
z
M 20.90625 18.46875 
C 17.5 18.46875 12.703125 20.546875 12.703125 28.484375 
C 12.703125 37.109375 18.203125 38.5 20.796875 38.5 
C 24.203125 38.5 29 36.421875 29 28.484375 
C 29 19.859375 23.5 18.46875 20.90625 18.46875 
z
M 24.703125 -0.15625 
C 27.09375 -0.15625 37.203125 -0.15625 37.203125 -6.90625 
C 37.203125 -11.15625 31 -14.515625 23.5 -14.515625 
C 15.90625 -14.515625 9.703125 -11.25 9.703125 -6.796875 
C 9.703125 -6.296875 9.703125 -0.15625 16.59375 -0.15625 
z
" id="CMSS17-103"/>
       <path d="M 41.796875 43 
L 34 43 
C 25.5 20.21875 22.59375 10.96875 22.40625 5.984375 
L 22.296875 5.984375 
C 22 10.875 17.59375 22.8125 14.09375 31.359375 
L 9.40625 43 
L 1.296875 43 
L 19 0.203125 
C 17.90625 -2.78125 16.296875 -7.265625 15.796875 -8.265625 
C 13.59375 -13.828125 12.09375 -13.828125 10.5 -13.828125 
C 10.09375 -13.828125 6.90625 -13.828125 3.296875 -12.640625 
L 3.90625 -19.203125 
C 6.40625 -19.703125 8.90625 -20 10.703125 -20 
C 13.203125 -20 18.203125 -20 22.796875 -7.765625 
z
" id="CMSS17-121"/>
       <path d="M 25.203125 -25 
L 25.203125 -18.9375 
L 16.59375 -18.9375 
L 16.59375 68 
L 25.203125 68 
L 25.203125 74.078125 
L 9.296875 74.078125 
L 9.296875 -25 
z
" id="CMSS17-91"/>
       <path d="M 5.90625 39.09375 
L 6.59375 37.078125 
L 9.796875 39.1875 
C 12.703125 41 13.703125 41.5 14.59375 41.5 
C 15.59375 41.5 16.296875 40.59375 16.296875 39.484375 
C 16.296875 38.984375 16.203125 38.28125 3.203125 -26.796875 
L 4.59375 -27.609375 
L 7.59375 -26.40625 
C 9.90625 -25.5 10.796875 -24.5 10.90625 -23.1875 
L 12.09375 -0.796875 
C 13.296875 -0.9375 14 -1 14.296875 -1 
C 17.296875 -1 23.796875 4.125 30.40625 11.5625 
C 34.5 16.171875 36.59375 18.984375 39.703125 24.109375 
L 36.203125 10.75 
C 35.203125 6.890625 34.90625 4.671875 34.90625 3.046875 
C 34.90625 0.53125 36 -1 37.90625 -1 
C 40.5 -1 44.203125 1.265625 53.90625 8.609375 
L 52.90625 10.421875 
L 50.296875 8.71875 
C 47.796875 7.109375 45.40625 6 44.203125 6 
C 43.40625 6 42.90625 6.703125 42.90625 7.703125 
C 42.90625 8.515625 43.09375 10.125 43.5 11.71875 
C 45.796875 22.671875 48.90625 36.046875 51.90625 47.59375 
L 51.203125 48.5 
L 44.40625 46.78125 
L 43.40625 41.671875 
C 41.90625 34.03125 39.5 27.296875 36.59375 22.671875 
C 30.703125 13.4375 22.703125 6 18.59375 6 
C 17.703125 6 17.296875 6.90625 17.296875 8.609375 
C 17.296875 10.125 17.40625 11.21875 18 13.828125 
L 23.703125 41.0625 
C 24 42.671875 24.203125 44.078125 24.203125 45.28125 
C 24.203125 47.390625 23.40625 48.5 22 48.5 
C 19.90625 48.5 16.203125 46.484375 8.703125 41.078125 
z
" id="Pazo_Math_Italic-109"/>
       <path d="M 34.90625 41.65625 
L 59.796875 69 
L 50.203125 69 
L 17.203125 32.90625 
L 17.203125 69 
L 8.796875 69 
L 8.796875 0 
L 17.203125 0 
L 17.203125 22.375 
L 29.296875 35.59375 
L 51.796875 0 
L 61.09375 0 
z
" id="CMSS17-75"/>
       <path d="M 17.90625 74.078125 
L 2 74.078125 
L 2 68 
L 10.59375 68 
L 10.59375 -18.9375 
L 2 -18.9375 
L 2 -25 
L 17.90625 -25 
z
" id="CMSS17-93"/>
      </defs>
      <use transform="scale(0.996264)" xlink:href="#CMSS17-69"/>
      <use transform="translate(55.892013 0)scale(0.996264)" xlink:href="#CMSS17-110"/>
      <use transform="translate(104.096956 0)scale(0.996264)" xlink:href="#CMSS17-101"/>
      <use transform="translate(145.735778 0)scale(0.996264)" xlink:href="#CMSS17-114"/>
      <use transform="translate(177.645551 0)scale(0.996264)" xlink:href="#CMSS17-103"/>
      <use transform="translate(224.489175 0)scale(0.996264)" xlink:href="#CMSS17-121"/>
      <use transform="translate(298.718429 0)scale(0.996264)" xlink:href="#CMSS17-91"/>
      <use transform="translate(327.149167 0)scale(0.996264)" xlink:href="#Pazo_Math_Italic-109"/>
      <use transform="translate(386.47575 0)scale(0.996264)" xlink:href="#CMSS17-75"/>
      <use transform="translate(451.296043 0)scale(0.996264)" xlink:href="#CMSS17-93"/>
     </g>
    </g>
   </g>
   <g id="matplotlib.axis_2">
    <g id="ytick_1">
     <g id="line2d_7">
      <defs>
       <path d="M 0 0 
L -3.5 0 
" id="mf50eb64b7b" style="stroke:#000000;stroke-width:0.8;"/>
      </defs>
      <g>
       <use style="stroke:#000000;stroke-width:0.8;" x="49.831071" xlink:href="#mf50eb64b7b" y="277.419284"/>
      </g>
     </g>
     <g id="text_8">
      <!-- $\mathdefault{0}$ -->
      <g transform="translate(35.857223 282.262222)scale(0.14 -0.14)">
       <use transform="scale(0.996264)" xlink:href="#URW_Palladio_L_Roman-48"/>
      </g>
     </g>
    </g>
    <g id="ytick_2">
     <g id="line2d_8">
      <g>
       <use style="stroke:#000000;stroke-width:0.8;" x="49.831071" xlink:href="#mf50eb64b7b" y="221.304292"/>
      </g>
     </g>
     <g id="text_9">
      <!-- $\mathdefault{2}$ -->
      <g transform="translate(35.857223 226.14723)scale(0.14 -0.14)">
       <use transform="scale(0.996264)" xlink:href="#URW_Palladio_L_Roman-50"/>
      </g>
     </g>
    </g>
    <g id="ytick_3">
     <g id="line2d_9">
      <g>
       <use style="stroke:#000000;stroke-width:0.8;" x="49.831071" xlink:href="#mf50eb64b7b" y="165.189299"/>
      </g>
     </g>
     <g id="text_10">
      <!-- $\mathdefault{4}$ -->
      <g transform="translate(35.857223 170.032238)scale(0.14 -0.14)">
       <use transform="scale(0.996264)" xlink:href="#URW_Palladio_L_Roman-52"/>
      </g>
     </g>
    </g>
    <g id="ytick_4">
     <g id="line2d_10">
      <g>
       <use style="stroke:#000000;stroke-width:0.8;" x="49.831071" xlink:href="#mf50eb64b7b" y="109.074307"/>
      </g>
     </g>
     <g id="text_11">
      <!-- $\mathdefault{6}$ -->
      <g transform="translate(35.857223 113.917246)scale(0.14 -0.14)">
       <use transform="scale(0.996264)" xlink:href="#URW_Palladio_L_Roman-54"/>
      </g>
     </g>
    </g>
    <g id="ytick_5">
     <g id="line2d_11">
      <g>
       <use style="stroke:#000000;stroke-width:0.8;" x="49.831071" xlink:href="#mf50eb64b7b" y="52.959315"/>
      </g>
     </g>
     <g id="text_12">
      <!-- $\mathdefault{8}$ -->
      <g transform="translate(35.857223 57.802254)scale(0.14 -0.14)">
       <use transform="scale(0.996264)" xlink:href="#URW_Palladio_L_Roman-56"/>
      </g>
     </g>
    </g>
    <g id="text_13">
     <!-- $\Gamma$ [G] -->
     <g transform="translate(27.672917 170.202978)rotate(-90)scale(0.168 -0.168)">
      <defs>
       <path d="M 21.59375 64.296875 
C 24.796875 65 26.296875 65 33 65 
C 36.90625 65 42.59375 64.421875 45.59375 63.625 
C 48.09375 63.046875 48.5 62.65625 48.5 60.3125 
L 48.5 53.8125 
L 52 53.8125 
C 52 59.84375 52.5 64.671875 53.59375 69.09375 
C 48.703125 69.09375 45.703125 69.09375 41.40625 69.09375 
C 39 69.09375 35.40625 69.09375 30.703125 69.09375 
C 25.90625 69.09375 22.203125 69.09375 19.90625 69.09375 
C 16.703125 69.09375 12.703125 69.09375 4.59375 69.09375 
L 2.203125 69.09375 
L 2.203125 66 
L 7 66 
C 11.59375 66 12.09375 65.203125 12.09375 57.25 
L 12.09375 11.96875 
C 12.09375 4 11.59375 3.203125 7 3.203125 
L 2.203125 3.203125 
L 2.203125 0 
C 8.09375 0 11.59375 0 16.796875 0 
C 22 0 25.59375 0 31.5 0 
L 31.5 3.203125 
L 26.703125 3.203125 
C 22.09375 3.203125 21.59375 4 21.59375 11.9375 
z
" id="Pazo_Math-71"/>
       <path d="M 56.40625 29 
L 36.5 29 
L 36.5 22.828125 
L 48.796875 22.828125 
L 48.796875 7.359375 
C 44.90625 6.265625 40.90625 5.46875 36.90625 5.46875 
C 22.90625 5.46875 14.59375 20.328125 14.59375 34.375 
C 14.59375 48.359375 23.296875 63 36.90625 63 
C 44.59375 63 48.90625 60.640625 54.203125 56.671875 
L 55.5 64.59375 
C 48.90625 67.984375 44.796875 69.375 37.296875 69.375 
C 17.90625 69.375 6.203125 51.9375 6.203125 34.09375 
C 6.203125 17.03125 18 -1 36.703125 -1 
C 43.703125 -1 50.203125 0.796875 56.40625 3.875 
z
" id="CMSS17-71"/>
      </defs>
      <use transform="scale(0.996264)" xlink:href="#Pazo_Math-71"/>
      <use transform="translate(87.866773 0)scale(0.996264)" xlink:href="#CMSS17-91"/>
      <use transform="translate(115.052212 0)scale(0.996264)" xlink:href="#CMSS17-71"/>
      <use transform="translate(177.510438 0)scale(0.996264)" xlink:href="#CMSS17-93"/>
     </g>
    </g>
   </g>
   <g id="LineCollection_1">
    <path clip-path="url(#p67ac97696c)" d="M 123.658752 274.900951 
L 123.658752 257.806282 
" style="fill:none;stroke:#ff7f0e;stroke-opacity:0.7;stroke-width:1.5;"/>
    <path clip-path="url(#p67ac97696c)" d="M 140.301049 232.4336 
L 140.301049 224.064016 
" style="fill:none;stroke:#ff7f0e;stroke-opacity:0.7;stroke-width:1.5;"/>
    <path clip-path="url(#p67ac97696c)" d="M 147.793685 214.285598 
L 147.793685 201.421664 
" style="fill:none;stroke:#ff7f0e;stroke-opacity:0.7;stroke-width:1.5;"/>
    <path clip-path="url(#p67ac97696c)" d="M 153.593273 182.063371 
L 153.593273 163.910714 
" style="fill:none;stroke:#ff7f0e;stroke-opacity:0.7;stroke-width:1.5;"/>
    <path clip-path="url(#p67ac97696c)" d="M 157.807881 174.135028 
L 157.807881 153.090355 
" style="fill:none;stroke:#ff7f0e;stroke-opacity:0.7;stroke-width:1.5;"/>
    <path clip-path="url(#p67ac97696c)" d="M 164.472005 109.378181 
L 164.472005 84.640465 
" style="fill:none;stroke:#ff7f0e;stroke-opacity:0.7;stroke-width:1.5;"/>
    <path clip-path="url(#p67ac97696c)" d="M 169.407058 76.678278 
L 169.407058 53.255667 
" style="fill:none;stroke:#ff7f0e;stroke-opacity:0.7;stroke-width:1.5;"/>
    <path clip-path="url(#p67ac97696c)" d="M 176.647538 74.941372 
L 176.647538 42.455869 
" style="fill:none;stroke:#ff7f0e;stroke-opacity:0.7;stroke-width:1.5;"/>
    <path clip-path="url(#p67ac97696c)" d="M 185.112776 95.006877 
L 185.112776 68.148029 
" style="fill:none;stroke:#ff7f0e;stroke-opacity:0.7;stroke-width:1.5;"/>
    <path clip-path="url(#p67ac97696c)" d="M 193.001657 121.728882 
L 193.001657 103.100731 
" style="fill:none;stroke:#ff7f0e;stroke-opacity:0.7;stroke-width:1.5;"/>
    <path clip-path="url(#p67ac97696c)" d="M 209.643954 171.403524 
L 209.643954 152.600954 
" style="fill:none;stroke:#ff7f0e;stroke-opacity:0.7;stroke-width:1.5;"/>
    <path clip-path="url(#p67ac97696c)" d="M 223.512535 181.948487 
L 223.512535 167.855592 
" style="fill:none;stroke:#ff7f0e;stroke-opacity:0.7;stroke-width:1.5;"/>
    <path clip-path="url(#p67ac97696c)" d="M 247.215201 210.074008 
L 247.215201 188.619361 
" style="fill:none;stroke:#ff7f0e;stroke-opacity:0.7;stroke-width:1.5;"/>
    <path clip-path="url(#p67ac97696c)" d="M 269.909243 230.975239 
L 269.909243 221.567743 
" style="fill:none;stroke:#ff7f0e;stroke-opacity:0.7;stroke-width:1.5;"/>
    <path clip-path="url(#p67ac97696c)" d="M 288.820945 228.40134 
L 288.820945 186.530706 
" style="fill:none;stroke:#ff7f0e;stroke-opacity:0.7;stroke-width:1.5;"/>
    <path clip-path="url(#p67ac97696c)" d="M 318.539333 251.274188 
L 318.539333 241.583949 
" style="fill:none;stroke:#ff7f0e;stroke-opacity:0.7;stroke-width:1.5;"/>
    <path clip-path="url(#p67ac97696c)" d="M 373.545367 238.7778 
L 373.545367 232.944607 
" style="fill:none;stroke:#ff7f0e;stroke-opacity:0.7;stroke-width:1.5;"/>
   </g>
   <g id="line2d_12">
    <path clip-path="url(#p67ac97696c)" d="M 67.824204 277.419265 
L 71.06621 277.222848 
L 74.668439 277.354138 
L 78.270668 277.342566 
L 81.872897 277.252524 
L 85.475126 277.102397 
L 89.077355 276.691608 
L 92.679583 275.88429 
L 96.281812 275.658574 
L 99.884041 275.003122 
L 103.48627 274.640517 
L 107.088499 273.759171 
L 110.690728 272.388588 
L 114.292957 270.616118 
L 117.895185 268.279211 
L 121.497414 265.208433 
L 125.099643 261.175978 
L 128.701872 255.873606 
L 132.304101 248.886833 
L 135.90633 239.676763 
L 139.508559 227.558514 
L 143.110787 211.719683 
L 146.713016 191.326972 
L 150.315245 164.815997 
L 153.917474 134.162531 
L 157.519703 100.57333 
L 161.121932 68.210768 
L 164.724161 42.704418 
L 168.326389 28.728621 
L 171.928618 27.610441 
L 175.530847 37.035117 
L 179.133076 52.948948 
L 182.735305 71.588757 
L 186.337534 90.389744 
L 189.939763 107.95624 
L 193.541991 123.710769 
L 197.14422 137.537436 
L 200.746449 149.544425 
L 204.348678 159.92984 
L 207.950907 168.912443 
L 211.553136 176.699724 
L 215.155365 183.475547 
L 218.757593 189.397305 
L 222.359822 194.597301 
L 225.962051 199.185762 
L 229.56428 203.254174 
L 233.166509 206.878455 
L 236.768738 210.121734 
L 240.370966 213.036697 
L 243.973195 215.667503 
L 247.575424 218.051248 
L 251.177653 220.219095 
L 254.779882 222.197319 
L 258.382111 224.008226 
L 261.98434 225.671005 
L 265.586568 227.202202 
L 269.188797 228.616154 
L 272.791026 229.925295 
L 276.393255 231.140358 
L 279.995484 232.27075 
L 283.597713 233.32462 
L 287.199942 234.309169 
L 290.80217 235.230737 
L 294.404399 236.095013 
L 298.006628 236.907089 
L 301.608857 237.671415 
L 305.211086 238.392036 
L 308.813315 239.072508 
L 312.415544 239.715916 
L 316.017772 240.325088 
L 319.620001 240.902462 
L 323.22223 241.450433 
L 326.824459 241.971237 
L 330.426688 242.46678 
L 334.028917 242.938884 
L 337.631146 243.389174 
L 341.233374 243.819144 
L 344.835603 244.230196 
L 348.437832 244.623391 
L 352.040061 244.999719 
L 355.64229 245.360221 
L 359.244519 245.70591 
L 362.846748 246.037642 
L 366.448976 246.356386 
L 370.051205 246.662814 
L 373.653434 246.957605 
L 377.255663 247.241496 
L 380.857892 247.515059 
L 384.460121 247.778782 
L 388.062349 248.033239 
L 391.664578 248.278698 
L 395.266807 248.515731 
L 398.869036 248.744752 
L 402.471265 248.966216 
L 406.073494 249.180572 
L 409.675723 249.388024 
L 413.277951 249.588942 
L 416.88018 249.783635 
L 420.482409 249.972474 
L 424.084638 250.155592 
L 427.686867 250.333266 
" style="fill:none;stroke:#1f77b4;stroke-linecap:square;stroke-opacity:0.5;stroke-width:1.5;"/>
    <defs>
     <path d="M 0 1.5 
C 0.397805 1.5 0.77937 1.341951 1.06066 1.06066 
C 1.341951 0.77937 1.5 0.397805 1.5 0 
C 1.5 -0.397805 1.341951 -0.77937 1.06066 -1.06066 
C 0.77937 -1.341951 0.397805 -1.5 0 -1.5 
C -0.397805 -1.5 -0.77937 -1.341951 -1.06066 -1.06066 
C -1.341951 -0.77937 -1.5 -0.397805 -1.5 0 
C -1.5 0.397805 -1.341951 0.77937 -1.06066 1.06066 
C -0.77937 1.341951 -0.397805 1.5 0 1.5 
z
" id="ma61550832e" style="stroke:#1f77b4;stroke-opacity:0.5;"/>
    </defs>
    <g clip-path="url(#p67ac97696c)">
     <use style="fill:#1f77b4;fill-opacity:0.5;stroke:#1f77b4;stroke-opacity:0.5;" x="67.824204" xlink:href="#ma61550832e" y="277.419265"/>
     <use style="fill:#1f77b4;fill-opacity:0.5;stroke:#1f77b4;stroke-opacity:0.5;" x="71.06621" xlink:href="#ma61550832e" y="277.222848"/>
     <use style="fill:#1f77b4;fill-opacity:0.5;stroke:#1f77b4;stroke-opacity:0.5;" x="74.668439" xlink:href="#ma61550832e" y="277.354138"/>
     <use style="fill:#1f77b4;fill-opacity:0.5;stroke:#1f77b4;stroke-opacity:0.5;" x="78.270668" xlink:href="#ma61550832e" y="277.342566"/>
     <use style="fill:#1f77b4;fill-opacity:0.5;stroke:#1f77b4;stroke-opacity:0.5;" x="81.872897" xlink:href="#ma61550832e" y="277.252524"/>
     <use style="fill:#1f77b4;fill-opacity:0.5;stroke:#1f77b4;stroke-opacity:0.5;" x="85.475126" xlink:href="#ma61550832e" y="277.102397"/>
     <use style="fill:#1f77b4;fill-opacity:0.5;stroke:#1f77b4;stroke-opacity:0.5;" x="89.077355" xlink:href="#ma61550832e" y="276.691608"/>
     <use style="fill:#1f77b4;fill-opacity:0.5;stroke:#1f77b4;stroke-opacity:0.5;" x="92.679583" xlink:href="#ma61550832e" y="275.88429"/>
     <use style="fill:#1f77b4;fill-opacity:0.5;stroke:#1f77b4;stroke-opacity:0.5;" x="96.281812" xlink:href="#ma61550832e" y="275.658574"/>
     <use style="fill:#1f77b4;fill-opacity:0.5;stroke:#1f77b4;stroke-opacity:0.5;" x="99.884041" xlink:href="#ma61550832e" y="275.003122"/>
     <use style="fill:#1f77b4;fill-opacity:0.5;stroke:#1f77b4;stroke-opacity:0.5;" x="103.48627" xlink:href="#ma61550832e" y="274.640517"/>
     <use style="fill:#1f77b4;fill-opacity:0.5;stroke:#1f77b4;stroke-opacity:0.5;" x="107.088499" xlink:href="#ma61550832e" y="273.759171"/>
     <use style="fill:#1f77b4;fill-opacity:0.5;stroke:#1f77b4;stroke-opacity:0.5;" x="110.690728" xlink:href="#ma61550832e" y="272.388588"/>
     <use style="fill:#1f77b4;fill-opacity:0.5;stroke:#1f77b4;stroke-opacity:0.5;" x="114.292957" xlink:href="#ma61550832e" y="270.616118"/>
     <use style="fill:#1f77b4;fill-opacity:0.5;stroke:#1f77b4;stroke-opacity:0.5;" x="117.895185" xlink:href="#ma61550832e" y="268.279211"/>
     <use style="fill:#1f77b4;fill-opacity:0.5;stroke:#1f77b4;stroke-opacity:0.5;" x="121.497414" xlink:href="#ma61550832e" y="265.208433"/>
     <use style="fill:#1f77b4;fill-opacity:0.5;stroke:#1f77b4;stroke-opacity:0.5;" x="125.099643" xlink:href="#ma61550832e" y="261.175978"/>
     <use style="fill:#1f77b4;fill-opacity:0.5;stroke:#1f77b4;stroke-opacity:0.5;" x="128.701872" xlink:href="#ma61550832e" y="255.873606"/>
     <use style="fill:#1f77b4;fill-opacity:0.5;stroke:#1f77b4;stroke-opacity:0.5;" x="132.304101" xlink:href="#ma61550832e" y="248.886833"/>
     <use style="fill:#1f77b4;fill-opacity:0.5;stroke:#1f77b4;stroke-opacity:0.5;" x="135.90633" xlink:href="#ma61550832e" y="239.676763"/>
     <use style="fill:#1f77b4;fill-opacity:0.5;stroke:#1f77b4;stroke-opacity:0.5;" x="139.508559" xlink:href="#ma61550832e" y="227.558514"/>
     <use style="fill:#1f77b4;fill-opacity:0.5;stroke:#1f77b4;stroke-opacity:0.5;" x="143.110787" xlink:href="#ma61550832e" y="211.719683"/>
     <use style="fill:#1f77b4;fill-opacity:0.5;stroke:#1f77b4;stroke-opacity:0.5;" x="146.713016" xlink:href="#ma61550832e" y="191.326972"/>
     <use style="fill:#1f77b4;fill-opacity:0.5;stroke:#1f77b4;stroke-opacity:0.5;" x="150.315245" xlink:href="#ma61550832e" y="164.815997"/>
     <use style="fill:#1f77b4;fill-opacity:0.5;stroke:#1f77b4;stroke-opacity:0.5;" x="153.917474" xlink:href="#ma61550832e" y="134.162531"/>
     <use style="fill:#1f77b4;fill-opacity:0.5;stroke:#1f77b4;stroke-opacity:0.5;" x="157.519703" xlink:href="#ma61550832e" y="100.57333"/>
     <use style="fill:#1f77b4;fill-opacity:0.5;stroke:#1f77b4;stroke-opacity:0.5;" x="161.121932" xlink:href="#ma61550832e" y="68.210768"/>
     <use style="fill:#1f77b4;fill-opacity:0.5;stroke:#1f77b4;stroke-opacity:0.5;" x="164.724161" xlink:href="#ma61550832e" y="42.704418"/>
     <use style="fill:#1f77b4;fill-opacity:0.5;stroke:#1f77b4;stroke-opacity:0.5;" x="168.326389" xlink:href="#ma61550832e" y="28.728621"/>
     <use style="fill:#1f77b4;fill-opacity:0.5;stroke:#1f77b4;stroke-opacity:0.5;" x="171.928618" xlink:href="#ma61550832e" y="27.610441"/>
     <use style="fill:#1f77b4;fill-opacity:0.5;stroke:#1f77b4;stroke-opacity:0.5;" x="175.530847" xlink:href="#ma61550832e" y="37.035117"/>
     <use style="fill:#1f77b4;fill-opacity:0.5;stroke:#1f77b4;stroke-opacity:0.5;" x="179.133076" xlink:href="#ma61550832e" y="52.948948"/>
     <use style="fill:#1f77b4;fill-opacity:0.5;stroke:#1f77b4;stroke-opacity:0.5;" x="182.735305" xlink:href="#ma61550832e" y="71.588757"/>
     <use style="fill:#1f77b4;fill-opacity:0.5;stroke:#1f77b4;stroke-opacity:0.5;" x="186.337534" xlink:href="#ma61550832e" y="90.389744"/>
     <use style="fill:#1f77b4;fill-opacity:0.5;stroke:#1f77b4;stroke-opacity:0.5;" x="189.939763" xlink:href="#ma61550832e" y="107.95624"/>
     <use style="fill:#1f77b4;fill-opacity:0.5;stroke:#1f77b4;stroke-opacity:0.5;" x="193.541991" xlink:href="#ma61550832e" y="123.710769"/>
     <use style="fill:#1f77b4;fill-opacity:0.5;stroke:#1f77b4;stroke-opacity:0.5;" x="197.14422" xlink:href="#ma61550832e" y="137.537436"/>
     <use style="fill:#1f77b4;fill-opacity:0.5;stroke:#1f77b4;stroke-opacity:0.5;" x="200.746449" xlink:href="#ma61550832e" y="149.544425"/>
     <use style="fill:#1f77b4;fill-opacity:0.5;stroke:#1f77b4;stroke-opacity:0.5;" x="204.348678" xlink:href="#ma61550832e" y="159.92984"/>
     <use style="fill:#1f77b4;fill-opacity:0.5;stroke:#1f77b4;stroke-opacity:0.5;" x="207.950907" xlink:href="#ma61550832e" y="168.912443"/>
     <use style="fill:#1f77b4;fill-opacity:0.5;stroke:#1f77b4;stroke-opacity:0.5;" x="211.553136" xlink:href="#ma61550832e" y="176.699724"/>
     <use style="fill:#1f77b4;fill-opacity:0.5;stroke:#1f77b4;stroke-opacity:0.5;" x="215.155365" xlink:href="#ma61550832e" y="183.475547"/>
     <use style="fill:#1f77b4;fill-opacity:0.5;stroke:#1f77b4;stroke-opacity:0.5;" x="218.757593" xlink:href="#ma61550832e" y="189.397305"/>
     <use style="fill:#1f77b4;fill-opacity:0.5;stroke:#1f77b4;stroke-opacity:0.5;" x="222.359822" xlink:href="#ma61550832e" y="194.597301"/>
     <use style="fill:#1f77b4;fill-opacity:0.5;stroke:#1f77b4;stroke-opacity:0.5;" x="225.962051" xlink:href="#ma61550832e" y="199.185762"/>
     <use style="fill:#1f77b4;fill-opacity:0.5;stroke:#1f77b4;stroke-opacity:0.5;" x="229.56428" xlink:href="#ma61550832e" y="203.254174"/>
     <use style="fill:#1f77b4;fill-opacity:0.5;stroke:#1f77b4;stroke-opacity:0.5;" x="233.166509" xlink:href="#ma61550832e" y="206.878455"/>
     <use style="fill:#1f77b4;fill-opacity:0.5;stroke:#1f77b4;stroke-opacity:0.5;" x="236.768738" xlink:href="#ma61550832e" y="210.121734"/>
     <use style="fill:#1f77b4;fill-opacity:0.5;stroke:#1f77b4;stroke-opacity:0.5;" x="240.370966" xlink:href="#ma61550832e" y="213.036697"/>
     <use style="fill:#1f77b4;fill-opacity:0.5;stroke:#1f77b4;stroke-opacity:0.5;" x="243.973195" xlink:href="#ma61550832e" y="215.667503"/>
     <use style="fill:#1f77b4;fill-opacity:0.5;stroke:#1f77b4;stroke-opacity:0.5;" x="247.575424" xlink:href="#ma61550832e" y="218.051248"/>
     <use style="fill:#1f77b4;fill-opacity:0.5;stroke:#1f77b4;stroke-opacity:0.5;" x="251.177653" xlink:href="#ma61550832e" y="220.219095"/>
     <use style="fill:#1f77b4;fill-opacity:0.5;stroke:#1f77b4;stroke-opacity:0.5;" x="254.779882" xlink:href="#ma61550832e" y="222.197319"/>
     <use style="fill:#1f77b4;fill-opacity:0.5;stroke:#1f77b4;stroke-opacity:0.5;" x="258.382111" xlink:href="#ma61550832e" y="224.008226"/>
     <use style="fill:#1f77b4;fill-opacity:0.5;stroke:#1f77b4;stroke-opacity:0.5;" x="261.98434" xlink:href="#ma61550832e" y="225.671005"/>
     <use style="fill:#1f77b4;fill-opacity:0.5;stroke:#1f77b4;stroke-opacity:0.5;" x="265.586568" xlink:href="#ma61550832e" y="227.202202"/>
     <use style="fill:#1f77b4;fill-opacity:0.5;stroke:#1f77b4;stroke-opacity:0.5;" x="269.188797" xlink:href="#ma61550832e" y="228.616154"/>
     <use style="fill:#1f77b4;fill-opacity:0.5;stroke:#1f77b4;stroke-opacity:0.5;" x="272.791026" xlink:href="#ma61550832e" y="229.925295"/>
     <use style="fill:#1f77b4;fill-opacity:0.5;stroke:#1f77b4;stroke-opacity:0.5;" x="276.393255" xlink:href="#ma61550832e" y="231.140358"/>
     <use style="fill:#1f77b4;fill-opacity:0.5;stroke:#1f77b4;stroke-opacity:0.5;" x="279.995484" xlink:href="#ma61550832e" y="232.27075"/>
     <use style="fill:#1f77b4;fill-opacity:0.5;stroke:#1f77b4;stroke-opacity:0.5;" x="283.597713" xlink:href="#ma61550832e" y="233.32462"/>
     <use style="fill:#1f77b4;fill-opacity:0.5;stroke:#1f77b4;stroke-opacity:0.5;" x="287.199942" xlink:href="#ma61550832e" y="234.309169"/>
     <use style="fill:#1f77b4;fill-opacity:0.5;stroke:#1f77b4;stroke-opacity:0.5;" x="290.80217" xlink:href="#ma61550832e" y="235.230737"/>
     <use style="fill:#1f77b4;fill-opacity:0.5;stroke:#1f77b4;stroke-opacity:0.5;" x="294.404399" xlink:href="#ma61550832e" y="236.095013"/>
     <use style="fill:#1f77b4;fill-opacity:0.5;stroke:#1f77b4;stroke-opacity:0.5;" x="298.006628" xlink:href="#ma61550832e" y="236.907089"/>
     <use style="fill:#1f77b4;fill-opacity:0.5;stroke:#1f77b4;stroke-opacity:0.5;" x="301.608857" xlink:href="#ma61550832e" y="237.671415"/>
     <use style="fill:#1f77b4;fill-opacity:0.5;stroke:#1f77b4;stroke-opacity:0.5;" x="305.211086" xlink:href="#ma61550832e" y="238.392036"/>
     <use style="fill:#1f77b4;fill-opacity:0.5;stroke:#1f77b4;stroke-opacity:0.5;" x="308.813315" xlink:href="#ma61550832e" y="239.072508"/>
     <use style="fill:#1f77b4;fill-opacity:0.5;stroke:#1f77b4;stroke-opacity:0.5;" x="312.415544" xlink:href="#ma61550832e" y="239.715916"/>
     <use style="fill:#1f77b4;fill-opacity:0.5;stroke:#1f77b4;stroke-opacity:0.5;" x="316.017772" xlink:href="#ma61550832e" y="240.325088"/>
     <use style="fill:#1f77b4;fill-opacity:0.5;stroke:#1f77b4;stroke-opacity:0.5;" x="319.620001" xlink:href="#ma61550832e" y="240.902462"/>
     <use style="fill:#1f77b4;fill-opacity:0.5;stroke:#1f77b4;stroke-opacity:0.5;" x="323.22223" xlink:href="#ma61550832e" y="241.450433"/>
     <use style="fill:#1f77b4;fill-opacity:0.5;stroke:#1f77b4;stroke-opacity:0.5;" x="326.824459" xlink:href="#ma61550832e" y="241.971237"/>
     <use style="fill:#1f77b4;fill-opacity:0.5;stroke:#1f77b4;stroke-opacity:0.5;" x="330.426688" xlink:href="#ma61550832e" y="242.46678"/>
     <use style="fill:#1f77b4;fill-opacity:0.5;stroke:#1f77b4;stroke-opacity:0.5;" x="334.028917" xlink:href="#ma61550832e" y="242.938884"/>
     <use style="fill:#1f77b4;fill-opacity:0.5;stroke:#1f77b4;stroke-opacity:0.5;" x="337.631146" xlink:href="#ma61550832e" y="243.389174"/>
     <use style="fill:#1f77b4;fill-opacity:0.5;stroke:#1f77b4;stroke-opacity:0.5;" x="341.233374" xlink:href="#ma61550832e" y="243.819144"/>
     <use style="fill:#1f77b4;fill-opacity:0.5;stroke:#1f77b4;stroke-opacity:0.5;" x="344.835603" xlink:href="#ma61550832e" y="244.230196"/>
     <use style="fill:#1f77b4;fill-opacity:0.5;stroke:#1f77b4;stroke-opacity:0.5;" x="348.437832" xlink:href="#ma61550832e" y="244.623391"/>
     <use style="fill:#1f77b4;fill-opacity:0.5;stroke:#1f77b4;stroke-opacity:0.5;" x="352.040061" xlink:href="#ma61550832e" y="244.999719"/>
     <use style="fill:#1f77b4;fill-opacity:0.5;stroke:#1f77b4;stroke-opacity:0.5;" x="355.64229" xlink:href="#ma61550832e" y="245.360221"/>
     <use style="fill:#1f77b4;fill-opacity:0.5;stroke:#1f77b4;stroke-opacity:0.5;" x="359.244519" xlink:href="#ma61550832e" y="245.70591"/>
     <use style="fill:#1f77b4;fill-opacity:0.5;stroke:#1f77b4;stroke-opacity:0.5;" x="362.846748" xlink:href="#ma61550832e" y="246.037642"/>
     <use style="fill:#1f77b4;fill-opacity:0.5;stroke:#1f77b4;stroke-opacity:0.5;" x="366.448976" xlink:href="#ma61550832e" y="246.356386"/>
     <use style="fill:#1f77b4;fill-opacity:0.5;stroke:#1f77b4;stroke-opacity:0.5;" x="370.051205" xlink:href="#ma61550832e" y="246.662814"/>
     <use style="fill:#1f77b4;fill-opacity:0.5;stroke:#1f77b4;stroke-opacity:0.5;" x="373.653434" xlink:href="#ma61550832e" y="246.957605"/>
     <use style="fill:#1f77b4;fill-opacity:0.5;stroke:#1f77b4;stroke-opacity:0.5;" x="377.255663" xlink:href="#ma61550832e" y="247.241496"/>
     <use style="fill:#1f77b4;fill-opacity:0.5;stroke:#1f77b4;stroke-opacity:0.5;" x="380.857892" xlink:href="#ma61550832e" y="247.515059"/>
     <use style="fill:#1f77b4;fill-opacity:0.5;stroke:#1f77b4;stroke-opacity:0.5;" x="384.460121" xlink:href="#ma61550832e" y="247.778782"/>
     <use style="fill:#1f77b4;fill-opacity:0.5;stroke:#1f77b4;stroke-opacity:0.5;" x="388.062349" xlink:href="#ma61550832e" y="248.033239"/>
     <use style="fill:#1f77b4;fill-opacity:0.5;stroke:#1f77b4;stroke-opacity:0.5;" x="391.664578" xlink:href="#ma61550832e" y="248.278698"/>
     <use style="fill:#1f77b4;fill-opacity:0.5;stroke:#1f77b4;stroke-opacity:0.5;" x="395.266807" xlink:href="#ma61550832e" y="248.515731"/>
     <use style="fill:#1f77b4;fill-opacity:0.5;stroke:#1f77b4;stroke-opacity:0.5;" x="398.869036" xlink:href="#ma61550832e" y="248.744752"/>
     <use style="fill:#1f77b4;fill-opacity:0.5;stroke:#1f77b4;stroke-opacity:0.5;" x="402.471265" xlink:href="#ma61550832e" y="248.966216"/>
     <use style="fill:#1f77b4;fill-opacity:0.5;stroke:#1f77b4;stroke-opacity:0.5;" x="406.073494" xlink:href="#ma61550832e" y="249.180572"/>
     <use style="fill:#1f77b4;fill-opacity:0.5;stroke:#1f77b4;stroke-opacity:0.5;" x="409.675723" xlink:href="#ma61550832e" y="249.388024"/>
     <use style="fill:#1f77b4;fill-opacity:0.5;stroke:#1f77b4;stroke-opacity:0.5;" x="413.277951" xlink:href="#ma61550832e" y="249.588942"/>
     <use style="fill:#1f77b4;fill-opacity:0.5;stroke:#1f77b4;stroke-opacity:0.5;" x="416.88018" xlink:href="#ma61550832e" y="249.783635"/>
     <use style="fill:#1f77b4;fill-opacity:0.5;stroke:#1f77b4;stroke-opacity:0.5;" x="420.482409" xlink:href="#ma61550832e" y="249.972474"/>
     <use style="fill:#1f77b4;fill-opacity:0.5;stroke:#1f77b4;stroke-opacity:0.5;" x="424.084638" xlink:href="#ma61550832e" y="250.155592"/>
     <use style="fill:#1f77b4;fill-opacity:0.5;stroke:#1f77b4;stroke-opacity:0.5;" x="427.686867" xlink:href="#ma61550832e" y="250.333266"/>
    </g>
   </g>
   <g id="line2d_13">
    <defs>
     <path d="M 0 3 
C 0.795609 3 1.55874 2.683901 2.12132 2.12132 
C 2.683901 1.55874 3 0.795609 3 0 
C 3 -0.795609 2.683901 -1.55874 2.12132 -2.12132 
C 1.55874 -2.683901 0.795609 -3 0 -3 
C -0.795609 -3 -1.55874 -2.683901 -2.12132 -2.12132 
C -2.683901 -1.55874 -3 -0.795609 -3 0 
C -3 0.795609 -2.683901 1.55874 -2.12132 2.12132 
C -1.55874 2.683901 -0.795609 3 0 3 
z
" id="m5b1c11516e" style="stroke:#ff7f0e;stroke-opacity:0.7;"/>
    </defs>
    <g clip-path="url(#p67ac97696c)">
     <use style="fill:#ff7f0e;fill-opacity:0.7;stroke:#ff7f0e;stroke-opacity:0.7;" x="123.658752" xlink:href="#m5b1c11516e" y="266.353616"/>
     <use style="fill:#ff7f0e;fill-opacity:0.7;stroke:#ff7f0e;stroke-opacity:0.7;" x="140.301049" xlink:href="#m5b1c11516e" y="228.248808"/>
     <use style="fill:#ff7f0e;fill-opacity:0.7;stroke:#ff7f0e;stroke-opacity:0.7;" x="147.793685" xlink:href="#m5b1c11516e" y="207.853631"/>
     <use style="fill:#ff7f0e;fill-opacity:0.7;stroke:#ff7f0e;stroke-opacity:0.7;" x="153.593273" xlink:href="#m5b1c11516e" y="172.987042"/>
     <use style="fill:#ff7f0e;fill-opacity:0.7;stroke:#ff7f0e;stroke-opacity:0.7;" x="157.807881" xlink:href="#m5b1c11516e" y="163.612691"/>
     <use style="fill:#ff7f0e;fill-opacity:0.7;stroke:#ff7f0e;stroke-opacity:0.7;" x="164.472005" xlink:href="#m5b1c11516e" y="97.009323"/>
     <use style="fill:#ff7f0e;fill-opacity:0.7;stroke:#ff7f0e;stroke-opacity:0.7;" x="169.407058" xlink:href="#m5b1c11516e" y="64.966972"/>
     <use style="fill:#ff7f0e;fill-opacity:0.7;stroke:#ff7f0e;stroke-opacity:0.7;" x="176.647538" xlink:href="#m5b1c11516e" y="58.69862"/>
     <use style="fill:#ff7f0e;fill-opacity:0.7;stroke:#ff7f0e;stroke-opacity:0.7;" x="185.112776" xlink:href="#m5b1c11516e" y="81.577453"/>
     <use style="fill:#ff7f0e;fill-opacity:0.7;stroke:#ff7f0e;stroke-opacity:0.7;" x="193.001657" xlink:href="#m5b1c11516e" y="112.414806"/>
     <use style="fill:#ff7f0e;fill-opacity:0.7;stroke:#ff7f0e;stroke-opacity:0.7;" x="209.643954" xlink:href="#m5b1c11516e" y="162.002239"/>
     <use style="fill:#ff7f0e;fill-opacity:0.7;stroke:#ff7f0e;stroke-opacity:0.7;" x="223.512535" xlink:href="#m5b1c11516e" y="174.90204"/>
     <use style="fill:#ff7f0e;fill-opacity:0.7;stroke:#ff7f0e;stroke-opacity:0.7;" x="247.215201" xlink:href="#m5b1c11516e" y="199.346685"/>
     <use style="fill:#ff7f0e;fill-opacity:0.7;stroke:#ff7f0e;stroke-opacity:0.7;" x="269.909243" xlink:href="#m5b1c11516e" y="226.271491"/>
     <use style="fill:#ff7f0e;fill-opacity:0.7;stroke:#ff7f0e;stroke-opacity:0.7;" x="288.820945" xlink:href="#m5b1c11516e" y="207.466023"/>
     <use style="fill:#ff7f0e;fill-opacity:0.7;stroke:#ff7f0e;stroke-opacity:0.7;" x="318.539333" xlink:href="#m5b1c11516e" y="246.429068"/>
     <use style="fill:#ff7f0e;fill-opacity:0.7;stroke:#ff7f0e;stroke-opacity:0.7;" x="373.545367" xlink:href="#m5b1c11516e" y="235.861204"/>
    </g>
   </g>
   <g id="patch_3">
    <path d="M 49.831071 289.909706 
L 49.831071 15.12 
" style="fill:none;stroke:#000000;stroke-linecap:square;stroke-linejoin:miter;stroke-width:0.8;"/>
   </g>
   <g id="patch_4">
    <path d="M 445.68 289.909706 
L 445.68 15.12 
" style="fill:none;stroke:#000000;stroke-linecap:square;stroke-linejoin:miter;stroke-width:0.8;"/>
   </g>
   <g id="patch_5">
    <path d="M 49.831071 289.909706 
L 445.68 289.909706 
" style="fill:none;stroke:#000000;stroke-linecap:square;stroke-linejoin:miter;stroke-width:0.8;"/>
   </g>
   <g id="patch_6">
    <path d="M 49.831071 15.12 
L 445.68 15.12 
" style="fill:none;stroke:#000000;stroke-linecap:square;stroke-linejoin:miter;stroke-width:0.8;"/>
   </g>
   <g id="text_14">
    <!-- b) -->
    <g transform="translate(61.706539 48.094765)scale(0.14 -0.14)">
     <defs>
      <path d="M 14.90625 69 
L 7.5 69 
L 7.5 -0.203125 
L 15.09375 -0.203125 
L 15.09375 4.28125 
C 18.90625 0.59375 23.5 -1 27.59375 -1 
C 37.203125 -1 45 8.578125 45 21.125 
C 45 32.59375 39 43.0625 30.09375 43.0625 
C 23.796875 43.0625 18.203125 40.484375 14.90625 37.796875 
z
M 15.09375 31.96875 
C 17.296875 34.71875 20.40625 37 24.796875 37 
C 30.703125 37 37.40625 32.765625 37.40625 21.125 
C 37.40625 8.71875 29.40625 5.078125 23.90625 5.078125 
C 21.90625 5.078125 19.796875 5.5625 17.796875 7.25 
C 15.09375 9.609375 15.09375 11.078125 15.09375 12.453125 
z
" id="CMSS17-98"/>
      <path d="M 11.296875 -25 
C 16.703125 -19.515625 29.09375 -6.765625 29.09375 24.703125 
C 29.09375 56.265625 16.703125 68.921875 11.296875 74.5 
L 5.203125 74.5 
C 17.5 61.75 21.5 43.921875 21.5 24.8125 
C 21.5 5.78125 17.703125 -12.15625 5.203125 -25 
z
" id="CMSS17-41"/>
     </defs>
     <use transform="scale(0.996264)" xlink:href="#CMSS17-98"/>
     <use transform="translate(48.204943 0)scale(0.996264)" xlink:href="#CMSS17-41"/>
    </g>
   </g>
  </g>
 </g>
 <defs>
  <clipPath id="p67ac97696c">
   <rect height="274.789706" width="395.848929" x="49.831071" y="15.12"/>
  </clipPath>
 </defs>
</svg>
