<?xml version="1.0" encoding="utf-8" standalone="no"?>
<!DOCTYPE svg PUBLIC "-//W3C//DTD SVG 1.1//EN"
  "http://www.w3.org/Graphics/SVG/1.1/DTD/svg11.dtd">
<!-- Created with matplotlib (https://matplotlib.org/) -->
<svg height="345.6pt" version="1.1" viewBox="0 0 460.8 345.6" width="460.8pt" xmlns="http://www.w3.org/2000/svg" xmlns:xlink="http://www.w3.org/1999/xlink">
 <metadata>
  <rdf:RDF xmlns:cc="http://creativecommons.org/ns#" xmlns:dc="http://purl.org/dc/elements/1.1/" xmlns:rdf="http://www.w3.org/1999/02/22-rdf-syntax-ns#">
   <cc:Work>
    <dc:type rdf:resource="http://purl.org/dc/dcmitype/StillImage"/>
    <dc:date>2020-09-08T15:09:49.687006</dc:date>
    <dc:format>image/svg+xml</dc:format>
    <dc:creator>
     <cc:Agent>
      <dc:title>Matplotlib v3.3.0, https://matplotlib.org/</dc:title>
     </cc:Agent>
    </dc:creator>
   </cc:Work>
  </rdf:RDF>
 </metadata>
 <defs>
  <style type="text/css">*{stroke-linecap:butt;stroke-linejoin:round;}</style>
 </defs>
 <g id="figure_1">
  <g id="patch_1">
   <path d="M 0 345.6 
L 460.8 345.6 
L 460.8 0 
L 0 0 
z
" style="fill:#ffffff;"/>
  </g>
  <g id="axes_1">
   <g id="patch_2">
    <path d="M 58.133053 289.909706 
L 388.282095 289.909706 
L 388.282095 15.12 
L 58.133053 15.12 
z
" style="fill:#ffffff;"/>
   </g>
   <g id="matplotlib.axis_1">
    <g id="xtick_1">
     <g id="line2d_1">
      <defs>
       <path d="M 0 0 
L 0 3.5 
" id="me9589e4cd2" style="stroke:#000000;stroke-width:0.8;"/>
      </defs>
      <g>
       <use style="stroke:#000000;stroke-width:0.8;" x="72.839392" xlink:href="#me9589e4cd2" y="289.909706"/>
      </g>
     </g>
     <g id="text_1">
      <!-- $\mathdefault{0}$ -->
      <g transform="translate(69.352468 306.595582)scale(0.14 -0.14)">
       <defs>
        <path d="M 26.296875 69 
C 10.796875 69 2.90625 56.6875 2.90625 32.453125 
C 2.90625 20.71875 5 10.625 8.5 5.71875 
C 12 0.796875 17.59375 -2 23.796875 -2 
C 38.90625 -2 46.5 11.015625 46.5 36.65625 
C 46.5 58.578125 40 69 26.296875 69 
z
M 24.5 65.5 
C 34.203125 65.5 38.09375 55.6875 38.09375 31.640625 
C 38.09375 10.328125 34.296875 1.5 25.09375 1.5 
C 15.40625 1.5 11.296875 11.625 11.296875 36.0625 
C 11.296875 57.1875 15 65.5 24.5 65.5 
z
" id="URW_Palladio_L_Roman-48"/>
       </defs>
       <use transform="scale(0.996264)" xlink:href="#URW_Palladio_L_Roman-48"/>
      </g>
     </g>
    </g>
    <g id="xtick_2">
     <g id="line2d_2">
      <g>
       <use style="stroke:#000000;stroke-width:0.8;" x="132.926578" xlink:href="#me9589e4cd2" y="289.909706"/>
      </g>
     </g>
     <g id="text_2">
      <!-- $\mathdefault{200}$ -->
      <g transform="translate(122.465806 306.595582)scale(0.14 -0.14)">
       <defs>
        <path d="M 1.59375 2.5 
L 1.59375 0 
C 20.296875 0 20.296875 0 23.90625 0 
C 27.5 0 27.5 0 46.796875 0 
C 46.59375 1.953125 46.59375 2.90625 46.59375 4.203125 
C 46.59375 5.4375 46.59375 6.359375 46.796875 8.421875 
C 35.296875 8.421875 30.703125 8.421875 12.203125 8.421875 
L 30.40625 27.515625 
C 40.09375 37.71875 43.09375 43.171875 43.09375 50.59375 
C 43.09375 61.96875 35.296875 69 22.59375 69 
C 15.40625 69 10.5 67 5.59375 62.015625 
L 3.90625 48.421875 
L 6.796875 48.421875 
L 8.09375 53.015625 
C 9.703125 58.796875 13.296875 61.296875 20 61.296875 
C 28.59375 61.296875 34.09375 55.890625 34.09375 47.421875 
C 34.09375 39.921875 29.90625 32.546875 18.59375 20.5625 
z
" id="URW_Palladio_L_Roman-50"/>
       </defs>
       <use transform="scale(0.996264)" xlink:href="#URW_Palladio_L_Roman-50"/>
       <use transform="translate(49.8132 0)scale(0.996264)" xlink:href="#URW_Palladio_L_Roman-48"/>
       <use transform="translate(99.626401 0)scale(0.996264)" xlink:href="#URW_Palladio_L_Roman-48"/>
      </g>
     </g>
    </g>
    <g id="xtick_3">
     <g id="line2d_3">
      <g>
       <use style="stroke:#000000;stroke-width:0.8;" x="193.013764" xlink:href="#me9589e4cd2" y="289.909706"/>
      </g>
     </g>
     <g id="text_3">
      <!-- $\mathdefault{400}$ -->
      <g transform="translate(182.552991 306.595582)scale(0.14 -0.14)">
       <defs>
        <path d="M 28 18 
L 28 10.515625 
C 28 4.515625 26.90625 3.109375 22 3.109375 
L 15.796875 3.109375 
L 15.796875 0 
C 29.09375 0 29.09375 0 31.5 0 
C 33.90625 0 33.90625 0 47.203125 0 
L 47.203125 3.109375 
L 42.40625 3.109375 
C 37.5 3.109375 36.40625 4.40625 36.40625 10.453125 
L 36.40625 18 
C 42.296875 18 44.40625 18 47.203125 17.703125 
L 47.203125 24.8125 
C 42.5 24.421875 40.59375 24.421875 39.09375 24.421875 
L 38.796875 24.421875 
L 36.40625 24.421875 
L 36.40625 38.390625 
C 36.40625 56.25 36.59375 64.875 37.09375 69 
L 35.90625 69.5 
L 28.5 66.796875 
L 0.203125 20.296875 
L 1.296875 18 
z
M 28 24.421875 
L 6.5 24.421875 
L 28 59.78125 
z
" id="URW_Palladio_L_Roman-52"/>
       </defs>
       <use transform="scale(0.996264)" xlink:href="#URW_Palladio_L_Roman-52"/>
       <use transform="translate(49.8132 0)scale(0.996264)" xlink:href="#URW_Palladio_L_Roman-48"/>
       <use transform="translate(99.626401 0)scale(0.996264)" xlink:href="#URW_Palladio_L_Roman-48"/>
      </g>
     </g>
    </g>
    <g id="xtick_4">
     <g id="line2d_4">
      <g>
       <use style="stroke:#000000;stroke-width:0.8;" x="253.100949" xlink:href="#me9589e4cd2" y="289.909706"/>
      </g>
     </g>
     <g id="text_4">
      <!-- $\mathdefault{600}$ -->
      <g transform="translate(242.640177 306.595582)scale(0.14 -0.14)">
       <defs>
        <path d="M 41.59375 67.34375 
L 37.90625 69.046875 
C 28.296875 65.84375 24.203125 63.84375 19.09375 59.4375 
C 8.796875 50.71875 3.203125 38.5 3.203125 24.765625 
C 3.203125 8.21875 11.203125 -2 24.09375 -2 
C 37.09375 -2 46.796875 8.3125 46.796875 21.953125 
C 46.796875 33.484375 39.90625 41 29.296875 41 
C 24.296875 41 21.296875 39.6875 15.40625 34.984375 
C 14.296875 34.078125 14.203125 33.984375 13.09375 33.1875 
C 15.203125 51.3125 23.59375 61.140625 41.59375 66.546875 
z
M 25.5 34.984375 
C 33.09375 34.984375 38.203125 28.375 38.203125 18.453125 
C 38.203125 8.015625 33.09375 1.296875 25.40625 1.296875 
C 16.90625 1.296875 12.296875 8.609375 12.296875 22.0625 
C 12.296875 25.5625 12.703125 27.46875 13.796875 29.171875 
C 16 32.578125 20.703125 34.984375 25.5 34.984375 
z
" id="URW_Palladio_L_Roman-54"/>
       </defs>
       <use transform="scale(0.996264)" xlink:href="#URW_Palladio_L_Roman-54"/>
       <use transform="translate(49.8132 0)scale(0.996264)" xlink:href="#URW_Palladio_L_Roman-48"/>
       <use transform="translate(99.626401 0)scale(0.996264)" xlink:href="#URW_Palladio_L_Roman-48"/>
      </g>
     </g>
    </g>
    <g id="xtick_5">
     <g id="line2d_5">
      <g>
       <use style="stroke:#000000;stroke-width:0.8;" x="313.188135" xlink:href="#me9589e4cd2" y="289.909706"/>
      </g>
     </g>
     <g id="text_5">
      <!-- $\mathdefault{800}$ -->
      <g transform="translate(302.727363 306.595582)scale(0.14 -0.14)">
       <defs>
        <path d="M 16.796875 34.546875 
C 12.703125 32.65625 11 31.546875 8.796875 29.4375 
C 5 25.640625 3 21.125 3 15.921875 
C 3 5.609375 11.296875 -2 22.59375 -2 
C 35.59375 -2 46.40625 8.21875 46.40625 20.625 
C 46.40625 28.640625 42.703125 32.953125 31.296875 38.15625 
C 40.40625 44.375 43.59375 48.578125 43.59375 54.578125 
C 43.59375 63.1875 36.5 69 25.90625 69 
C 14 69 5.296875 61.390625 5.296875 50.890625 
C 5.296875 44.078125 8 40.265625 16.796875 34.546875 
z
M 28.40625 29.546875 
C 34.703125 26.734375 38.5 21.828125 38.5 16.4375 
C 38.5 8.015625 32.203125 1.40625 24.09375 1.40625 
C 15.59375 1.40625 10.09375 7.421875 10.09375 16.734375 
C 10.09375 24.03125 13 28.640625 20.40625 33.15625 
z
M 22.296875 42.375 
C 16 45.46875 12.796875 49.484375 12.796875 54.484375 
C 12.796875 61.09375 17.59375 65.59375 24.703125 65.59375 
C 32 65.59375 36.796875 60.796875 36.796875 53.46875 
C 36.796875 47.78125 34.296875 43.875 27.796875 39.65625 
z
" id="URW_Palladio_L_Roman-56"/>
       </defs>
       <use transform="scale(0.996264)" xlink:href="#URW_Palladio_L_Roman-56"/>
       <use transform="translate(49.8132 0)scale(0.996264)" xlink:href="#URW_Palladio_L_Roman-48"/>
       <use transform="translate(99.626401 0)scale(0.996264)" xlink:href="#URW_Palladio_L_Roman-48"/>
      </g>
     </g>
    </g>
    <g id="xtick_6">
     <g id="line2d_6">
      <g>
       <use style="stroke:#000000;stroke-width:0.8;" x="373.275321" xlink:href="#me9589e4cd2" y="289.909706"/>
      </g>
     </g>
     <g id="text_6">
      <!-- $\mathdefault{1000}$ -->
      <g transform="translate(359.327624 306.595582)scale(0.14 -0.14)">
       <defs>
        <path d="M 6.703125 56 
L 7.703125 56 
L 20.59375 61.8125 
C 20.703125 61.90625 20.796875 61.90625 20.90625 61.90625 
C 21.5 61.90625 21.703125 61.015625 21.703125 58.609375 
L 21.703125 9.578125 
C 21.703125 4.3125 20.59375 3.203125 15.203125 3.203125 
L 9.59375 3.203125 
L 9.59375 0 
C 25 0 25 0 26.09375 0 
C 27.40625 0 29.59375 0 33 0 
C 34.203125 0 37.703125 0 41.796875 0 
L 41.796875 3.203125 
L 36.59375 3.203125 
C 31.09375 3.203125 30.09375 4.3125 30.09375 9.5625 
L 30.09375 69.421875 
L 28.703125 69.921875 
C 22.203125 66.515625 15.09375 63.515625 6 60.3125 
z
" id="URW_Palladio_L_Roman-49"/>
       </defs>
       <use transform="scale(0.996264)" xlink:href="#URW_Palladio_L_Roman-49"/>
       <use transform="translate(49.8132 0)scale(0.996264)" xlink:href="#URW_Palladio_L_Roman-48"/>
       <use transform="translate(99.626401 0)scale(0.996264)" xlink:href="#URW_Palladio_L_Roman-48"/>
       <use transform="translate(149.439601 0)scale(0.996264)" xlink:href="#URW_Palladio_L_Roman-48"/>
      </g>
     </g>
    </g>
    <g id="text_7">
     <!-- Energy [{$\mu$}K] -->
     <g transform="translate(181.652537 325.860528)scale(0.168 -0.168)">
      <defs>
       <path d="M 30.59375 6.765625 
C 22.59375 6.765625 19 6.765625 17.203125 6.765625 
L 17.203125 32.921875 
L 48.203125 32.921875 
L 48.203125 39 
L 17.203125 39 
L 17.203125 62.640625 
L 30.09375 62.640625 
C 31.296875 62.640625 32.5 62.640625 33.703125 62.640625 
L 50.796875 62.640625 
L 50.796875 69 
L 8.796875 69 
L 8.796875 0 
L 52.09375 0 
L 52.09375 6.765625 
z
" id="CMSS17-69"/>
       <path d="M 40.90625 29.328125 
C 40.90625 35.671875 39.40625 44 28.09375 44 
C 21.703125 44 17.5 40.71875 14.703125 37.328125 
L 14.703125 43.09375 
L 7.40625 43.09375 
L 7.40625 0 
L 15 0 
L 15 24.359375 
C 15 30.6875 17.40625 37.9375 24.203125 37.9375 
C 33 37.9375 33.296875 32 33.296875 28.578125 
L 33.296875 0 
L 40.90625 0 
z
" id="CMSS17-110"/>
       <path d="M 39.09375 21.515625 
C 39.09375 24.84375 38.90625 31.296875 35.703125 36.640625 
C 32.203125 42.390625 26.5 44 22.203125 44 
C 11.796875 44 3 34.1875 3 21.484375 
C 3 9.09375 12.09375 -1 23.59375 -1 
C 28.09375 -1 33.59375 0.296875 38.59375 3.875 
C 38.59375 4.28125 38.40625 6.46875 38.296875 6.5625 
C 38.296875 6.765625 38 9.84375 38 10.25 
C 33.203125 6.359375 27.703125 5.078125 23.703125 5.078125 
C 17.296875 5.078125 10.40625 10.421875 10.09375 21.515625 
z
M 10.90625 27 
C 12.203125 32.5625 16.59375 37.828125 22.203125 37.828125 
C 23.703125 37.828125 30.703125 37.828125 32.5 27 
z
" id="CMSS17-101"/>
       <path d="M 14.90625 21.296875 
C 14.90625 30.703125 21.796875 37 30.59375 37 
L 30.59375 43.578125 
C 24.203125 43.578125 18.203125 40.390625 14.59375 35.203125 
L 14.59375 43.09375 
L 7.5 43.09375 
L 7.5 0 
L 14.90625 0 
z
" id="CMSS17-114"/>
       <path d="M 44.5 43.875 
C 38.796875 43.875 33.90625 42.78125 29.90625 40.890625 
C 26.59375 43.390625 23.203125 43.875 20.90625 43.875 
C 12.203125 43.875 5.59375 36.703125 5.59375 28.34375 
C 5.59375 22.9375 8.59375 18.859375 8.796875 18.671875 
C 7 16.171875 6 13.484375 6 10.5 
C 6 7 7.40625 4.515625 8.5 3.125 
C 3.296875 -0.046875 2.59375 -4.90625 2.59375 -6.796875 
C 2.59375 -14.03125 11.703125 -20 23.40625 -20 
C 35.203125 -20 44.296875 -14.03125 44.296875 -6.6875 
C 44.296875 7 29 7 24.796875 7 
L 16.703125 7 
C 15.203125 7 11.203125 7 11.203125 12.359375 
C 11.203125 14.390625 12.09375 15.6875 12.203125 15.78125 
C 13.703125 14.6875 16.796875 13 20.90625 13 
C 29.203125 13 36.09375 19.96875 36.09375 28.546875 
C 36.09375 33.3125 33.90625 36.796875 33 38 
L 33.296875 38 
C 33.59375 38 37.796875 38 39.296875 38 
C 42.5 38 42.796875 37.953125 45.59375 37.796875 
z
M 20.90625 18.46875 
C 17.5 18.46875 12.703125 20.546875 12.703125 28.484375 
C 12.703125 37.109375 18.203125 38.5 20.796875 38.5 
C 24.203125 38.5 29 36.421875 29 28.484375 
C 29 19.859375 23.5 18.46875 20.90625 18.46875 
z
M 24.703125 -0.15625 
C 27.09375 -0.15625 37.203125 -0.15625 37.203125 -6.90625 
C 37.203125 -11.15625 31 -14.515625 23.5 -14.515625 
C 15.90625 -14.515625 9.703125 -11.25 9.703125 -6.796875 
C 9.703125 -6.296875 9.703125 -0.15625 16.59375 -0.15625 
z
" id="CMSS17-103"/>
       <path d="M 41.796875 43 
L 34 43 
C 25.5 20.21875 22.59375 10.96875 22.40625 5.984375 
L 22.296875 5.984375 
C 22 10.875 17.59375 22.8125 14.09375 31.359375 
L 9.40625 43 
L 1.296875 43 
L 19 0.203125 
C 17.90625 -2.78125 16.296875 -7.265625 15.796875 -8.265625 
C 13.59375 -13.828125 12.09375 -13.828125 10.5 -13.828125 
C 10.09375 -13.828125 6.90625 -13.828125 3.296875 -12.640625 
L 3.90625 -19.203125 
C 6.40625 -19.703125 8.90625 -20 10.703125 -20 
C 13.203125 -20 18.203125 -20 22.796875 -7.765625 
z
" id="CMSS17-121"/>
       <path d="M 25.203125 -25 
L 25.203125 -18.9375 
L 16.59375 -18.9375 
L 16.59375 68 
L 25.203125 68 
L 25.203125 74.078125 
L 9.296875 74.078125 
L 9.296875 -25 
z
" id="CMSS17-91"/>
       <path d="M 5.90625 39.09375 
L 6.59375 37.078125 
L 9.796875 39.1875 
C 12.703125 41 13.703125 41.5 14.59375 41.5 
C 15.59375 41.5 16.296875 40.59375 16.296875 39.484375 
C 16.296875 38.984375 16.203125 38.28125 3.203125 -26.796875 
L 4.59375 -27.609375 
L 7.59375 -26.40625 
C 9.90625 -25.5 10.796875 -24.5 10.90625 -23.1875 
L 12.09375 -0.796875 
C 13.296875 -0.9375 14 -1 14.296875 -1 
C 17.296875 -1 23.796875 4.125 30.40625 11.5625 
C 34.5 16.171875 36.59375 18.984375 39.703125 24.109375 
L 36.203125 10.75 
C 35.203125 6.890625 34.90625 4.671875 34.90625 3.046875 
C 34.90625 0.53125 36 -1 37.90625 -1 
C 40.5 -1 44.203125 1.265625 53.90625 8.609375 
L 52.90625 10.421875 
L 50.296875 8.71875 
C 47.796875 7.109375 45.40625 6 44.203125 6 
C 43.40625 6 42.90625 6.703125 42.90625 7.703125 
C 42.90625 8.515625 43.09375 10.125 43.5 11.71875 
C 45.796875 22.671875 48.90625 36.046875 51.90625 47.59375 
L 51.203125 48.5 
L 44.40625 46.78125 
L 43.40625 41.671875 
C 41.90625 34.03125 39.5 27.296875 36.59375 22.671875 
C 30.703125 13.4375 22.703125 6 18.59375 6 
C 17.703125 6 17.296875 6.90625 17.296875 8.609375 
C 17.296875 10.125 17.40625 11.21875 18 13.828125 
L 23.703125 41.0625 
C 24 42.671875 24.203125 44.078125 24.203125 45.28125 
C 24.203125 47.390625 23.40625 48.5 22 48.5 
C 19.90625 48.5 16.203125 46.484375 8.703125 41.078125 
z
" id="Pazo_Math_Italic-109"/>
       <path d="M 34.90625 41.65625 
L 59.796875 69 
L 50.203125 69 
L 17.203125 32.90625 
L 17.203125 69 
L 8.796875 69 
L 8.796875 0 
L 17.203125 0 
L 17.203125 22.375 
L 29.296875 35.59375 
L 51.796875 0 
L 61.09375 0 
z
" id="CMSS17-75"/>
       <path d="M 17.90625 74.078125 
L 2 74.078125 
L 2 68 
L 10.59375 68 
L 10.59375 -18.9375 
L 2 -18.9375 
L 2 -25 
L 17.90625 -25 
z
" id="CMSS17-93"/>
      </defs>
      <use transform="scale(0.996264)" xlink:href="#CMSS17-69"/>
      <use transform="translate(55.892013 0)scale(0.996264)" xlink:href="#CMSS17-110"/>
      <use transform="translate(104.096956 0)scale(0.996264)" xlink:href="#CMSS17-101"/>
      <use transform="translate(145.735778 0)scale(0.996264)" xlink:href="#CMSS17-114"/>
      <use transform="translate(177.645551 0)scale(0.996264)" xlink:href="#CMSS17-103"/>
      <use transform="translate(224.489175 0)scale(0.996264)" xlink:href="#CMSS17-121"/>
      <use transform="translate(298.718429 0)scale(0.996264)" xlink:href="#CMSS17-91"/>
      <use transform="translate(327.149167 0)scale(0.996264)" xlink:href="#Pazo_Math_Italic-109"/>
      <use transform="translate(386.47575 0)scale(0.996264)" xlink:href="#CMSS17-75"/>
      <use transform="translate(451.296043 0)scale(0.996264)" xlink:href="#CMSS17-93"/>
     </g>
    </g>
   </g>
   <g id="matplotlib.axis_2">
    <g id="ytick_1">
     <g id="line2d_7">
      <defs>
       <path d="M 0 0 
L -3.5 0 
" id="m2343c101d0" style="stroke:#000000;stroke-width:0.8;"/>
      </defs>
      <g>
       <use style="stroke:#000000;stroke-width:0.8;" x="58.133053" xlink:href="#m2343c101d0" y="277.419337"/>
      </g>
     </g>
     <g id="text_8">
      <!-- 0 -->
      <g transform="translate(44.304565 282.262275)scale(0.14 -0.14)">
       <defs>
        <path d="M 43.09375 31.9375 
C 43.09375 37.578125 43 48.078125 38.90625 56.1875 
C 34.796875 64 28.203125 66.078125 23.5 66.078125 
C 16.703125 66.078125 10.90625 62.109375 7.90625 55.78125 
C 4.703125 49.15625 3.796875 42.328125 3.796875 31.9375 
C 3.796875 24.828125 4.09375 16.109375 7.703125 8.484375 
C 11.796875 0.078125 18.703125 -2 23.40625 -2 
C 29.59375 -2 35.59375 1.265625 39 8.09375 
C 42.5 15.21875 43.09375 23.03125 43.09375 31.9375 
z
M 23.40625 4.078125 
C 15.796875 4.078125 13.5 12.671875 12.796875 15.546875 
C 11.59375 20.46875 11.40625 25.21875 11.40625 33.03125 
C 11.40625 39.15625 11.40625 46.0625 13.296875 51.515625 
C 15.59375 57.828125 19.59375 60 23.40625 60 
C 30.796875 60 33.203125 52.6875 34 50.125 
C 35.5 44.890625 35.5 38.765625 35.5 33.03125 
C 35.5 23.84375 35.5 4.078125 23.40625 4.078125 
z
" id="CMSS17-48"/>
       </defs>
       <use transform="scale(0.996264)" xlink:href="#CMSS17-48"/>
      </g>
     </g>
    </g>
    <g id="ytick_2">
     <g id="line2d_8">
      <g>
       <use style="stroke:#000000;stroke-width:0.8;" x="58.133053" xlink:href="#m2343c101d0" y="192.404874"/>
      </g>
     </g>
     <g id="text_9">
      <!-- $\frac{\pi}{4}$ -->
      <g transform="translate(43.416249 197.765501)scale(0.14 -0.14)">
       <defs>
        <path d="M 9.59375 35.578125 
L 10.5 36.28125 
C 12.59375 42.203125 16.59375 42.5 22.296875 42.5 
C 23.5 42.5 25.296875 42.5 27.40625 42.5 
C 19 19.59375 15.203125 12.65625 7.09375 -0.09375 
L 8 -1 
L 15.40625 1.578125 
C 19 9.359375 25.09375 24.484375 30.59375 42 
L 49.203125 42 
C 47.5 35.71875 41.703125 17.421875 41.703125 10.953125 
C 41.703125 0.328125 45.5 -1 48.59375 -1 
C 53.703125 -1 56.59375 0.3125 62.90625 5.625 
L 62.09375 7.53125 
L 59.703125 5.8125 
C 60 6.015625 57.09375 3.71875 55.40625 3.71875 
C 50.703125 3.71875 49.296875 6.640625 49.296875 12.859375 
C 49.296875 15.375 49.5 18.078125 50.09375 21 
C 51.796875 29.34375 53.5 37.578125 54.40625 41.703125 
C 56.703125 41.703125 59 41.703125 61.296875 42 
C 63.09375 42 65.296875 43.03125 66.90625 43.640625 
C 68 45.78125 68.40625 45.984375 70.296875 48.421875 
L 69.59375 49.625 
C 66.90625 48.71875 62.40625 47.71875 59.09375 47.71875 
C 57.90625 47.921875 55.40625 47.921875 52.90625 47.921875 
C 42.203125 47.921875 25.703125 47.921875 21.296875 47.921875 
C 13.796875 47.921875 11.09375 44.75 8.203125 36.375 
z
" id="Pazo_Math_Italic-112"/>
       </defs>
       <use transform="translate(0.946417 39.252796)scale(0.757155)" xlink:href="#Pazo_Math_Italic-112"/>
       <use transform="translate(8.631162 -34.371108)scale(0.757155)" xlink:href="#URW_Palladio_L_Roman-52"/>
       <path d="M 0 22.914087 
L 55.120067 22.914087 
L 55.120067 26.899128 
L 0 26.899128 
L 0 22.914087 
z
"/>
      </g>
     </g>
    </g>
    <g id="ytick_3">
     <g id="line2d_9">
      <g>
       <use style="stroke:#000000;stroke-width:0.8;" x="58.133053" xlink:href="#m2343c101d0" y="107.39041"/>
      </g>
     </g>
     <g id="text_10">
      <!-- $\frac{\pi}{2}$ -->
      <g transform="translate(43.416249 112.751037)scale(0.14 -0.14)">
       <use transform="translate(0.946417 39.252796)scale(0.757155)" xlink:href="#Pazo_Math_Italic-112"/>
       <use transform="translate(8.631162 -34.371108)scale(0.757155)" xlink:href="#URW_Palladio_L_Roman-50"/>
       <path d="M 0 22.914087 
L 55.120067 22.914087 
L 55.120067 26.899128 
L 0 26.899128 
L 0 22.914087 
z
"/>
      </g>
     </g>
    </g>
    <g id="ytick_4">
     <g id="line2d_10">
      <g>
       <use style="stroke:#000000;stroke-width:0.8;" x="58.133053" xlink:href="#m2343c101d0" y="22.375947"/>
      </g>
     </g>
     <g id="text_11">
      <!-- $\frac{3\pi}{4}$ -->
      <g transform="translate(38.116162 28.730307)scale(0.14 -0.14)">
       <defs>
        <path d="M 4.296875 49.953125 
L 7.40625 49.953125 
L 9.203125 55.53125 
C 10.296875 58.90625 16.59375 62.296875 21.796875 62.296875 
C 28.296875 62.296875 33.59375 57.015625 33.59375 50.75 
C 33.59375 43.28125 27.703125 37 20.59375 37 
C 19.796875 37 18.703125 37 17.40625 37.203125 
L 15.90625 37.203125 
L 14.703125 31.984375 
L 15.40625 31.375 
C 19.203125 33.09375 21.09375 33.59375 23.796875 33.59375 
C 32.09375 33.59375 36.90625 28.265625 36.90625 19.09375 
C 36.90625 8.84375 30.796875 2.109375 21.5 2.109375 
C 16.90625 2.109375 12.796875 3.609375 9.796875 6.421875 
C 7.40625 8.640625 6.09375 10.953125 4.203125 16.390625 
L 1.5 15.390625 
C 3.59375 9.265625 4.40625 5.640625 5 0.609375 
C 10.296875 -1.203125 14.703125 -2 18.40625 -2 
C 26.40625 -2 35.59375 2.515625 41.09375 9.265625 
C 44.5 13.390625 46.203125 17.8125 46.203125 22.53125 
C 46.203125 27.359375 44.203125 31.59375 40.59375 34.09375 
C 38.09375 35.90625 35.796875 36.71875 30.796875 37.609375 
C 38.796875 43.796875 41.796875 48.375 41.796875 54.25 
C 41.796875 63.125 34.40625 69 23.296875 69 
C 16.5 69 12 67.109375 7.203125 62.328125 
z
" id="URW_Palladio_L_Roman-51"/>
       </defs>
       <use transform="translate(0 39.252796)scale(0.757155)" xlink:href="#URW_Palladio_L_Roman-51"/>
       <use transform="translate(38.804176 39.252796)scale(0.757155)" xlink:href="#Pazo_Math_Italic-112"/>
       <use transform="translate(27.560041 -34.371108)scale(0.757155)" xlink:href="#URW_Palladio_L_Roman-52"/>
       <path d="M 0 22.914087 
L 92.977825 22.914087 
L 92.977825 26.899128 
L 0 26.899128 
L 0 22.914087 
z
"/>
      </g>
     </g>
    </g>
    <g id="text_12">
     <!-- $\delta_\mathrm{bg}$ -->
     <g transform="translate(27.020183 163.212628)rotate(-90)scale(0.168 -0.168)">
      <defs>
       <path d="M 44 68.1875 
C 42.296875 69.5 34.5 71 32 71 
C 24.09375 71 20.59375 66.625 20.59375 60.640625 
C 20.59375 55.265625 22.09375 52.0625 25.203125 45.984375 
C 24.296875 45.390625 23.40625 44.703125 22.703125 44.203125 
C 17.5 39.703125 12.40625 34.8125 8.40625 29.328125 
C 5.5 25.4375 1.703125 19.546875 1.703125 14.078125 
C 1.703125 1.59375 6.296875 -1 12.796875 -1 
C 17.203125 -1 21.09375 1.09375 26.09375 5.390625 
C 27 6.09375 27.796875 6.875 28.59375 7.78125 
C 33.5 12.765625 39.796875 20.53125 39.796875 28.40625 
C 39.796875 37.484375 36.203125 42.578125 32.796875 46.859375 
C 29.203125 51.453125 23.40625 58.71875 23.40625 63.109375 
C 23.40625 65.296875 25.296875 67.796875 28.796875 67.796875 
C 31.796875 67.796875 33.90625 66.609375 36.203125 65.5 
C 37 65.109375 40 63.21875 41.296875 60.71875 
L 42.296875 61.234375 
C 42.796875 62.8125 43.203125 65.390625 44.203125 67.296875 
z
M 32.203125 19.859375 
C 29 12.296875 22.5 4.03125 17 4.03125 
C 12.09375 4.03125 9.296875 8.609375 9.296875 15.1875 
C 9.296875 16.78125 10 19.46875 10.5 21.265625 
C 12.796875 29.4375 18.296875 36.203125 25.09375 41.703125 
C 25.59375 42.09375 26.203125 42.484375 27.09375 42.984375 
C 30 38 33.296875 32.21875 33.296875 25.0625 
C 33.296875 23.46875 32.59375 20.875 32.203125 19.859375 
z
" id="Pazo_Math_Italic-100"/>
       <path d="M 15 72.1875 
L 14.09375 73 
C 9.703125 71.296875 6.40625 70.484375 -1.5 69.28125 
L -1.5 66.484375 
L 4.09375 66.484375 
C 5.90625 66.484375 6.59375 65.375 6.59375 62.359375 
L 6.59375 15.453125 
C 6.59375 9.234375 6.5 6.5 5.796875 -0.515625 
L 7.40625 -1.109375 
L 11.40625 2.5 
C 15.40625 -0.109375 19 -1.109375 24.296875 -1.109375 
C 28.203125 -1.109375 30.796875 -0.40625 32.90625 1.09375 
L 42.90625 8.296875 
C 47.296875 11.484375 50.796875 19.78125 50.796875 27.078125 
C 50.796875 38.6875 43.296875 47 32.703125 47 
C 28 47 23.09375 45.1875 20.5 42.578125 
L 15 36.984375 
z
M 15 30.890625 
C 15 32.28125 16 34.078125 17.59375 35.890625 
C 20.40625 38.78125 24.296875 40.484375 28.40625 40.484375 
C 36.796875 40.484375 42.09375 33.6875 42.09375 23 
C 42.09375 11.796875 36.09375 4 27.59375 4 
C 22.40625 4 15 7.1875 15 9.390625 
z
" id="URW_Palladio_L_Roman-98"/>
       <path d="M 51.90625 38 
L 54.40625 42.109375 
L 54 43.109375 
L 39.796875 43.109375 
C 36.09375 45.890625 32.5 47 27.59375 47 
C 23.203125 47 18.09375 45.625 14 43.25 
C 8.40625 40.109375 5.5 35.28125 5.5 29.28125 
C 5.5 22 10.09375 16.984375 17.5 16.1875 
L 9.59375 10 
C 8.59375 8.484375 8.09375 7.171875 8.09375 5.640625 
C 8.09375 2.8125 9.90625 1.1875 14.703125 -0.21875 
L 6 -4.9375 
C 4.59375 -5.734375 3.203125 -9.4375 3.203125 -12.546875 
C 3.203125 -21.6875 12.09375 -28 24.796875 -28 
C 39.90625 -28 51.796875 -18.46875 51.796875 -6.234375 
C 51.796875 0.984375 47 6 40 6 
L 24 6 
C 18.796875 6 16.40625 7.21875 16.40625 9.984375 
C 16.40625 11.3125 17.203125 12.421875 19.796875 14.671875 
C 20.40625 15.1875 20.59375 15.390625 21 15.796875 
C 22 15.6875 22.59375 15.59375 23.40625 15.59375 
C 27.703125 15.59375 33 17.46875 37.09375 20.3125 
C 41.59375 23.546875 43.796875 27.484375 43.796875 32.703125 
C 43.796875 34.65625 43.5 35.9375 42.703125 38 
z
M 24 43.59375 
C 30.796875 43.59375 35.40625 38.09375 35.40625 29.765625 
C 35.40625 23.421875 31.203125 19 25.09375 19 
C 18.40625 19 13.90625 24.09375 13.90625 31.640625 
C 13.90625 39.171875 17.59375 43.59375 24 43.59375 
z
M 28.703125 -1.015625 
C 40 -1.015625 43.90625 -3.3125 43.90625 -9.84375 
C 43.90625 -18.46875 36 -24.890625 25.5 -24.890625 
C 16.796875 -24.890625 10.796875 -19.78125 10.796875 -12.34375 
C 10.796875 -7.84375 13.40625 -3.71875 17.40625 -2.015625 
C 19 -1.21875 21.796875 -1.015625 28.703125 -1.015625 
z
" id="URW_Palladio_L_Roman-103"/>
      </defs>
      <use transform="scale(0.996264)" xlink:href="#Pazo_Math_Italic-100"/>
      <use transform="translate(43.387316 -20.886626)scale(0.757155)" xlink:href="#URW_Palladio_L_Roman-98"/>
      <use transform="translate(85.257235 -20.886626)scale(0.757155)" xlink:href="#URW_Palladio_L_Roman-103"/>
     </g>
    </g>
   </g>
   <g id="LineCollection_1">
    <path clip-path="url(#p86681f3198)" d="M 119.707397 271.002948 
L 119.707397 251.472812 
" style="fill:none;stroke:#ff7f0e;stroke-opacity:0.7;stroke-width:1.5;"/>
    <path clip-path="url(#p86681f3198)" d="M 133.587537 233.474728 
L 133.587537 226.831284 
" style="fill:none;stroke:#ff7f0e;stroke-opacity:0.7;stroke-width:1.5;"/>
    <path clip-path="url(#p86681f3198)" d="M 139.836604 217.326972 
L 139.836604 209.716679 
" style="fill:none;stroke:#ff7f0e;stroke-opacity:0.7;stroke-width:1.5;"/>
    <path clip-path="url(#p86681f3198)" d="M 144.673623 206.912691 
L 144.673623 199.250654 
" style="fill:none;stroke:#ff7f0e;stroke-opacity:0.7;stroke-width:1.5;"/>
    <path clip-path="url(#p86681f3198)" d="M 148.188723 199.944549 
L 148.188723 190.495207 
" style="fill:none;stroke:#ff7f0e;stroke-opacity:0.7;stroke-width:1.5;"/>
    <path clip-path="url(#p86681f3198)" d="M 153.746788 168.186375 
L 153.746788 158.572662 
" style="fill:none;stroke:#ff7f0e;stroke-opacity:0.7;stroke-width:1.5;"/>
    <path clip-path="url(#p86681f3198)" d="M 157.86276 145.180767 
L 157.86276 139.695481 
" style="fill:none;stroke:#ff7f0e;stroke-opacity:0.7;stroke-width:1.5;"/>
    <path clip-path="url(#p86681f3198)" d="M 163.901522 123.18992 
L 163.901522 115.754586 
" style="fill:none;stroke:#ff7f0e;stroke-opacity:0.7;stroke-width:1.5;"/>
    <path clip-path="url(#p86681f3198)" d="M 170.961766 109.491157 
L 170.961766 100.325631 
" style="fill:none;stroke:#ff7f0e;stroke-opacity:0.7;stroke-width:1.5;"/>
    <path clip-path="url(#p86681f3198)" d="M 177.541313 79.589474 
L 177.541313 71.460714 
" style="fill:none;stroke:#ff7f0e;stroke-opacity:0.7;stroke-width:1.5;"/>
    <path clip-path="url(#p86681f3198)" d="M 191.421453 49.895223 
L 191.421453 39.623112 
" style="fill:none;stroke:#ff7f0e;stroke-opacity:0.7;stroke-width:1.5;"/>
    <path clip-path="url(#p86681f3198)" d="M 202.988236 46.639121 
L 202.988236 38.48576 
" style="fill:none;stroke:#ff7f0e;stroke-opacity:0.7;stroke-width:1.5;"/>
    <path clip-path="url(#p86681f3198)" d="M 222.75692 42.309978 
L 222.75692 30.213663 
" style="fill:none;stroke:#ff7f0e;stroke-opacity:0.7;stroke-width:1.5;"/>
    <path clip-path="url(#p86681f3198)" d="M 241.684384 46.224354 
L 241.684384 40.012907 
" style="fill:none;stroke:#ff7f0e;stroke-opacity:0.7;stroke-width:1.5;"/>
    <path clip-path="url(#p86681f3198)" d="M 257.45727 61.62444 
L 257.45727 41.636091 
" style="fill:none;stroke:#ff7f0e;stroke-opacity:0.7;stroke-width:1.5;"/>
    <path clip-path="url(#p86681f3198)" d="M 282.243234 58.950932 
L 282.243234 42.039152 
" style="fill:none;stroke:#ff7f0e;stroke-opacity:0.7;stroke-width:1.5;"/>
    <path clip-path="url(#p86681f3198)" d="M 328.119801 50.597474 
L 328.119801 40.965174 
" style="fill:none;stroke:#ff7f0e;stroke-opacity:0.7;stroke-width:1.5;"/>
   </g>
   <g id="line2d_11">
    <path clip-path="url(#p86681f3198)" d="M 73.139828 277.419265 
L 75.843751 276.536925 
L 78.848111 277.195503 
L 81.85247 277.16575 
L 84.856829 276.919616 
L 87.861189 276.57055 
L 90.865548 275.643876 
L 93.869907 274.04059 
L 96.874266 273.904798 
L 99.878626 273.005835 
L 102.882985 272.742711 
L 105.887344 271.740384 
L 108.891704 270.232018 
L 111.896063 268.467647 
L 114.900422 266.352161 
L 117.904781 263.829946 
L 120.909141 260.82798 
L 123.9135 257.250569 
L 126.917859 252.976773 
L 129.922219 247.859515 
L 132.926578 241.718922 
L 135.930937 234.343372 
L 138.935296 225.498007 
L 141.939656 214.669406 
L 144.944015 202.179523 
L 147.948374 187.809941 
L 150.952734 171.849127 
L 153.957093 154.934784 
L 156.961452 137.959428 
L 159.965811 121.827924 
L 162.970171 107.223195 
L 165.97453 94.47452 
L 168.978889 83.611001 
L 171.983249 74.480876 
L 174.987608 66.854897 
L 177.991967 60.492297 
L 180.996326 55.175862 
L 184.000686 50.720679 
L 187.005045 46.974254 
L 190.009404 43.812823 
L 193.013764 41.136592 
L 196.018123 38.865171 
L 199.022482 36.933641 
L 202.026841 35.289349 
L 205.031201 33.889349 
L 208.03556 32.698403 
L 211.039919 31.68741 
L 214.044279 30.832185 
L 217.048638 30.112501 
L 220.052997 29.51133 
L 223.057356 29.014263 
L 226.061716 28.609041 
L 229.066075 28.285184 
L 232.070434 28.03373 
L 235.074793 27.846872 
L 238.079153 27.717853 
L 241.083512 27.640769 
L 244.087871 27.610441 
L 247.092231 27.622345 
L 250.09659 27.672463 
L 253.100949 27.757273 
L 256.105308 27.873634 
L 259.109668 28.018766 
L 262.114027 28.190143 
L 265.118386 28.385473 
L 268.122746 28.602756 
L 271.127105 28.840134 
L 274.131464 29.09597 
L 277.135823 29.368857 
L 280.140183 29.657461 
L 283.144542 29.960699 
L 286.148901 30.277428 
L 289.153261 30.606545 
L 292.15762 30.947165 
L 295.161979 31.298381 
L 298.166338 31.659396 
L 301.170698 32.029467 
L 304.175057 32.407858 
L 307.179416 32.794128 
L 310.183776 33.187857 
L 313.188135 33.588509 
L 316.192494 33.995551 
L 319.196853 34.408599 
L 322.201213 34.827032 
L 325.205572 35.250584 
L 328.209931 35.678926 
L 331.214291 36.111595 
L 334.21865 36.548327 
L 337.223009 36.988942 
L 340.227368 37.433028 
L 343.231728 37.88066 
L 346.236087 38.331413 
L 349.240446 38.785133 
L 352.244806 39.241526 
L 355.249165 39.700256 
L 358.253524 40.161382 
L 361.257883 40.624654 
L 364.262243 41.089906 
L 367.266602 41.556835 
L 370.270961 42.025567 
L 373.275321 42.495673 
" style="fill:none;stroke:#1f77b4;stroke-linecap:square;stroke-opacity:0.5;stroke-width:1.5;"/>
    <defs>
     <path d="M 0 1.5 
C 0.397805 1.5 0.77937 1.341951 1.06066 1.06066 
C 1.341951 0.77937 1.5 0.397805 1.5 0 
C 1.5 -0.397805 1.341951 -0.77937 1.06066 -1.06066 
C 0.77937 -1.341951 0.397805 -1.5 0 -1.5 
C -0.397805 -1.5 -0.77937 -1.341951 -1.06066 -1.06066 
C -1.341951 -0.77937 -1.5 -0.397805 -1.5 0 
C -1.5 0.397805 -1.341951 0.77937 -1.06066 1.06066 
C -0.77937 1.341951 -0.397805 1.5 0 1.5 
z
" id="m5652e8bc78" style="stroke:#1f77b4;stroke-opacity:0.5;"/>
    </defs>
    <g clip-path="url(#p86681f3198)">
     <use style="fill:#1f77b4;fill-opacity:0.5;stroke:#1f77b4;stroke-opacity:0.5;" x="73.139828" xlink:href="#m5652e8bc78" y="277.419265"/>
     <use style="fill:#1f77b4;fill-opacity:0.5;stroke:#1f77b4;stroke-opacity:0.5;" x="75.843751" xlink:href="#m5652e8bc78" y="276.536925"/>
     <use style="fill:#1f77b4;fill-opacity:0.5;stroke:#1f77b4;stroke-opacity:0.5;" x="78.848111" xlink:href="#m5652e8bc78" y="277.195503"/>
     <use style="fill:#1f77b4;fill-opacity:0.5;stroke:#1f77b4;stroke-opacity:0.5;" x="81.85247" xlink:href="#m5652e8bc78" y="277.16575"/>
     <use style="fill:#1f77b4;fill-opacity:0.5;stroke:#1f77b4;stroke-opacity:0.5;" x="84.856829" xlink:href="#m5652e8bc78" y="276.919616"/>
     <use style="fill:#1f77b4;fill-opacity:0.5;stroke:#1f77b4;stroke-opacity:0.5;" x="87.861189" xlink:href="#m5652e8bc78" y="276.57055"/>
     <use style="fill:#1f77b4;fill-opacity:0.5;stroke:#1f77b4;stroke-opacity:0.5;" x="90.865548" xlink:href="#m5652e8bc78" y="275.643876"/>
     <use style="fill:#1f77b4;fill-opacity:0.5;stroke:#1f77b4;stroke-opacity:0.5;" x="93.869907" xlink:href="#m5652e8bc78" y="274.04059"/>
     <use style="fill:#1f77b4;fill-opacity:0.5;stroke:#1f77b4;stroke-opacity:0.5;" x="96.874266" xlink:href="#m5652e8bc78" y="273.904798"/>
     <use style="fill:#1f77b4;fill-opacity:0.5;stroke:#1f77b4;stroke-opacity:0.5;" x="99.878626" xlink:href="#m5652e8bc78" y="273.005835"/>
     <use style="fill:#1f77b4;fill-opacity:0.5;stroke:#1f77b4;stroke-opacity:0.5;" x="102.882985" xlink:href="#m5652e8bc78" y="272.742711"/>
     <use style="fill:#1f77b4;fill-opacity:0.5;stroke:#1f77b4;stroke-opacity:0.5;" x="105.887344" xlink:href="#m5652e8bc78" y="271.740384"/>
     <use style="fill:#1f77b4;fill-opacity:0.5;stroke:#1f77b4;stroke-opacity:0.5;" x="108.891704" xlink:href="#m5652e8bc78" y="270.232018"/>
     <use style="fill:#1f77b4;fill-opacity:0.5;stroke:#1f77b4;stroke-opacity:0.5;" x="111.896063" xlink:href="#m5652e8bc78" y="268.467647"/>
     <use style="fill:#1f77b4;fill-opacity:0.5;stroke:#1f77b4;stroke-opacity:0.5;" x="114.900422" xlink:href="#m5652e8bc78" y="266.352161"/>
     <use style="fill:#1f77b4;fill-opacity:0.5;stroke:#1f77b4;stroke-opacity:0.5;" x="117.904781" xlink:href="#m5652e8bc78" y="263.829946"/>
     <use style="fill:#1f77b4;fill-opacity:0.5;stroke:#1f77b4;stroke-opacity:0.5;" x="120.909141" xlink:href="#m5652e8bc78" y="260.82798"/>
     <use style="fill:#1f77b4;fill-opacity:0.5;stroke:#1f77b4;stroke-opacity:0.5;" x="123.9135" xlink:href="#m5652e8bc78" y="257.250569"/>
     <use style="fill:#1f77b4;fill-opacity:0.5;stroke:#1f77b4;stroke-opacity:0.5;" x="126.917859" xlink:href="#m5652e8bc78" y="252.976773"/>
     <use style="fill:#1f77b4;fill-opacity:0.5;stroke:#1f77b4;stroke-opacity:0.5;" x="129.922219" xlink:href="#m5652e8bc78" y="247.859515"/>
     <use style="fill:#1f77b4;fill-opacity:0.5;stroke:#1f77b4;stroke-opacity:0.5;" x="132.926578" xlink:href="#m5652e8bc78" y="241.718922"/>
     <use style="fill:#1f77b4;fill-opacity:0.5;stroke:#1f77b4;stroke-opacity:0.5;" x="135.930937" xlink:href="#m5652e8bc78" y="234.343372"/>
     <use style="fill:#1f77b4;fill-opacity:0.5;stroke:#1f77b4;stroke-opacity:0.5;" x="138.935296" xlink:href="#m5652e8bc78" y="225.498007"/>
     <use style="fill:#1f77b4;fill-opacity:0.5;stroke:#1f77b4;stroke-opacity:0.5;" x="141.939656" xlink:href="#m5652e8bc78" y="214.669406"/>
     <use style="fill:#1f77b4;fill-opacity:0.5;stroke:#1f77b4;stroke-opacity:0.5;" x="144.944015" xlink:href="#m5652e8bc78" y="202.179523"/>
     <use style="fill:#1f77b4;fill-opacity:0.5;stroke:#1f77b4;stroke-opacity:0.5;" x="147.948374" xlink:href="#m5652e8bc78" y="187.809941"/>
     <use style="fill:#1f77b4;fill-opacity:0.5;stroke:#1f77b4;stroke-opacity:0.5;" x="150.952734" xlink:href="#m5652e8bc78" y="171.849127"/>
     <use style="fill:#1f77b4;fill-opacity:0.5;stroke:#1f77b4;stroke-opacity:0.5;" x="153.957093" xlink:href="#m5652e8bc78" y="154.934784"/>
     <use style="fill:#1f77b4;fill-opacity:0.5;stroke:#1f77b4;stroke-opacity:0.5;" x="156.961452" xlink:href="#m5652e8bc78" y="137.959428"/>
     <use style="fill:#1f77b4;fill-opacity:0.5;stroke:#1f77b4;stroke-opacity:0.5;" x="159.965811" xlink:href="#m5652e8bc78" y="121.827924"/>
     <use style="fill:#1f77b4;fill-opacity:0.5;stroke:#1f77b4;stroke-opacity:0.5;" x="162.970171" xlink:href="#m5652e8bc78" y="107.223195"/>
     <use style="fill:#1f77b4;fill-opacity:0.5;stroke:#1f77b4;stroke-opacity:0.5;" x="165.97453" xlink:href="#m5652e8bc78" y="94.47452"/>
     <use style="fill:#1f77b4;fill-opacity:0.5;stroke:#1f77b4;stroke-opacity:0.5;" x="168.978889" xlink:href="#m5652e8bc78" y="83.611001"/>
     <use style="fill:#1f77b4;fill-opacity:0.5;stroke:#1f77b4;stroke-opacity:0.5;" x="171.983249" xlink:href="#m5652e8bc78" y="74.480876"/>
     <use style="fill:#1f77b4;fill-opacity:0.5;stroke:#1f77b4;stroke-opacity:0.5;" x="174.987608" xlink:href="#m5652e8bc78" y="66.854897"/>
     <use style="fill:#1f77b4;fill-opacity:0.5;stroke:#1f77b4;stroke-opacity:0.5;" x="177.991967" xlink:href="#m5652e8bc78" y="60.492297"/>
     <use style="fill:#1f77b4;fill-opacity:0.5;stroke:#1f77b4;stroke-opacity:0.5;" x="180.996326" xlink:href="#m5652e8bc78" y="55.175862"/>
     <use style="fill:#1f77b4;fill-opacity:0.5;stroke:#1f77b4;stroke-opacity:0.5;" x="184.000686" xlink:href="#m5652e8bc78" y="50.720679"/>
     <use style="fill:#1f77b4;fill-opacity:0.5;stroke:#1f77b4;stroke-opacity:0.5;" x="187.005045" xlink:href="#m5652e8bc78" y="46.974254"/>
     <use style="fill:#1f77b4;fill-opacity:0.5;stroke:#1f77b4;stroke-opacity:0.5;" x="190.009404" xlink:href="#m5652e8bc78" y="43.812823"/>
     <use style="fill:#1f77b4;fill-opacity:0.5;stroke:#1f77b4;stroke-opacity:0.5;" x="193.013764" xlink:href="#m5652e8bc78" y="41.136592"/>
     <use style="fill:#1f77b4;fill-opacity:0.5;stroke:#1f77b4;stroke-opacity:0.5;" x="196.018123" xlink:href="#m5652e8bc78" y="38.865171"/>
     <use style="fill:#1f77b4;fill-opacity:0.5;stroke:#1f77b4;stroke-opacity:0.5;" x="199.022482" xlink:href="#m5652e8bc78" y="36.933641"/>
     <use style="fill:#1f77b4;fill-opacity:0.5;stroke:#1f77b4;stroke-opacity:0.5;" x="202.026841" xlink:href="#m5652e8bc78" y="35.289349"/>
     <use style="fill:#1f77b4;fill-opacity:0.5;stroke:#1f77b4;stroke-opacity:0.5;" x="205.031201" xlink:href="#m5652e8bc78" y="33.889349"/>
     <use style="fill:#1f77b4;fill-opacity:0.5;stroke:#1f77b4;stroke-opacity:0.5;" x="208.03556" xlink:href="#m5652e8bc78" y="32.698403"/>
     <use style="fill:#1f77b4;fill-opacity:0.5;stroke:#1f77b4;stroke-opacity:0.5;" x="211.039919" xlink:href="#m5652e8bc78" y="31.68741"/>
     <use style="fill:#1f77b4;fill-opacity:0.5;stroke:#1f77b4;stroke-opacity:0.5;" x="214.044279" xlink:href="#m5652e8bc78" y="30.832185"/>
     <use style="fill:#1f77b4;fill-opacity:0.5;stroke:#1f77b4;stroke-opacity:0.5;" x="217.048638" xlink:href="#m5652e8bc78" y="30.112501"/>
     <use style="fill:#1f77b4;fill-opacity:0.5;stroke:#1f77b4;stroke-opacity:0.5;" x="220.052997" xlink:href="#m5652e8bc78" y="29.51133"/>
     <use style="fill:#1f77b4;fill-opacity:0.5;stroke:#1f77b4;stroke-opacity:0.5;" x="223.057356" xlink:href="#m5652e8bc78" y="29.014263"/>
     <use style="fill:#1f77b4;fill-opacity:0.5;stroke:#1f77b4;stroke-opacity:0.5;" x="226.061716" xlink:href="#m5652e8bc78" y="28.609041"/>
     <use style="fill:#1f77b4;fill-opacity:0.5;stroke:#1f77b4;stroke-opacity:0.5;" x="229.066075" xlink:href="#m5652e8bc78" y="28.285184"/>
     <use style="fill:#1f77b4;fill-opacity:0.5;stroke:#1f77b4;stroke-opacity:0.5;" x="232.070434" xlink:href="#m5652e8bc78" y="28.03373"/>
     <use style="fill:#1f77b4;fill-opacity:0.5;stroke:#1f77b4;stroke-opacity:0.5;" x="235.074793" xlink:href="#m5652e8bc78" y="27.846872"/>
     <use style="fill:#1f77b4;fill-opacity:0.5;stroke:#1f77b4;stroke-opacity:0.5;" x="238.079153" xlink:href="#m5652e8bc78" y="27.717853"/>
     <use style="fill:#1f77b4;fill-opacity:0.5;stroke:#1f77b4;stroke-opacity:0.5;" x="241.083512" xlink:href="#m5652e8bc78" y="27.640769"/>
     <use style="fill:#1f77b4;fill-opacity:0.5;stroke:#1f77b4;stroke-opacity:0.5;" x="244.087871" xlink:href="#m5652e8bc78" y="27.610441"/>
     <use style="fill:#1f77b4;fill-opacity:0.5;stroke:#1f77b4;stroke-opacity:0.5;" x="247.092231" xlink:href="#m5652e8bc78" y="27.622345"/>
     <use style="fill:#1f77b4;fill-opacity:0.5;stroke:#1f77b4;stroke-opacity:0.5;" x="250.09659" xlink:href="#m5652e8bc78" y="27.672463"/>
     <use style="fill:#1f77b4;fill-opacity:0.5;stroke:#1f77b4;stroke-opacity:0.5;" x="253.100949" xlink:href="#m5652e8bc78" y="27.757273"/>
     <use style="fill:#1f77b4;fill-opacity:0.5;stroke:#1f77b4;stroke-opacity:0.5;" x="256.105308" xlink:href="#m5652e8bc78" y="27.873634"/>
     <use style="fill:#1f77b4;fill-opacity:0.5;stroke:#1f77b4;stroke-opacity:0.5;" x="259.109668" xlink:href="#m5652e8bc78" y="28.018766"/>
     <use style="fill:#1f77b4;fill-opacity:0.5;stroke:#1f77b4;stroke-opacity:0.5;" x="262.114027" xlink:href="#m5652e8bc78" y="28.190143"/>
     <use style="fill:#1f77b4;fill-opacity:0.5;stroke:#1f77b4;stroke-opacity:0.5;" x="265.118386" xlink:href="#m5652e8bc78" y="28.385473"/>
     <use style="fill:#1f77b4;fill-opacity:0.5;stroke:#1f77b4;stroke-opacity:0.5;" x="268.122746" xlink:href="#m5652e8bc78" y="28.602756"/>
     <use style="fill:#1f77b4;fill-opacity:0.5;stroke:#1f77b4;stroke-opacity:0.5;" x="271.127105" xlink:href="#m5652e8bc78" y="28.840134"/>
     <use style="fill:#1f77b4;fill-opacity:0.5;stroke:#1f77b4;stroke-opacity:0.5;" x="274.131464" xlink:href="#m5652e8bc78" y="29.09597"/>
     <use style="fill:#1f77b4;fill-opacity:0.5;stroke:#1f77b4;stroke-opacity:0.5;" x="277.135823" xlink:href="#m5652e8bc78" y="29.368857"/>
     <use style="fill:#1f77b4;fill-opacity:0.5;stroke:#1f77b4;stroke-opacity:0.5;" x="280.140183" xlink:href="#m5652e8bc78" y="29.657461"/>
     <use style="fill:#1f77b4;fill-opacity:0.5;stroke:#1f77b4;stroke-opacity:0.5;" x="283.144542" xlink:href="#m5652e8bc78" y="29.960699"/>
     <use style="fill:#1f77b4;fill-opacity:0.5;stroke:#1f77b4;stroke-opacity:0.5;" x="286.148901" xlink:href="#m5652e8bc78" y="30.277428"/>
     <use style="fill:#1f77b4;fill-opacity:0.5;stroke:#1f77b4;stroke-opacity:0.5;" x="289.153261" xlink:href="#m5652e8bc78" y="30.606545"/>
     <use style="fill:#1f77b4;fill-opacity:0.5;stroke:#1f77b4;stroke-opacity:0.5;" x="292.15762" xlink:href="#m5652e8bc78" y="30.947165"/>
     <use style="fill:#1f77b4;fill-opacity:0.5;stroke:#1f77b4;stroke-opacity:0.5;" x="295.161979" xlink:href="#m5652e8bc78" y="31.298381"/>
     <use style="fill:#1f77b4;fill-opacity:0.5;stroke:#1f77b4;stroke-opacity:0.5;" x="298.166338" xlink:href="#m5652e8bc78" y="31.659396"/>
     <use style="fill:#1f77b4;fill-opacity:0.5;stroke:#1f77b4;stroke-opacity:0.5;" x="301.170698" xlink:href="#m5652e8bc78" y="32.029467"/>
     <use style="fill:#1f77b4;fill-opacity:0.5;stroke:#1f77b4;stroke-opacity:0.5;" x="304.175057" xlink:href="#m5652e8bc78" y="32.407858"/>
     <use style="fill:#1f77b4;fill-opacity:0.5;stroke:#1f77b4;stroke-opacity:0.5;" x="307.179416" xlink:href="#m5652e8bc78" y="32.794128"/>
     <use style="fill:#1f77b4;fill-opacity:0.5;stroke:#1f77b4;stroke-opacity:0.5;" x="310.183776" xlink:href="#m5652e8bc78" y="33.187857"/>
     <use style="fill:#1f77b4;fill-opacity:0.5;stroke:#1f77b4;stroke-opacity:0.5;" x="313.188135" xlink:href="#m5652e8bc78" y="33.588509"/>
     <use style="fill:#1f77b4;fill-opacity:0.5;stroke:#1f77b4;stroke-opacity:0.5;" x="316.192494" xlink:href="#m5652e8bc78" y="33.995551"/>
     <use style="fill:#1f77b4;fill-opacity:0.5;stroke:#1f77b4;stroke-opacity:0.5;" x="319.196853" xlink:href="#m5652e8bc78" y="34.408599"/>
     <use style="fill:#1f77b4;fill-opacity:0.5;stroke:#1f77b4;stroke-opacity:0.5;" x="322.201213" xlink:href="#m5652e8bc78" y="34.827032"/>
     <use style="fill:#1f77b4;fill-opacity:0.5;stroke:#1f77b4;stroke-opacity:0.5;" x="325.205572" xlink:href="#m5652e8bc78" y="35.250584"/>
     <use style="fill:#1f77b4;fill-opacity:0.5;stroke:#1f77b4;stroke-opacity:0.5;" x="328.209931" xlink:href="#m5652e8bc78" y="35.678926"/>
     <use style="fill:#1f77b4;fill-opacity:0.5;stroke:#1f77b4;stroke-opacity:0.5;" x="331.214291" xlink:href="#m5652e8bc78" y="36.111595"/>
     <use style="fill:#1f77b4;fill-opacity:0.5;stroke:#1f77b4;stroke-opacity:0.5;" x="334.21865" xlink:href="#m5652e8bc78" y="36.548327"/>
     <use style="fill:#1f77b4;fill-opacity:0.5;stroke:#1f77b4;stroke-opacity:0.5;" x="337.223009" xlink:href="#m5652e8bc78" y="36.988942"/>
     <use style="fill:#1f77b4;fill-opacity:0.5;stroke:#1f77b4;stroke-opacity:0.5;" x="340.227368" xlink:href="#m5652e8bc78" y="37.433028"/>
     <use style="fill:#1f77b4;fill-opacity:0.5;stroke:#1f77b4;stroke-opacity:0.5;" x="343.231728" xlink:href="#m5652e8bc78" y="37.88066"/>
     <use style="fill:#1f77b4;fill-opacity:0.5;stroke:#1f77b4;stroke-opacity:0.5;" x="346.236087" xlink:href="#m5652e8bc78" y="38.331413"/>
     <use style="fill:#1f77b4;fill-opacity:0.5;stroke:#1f77b4;stroke-opacity:0.5;" x="349.240446" xlink:href="#m5652e8bc78" y="38.785133"/>
     <use style="fill:#1f77b4;fill-opacity:0.5;stroke:#1f77b4;stroke-opacity:0.5;" x="352.244806" xlink:href="#m5652e8bc78" y="39.241526"/>
     <use style="fill:#1f77b4;fill-opacity:0.5;stroke:#1f77b4;stroke-opacity:0.5;" x="355.249165" xlink:href="#m5652e8bc78" y="39.700256"/>
     <use style="fill:#1f77b4;fill-opacity:0.5;stroke:#1f77b4;stroke-opacity:0.5;" x="358.253524" xlink:href="#m5652e8bc78" y="40.161382"/>
     <use style="fill:#1f77b4;fill-opacity:0.5;stroke:#1f77b4;stroke-opacity:0.5;" x="361.257883" xlink:href="#m5652e8bc78" y="40.624654"/>
     <use style="fill:#1f77b4;fill-opacity:0.5;stroke:#1f77b4;stroke-opacity:0.5;" x="364.262243" xlink:href="#m5652e8bc78" y="41.089906"/>
     <use style="fill:#1f77b4;fill-opacity:0.5;stroke:#1f77b4;stroke-opacity:0.5;" x="367.266602" xlink:href="#m5652e8bc78" y="41.556835"/>
     <use style="fill:#1f77b4;fill-opacity:0.5;stroke:#1f77b4;stroke-opacity:0.5;" x="370.270961" xlink:href="#m5652e8bc78" y="42.025567"/>
     <use style="fill:#1f77b4;fill-opacity:0.5;stroke:#1f77b4;stroke-opacity:0.5;" x="373.275321" xlink:href="#m5652e8bc78" y="42.495673"/>
    </g>
   </g>
   <g id="line2d_12">
    <defs>
     <path d="M 0 3 
C 0.795609 3 1.55874 2.683901 2.12132 2.12132 
C 2.683901 1.55874 3 0.795609 3 0 
C 3 -0.795609 2.683901 -1.55874 2.12132 -2.12132 
C 1.55874 -2.683901 0.795609 -3 0 -3 
C -0.795609 -3 -1.55874 -2.683901 -2.12132 -2.12132 
C -2.683901 -1.55874 -3 -0.795609 -3 0 
C -3 0.795609 -2.683901 1.55874 -2.12132 2.12132 
C -1.55874 2.683901 -0.795609 3 0 3 
z
" id="m6396eb784d" style="stroke:#ff7f0e;stroke-opacity:0.7;"/>
    </defs>
    <g clip-path="url(#p86681f3198)">
     <use style="fill:#ff7f0e;fill-opacity:0.7;stroke:#ff7f0e;stroke-opacity:0.7;" x="119.707397" xlink:href="#m6396eb784d" y="261.23788"/>
     <use style="fill:#ff7f0e;fill-opacity:0.7;stroke:#ff7f0e;stroke-opacity:0.7;" x="133.587537" xlink:href="#m6396eb784d" y="230.153006"/>
     <use style="fill:#ff7f0e;fill-opacity:0.7;stroke:#ff7f0e;stroke-opacity:0.7;" x="139.836604" xlink:href="#m6396eb784d" y="213.521825"/>
     <use style="fill:#ff7f0e;fill-opacity:0.7;stroke:#ff7f0e;stroke-opacity:0.7;" x="144.673623" xlink:href="#m6396eb784d" y="203.081672"/>
     <use style="fill:#ff7f0e;fill-opacity:0.7;stroke:#ff7f0e;stroke-opacity:0.7;" x="148.188723" xlink:href="#m6396eb784d" y="195.219878"/>
     <use style="fill:#ff7f0e;fill-opacity:0.7;stroke:#ff7f0e;stroke-opacity:0.7;" x="153.746788" xlink:href="#m6396eb784d" y="163.379519"/>
     <use style="fill:#ff7f0e;fill-opacity:0.7;stroke:#ff7f0e;stroke-opacity:0.7;" x="157.86276" xlink:href="#m6396eb784d" y="142.438124"/>
     <use style="fill:#ff7f0e;fill-opacity:0.7;stroke:#ff7f0e;stroke-opacity:0.7;" x="163.901522" xlink:href="#m6396eb784d" y="119.472253"/>
     <use style="fill:#ff7f0e;fill-opacity:0.7;stroke:#ff7f0e;stroke-opacity:0.7;" x="170.961766" xlink:href="#m6396eb784d" y="104.908394"/>
     <use style="fill:#ff7f0e;fill-opacity:0.7;stroke:#ff7f0e;stroke-opacity:0.7;" x="177.541313" xlink:href="#m6396eb784d" y="75.525094"/>
     <use style="fill:#ff7f0e;fill-opacity:0.7;stroke:#ff7f0e;stroke-opacity:0.7;" x="191.421453" xlink:href="#m6396eb784d" y="44.759168"/>
     <use style="fill:#ff7f0e;fill-opacity:0.7;stroke:#ff7f0e;stroke-opacity:0.7;" x="202.988236" xlink:href="#m6396eb784d" y="42.562441"/>
     <use style="fill:#ff7f0e;fill-opacity:0.7;stroke:#ff7f0e;stroke-opacity:0.7;" x="222.75692" xlink:href="#m6396eb784d" y="36.26182"/>
     <use style="fill:#ff7f0e;fill-opacity:0.7;stroke:#ff7f0e;stroke-opacity:0.7;" x="241.684384" xlink:href="#m6396eb784d" y="43.11863"/>
     <use style="fill:#ff7f0e;fill-opacity:0.7;stroke:#ff7f0e;stroke-opacity:0.7;" x="257.45727" xlink:href="#m6396eb784d" y="51.630266"/>
     <use style="fill:#ff7f0e;fill-opacity:0.7;stroke:#ff7f0e;stroke-opacity:0.7;" x="282.243234" xlink:href="#m6396eb784d" y="50.495042"/>
     <use style="fill:#ff7f0e;fill-opacity:0.7;stroke:#ff7f0e;stroke-opacity:0.7;" x="328.119801" xlink:href="#m6396eb784d" y="45.781324"/>
    </g>
   </g>
   <g id="patch_3">
    <path d="M 58.133053 289.909706 
L 58.133053 15.12 
" style="fill:none;stroke:#000000;stroke-linecap:square;stroke-linejoin:miter;stroke-width:0.8;"/>
   </g>
   <g id="patch_4">
    <path d="M 388.282095 289.909706 
L 388.282095 15.12 
" style="fill:none;stroke:#000000;stroke-linecap:square;stroke-linejoin:miter;stroke-width:0.8;"/>
   </g>
   <g id="patch_5">
    <path d="M 58.133053 289.909706 
L 388.282095 289.909706 
" style="fill:none;stroke:#000000;stroke-linecap:square;stroke-linejoin:miter;stroke-width:0.8;"/>
   </g>
   <g id="patch_6">
    <path d="M 58.133053 15.12 
L 388.282095 15.12 
" style="fill:none;stroke:#000000;stroke-linecap:square;stroke-linejoin:miter;stroke-width:0.8;"/>
   </g>
   <g id="text_13">
    <!-- a) -->
    <g transform="translate(68.037525 48.094765)scale(0.14 -0.14)">
     <defs>
      <path d="M 37.59375 27.984375 
C 37.59375 37.375 30.90625 43.875 21.90625 43.875 
C 17.5 43.875 12.703125 43.078125 7.203125 39.890625 
L 7.796875 33.359375 
C 10.296875 35.125 14.59375 38 21.796875 38 
C 26.90625 38 30 34.0625 30 27.84375 
L 30 24 
C 14 24 4 19.34375 4 11.34375 
C 4 7.203125 6.5 -1 14.796875 -1 
C 16.296875 -1 24.40625 -1 30.203125 3.390625 
L 30.203125 -0.296875 
L 37.59375 -0.296875 
z
M 30 12.75 
C 30 10.953125 30 8.5625 27 6.78125 
C 24.40625 5.078125 21.09375 5.078125 19.703125 5.078125 
C 14.703125 5.078125 11.296875 7.984375 11.296875 11.625 
C 11.296875 18.921875 26.90625 18.921875 30 18.921875 
z
" id="CMSS17-97"/>
      <path d="M 11.296875 -25 
C 16.703125 -19.515625 29.09375 -6.765625 29.09375 24.703125 
C 29.09375 56.265625 16.703125 68.921875 11.296875 74.5 
L 5.203125 74.5 
C 17.5 61.75 21.5 43.921875 21.5 24.8125 
C 21.5 5.78125 17.703125 -12.15625 5.203125 -25 
z
" id="CMSS17-41"/>
     </defs>
     <use transform="scale(0.996264)" xlink:href="#CMSS17-97"/>
     <use transform="translate(44.921921 0)scale(0.996264)" xlink:href="#CMSS17-41"/>
    </g>
   </g>
   <g id="patch_7">
    <path d="M 399.281314 256.052496 
Q 394.782 256.052496 390.282685 256.052496 
" style="fill:none;stroke:#000000;stroke-linecap:round;"/>
   </g>
   <g id="text_14">
    <!-- $5.0$ -->
    <g transform="translate(403.282095 259.53942)scale(0.14 -0.14)">
     <defs>
      <path d="M 12.703125 60.578125 
C 25.59375 60.578125 31.203125 60.578125 43.203125 60.578125 
L 43.703125 61.046875 
C 43.5 62.75 43.5 63.5 43.5 64.75 
C 43.5 66.078125 43.5 66.828125 43.703125 68.53125 
L 43.203125 69 
C 35.703125 69 31.203125 69 25.796875 69 
C 20.296875 69 15.90625 69 8.40625 69 
L 7.90625 68.796875 
C 8 62.671875 8.09375 58.265625 8.09375 55.046875 
C 8.09375 46.515625 7.796875 36.875 7.5 32.453125 
L 9.5 31.84375 
C 14.203125 36.578125 16.90625 38 21.796875 38 
C 31.40625 38 37.40625 31.140625 37.40625 20.25 
C 37.40625 9.0625 31 2.5 20.09375 2.5 
C 14.703125 2.5 9.703125 4.328125 8.296875 6.9375 
L 3.703125 15.203125 
L 1.296875 13.796875 
C 3.59375 8.0625 4.796875 4.84375 6.203125 0.421875 
C 9 -1.109375 13 -2 17.296875 -2 
C 24 -2 31.09375 0.921875 36.59375 5.75 
C 42.703125 11.1875 45.90625 18.03125 45.90625 25.46875 
C 45.90625 36.859375 37.796875 44.90625 26.40625 44.90625 
C 21.59375 44.90625 18 43.609375 11.796875 39.90625 
z
" id="URW_Palladio_L_Roman-53"/>
      <path d="M 12.40625 11.625 
C 9.40625 11.625 6.703125 8.8125 6.703125 5.8125 
C 6.703125 2.796875 9.40625 0 12.296875 0 
C 15.5 0 18.296875 2.703125 18.296875 5.8125 
C 18.296875 8.8125 15.5 11.625 12.40625 11.625 
z
" id="URW_Palladio_L_Roman-46"/>
     </defs>
     <use transform="scale(0.996264)" xlink:href="#URW_Palladio_L_Roman-53"/>
     <use transform="translate(49.8132 0)scale(0.996264)" xlink:href="#URW_Palladio_L_Roman-46"/>
     <use transform="translate(74.719801 0)scale(0.996264)" xlink:href="#URW_Palladio_L_Roman-48"/>
    </g>
   </g>
   <g id="patch_8">
    <path d="M 399.281314 192.404874 
Q 394.782 192.404874 390.282685 192.404874 
" style="fill:none;stroke:#000000;stroke-linecap:round;"/>
   </g>
   <g id="text_15">
    <!-- $1.0$ -->
    <g transform="translate(403.282095 195.891798)scale(0.14 -0.14)">
     <use transform="scale(0.996264)" xlink:href="#URW_Palladio_L_Roman-49"/>
     <use transform="translate(49.8132 0)scale(0.996264)" xlink:href="#URW_Palladio_L_Roman-46"/>
     <use transform="translate(74.719801 0)scale(0.996264)" xlink:href="#URW_Palladio_L_Roman-48"/>
    </g>
   </g>
   <g id="patch_9">
    <path d="M 399.281314 157.577378 
Q 394.782 157.577378 390.282685 157.577378 
" style="fill:none;stroke:#000000;stroke-linecap:round;"/>
   </g>
   <g id="text_16">
    <!-- $0.5$ -->
    <g transform="translate(403.282095 161.064302)scale(0.14 -0.14)">
     <use transform="scale(0.996264)" xlink:href="#URW_Palladio_L_Roman-48"/>
     <use transform="translate(49.8132 0)scale(0.996264)" xlink:href="#URW_Palladio_L_Roman-46"/>
     <use transform="translate(74.719801 0)scale(0.996264)" xlink:href="#URW_Palladio_L_Roman-53"/>
    </g>
   </g>
   <g id="patch_10">
    <path d="M 399.281314 107.39041 
Q 394.782 107.39041 390.282685 107.39041 
" style="fill:none;stroke:#000000;stroke-linecap:round;"/>
   </g>
   <g id="text_17">
    <!-- $0.0$ -->
    <g transform="translate(403.282095 110.877334)scale(0.14 -0.14)">
     <use transform="scale(0.996264)" xlink:href="#URW_Palladio_L_Roman-48"/>
     <use transform="translate(49.8132 0)scale(0.996264)" xlink:href="#URW_Palladio_L_Roman-46"/>
     <use transform="translate(74.719801 0)scale(0.996264)" xlink:href="#URW_Palladio_L_Roman-48"/>
    </g>
   </g>
   <g id="patch_11">
    <path d="M 399.277079 57.203442 
Q 394.779497 57.203442 390.281915 57.203442 
" style="fill:none;stroke:#000000;stroke-linecap:round;"/>
   </g>
   <g id="text_18">
    <!-- $-0.5$ -->
    <g transform="translate(403.282095 60.690366)scale(0.14 -0.14)">
     <defs>
      <path d="M 65.90625 23 
C 67.59375 23 69.40625 23 69.40625 25 
C 69.40625 27 67.59375 27 65.90625 27 
L 11.796875 27 
C 10.09375 27 8.296875 27 8.296875 25 
C 8.296875 23 10.09375 23 11.796875 23 
z
" id="CMSY10-0"/>
     </defs>
     <use transform="scale(1.038107)" xlink:href="#CMSY10-0"/>
     <use transform="translate(81.941696 0)scale(0.996264)" xlink:href="#URW_Palladio_L_Roman-48"/>
     <use transform="translate(131.754897 0)scale(0.996264)" xlink:href="#URW_Palladio_L_Roman-46"/>
     <use transform="translate(156.661497 0)scale(0.996264)" xlink:href="#URW_Palladio_L_Roman-53"/>
    </g>
   </g>
   <g id="patch_12">
    <path d="M 396.78002 57.203442 
Q 393.533132 57.203442 390.286244 57.203442 
" style="fill:none;stroke:#000000;stroke-linecap:round;stroke-width:0.3;"/>
   </g>
   <g id="patch_13">
    <path d="M 396.78002 66.202963 
Q 393.533132 66.202963 390.286244 66.202963 
" style="fill:none;stroke:#000000;stroke-linecap:round;stroke-width:0.3;"/>
   </g>
   <g id="patch_14">
    <path d="M 396.78002 75.842026 
Q 393.533132 75.842026 390.286244 75.842026 
" style="fill:none;stroke:#000000;stroke-linecap:round;stroke-width:0.3;"/>
   </g>
   <g id="patch_15">
    <path d="M 396.78002 86.023569 
Q 393.533132 86.023569 390.286244 86.023569 
" style="fill:none;stroke:#000000;stroke-linecap:round;stroke-width:0.3;"/>
   </g>
   <g id="patch_16">
    <path d="M 396.78002 96.601899 
Q 393.533132 96.601899 390.286244 96.601899 
" style="fill:none;stroke:#000000;stroke-linecap:round;stroke-width:0.3;"/>
   </g>
   <g id="patch_17">
    <path d="M 396.78002 107.39041 
Q 393.533132 107.39041 390.286244 107.39041 
" style="fill:none;stroke:#000000;stroke-linecap:round;stroke-width:0.3;"/>
   </g>
   <g id="patch_18">
    <path d="M 396.78002 118.178921 
Q 393.533132 118.178921 390.286244 118.178921 
" style="fill:none;stroke:#000000;stroke-linecap:round;stroke-width:0.3;"/>
   </g>
   <g id="patch_19">
    <path d="M 396.78002 128.757251 
Q 393.533132 128.757251 390.286244 128.757251 
" style="fill:none;stroke:#000000;stroke-linecap:round;stroke-width:0.3;"/>
   </g>
   <g id="patch_20">
    <path d="M 396.78002 138.938794 
Q 393.533132 138.938794 390.286244 138.938794 
" style="fill:none;stroke:#000000;stroke-linecap:round;stroke-width:0.3;"/>
   </g>
   <g id="patch_21">
    <path d="M 396.78002 148.577857 
Q 393.533132 148.577857 390.286244 148.577857 
" style="fill:none;stroke:#000000;stroke-linecap:round;stroke-width:0.3;"/>
   </g>
   <g id="patch_22">
    <path d="M 396.78002 157.577378 
Q 393.533132 157.577378 390.286244 157.577378 
" style="fill:none;stroke:#000000;stroke-linecap:round;stroke-width:0.3;"/>
   </g>
   <g id="patch_23">
    <path d="M 396.78002 165.887458 
Q 393.533132 165.887458 390.286244 165.887458 
" style="fill:none;stroke:#000000;stroke-linecap:round;stroke-width:0.3;"/>
   </g>
   <g id="patch_24">
    <path d="M 396.78002 173.497695 
Q 393.533132 173.497695 390.286244 173.497695 
" style="fill:none;stroke:#000000;stroke-linecap:round;stroke-width:0.3;"/>
   </g>
   <g id="patch_25">
    <path d="M 396.78002 180.426918 
Q 393.533132 180.426918 390.286244 180.426918 
" style="fill:none;stroke:#000000;stroke-linecap:round;stroke-width:0.3;"/>
   </g>
   <g id="patch_26">
    <path d="M 396.78002 186.713084 
Q 393.533132 186.713084 390.286244 186.713084 
" style="fill:none;stroke:#000000;stroke-linecap:round;stroke-width:0.3;"/>
   </g>
   <g id="patch_27">
    <path d="M 396.78002 192.404874 
Q 393.533132 192.404874 390.286244 192.404874 
" style="fill:none;stroke:#000000;stroke-linecap:round;stroke-width:0.3;"/>
   </g>
   <g id="patch_28">
    <path d="M 396.78002 197.555448 
Q 393.533132 197.555448 390.286244 197.555448 
" style="fill:none;stroke:#000000;stroke-linecap:round;stroke-width:0.3;"/>
   </g>
   <g id="patch_29">
    <path d="M 396.78002 202.218242 
Q 393.533132 202.218242 390.286244 202.218242 
" style="fill:none;stroke:#000000;stroke-linecap:round;stroke-width:0.3;"/>
   </g>
   <g id="patch_30">
    <path d="M 396.78002 206.444366 
Q 393.533132 206.444366 390.286244 206.444366 
" style="fill:none;stroke:#000000;stroke-linecap:round;stroke-width:0.3;"/>
   </g>
   <g id="patch_31">
    <path d="M 396.78002 210.28119 
Q 393.533132 210.28119 390.286244 210.28119 
" style="fill:none;stroke:#000000;stroke-linecap:round;stroke-width:0.3;"/>
   </g>
   <g id="patch_32">
    <path d="M 396.78002 213.771714 
Q 393.533132 213.771714 390.286244 213.771714 
" style="fill:none;stroke:#000000;stroke-linecap:round;stroke-width:0.3;"/>
   </g>
   <g id="patch_33">
    <path d="M 396.78002 216.954437 
Q 393.533132 216.954437 390.286244 216.954437 
" style="fill:none;stroke:#000000;stroke-linecap:round;stroke-width:0.3;"/>
   </g>
   <g id="patch_34">
    <path d="M 396.78002 219.863516 
Q 393.533132 219.863516 390.286244 219.863516 
" style="fill:none;stroke:#000000;stroke-linecap:round;stroke-width:0.3;"/>
   </g>
   <g id="patch_35">
    <path d="M 396.78002 222.52908 
Q 393.533132 222.52908 390.286244 222.52908 
" style="fill:none;stroke:#000000;stroke-linecap:round;stroke-width:0.3;"/>
   </g>
   <g id="patch_36">
    <path d="M 396.78002 224.977616 
Q 393.533132 224.977616 390.286244 224.977616 
" style="fill:none;stroke:#000000;stroke-linecap:round;stroke-width:0.3;"/>
   </g>
   <g id="patch_37">
    <path d="M 396.78002 227.232369 
Q 393.533132 227.232369 390.286244 227.232369 
" style="fill:none;stroke:#000000;stroke-linecap:round;stroke-width:0.3;"/>
   </g>
   <g id="patch_38">
    <path d="M 396.78002 229.313723 
Q 393.533132 229.313723 390.286244 229.313723 
" style="fill:none;stroke:#000000;stroke-linecap:round;stroke-width:0.3;"/>
   </g>
   <g id="patch_39">
    <path d="M 396.78002 231.239566 
Q 393.533132 231.239566 390.286244 231.239566 
" style="fill:none;stroke:#000000;stroke-linecap:round;stroke-width:0.3;"/>
   </g>
   <g id="patch_40">
    <path d="M 396.78002 233.025605 
Q 393.533132 233.025605 390.286244 233.025605 
" style="fill:none;stroke:#000000;stroke-linecap:round;stroke-width:0.3;"/>
   </g>
   <g id="patch_41">
    <path d="M 396.78002 234.685655 
Q 393.533132 234.685655 390.286244 234.685655 
" style="fill:none;stroke:#000000;stroke-linecap:round;stroke-width:0.3;"/>
   </g>
   <g id="patch_42">
    <path d="M 396.78002 236.23189 
Q 393.533132 236.23189 390.286244 236.23189 
" style="fill:none;stroke:#000000;stroke-linecap:round;stroke-width:0.3;"/>
   </g>
   <g id="patch_43">
    <path d="M 396.78002 237.675054 
Q 393.533132 237.675054 390.286244 237.675054 
" style="fill:none;stroke:#000000;stroke-linecap:round;stroke-width:0.3;"/>
   </g>
   <g id="patch_44">
    <path d="M 396.78002 239.024658 
Q 393.533132 239.024658 390.286244 239.024658 
" style="fill:none;stroke:#000000;stroke-linecap:round;stroke-width:0.3;"/>
   </g>
   <g id="patch_45">
    <path d="M 396.78002 240.28913 
Q 393.533132 240.28913 390.286244 240.28913 
" style="fill:none;stroke:#000000;stroke-linecap:round;stroke-width:0.3;"/>
   </g>
   <g id="patch_46">
    <path d="M 396.78002 241.475966 
Q 393.533132 241.475966 390.286244 241.475966 
" style="fill:none;stroke:#000000;stroke-linecap:round;stroke-width:0.3;"/>
   </g>
   <g id="patch_47">
    <path d="M 396.78002 242.591842 
Q 393.533132 242.591842 390.286244 242.591842 
" style="fill:none;stroke:#000000;stroke-linecap:round;stroke-width:0.3;"/>
   </g>
   <g id="patch_48">
    <path d="M 396.78002 243.642719 
Q 393.533132 243.642719 390.286244 243.642719 
" style="fill:none;stroke:#000000;stroke-linecap:round;stroke-width:0.3;"/>
   </g>
   <g id="patch_49">
    <path d="M 396.78002 244.633935 
Q 393.533132 244.633935 390.286244 244.633935 
" style="fill:none;stroke:#000000;stroke-linecap:round;stroke-width:0.3;"/>
   </g>
   <g id="patch_50">
    <path d="M 396.78002 245.570276 
Q 393.533132 245.570276 390.286244 245.570276 
" style="fill:none;stroke:#000000;stroke-linecap:round;stroke-width:0.3;"/>
   </g>
   <g id="patch_51">
    <path d="M 396.78002 246.456049 
Q 393.533132 246.456049 390.286244 246.456049 
" style="fill:none;stroke:#000000;stroke-linecap:round;stroke-width:0.3;"/>
   </g>
   <g id="patch_52">
    <path d="M 396.78002 247.295131 
Q 393.533132 247.295131 390.286244 247.295131 
" style="fill:none;stroke:#000000;stroke-linecap:round;stroke-width:0.3;"/>
   </g>
   <g id="patch_53">
    <path d="M 396.78002 248.091027 
Q 393.533132 248.091027 390.286244 248.091027 
" style="fill:none;stroke:#000000;stroke-linecap:round;stroke-width:0.3;"/>
   </g>
   <g id="patch_54">
    <path d="M 396.78002 248.846907 
Q 393.533132 248.846907 390.286244 248.846907 
" style="fill:none;stroke:#000000;stroke-linecap:round;stroke-width:0.3;"/>
   </g>
   <g id="patch_55">
    <path d="M 396.78002 249.565646 
Q 393.533132 249.565646 390.286244 249.565646 
" style="fill:none;stroke:#000000;stroke-linecap:round;stroke-width:0.3;"/>
   </g>
   <g id="patch_56">
    <path d="M 396.78002 250.249858 
Q 393.533132 250.249858 390.286244 250.249858 
" style="fill:none;stroke:#000000;stroke-linecap:round;stroke-width:0.3;"/>
   </g>
   <g id="patch_57">
    <path d="M 396.78002 250.901921 
Q 393.533132 250.901921 390.286244 250.901921 
" style="fill:none;stroke:#000000;stroke-linecap:round;stroke-width:0.3;"/>
   </g>
   <g id="patch_58">
    <path d="M 396.78002 251.524005 
Q 393.533132 251.524005 390.286244 251.524005 
" style="fill:none;stroke:#000000;stroke-linecap:round;stroke-width:0.3;"/>
   </g>
   <g id="patch_59">
    <path d="M 396.78002 252.118092 
Q 393.533132 252.118092 390.286244 252.118092 
" style="fill:none;stroke:#000000;stroke-linecap:round;stroke-width:0.3;"/>
   </g>
   <g id="patch_60">
    <path d="M 396.78002 252.685998 
Q 393.533132 252.685998 390.286244 252.685998 
" style="fill:none;stroke:#000000;stroke-linecap:round;stroke-width:0.3;"/>
   </g>
   <g id="patch_61">
    <path d="M 396.78002 253.229386 
Q 393.533132 253.229386 390.286244 253.229386 
" style="fill:none;stroke:#000000;stroke-linecap:round;stroke-width:0.3;"/>
   </g>
   <g id="patch_62">
    <path d="M 396.78002 253.749784 
Q 393.533132 253.749784 390.286244 253.749784 
" style="fill:none;stroke:#000000;stroke-linecap:round;stroke-width:0.3;"/>
   </g>
   <g id="patch_63">
    <path d="M 396.78002 254.2486 
Q 393.533132 254.2486 390.286244 254.2486 
" style="fill:none;stroke:#000000;stroke-linecap:round;stroke-width:0.3;"/>
   </g>
   <g id="patch_64">
    <path d="M 396.78002 254.727128 
Q 393.533132 254.727128 390.286244 254.727128 
" style="fill:none;stroke:#000000;stroke-linecap:round;stroke-width:0.3;"/>
   </g>
   <g id="patch_65">
    <path d="M 396.78002 255.186564 
Q 393.533132 255.186564 390.286244 255.186564 
" style="fill:none;stroke:#000000;stroke-linecap:round;stroke-width:0.3;"/>
   </g>
   <g id="patch_66">
    <path d="M 396.78002 255.628013 
Q 393.533132 255.628013 390.286244 255.628013 
" style="fill:none;stroke:#000000;stroke-linecap:round;stroke-width:0.3;"/>
   </g>
   <g id="text_19">
    <!-- $q$ parameter -->
    <g transform="translate(442.039766 186.534808)rotate(-90)scale(0.14 -0.14)">
     <defs>
      <path d="M 38.5 45.609375 
C 34.203125 47.296875 31.296875 48 28.40625 48 
C 25.703125 48 23.296875 47.203125 20.5 45.5 
C 16.90625 43.328125 12.5 39.75 10.296875 37.265625 
C 6.296875 32.59375 2.40625 18.09375 2.40625 7.84375 
C 2.40625 1.984375 3.59375 -1 6 -1 
C 8.203125 -1 10.09375 -0.203125 13.296875 1.984375 
L 14.09375 2.578125 
C 20.59375 7.140625 27.09375 14.296875 30.796875 20.859375 
L 23.203125 -20.3125 
C 22.703125 -22.703125 21.703125 -24.703125 20.5 -26 
L 21.40625 -27.390625 
C 24.5 -26.59375 27.59375 -26 30 -25.703125 
C 30.40625 -20.328125 31 -14.859375 31.90625 -9.875 
L 40.5 35.46875 
C 41.59375 41.53125 42.203125 44.109375 43.203125 47.203125 
L 41.796875 47.796875 
z
M 33 31 
C 31.90625 25.9375 29.703125 21.5625 26 16.984375 
C 20.796875 10.625 14.703125 5.953125 11.796875 5.953125 
C 10.40625 5.953125 9.59375 8.046875 9.59375 11.3125 
C 9.59375 20.859375 13.90625 35.765625 18.09375 40.734375 
C 19.296875 42.21875 22.203125 43.125 25.40625 43.125 
C 28.203125 43.125 30.296875 42.515625 35.09375 40.4375 
z
" id="URW_Palladio_L_Italic-113"/>
      <path d="M 15.09375 5.203125 
C 18.40625 2.015625 22.90625 -0.078125 27.703125 -0.078125 
C 37 -0.078125 45 9.421875 45 22.0625 
C 45 33.734375 39 44 30.40625 44 
C 25.40625 44 19.40625 42.21875 14.90625 38.625 
L 14.90625 43.203125 
L 7.5 43.203125 
L 7.5 -19 
L 15.09375 -19 
z
M 15.09375 32.8125 
C 15.90625 34 19.296875 37.734375 24.796875 37.734375 
C 31.796875 37.734375 37.40625 30.625 37.40625 22.0625 
C 37.40625 12.296875 30.59375 6 23.90625 6 
C 21.90625 6 19.796875 6.484375 17.796875 8.171875 
C 15.09375 10.53125 15.09375 12 15.09375 13.390625 
z
" id="CMSS17-112"/>
      <path d="M 67 29.328125 
C 67 36.0625 65.296875 44 54.09375 44 
C 46.59375 44 42.09375 39.3125 40.09375 36.421875 
C 38.296875 41.71875 34.09375 44 28.09375 44 
C 21.296875 44 17 40.125 14.703125 37.328125 
L 14.703125 43.09375 
L 7.40625 43.09375 
L 7.40625 0 
L 15 0 
L 15 24.359375 
C 15 30.296875 17.203125 37.9375 24.296875 37.9375 
C 33.40625 37.9375 33.40625 31.5 33.40625 28.578125 
L 33.40625 0 
L 41 0 
L 41 24.359375 
C 41 30.296875 43.203125 37.9375 50.296875 37.9375 
C 59.40625 37.9375 59.40625 31.5 59.40625 28.578125 
L 59.40625 0 
L 67 0 
z
" id="CMSS17-109"/>
      <path d="M 16.703125 37 
L 29.703125 37 
L 29.703125 42.765625 
L 16.703125 42.765625 
L 16.703125 55 
L 9.59375 55 
L 9.59375 42.765625 
L 1.703125 42.765625 
L 1.703125 37 
L 9.40625 37 
L 9.40625 11.703125 
C 9.40625 6 10.703125 -1 17.296875 -1 
C 22.296875 -1 26.90625 0.390625 31.296875 2.6875 
L 29.703125 8.5625 
C 27.296875 6.46875 24.40625 5.265625 21.296875 5.265625 
C 16.90625 5.265625 16.703125 10.875 16.703125 13.375 
z
" id="CMSS17-116"/>
     </defs>
     <use transform="scale(0.996264)" xlink:href="#URW_Palladio_L_Italic-113"/>
     <use transform="translate(78.600527 0)scale(0.996264)" xlink:href="#CMSS17-112"/>
     <use transform="translate(126.80547 0)scale(0.996264)" xlink:href="#CMSS17-97"/>
     <use transform="translate(169.124937 0)scale(0.996264)" xlink:href="#CMSS17-114"/>
     <use transform="translate(201.034709 0)scale(0.996264)" xlink:href="#CMSS17-97"/>
     <use transform="translate(245.95663 0)scale(0.996264)" xlink:href="#CMSS17-109"/>
     <use transform="translate(320.185884 0)scale(0.996264)" xlink:href="#CMSS17-101"/>
     <use transform="translate(361.824706 0)scale(0.996264)" xlink:href="#CMSS17-116"/>
     <use transform="translate(395.656273 0)scale(0.996264)" xlink:href="#CMSS17-101"/>
     <use transform="translate(437.295095 0)scale(0.996264)" xlink:href="#CMSS17-114"/>
    </g>
   </g>
  </g>
 </g>
 <defs>
  <clipPath id="p86681f3198">
   <rect height="274.789706" width="330.149042" x="58.133053" y="15.12"/>
  </clipPath>
 </defs>
</svg>
