<?xml version="1.0" encoding="UTF-8" standalone="no"?>
<!-- Created with Inkscape (http://www.inkscape.org/) -->

<svg
   xmlns:dc="http://purl.org/dc/elements/1.1/"
   xmlns:cc="http://creativecommons.org/ns#"
   xmlns:rdf="http://www.w3.org/1999/02/22-rdf-syntax-ns#"
   xmlns:svg="http://www.w3.org/2000/svg"
   xmlns="http://www.w3.org/2000/svg"
   xmlns:sodipodi="http://sodipodi.sourceforge.net/DTD/sodipodi-0.dtd"
   xmlns:inkscape="http://www.inkscape.org/namespaces/inkscape"
   version="1.1"
   id="svg2"
   xml:space="preserve"
   width="614.40002"
   height="460.79999"
   viewBox="0 0 614.40002 460.79999"
   sodipodi:docname="ResPotentialsBare.svg"
   inkscape:version="0.92.3 (2405546, 2018-03-11)"><metadata
     id="metadata8"><rdf:RDF><cc:Work
         rdf:about=""><dc:format>image/svg+xml</dc:format><dc:type
           rdf:resource="http://purl.org/dc/dcmitype/StillImage" /><dc:title></dc:title></cc:Work></rdf:RDF></metadata><defs
     id="defs6"><clipPath
       clipPathUnits="userSpaceOnUse"
       id="clipPath30"><path
         d="M 32.8,32.8 H 443.16 V 327.96 H 32.8 Z"
         id="path28"
         inkscape:connector-curvature="0" /></clipPath><clipPath
       clipPathUnits="userSpaceOnUse"
       id="clipPath40"><path
         d="M 32.8,32.8 H 443.16 V 327.96 H 32.8 Z"
         id="path38"
         inkscape:connector-curvature="0" /></clipPath><clipPath
       clipPathUnits="userSpaceOnUse"
       id="clipPath50"><path
         d="M 32.8,32.8 H 443.16 V 327.96 H 32.8 Z"
         id="path48"
         inkscape:connector-curvature="0" /></clipPath><clipPath
       clipPathUnits="userSpaceOnUse"
       id="clipPath60"><path
         d="M 32.8,32.8 H 443.16 V 327.96 H 32.8 Z"
         id="path58"
         inkscape:connector-curvature="0" /></clipPath><clipPath
       clipPathUnits="userSpaceOnUse"
       id="clipPath70"><path
         d="M 32.8,32.8 H 443.16 V 327.96 H 32.8 Z"
         id="path68"
         inkscape:connector-curvature="0" /></clipPath><clipPath
       clipPathUnits="userSpaceOnUse"
       id="clipPath80"><path
         d="M 32.8,32.8 H 443.16 V 327.96 H 32.8 Z"
         id="path78"
         inkscape:connector-curvature="0" /></clipPath></defs><sodipodi:namedview
     pagecolor="#ffffff"
     bordercolor="#666666"
     borderopacity="1"
     objecttolerance="10"
     gridtolerance="10"
     guidetolerance="10"
     inkscape:pageopacity="0"
     inkscape:pageshadow="2"
     inkscape:window-width="2560"
     inkscape:window-height="1375"
     id="namedview4"
     showgrid="false"
     inkscape:zoom="1.9466145"
     inkscape:cx="346.95538"
     inkscape:cy="233.75253"
     inkscape:window-x="0"
     inkscape:window-y="0"
     inkscape:window-maximized="1"
     inkscape:current-layer="g10" /><g
     id="g10"
     inkscape:groupmode="layer"
     inkscape:label="potentials"
     transform="matrix(1.3333333,0,0,-1.3333333,0,460.8)"><path
       d="M 0,0 H 460.8 V 345.6 H 0 Z"
       style="fill:#ffffff;fill-opacity:1;fill-rule:nonzero;stroke:none"
       id="path12"
       inkscape:connector-curvature="0" /><path
       d="M 32.8,32.8 H 443.16 V 327.96 H 32.8 Z"
       style="fill:#ffffff;fill-opacity:1;fill-rule:nonzero;stroke:none"
       id="path14"
       inkscape:connector-curvature="0" /><text
       transform="matrix(1,0,0,-1,199.92531,18.159375)"
       style="font-variant:normal;font-weight:normal;font-size:14px;font-family:'DejaVu Sans';-inkscape-font-specification:DejaVuSans;writing-mode:lr-tb;fill:#000000;fill-opacity:1;fill-rule:nonzero;stroke:none"
       id="text18"><tspan
         x="0 8.8900003 17.5 26.389999 34.972 40.726002 49.307999 54.796001 58.688 67.255997"
         y="0"
         sodipodi:role="line"
         id="tspan16">Separation</tspan></text>
<text
       transform="matrix(0,1,1,0,25.89375,155.755)"
       style="font-variant:normal;font-weight:normal;font-size:14px;font-family:'DejaVu Sans';-inkscape-font-specification:DejaVuSans;writing-mode:lr-tb;fill:#000000;fill-opacity:1;fill-rule:nonzero;stroke:none"
       id="text22"><tspan
         x="0 8.8479996 17.724001 26.334 32.088001 40.978001"
         y="0"
         sodipodi:role="line"
         id="tspan20">Energy</tspan></text>
<g
       id="g24"><g
         id="g26"
         clip-path="url(#clipPath30)"><path
           d="m 57.317593,346.6 1.411517,-50.21758 1.492591,-45.26101 1.492592,-38.58225 1.492591,-33.02088 1.492591,-28.32371 1.492592,-24.31927 1.492591,-20.80309 1.399304,-16.627499 1.399305,-14.081462 1.306017,-11.018919 1.212731,-8.525449 1.21273,-6.994742 1.119444,-5.190007 1.026156,-3.76127 0.93287,-2.646337 0.839582,-1.791575 0.746296,-1.150875 0.746296,-0.758964 0.653008,-0.360209 0.653009,-0.09201 0.653009,0.161742 0.653008,0.40136 0.746296,0.73439 0.839583,1.153717 0.932869,1.656189 1.119444,2.4577 1.306017,3.439806 1.492592,4.576199 1.772452,6.163197 2.238887,8.637677 3.078469,12.859373 9.701848,41.161148 2.98518,11.3898 2.70532,9.46893 2.51875,8.02422 2.42546,6.9874 2.33217,6.04164 2.23889,5.1972 2.23889,4.63769 2.1456,3.95389 2.1456,3.51057 2.1456,3.10515 2.23888,2.84902 2.23889,2.49104 2.33217,2.25719 2.33218,1.95407 2.42546,1.75187 2.61203,1.61068 2.79861,1.45537 2.98519,1.2939 3.26504,1.16338 3.5449,1.02202 4.01134,0.91731 4.57106,0.80756 5.31736,0.70346 6.34351,0.60421 7.74282,0.50566 9.98171,0.41858 13.61989,0.33462 20.0567,0.25041 33.30344,0.1678 70.33837,0.0887 93.10038,0.0191 v 0"
           style="fill:none;stroke:#1f77b4;stroke-width:2;stroke-linecap:butt;stroke-linejoin:round;stroke-miterlimit:10;stroke-dasharray:7.4, 3.2;stroke-dashoffset:0;stroke-opacity:1"
           id="path32"
           inkscape:connector-curvature="0" /></g></g><g
       id="g74"><g
         id="g76"
         clip-path="url(#clipPath80)"><path
           d="M 32.8,201.46286 H 443.16"
           style="fill:none;stroke:#808080;stroke-width:1.5;stroke-linecap:square;stroke-linejoin:round;stroke-miterlimit:10;stroke-dasharray:none;stroke-opacity:0.2"
           id="path82"
           inkscape:connector-curvature="0" /></g></g><g
       id="g84"><path
         d="M 32.8,32.8 V 327.96"
         style="fill:none;stroke:#000000;stroke-width:0.80000001;stroke-linecap:square;stroke-linejoin:miter;stroke-miterlimit:10;stroke-dasharray:none;stroke-opacity:1"
         id="path86"
         inkscape:connector-curvature="0" /><path
         d="M 32.8,32.8 H 443.16"
         style="fill:none;stroke:#000000;stroke-width:0.80000001;stroke-linecap:square;stroke-linejoin:miter;stroke-miterlimit:10;stroke-dasharray:none;stroke-opacity:1"
         id="path88"
         inkscape:connector-curvature="0" /><path
         d="m 384.68257,214.11257 c -21.58845,0 -42.05888,0 -61.41127,0"
         style="fill:none;stroke:#9467bd;stroke-width:3;stroke-linecap:round;stroke-linejoin:round;stroke-miterlimit:10;stroke-dasharray:none;stroke-opacity:1"
         id="path90"
         inkscape:connector-curvature="0" /><path
         d="m 328.8713,211.31257 -5.6,2.8 5.6,2.8"
         style="fill:none;stroke:#9467bd;stroke-width:3;stroke-linecap:round;stroke-linejoin:round;stroke-miterlimit:10;stroke-dasharray:none;stroke-opacity:1"
         id="path92"
         inkscape:connector-curvature="0" /></g></g></svg>